<svg width="320" height="60" viewBox="0 0 320 60" fill="none" xmlns="http://www.w3.org/2000/svg">
<g filter="url(#filter0_d_268_213)">
<rect x="0.5" width="319" height="56" fill="#F08B1B"/>
</g>
<path d="M73.76 37.4998V19.5998H91.12V34.2798C91.12 36.6198 90.16 37.4598 87.5 37.4198H85.72V35.0998C84.94 35.6398 84.5 35.7598 83.22 35.7798H78V27.7398H86.8V32.1798C86.78 33.2198 86.76 33.3398 86.52 33.9998H87.74V22.5198H77.12V37.4998H73.76ZM81.2 32.6998H83.48V30.4598H81.2V32.6998ZM78 26.6198V23.6398H86.74V26.6198H78ZM96.88 32.7598H100.02C99.64 34.2998 99.22 35.5598 98.62 36.9398H95.18C96.04 35.3998 96.34 34.6398 96.88 32.7598ZM95.3 23.0598H98.92L98.36 22.2798H96.14V20.1198H102.84V19.2598H106.18V20.1198H112.38V22.2798H110.6L109.82 23.0598H113.48V25.1598H95.3V23.0598ZM106.72 22.2798H101.94L102.6 23.0598H106.16L106.72 22.2798ZM97 31.9998V25.7998H112V29.6198C112.02 31.6798 111.52 32.0798 109 31.9998H97ZM100.32 28.1198H108.6V27.4598H100.32V28.1198ZM100.32 30.1798H108.6V29.4398H100.32V30.1798ZM100.96 32.3998H104.32V34.9398H111.14C112.26 34.9198 112.72 34.7598 113.26 34.1598V36.6598C112.8 37.0998 112.12 37.2798 110.9 37.2798H104.56C101.7 37.3598 101.04 36.9398 100.96 34.9998V32.3998ZM104.9 32.5998H107.9L108.9 34.4398H105.84L104.9 32.5998ZM108.74 32.5998H111.68L112.68 34.4398H109.74L108.74 32.5998ZM119.46 19.5598H123.06L122.98 29.6998L122.96 30.4198V30.8998C122.96 32.1998 123.08 32.9198 123.38 33.3398C123.74 33.8198 124.58 34.0798 125.78 34.0798C127.46 34.0798 128.82 33.5198 129.72 32.4398C130.64 31.3198 131.02 29.8398 131.14 26.9398H134.86C134.44 31.4998 133.94 33.2398 132.54 34.8598C131.14 36.4998 128.5 37.5198 125.7 37.5198C122.74 37.5198 120.74 36.5398 119.9 34.6798C119.54 33.8998 119.38 32.1798 119.4 29.2998L119.46 19.5598ZM140.38 24.0798V20.5798L156.34 20.4998V23.6798C155.76 23.8798 155.2 24.0598 154.66 24.2398C151.68 25.1998 150.4 25.8998 149.12 27.3198C148.18 28.3598 147.7 29.4798 147.7 30.6398C147.7 31.5398 148.14 32.4598 148.76 32.8198C149.5 33.2598 150.82 33.4998 152.62 33.4998C153.22 33.4998 154.28 33.4398 155.46 33.3598V36.8598C154.28 36.9198 153.18 36.9398 152.56 36.9398C149.76 36.9398 147.86 36.5798 146.4 35.7398C144.78 34.8398 143.88 33.1198 143.88 30.9798C143.88 29.5798 144.28 28.2398 145.08 26.9998C145.86 25.7798 146.58 25.0998 148.26 23.9398L140.38 24.0798ZM161.44 37.2598V33.8198C162.6 33.5598 163.26 32.7998 163.28 31.6998V28.7398H161.52V25.5798H166.5V30.9398C166.52 31.8198 166.66 32.2198 167.26 32.9998C168.64 31.8798 169.94 30.1198 170.6 28.4398H167.2V25.5798H171.38V24.1198H167.64V21.1798H169.48L168.46 19.2998H171.92L172.82 21.1798H173.68L174.62 19.2598H178.08L177.02 21.1798H178.66V24.1198H174.98V25.5798H179.18V28.4398H175.76C176.94 30.3198 177.88 31.4998 179.42 33.0798H175.08C174.22 32.0398 173.68 31.1998 173.3 30.2998C172.42 31.8398 172.04 32.3398 171.14 33.2198H167.44C168.26 33.8398 168.9 33.9798 171.22 33.9998H179.68V37.1198H170.98C167.82 37.1798 166.8 36.7398 165.44 34.7798C164.4 36.3198 163.2 37.0598 161.44 37.2598ZM161.84 22.8798V19.6398C163.56 19.9598 164.58 20.1998 166.74 20.7398V24.1198C164.06 23.3998 163.38 23.2198 161.84 22.8798ZM186.64 19.0998H190C189.66 20.6398 189.12 22.2998 188.36 24.1398V37.3398H185.08V28.6798C184.44 29.3798 184.12 29.7198 183.4 30.4398V25.6198C185.14 23.7398 186.22 21.5598 186.64 19.0998ZM189.12 22.4198H201.52V24.8998H189.12V22.4198ZM189.98 31.2598H200.96V34.0798C200.98 36.2798 200.3 36.9598 198.04 37.0398H189.98V31.2598ZM197.66 34.4798V33.3198H193.08V34.4798H197.66ZM190.36 30.5998V28.4798H200.34V30.5998H190.36ZM190.36 27.7998V25.5798H200.34V27.7998H190.36ZM190.7 21.7998V19.3598H200.4V21.7998H190.7ZM205.84 24.6598V21.5798L214.62 21.5198V19.4398H218.18V21.4598L222.84 21.3998V24.5198L218.18 24.5598V32.1398C218.2 33.7398 217.88 34.7398 216.98 35.7798C215.78 37.0198 214.7 37.3598 212.12 37.3398H208.6V34.1198H211.82C214.16 34.1198 214.62 33.7998 214.78 32.0798C213.72 32.5798 213.14 32.7198 212.22 32.7198C210 32.7198 208.34 31.1998 208.34 29.1598C208.34 28.1198 208.78 27.1998 209.68 26.4198C210.54 25.6798 211.42 25.3798 212.8 25.3798C213.4 25.3798 213.8 25.4398 214.62 25.6198V24.5598L205.84 24.6598ZM213.12 28.0598C212.34 28.0598 211.64 28.5398 211.64 29.0598C211.64 29.5998 212.2 29.9798 213.02 29.9798C213.92 29.9798 214.52 29.5598 214.52 28.9398C214.52 28.4198 213.94 28.0598 213.12 28.0598ZM237.44 23.0598L230.34 23.1798V20.1198H242.66V23.0598L237.98 25.8798C238.92 25.7598 239.28 25.7398 239.72 25.7398C242.66 25.7398 244.94 27.9398 244.94 30.8198C244.94 32.6998 244.2 34.4398 242.94 35.5798C241.54 36.8198 239.52 37.4198 236.74 37.4198C232.5 37.4198 230.26 36.1398 230.26 33.6798C230.26 31.6398 232.06 30.0598 234.4 30.0598C236.66 30.0598 238.44 31.4798 238.44 33.2798C238.44 33.4798 238.42 33.8198 238.38 34.1398C239.66 33.9998 240.28 33.7398 240.74 33.1198C241.16 32.5598 241.4 31.8398 241.4 31.0598C241.4 29.3198 240.18 28.3798 237.92 28.3798C235.88 28.3798 234.12 28.7598 231.98 29.6998C230.34 30.3998 229.6 30.8198 228.36 31.7598V28.2798C228.52 28.1598 228.98 27.8798 229.02 27.8598C229.68 27.4998 230.34 27.0998 231 26.7198C231.46 26.4598 232.18 26.0398 232.96 25.5798C235.08 24.3198 235.32 24.1798 237.44 23.0598ZM235.3 34.4998L235.46 34.4798C235.3 33.4198 234.94 32.9798 234.18 32.9798C233.74 32.9798 233.5 33.1598 233.5 33.5198C233.5 34.0798 234.16 34.4998 235.04 34.4998H235.22H235.3Z" fill="white"/>
<g style="mix-blend-mode:multiply">
<rect x="0.5" y="28" width="319" height="28" fill="#F3F5F8"/>
</g>
<defs>
<filter id="filter0_d_268_213" x="0.5" y="0" width="319" height="60" filterUnits="userSpaceOnUse" color-interpolation-filters="sRGB">
<feFlood flood-opacity="0" result="BackgroundImageFix"/>
<feColorMatrix in="SourceAlpha" type="matrix" values="0 0 0 0 0 0 0 0 0 0 0 0 0 0 0 0 0 0 127 0" result="hardAlpha"/>
<feOffset dy="4"/>
<feComposite in2="hardAlpha" operator="out"/>
<feColorMatrix type="matrix" values="0 0 0 0 0.866667 0 0 0 0 0.352941 0 0 0 0 0 0 0 0 1 0"/>
<feBlend mode="normal" in2="BackgroundImageFix" result="effect1_dropShadow_268_213"/>
<feBlend mode="normal" in="SourceGraphic" in2="effect1_dropShadow_268_213" result="shape"/>
</filter>
</defs>
</svg>
