<svg width="376" height="103" viewBox="0 0 376 103" fill="none" xmlns="http://www.w3.org/2000/svg">
<g filter="url(#filter0_d_270_494)">
<rect y="43" width="376" height="56" fill="#F08B1B"/>
</g>
<path d="M46.52 68.26H48.46V66.94C47.92 67.34 47.8 67.44 47.02 67.88V64.64C48.48 63.96 49.1 63.4 49.74 62.12H53.58C53.16 62.88 53.1 62.98 52.68 63.56H64.42V66.34H63.28V68.26H65.2V71.3H63.28V73.26H64.42V76.08H47.16V73.26H48.46V71.3H46.52V68.26ZM51.48 73.26H52.32V71.3H51.48V73.26ZM51.48 68.26H52.32V66.34H51.48V68.26ZM55.28 73.26H56.24V71.3H55.28V73.26ZM55.28 68.26H56.24V66.34H55.28V68.26ZM59.2 73.26H60.24V71.3H59.2V73.26ZM59.2 68.26H60.24V66.34H59.2V68.26ZM47.86 76.78H50.98C50.66 78.36 50.36 79.3 49.86 80.4H46.4C47.1 79.1 47.5 78.1 47.86 76.78ZM52.02 76.78H55.16C55.12 78.32 55.06 79.04 54.86 80.4H51.58C51.88 78.64 51.96 78.08 52.02 76.78ZM56.42 76.78H59.42C59.54 77.68 59.82 79.4 60.04 80.4H56.78C56.62 79.28 56.6 79.08 56.42 76.78ZM60.54 76.78H63.88C64.06 77.56 64.7 79.2 65.3 80.4H61.78C61.34 79.32 61.12 78.7 60.54 76.78ZM70.84 71.4H68.76V68.34H71.82V62.12H74.96V68.34H77.42V71.4H74.96V72.12L77.42 73.64V77.3L74.96 75.44V80.28H71.82V75.68C70.8 77.34 69.96 78.26 68.46 79.28V74.92C69.84 73.66 70.42 72.8 70.84 71.4ZM68.68 62.9H71.12L71.76 67.42H69.48L68.68 62.9ZM75.82 62.9H78.1L77.12 67.42H75.02L75.82 62.9ZM82.84 73.24V61.98H86.06V73.06L87.52 73V76L86.06 76.1V80.28H82.84V76.28L77.82 76.54V73.52L82.84 73.24ZM81.98 68.76V72.1C80.66 71.56 80.28 71.42 78.36 70.74V67.42C79.7 67.86 80.36 68.1 81.98 68.76ZM78.36 65.88V62.54C79.94 63 80.66 63.26 81.98 63.8V67.3C80.68 66.68 80.02 66.42 78.36 65.88ZM90.8 65.34H98.06V67.74H90.8V65.34ZM91.32 74.02H97.64V78.72C97.64 79.78 97 80.3 95.6 80.34H91.32V74.02ZM93.84 77.76H95.1V76.44H93.84V77.76ZM91.48 68.24H97.58V70.62H91.48V68.24ZM91.48 71.16H97.58V73.48H91.48V71.16ZM91.54 62.54H97.58V64.76H91.54V62.54ZM106.14 74.12H109.36C108.56 76.44 107.44 77.82 105.42 79.02C103.72 80 101.2 80.58 98.54 80.58H98.1V77.7C102.18 77.84 104.62 76.74 106.14 74.12ZM98.76 72.82V70.04C100.58 69.76 101.78 68.98 102.82 67.42H105.82C105.42 69.1 104.68 70.12 102.98 71.26C101.44 72.26 100.04 72.78 98.76 72.82ZM98.76 76.74V73.92C102.06 73.7 103.9 72.56 104.9 70.14H108.08C107.2 72.9 105.36 74.9 102.82 75.86C101.14 76.52 99.94 76.78 98.76 76.74ZM109.3 66V69.5C105.74 67.32 105.1 66.82 103.74 64.98C102.06 67 101.1 67.76 98.32 69.24V65.92C100.08 64.98 101.48 63.66 102.24 62.26H105.2C106.14 63.9 107.18 64.84 109.3 66ZM113.2 62.54H116.14V63.24H117.86L118.48 66.32V62.42H120.8V66.28L121.5 63.3H123.32L122.44 67.08H120.8V67.82H122.82V70.56H120.8V70.7C121.74 71.42 122.12 71.76 122.82 72.48V75.4C121.8 74.44 121.6 74.28 120.8 73.62V75.92H118.4V73.42C117.7 74.34 117.26 74.78 116.14 75.74V76.48H122.02V77.26C123.24 76.08 123.44 75.1 123.5 70.5V62.94C126.48 62.74 128.12 62.52 130.7 62.06V65.1C129.24 65.38 128.72 65.46 126.5 65.74V68.18H131.16V70.96H130.26V80.28H127.22V70.96H126.5C126.46 73.94 126.32 75.46 126 76.6C125.36 78.6 123.88 79.98 121.88 80.4V79.36H113.2V62.54ZM116.14 67.82H118.48V67.08H116.72L116.14 64.14V67.82ZM118.2 70.56H116.14V72.64C117.4 71.68 117.68 71.4 118.2 70.56ZM135.24 64.36H142.12V62H145.6V64.36H152.6V73.4C152.64 75.44 151.96 76.1 149.76 76.16H145.6V80.26H142.12V76.16H135.24V64.36ZM138.58 68.84H142.12V67.3H138.58V68.84ZM138.58 73.18H142.12V71.54H138.58V73.18ZM145.6 73.18H149V71.54H145.6V73.18ZM145.6 68.84H149V67.3H145.6V68.84ZM156.88 68.5H162.02V74.64C162.04 76.14 163.1 76.86 165.14 76.82H174.98V79.94H165.3C162.62 79.96 161.76 79.66 160.76 78.36C159.66 79.54 158.68 80.02 156.88 80.3V76.74C158.3 76.48 158.66 76.04 158.64 74.64V71.58H156.88V68.5ZM162.58 63.74V66.96C160.86 66.36 160.12 66.16 157.44 65.6V62.34C159.38 62.74 160.92 63.14 162.58 63.74ZM162.86 76.18V72.64C165.02 71.64 166.18 69.62 166.4 66.46H167.7L167.56 65.18H164.68V62.24H170.64C170.62 68.82 171.62 71.44 174.64 72.64V76.18C171.48 75.36 169.78 73.8 168.52 70.64C167.16 73.94 165.7 75.36 162.86 76.18ZM185.98 66.48H181.06V63.26H189.74C189.58 65.84 189.24 68.22 188.72 70.34C190.18 70.58 190.4 70.62 191.82 70.92C191.96 69.84 192 69.36 192 68.24C192 67.92 191.98 67.28 191.96 66.54H195.36C195.24 69.3 195.2 70.04 195 71.94L197.14 72.64V76.4L194.5 75.22C193.96 77.26 193.36 78.8 192.56 80.18H188.58C190.2 77.9 190.72 76.76 191.3 74.1C189.92 73.7 189.4 73.58 188 73.44C186.88 77.78 185.4 79.48 182.8 79.48C181.6 79.48 180.74 79.14 180.08 78.44C179.38 77.66 178.98 76.6 178.98 75.46C178.98 74.16 179.6 72.86 180.7 71.88C181.86 70.84 183.4 70.28 185.46 70.18C185.82 68.6 185.92 67.94 185.98 66.48ZM184.7 73.2C183.8 73.26 183.42 73.44 182.84 74.02C182.38 74.48 182.14 74.98 182.14 75.48C182.14 76 182.46 76.46 182.84 76.46C183.34 76.46 183.78 75.96 184.14 74.98C184.32 74.5 184.52 73.88 184.62 73.52C184.64 73.44 184.66 73.34 184.7 73.2ZM202.36 62.72H205.72C205.06 67.66 204.86 69.94 204.86 72.58C204.86 76.86 204.9 77.64 205.22 79.96H201.78C201.58 77.64 201.54 76.72 201.54 74.38C201.54 69.88 201.66 68.22 202.36 62.72ZM211.98 72.76V68.88H206.78V65.8H211.98V62.6H215.32V65.7H218.5V68.88H215.36V69.94L215.38 72.56L215.4 73.56C217.52 74.36 217.88 74.5 218.88 75.06V78.88C217.48 77.88 216.72 77.44 215.42 76.88C215.36 77.86 215.2 78.32 214.82 78.82C214.08 79.7 212.84 80.2 211.28 80.2C208.46 80.2 206.46 78.66 206.46 76.48C206.46 75.18 207.2 73.84 208.26 73.26C208.9 72.92 209.94 72.7 210.98 72.7C211.2 72.7 211.54 72.72 211.98 72.76ZM210.84 75.4C210.14 75.4 209.7 75.76 209.7 76.34C209.7 76.92 210.1 77.3 210.7 77.3C211.64 77.3 212.1 76.98 212.1 76.32C212.1 75.74 211.64 75.4 210.84 75.4ZM225.12 71.5H229C228.88 71.7 228.76 71.9 228.64 72.12C227.86 73.38 227.64 73.94 227.64 74.66C227.64 75.5 228.1 75.96 229.16 76.16C229.78 76.3 231.22 76.38 232.54 76.38C234.22 76.38 237.02 76.24 239.8 76.02V79.9L237.66 79.92L233.98 79.96C232.64 79.98 229.92 79.9 229.14 79.84C227.12 79.64 225.86 79.08 224.86 77.94C224.2 77.16 223.86 76.3 223.86 75.4C223.86 74.46 224.06 73.82 225.12 71.5ZM225.52 63.38L239.14 63.24V66.66L225.52 66.78V63.38ZM245.84 64.8H250.46L250.92 62.72H254.68L254.08 64.8H262.28V67.92H253.18L252.36 71.04C253.18 70.42 253.54 70.22 254.22 69.98C255.14 69.64 256.12 69.46 257 69.46C260.18 69.46 262.46 71.62 262.46 74.66C262.46 76.86 261.38 78.5 259.34 79.42C257.92 80.06 256.64 80.24 253.4 80.24H247.5V77.02H253.4C255.12 77.02 256.58 76.86 257.26 76.56C257.98 76.26 258.64 75.3 258.64 74.52C258.64 73.38 257.68 72.5 256.42 72.5C255.38 72.5 254.14 72.84 253.14 73.4C252.42 73.8 251.98 74.26 251.3 75.32H247.66L249.66 67.92H245.84V64.8ZM268.92 80.14V76.78H273.36C276.88 76.78 276.88 76.78 277.54 76.72C278.82 76.62 279.28 76.46 279.62 76.04C279.92 75.64 280.08 75.18 280.08 74.72C280.08 73.52 279.06 72.82 277.34 72.82C276 72.82 274.66 73.22 273.58 73.92C273.08 74.24 272.74 74.54 272.1 75.26H268.92V67.16H272.36V71.48C275 70.16 276.44 69.74 278.18 69.74C281.58 69.74 283.96 71.76 283.96 74.68C283.96 76.72 282.98 78.44 281.3 79.34C280.42 79.82 279.52 80.02 277.8 80.1C276.96 80.14 276.32 80.14 273.38 80.14H268.92ZM281.5 63.22V66.34C276.66 66.02 274.08 65.92 270.96 65.92H268.78V62.84C275.76 62.92 276.2 62.94 281.5 63.22ZM289.46 66.68H292.94C293.08 65.58 293.14 64.8 293.22 62.94H296.68C296.6 64.28 296.54 65 296.3 66.68H298.18C299.6 66.68 300.76 67.32 301.2 68.36C301.6 69.26 301.8 70.84 301.8 72.9C301.8 75.42 301.6 76.94 301.12 77.94C300.46 79.34 298.9 80.04 296.44 80.04C296.16 80.04 295.76 80.04 295.28 80.02V76.7C295.64 76.72 296.2 76.72 296.28 76.72C297.34 76.72 297.72 76.48 297.92 75.7C298.04 75.26 298.16 73.98 298.16 73.04C298.16 72.28 298.06 71.12 297.96 70.82C297.82 70.38 297.34 70.06 296.8 70.06H295.72C294.72 75.22 294.2 77.2 293.18 79.94H289.44C290.8 76.62 291.76 73.44 292.38 70.08L289.46 70.22V66.68ZM301.62 65.2H305.1C306.18 66.42 306.54 67.36 306.84 69.62C306.98 70.62 307.04 71.88 307.04 73.38C307.04 73.88 307.02 74.42 307 75.54H303.44C303.5 74.16 303.52 73.48 303.52 72.68C303.52 70.04 303.38 68.92 302.9 67.68C302.52 66.7 302.18 66.04 301.62 65.2ZM312.92 80.14V76.78H317.36C320.88 76.78 320.88 76.78 321.54 76.72C322.82 76.62 323.28 76.46 323.62 76.04C323.92 75.64 324.08 75.18 324.08 74.72C324.08 73.52 323.06 72.82 321.34 72.82C320 72.82 318.66 73.22 317.58 73.92C317.08 74.24 316.74 74.54 316.1 75.26H312.92V67.16H316.36V71.48C319 70.16 320.44 69.74 322.18 69.74C325.58 69.74 327.96 71.76 327.96 74.68C327.96 76.72 326.98 78.44 325.3 79.34C324.42 79.82 323.52 80.02 321.8 80.1C320.96 80.14 320.32 80.14 317.38 80.14H312.92ZM325.5 63.22V66.34C320.66 66.02 318.08 65.92 314.96 65.92H312.78V62.84C319.76 62.92 320.2 62.94 325.5 63.22Z" fill="white"/>
<g style="mix-blend-mode:multiply">
<rect y="71" width="376" height="28" fill="#F3F5F8"/>
</g>
<path d="M355 63L362.053 70.913L355 78.8261" stroke="white" stroke-width="2"/>
<path fill-rule="evenodd" clip-rule="evenodd" d="M34 0C31.7909 0 30 1.79086 30 4V31C30 33.2091 31.7909 35 34 35H181.649L188 46L194.351 35H342C344.209 35 346 33.2091 346 31V4C346 1.79086 344.209 0 342 0H34Z" fill="white"/>
<path d="M71.0583 23.453H69.7493V21.243H70.9733V13.916H69.7493V11.757H70.9733V10.839H73.2853V11.842H74.9683V10.839H77.3993V11.842H78.5893V13.916H77.3993V21.243H78.4533V23.232C79.0823 22.654 79.2013 22.28 79.2353 20.903V10.924H85.1513V23.538C85.1513 24.575 85.0493 24.966 84.6583 25.425C84.1993 25.935 83.8593 26.02 82.4483 26.037H81.6323V23.419H82.0913C82.6523 23.402 82.7543 23.266 82.7543 22.586V20.665H81.7853C81.6323 23.742 80.6803 25.374 78.4533 26.326V23.453H77.2633C77.5013 24.235 77.5523 24.371 78.3173 26.207H75.5463C75.2743 25.272 75.2063 25.034 74.8323 23.453H73.5573C73.2343 24.541 73.0303 25.034 72.4523 26.207H69.5963C70.5653 24.694 70.7183 24.422 71.0583 23.453ZM73.2853 21.243H74.9683V20.036H73.2853V21.243ZM73.2853 18.047H74.9683V16.857H73.2853V18.047ZM73.2853 14.851H74.9683V13.916H73.2853V14.851ZM82.7543 18.489V16.823H81.7853V18.489H82.7543ZM81.7853 14.851H82.7543V13.27H81.7853V14.851ZM99.6013 26.275V24.337C99.3803 25.204 98.9213 25.459 97.6803 25.442H92.6483V18.591H99.6863V23.776H100.978V17.877H96.5923V11.094H103.681V23.708C103.715 25.748 103.12 26.292 100.859 26.275H99.6013ZM95.0113 23.47H97.2043V22.501H95.0113V23.47ZM95.0113 21.022H97.2043V20.308H95.0113V21.022ZM99.0573 16.058H100.978V15.327H99.0573V16.058ZM99.0573 13.865H100.978V13.219H99.0573V13.865ZM88.6873 11.094H95.6743V17.877H91.2373V26.411H88.6873V11.094ZM91.2373 16.058H93.1413V15.327H91.2373V16.058ZM91.2373 13.865H93.1413V13.219H91.2373V13.865ZM107.438 26.173V10.975H113.575V13.338L112.198 16.857C113.218 18.659 113.49 19.543 113.49 21.107C113.49 22.79 112.844 23.504 111.314 23.504H110.005V26.173H107.438ZM110.005 18.353V20.903H110.43C110.736 20.903 110.872 20.716 110.872 20.325C110.872 19.543 110.583 18.88 110.005 18.353ZM110.005 16.313L110.685 13.576H110.005V16.313ZM114.119 23.606V10.975H121.888V16.517C121.905 18.319 121.429 18.863 119.814 18.863H118.59C118.828 19.56 118.964 19.832 119.338 20.427C119.61 19.883 119.644 19.798 119.848 19.271H122.415C122.007 20.563 121.718 21.175 120.97 22.314C121.667 22.892 121.956 23.062 122.619 23.334V26.224C121.378 25.867 120.885 25.629 119.882 24.881V25.595C118.471 25.867 115.309 26.122 112.946 26.156V23.691C113.49 23.674 113.575 23.657 114.119 23.606ZM116.669 16.823H119.168V16.024H116.669V16.823ZM116.669 23.504L118.369 23.385C117.825 22.654 117.349 21.855 116.669 20.444V23.504ZM116.669 14.137H119.168V13.44H116.669V14.137ZM127.685 18.693H130.456L130.371 19.407L130.218 20.716L130.15 21.362C130.677 22.178 131.017 22.416 132.156 22.79V17.69H127.685V15.531H126.036V12.012H132.054V10.703H135.097V12.012H140.979V15.548H139.551V17.69H135.029V19.101H139.534V21.549H135.029V23.351H141.217V25.952H134.587C132.275 25.969 130.541 25.323 129.096 23.861C128.331 25.187 127.447 25.833 125.73 26.343V23.368C126.988 22.807 127.549 21.447 127.685 18.693ZM128.977 15.429H138.055V14.392H128.977V15.429ZM179.38 18.846V16.33H184.871V14.885H180.247V12.352H184.871V10.89H187.659V12.352H192.011V14.885H187.659V16.33H192.946V18.846H187.659V20.41C189.41 20.971 189.733 21.09 190.124 21.226C190.617 21.413 190.804 21.498 192.521 22.229V25.459C190.141 24.082 189.716 23.895 187.829 23.215C187.727 24.337 187.557 24.864 187.132 25.306C186.571 25.901 185.398 26.309 184.225 26.309C183.307 26.309 182.406 26.088 181.641 25.68C180.553 25.085 179.958 24.133 179.958 22.96C179.958 21.073 181.454 19.934 183.936 19.934C184.191 19.934 184.412 19.951 184.871 20.002V18.846H179.38ZM183.885 22.246C183.052 22.246 182.644 22.518 182.644 23.062C182.644 23.589 183.069 23.878 183.885 23.878C184.514 23.878 184.973 23.47 184.973 22.892C184.973 22.45 184.616 22.246 183.885 22.246ZM198.08 14.97V12.012L211.646 11.927V14.647C211.136 14.8 210.677 14.953 210.218 15.106C207.685 15.922 206.597 16.534 205.509 17.724C204.71 18.608 204.302 19.56 204.302 20.546C204.302 21.311 204.676 22.093 205.203 22.399C205.832 22.773 206.954 22.977 208.484 22.977C208.994 22.977 209.895 22.926 210.898 22.858V25.85C209.878 25.884 208.977 25.901 208.433 25.901C206.036 25.901 204.438 25.595 203.197 24.881C201.82 24.116 201.055 22.654 201.055 20.852C201.055 19.645 201.395 18.506 202.075 17.452C202.738 16.432 203.35 15.837 204.778 14.851L198.08 14.97ZM208.314 19.033V16.432H209.929V19.033H208.314ZM210.422 16.432H212.003V19.033H210.422V16.432ZM224.09 25.935V23.198C225.722 23.147 226.47 22.892 227.082 22.127C227.694 21.396 228.068 19.985 228.068 18.455C228.068 17.129 227.779 16.007 227.252 15.225C226.895 14.698 226.47 14.46 225.552 14.324C224.889 18.557 224.668 19.713 224.124 21.549C223.665 23.096 223.223 23.963 222.594 24.524C222.033 25.034 221.319 25.34 220.656 25.34C219.551 25.34 218.276 24.643 217.494 23.64C216.695 22.586 216.202 20.852 216.202 19.033C216.202 17.367 216.593 15.786 217.341 14.579C218.633 12.437 220.843 11.383 224.005 11.383C228.646 11.383 231.009 13.78 231.009 18.489C231.009 21.175 230.142 23.436 228.663 24.643C227.558 25.544 226.215 25.935 224.243 25.935H224.09ZM222.662 14.171C221.472 14.358 220.894 14.613 220.299 15.259C219.517 16.109 219.058 17.537 219.058 19.101C219.058 20.801 219.602 21.974 220.401 21.974C220.809 21.974 221.132 21.651 221.336 21.039C221.693 19.917 222.305 16.806 222.662 14.171ZM238.438 19.492H234.97V16.891H240.835V15.31H237.928C236.908 16.092 236.432 16.347 235.412 16.619V13.559C236.619 13.049 237.061 12.471 237.367 11.06H240.087C239.9 11.91 239.866 12.046 239.628 12.709H240.835V10.737H243.912V12.709H249.182V15.31H243.912V16.891H249.675V19.492H246.054V23.249H248.145C248.825 23.215 249.335 22.977 249.811 22.467V25.34C249.318 25.816 248.944 25.952 248.145 25.969H245.442C243.538 26.003 243.079 25.646 243.011 24.099V19.492H241.396C241.192 22.501 240.784 23.521 239.288 24.711C238.081 25.595 236.466 26.156 234.528 26.377V23.334C237.401 23.164 238.404 22.161 238.438 19.492ZM256.356 17.826H253.228V15.99H259.416V15.429H254.095V13.814H259.416V13.304H253.67V11.706H255.948L255.268 10.822H258.6L259.416 11.706H262.476L263.207 10.822H266.76L265.944 11.706H268.511V13.304H262.544V13.814H267.848V15.429H262.544V15.99H268.732V17.826H260.045L259.722 18.2H267.882V23.827C267.967 25.391 267.355 26.037 265.723 26.122H255.2V21.821C254.248 22.365 254.095 22.45 253.041 22.892V20.002C254.299 19.543 255.404 18.812 256.356 17.826ZM257.937 24.269H265.043V23.64H257.937V24.269ZM257.937 22.212H265.043V21.566H257.937V22.212ZM257.937 20.206H265.043V19.594H257.937V20.206ZM272.438 10.839H274.512V20.903C274.563 23.827 273.849 25.255 271.826 26.275V22.841C272.404 22.161 272.455 21.906 272.438 20.155V10.839ZM274.971 11.434H276.756V23.725H274.971V11.434ZM277.215 25.918V10.839H279.357V25.918H277.215ZM279.595 11.06H287.687V13.27H284.882L284.729 13.95H287.075V22.11C287.092 22.994 286.905 23.402 286.276 23.725C286.667 24.643 286.939 25.221 287.432 26.19H284.627C284.134 24.762 284.049 24.473 283.845 23.81H283.301C282.893 24.864 282.689 25.374 282.315 26.19H279.697C280.394 24.898 280.581 24.524 280.87 23.81H280.071V13.95H282.162L282.315 13.27H279.595V11.06ZM282.451 21.787H284.593V20.937H282.451V21.787ZM282.451 19.322H284.593V18.404H282.451V19.322ZM282.451 16.772H284.593V15.939H282.451V16.772ZM296.476 10.805H300.641L299.825 22.28H297.207L296.476 10.805ZM296.85 23.096H300.148V26.309H296.85V23.096Z" fill="#3A3A3A"/>
<path d="M144.923 19.016V11.043H156.126V13.712H148.034V16.33H152.828C155.191 16.381 156.313 17.401 156.364 19.492V21.736C156.262 23.963 154.953 25 152.301 25H144.974V22.314H150.992C151.859 22.314 152.097 22.297 152.369 22.263L152.437 22.246H152.488C152.964 22.212 153.27 21.906 153.27 21.43V20.087C153.236 19.067 153.1 18.982 151.434 19.016H144.923ZM159.694 23.028V19.492C161.156 18.642 162.516 17.299 163.638 15.599H159.966V12.913H162.108V10.533H164.879V12.913H166.851V15.174C166.307 16.126 165.984 16.602 165.219 17.673C166.086 18.2 166.256 18.319 167.242 19.033V22.382C166.222 21.481 165.746 21.124 164.743 20.478V26.139H161.921V21.43C161.037 22.144 160.867 22.263 159.694 23.028ZM166.086 23.198H169.52V17.86H167.225V15.208H169.52V10.856H172.257V15.208H174.739V17.86H172.257V23.198H175.181V25.816H166.086V23.198Z" fill="#F37429"/>
<defs>
<filter id="filter0_d_270_494" x="0" y="43" width="376" height="60" filterUnits="userSpaceOnUse" color-interpolation-filters="sRGB">
<feFlood flood-opacity="0" result="BackgroundImageFix"/>
<feColorMatrix in="SourceAlpha" type="matrix" values="0 0 0 0 0 0 0 0 0 0 0 0 0 0 0 0 0 0 127 0" result="hardAlpha"/>
<feOffset dy="4"/>
<feComposite in2="hardAlpha" operator="out"/>
<feColorMatrix type="matrix" values="0 0 0 0 0.866667 0 0 0 0 0.352941 0 0 0 0 0 0 0 0 1 0"/>
<feBlend mode="normal" in2="BackgroundImageFix" result="effect1_dropShadow_270_494"/>
<feBlend mode="normal" in="SourceGraphic" in2="effect1_dropShadow_270_494" result="shape"/>
</filter>
</defs>
</svg>
