<svg width="702" height="84" viewBox="0 0 702 84" fill="none" xmlns="http://www.w3.org/2000/svg">
<path d="M116.038 69.032V67.148H124.714V69.032H121.462V77H119.29V69.032H116.038ZM127.275 77V67.136H129.351V69.464H132.567C134.211 69.524 134.703 70.148 134.679 72.092V77H132.603V72.548C132.591 71.432 132.483 71.276 131.631 71.264H129.351V77H127.275ZM144.558 74.084H139.194V74.576C139.242 75.104 139.434 75.2 140.358 75.2H144.666V77H139.998C138.126 77.048 137.202 76.256 137.202 74.576V71.852C137.214 70.28 137.862 69.488 139.158 69.476H142.434C143.994 69.524 144.51 70.04 144.558 71.6V74.084ZM139.194 72.464H142.41V72.008C142.398 71.432 142.242 71.288 141.618 71.276H140.058C139.326 71.288 139.206 71.396 139.194 72.068V72.464ZM151.388 69.524H153.128V67.436H155.276V69.524H157.28V71.324H155.276V74.42C155.288 75.164 155.324 75.2 156.08 75.224H157.184V77H155.432C153.632 77.024 153.152 76.604 153.128 74.924V71.324H151.388V69.524ZM162.069 69.476H165.129C165.921 69.488 166.569 69.692 166.989 70.076C167.445 70.508 167.541 70.856 167.553 72.116V74.9C167.589 76.292 166.761 77.024 165.153 77H161.913C160.389 76.964 159.717 76.292 159.681 74.756V72.104C159.693 70.184 160.329 69.488 162.069 69.476ZM165.465 74.276V72.32C165.489 71.564 165.225 71.312 164.361 71.276H162.909C161.997 71.288 161.793 71.468 161.781 72.32V74.252C161.841 75.044 161.985 75.176 162.777 75.2H164.433C165.249 75.224 165.429 75.056 165.465 74.276ZM170.225 78.44V69.488H175.373C177.257 69.452 177.773 69.908 177.761 71.612V74.348C177.773 76.052 177.245 76.508 175.373 76.472H172.253V78.44H170.225ZM172.253 71.288V74.672H174.557C175.565 74.648 175.625 74.588 175.637 73.556V72.404C175.613 71.36 175.553 71.3 174.557 71.288H172.253ZM184.753 78.44V69.488H189.901C191.785 69.452 192.301 69.908 192.289 71.612V74.348C192.301 76.052 191.773 76.508 189.901 76.472H186.781V78.44H184.753ZM186.781 71.288V74.672H189.085C190.093 74.648 190.153 74.588 190.165 73.556V72.404C190.141 71.36 190.081 71.3 189.085 71.288H186.781ZM199.141 69.476V71.276H198.109C197.269 71.312 197.161 71.468 197.173 72.536V77H195.013V72.02C194.989 70.208 195.505 69.488 196.849 69.476H199.141ZM201.736 77V69.476H203.848V77H201.736ZM201.736 67.436H203.848V68.936H201.736V67.436ZM209.089 69.476H212.149C212.941 69.488 213.589 69.692 214.009 70.076C214.465 70.508 214.561 70.856 214.573 72.116V74.9C214.609 76.292 213.781 77.024 212.173 77H208.933C207.409 76.964 206.737 76.292 206.701 74.756V72.104C206.713 70.184 207.349 69.488 209.089 69.476ZM212.485 74.276V72.32C212.509 71.564 212.245 71.312 211.381 71.276H209.929C209.017 71.288 208.813 71.468 208.801 72.32V74.252C208.861 75.044 209.005 75.176 209.797 75.2H211.453C212.269 75.224 212.449 75.056 212.485 74.276ZM221.421 69.476V71.276H220.389C219.549 71.312 219.441 71.468 219.453 72.536V77H217.293V72.02C217.269 70.208 217.785 69.488 219.129 69.476H221.421ZM224.016 77V69.476H226.128V77H224.016ZM224.016 67.436H226.128V68.936H224.016V67.436ZM228.861 69.524H230.601V67.436H232.749V69.524H234.753V71.324H232.749V74.42C232.761 75.164 232.797 75.2 233.553 75.224H234.657V77H232.905C231.105 77.024 230.625 76.604 230.601 74.924V71.324H228.861V69.524ZM237.154 69.464H239.35L241.15 74L242.902 69.464H245.146L242.326 75.872C241.522 77.804 240.814 78.44 239.494 78.416H237.502V76.616H238.954C239.59 76.616 239.878 76.436 239.878 76.016C239.878 75.824 239.818 75.62 239.662 75.26L237.154 69.464ZM252.194 77V69.476H254.306V77H252.194ZM252.194 67.436H254.306V68.936H252.194V67.436ZM257.316 69.476H262.02C263.892 69.524 264.468 70.172 264.408 72.2V77H262.344V72.692C262.32 71.408 262.2 71.288 260.928 71.276H259.428V77H257.316V69.476ZM271.552 67.136H273.64V77H271.552V67.136ZM276.232 69.5H278.728L275.968 72.968L278.884 76.976H276.256L273.652 72.968L276.232 69.5ZM281.323 77V69.476H283.435V77H281.323ZM281.323 67.436H283.435V68.936H281.323V67.436ZM286.168 69.524H287.908V67.436H290.056V69.524H292.06V71.324H290.056V74.42C290.068 75.164 290.104 75.2 290.86 75.224H291.964V77H290.212C288.412 77.024 287.932 76.604 287.908 74.924V71.324H286.168V69.524ZM301.133 69.476V71.276H297.869C296.777 71.288 296.609 71.42 296.597 72.308V73.952C296.597 74.576 296.609 74.792 296.633 74.84C296.825 75.176 296.873 75.188 297.761 75.2H301.133V77H296.585C295.049 76.964 294.521 76.4 294.473 74.78V71.624C294.461 70.076 295.025 69.524 296.645 69.476H301.133ZM303.739 77V67.136H305.815V69.464H309.031C310.675 69.524 311.167 70.148 311.143 72.092V77H309.067V72.548C309.055 71.432 308.947 71.276 308.095 71.264H305.815V77H303.739ZM321.021 74.084H315.657V74.576C315.705 75.104 315.897 75.2 316.821 75.2H321.129V77H316.461C314.589 77.048 313.665 76.256 313.665 74.576V71.852C313.677 70.28 314.325 69.488 315.621 69.476H318.897C320.457 69.524 320.973 70.04 321.021 71.6V74.084ZM315.657 72.464H318.873V72.008C318.861 71.432 318.705 71.288 318.081 71.276H316.521C315.789 71.288 315.669 71.396 315.657 72.068V72.464ZM323.811 69.476H328.515C330.387 69.524 330.963 70.172 330.903 72.2V77H328.839V72.692C328.815 71.408 328.695 71.288 327.423 71.276H325.923V77H323.811V69.476ZM343.542 69.512V67.136H345.558L345.57 77H340.218C338.61 76.964 337.926 76.328 337.89 74.888V71.54C337.962 70.016 338.67 69.476 340.518 69.512H343.542ZM343.542 75.2V71.312H341.142C340.074 71.336 339.99 71.42 339.978 72.536V74.348C340.026 75.104 340.182 75.2 341.298 75.2H343.542ZM355.587 74.084H350.223V74.576C350.271 75.104 350.463 75.2 351.387 75.2H355.695V77H351.027C349.155 77.048 348.231 76.256 348.231 74.576V71.852C348.243 70.28 348.891 69.488 350.187 69.476H353.463C355.023 69.524 355.539 70.04 355.587 71.6V74.084ZM350.223 72.464H353.439V72.008C353.427 71.432 353.271 71.288 352.647 71.276H351.087C350.355 71.288 350.235 71.396 350.223 72.068V72.464ZM358.28 75.2H361.724C362.36 75.2 362.48 75.2 362.624 75.164C362.9 75.104 363.008 74.972 363.008 74.696C363.008 74.3 362.756 74.12 362.216 74.12H360.5C359.132 74.18 358.388 73.64 358.34 72.56V71.036C358.376 69.884 359.012 69.464 360.68 69.476H364.844V71.276H361.076C360.416 71.276 360.272 71.384 360.272 71.9C360.272 72.26 360.368 72.32 360.92 72.32H363.152C364.52 72.284 365.084 72.692 365.144 73.748V75.14C365.12 76.46 364.484 76.988 362.864 77H358.28V75.2ZM368.065 77V69.476H370.177V77H368.065ZM368.065 67.436H370.177V68.936H368.065V67.436ZM373.342 78.44V76.664H377.626C378.394 76.652 378.478 76.592 378.49 76.016V75.488H375.334C373.582 75.488 373.03 74.948 373.09 73.244V71.72C373.03 70.04 373.582 69.488 375.334 69.488H380.554V76.184C380.578 77.84 379.906 78.464 378.106 78.44H373.342ZM378.49 73.772V71.288H376.162C375.334 71.276 375.178 71.384 375.142 72.02V72.98C375.154 73.676 375.262 73.76 376.162 73.772H378.49ZM383.328 69.476H388.032C389.904 69.524 390.48 70.172 390.42 72.2V77H388.356V72.692C388.332 71.408 388.212 71.288 386.94 71.276H385.44V77H383.328V69.476ZM397.744 77V69.476H399.856V77H397.744ZM397.744 67.436H399.856V68.936H397.744V67.436ZM402.769 75.2H406.213C406.849 75.2 406.969 75.2 407.113 75.164C407.389 75.104 407.497 74.972 407.497 74.696C407.497 74.3 407.245 74.12 406.705 74.12H404.989C403.621 74.18 402.877 73.64 402.829 72.56V71.036C402.865 69.884 403.501 69.464 405.169 69.476H409.333V71.276H405.565C404.905 71.276 404.761 71.384 404.761 71.9C404.761 72.26 404.857 72.32 405.409 72.32H407.641C409.009 72.284 409.573 72.692 409.633 73.748V75.14C409.609 76.46 408.973 76.988 407.353 77H402.769V75.2ZM423.891 74.084H418.527V74.576C418.575 75.104 418.767 75.2 419.691 75.2H423.999V77H419.331C417.459 77.048 416.535 76.256 416.535 74.576V71.852C416.547 70.28 417.195 69.488 418.491 69.476H421.767C423.327 69.524 423.843 70.04 423.891 71.6V74.084ZM418.527 72.464H421.743V72.008C421.731 71.432 421.575 71.288 420.951 71.276H419.391C418.659 71.288 418.539 71.396 418.527 72.068V72.464ZM433.832 77H428.54C427.304 77 426.632 76.496 426.524 75.5V73.736C426.524 73.1 426.872 72.548 427.448 72.272C427.676 72.152 427.952 72.116 428.576 72.116H431.708C431.648 71.324 431.6 71.276 430.712 71.276H426.632V69.476H431.18C433.208 69.452 433.856 70.076 433.832 72.08V77ZM431.816 75.2V73.736H429.248C428.636 73.748 428.504 73.832 428.492 74.228V74.768C428.492 75.116 428.636 75.188 429.248 75.2H431.816ZM436.468 75.2H439.912C440.548 75.2 440.668 75.2 440.812 75.164C441.088 75.104 441.196 74.972 441.196 74.696C441.196 74.3 440.944 74.12 440.404 74.12H438.688C437.32 74.18 436.576 73.64 436.528 72.56V71.036C436.564 69.884 437.2 69.464 438.868 69.476H443.032V71.276H439.264C438.604 71.276 438.46 71.384 438.46 71.9C438.46 72.26 438.556 72.32 439.108 72.32H441.34C442.708 72.284 443.272 72.692 443.332 73.748V75.14C443.308 76.46 442.672 76.988 441.052 77H436.468V75.2ZM453.272 74.084H447.908V74.576C447.956 75.104 448.148 75.2 449.072 75.2H453.38V77H448.712C446.84 77.048 445.916 76.256 445.916 74.576V71.852C445.928 70.28 446.576 69.488 447.872 69.476H451.148C452.708 69.524 453.224 70.04 453.272 71.6V74.084ZM447.908 72.464H451.124V72.008C451.112 71.432 450.956 71.288 450.332 71.276H448.772C448.04 71.288 447.92 71.396 447.908 72.068V72.464ZM462.611 69.476H465.671C466.463 69.488 467.111 69.692 467.531 70.076C467.987 70.508 468.083 70.856 468.095 72.116V74.9C468.131 76.292 467.303 77.024 465.695 77H462.455C460.931 76.964 460.259 76.292 460.223 74.756V72.104C460.235 70.184 460.871 69.488 462.611 69.476ZM466.007 74.276V72.32C466.031 71.564 465.767 71.312 464.903 71.276H463.451C462.539 71.288 462.335 71.468 462.323 72.32V74.252C462.383 75.044 462.527 75.176 463.319 75.2H464.975C465.791 75.224 465.971 75.056 466.007 74.276ZM470.43 71.72V69.92H471.966C471.978 67.808 472.53 67.112 474.162 67.124H476.094V68.924H474.906C474.306 68.936 474.126 69.164 474.126 69.92H476.094V71.72H474.102V77H471.966V71.72H470.43ZM482.964 69.476H490.644C492.552 69.5 493.176 70.184 493.152 72.212V77H491.04V72.344C491.076 71.612 490.776 71.264 490.116 71.276H489.036V77H487.08V71.276H485.076V77H482.964V69.476ZM498.278 69.476H501.338C502.13 69.488 502.778 69.692 503.198 70.076C503.654 70.508 503.75 70.856 503.762 72.116V74.9C503.798 76.292 502.97 77.024 501.362 77H498.122C496.598 76.964 495.926 76.292 495.89 74.756V72.104C495.902 70.184 496.538 69.488 498.278 69.476ZM501.674 74.276V72.32C501.698 71.564 501.434 71.312 500.57 71.276H499.118C498.206 71.288 498.002 71.468 497.99 72.32V74.252C498.05 75.044 498.194 75.176 498.986 75.2H500.642C501.458 75.224 501.638 75.056 501.674 74.276ZM508.053 69.476L509.685 75.164L511.353 69.476H513.717L511.101 77H508.365L505.833 69.476H508.053ZM523.153 74.084H517.789V74.576C517.837 75.104 518.029 75.2 518.953 75.2H523.261V77H518.593C516.721 77.048 515.797 76.256 515.797 74.576V71.852C515.809 70.28 516.457 69.488 517.753 69.476H521.029C522.589 69.524 523.105 70.04 523.153 71.6V74.084ZM517.789 72.464H521.005V72.008C520.993 71.432 520.837 71.288 520.213 71.276H518.653C517.921 71.288 517.801 71.396 517.789 72.068V72.464ZM526.003 69.476H533.683C535.591 69.5 536.215 70.184 536.191 72.212V77H534.079V72.344C534.115 71.612 533.815 71.264 533.155 71.276H532.075V77H530.119V71.276H528.115V77H526.003V69.476ZM546.284 74.084H540.92V74.576C540.968 75.104 541.16 75.2 542.084 75.2H546.392V77H541.724C539.852 77.048 538.928 76.256 538.928 74.576V71.852C538.94 70.28 539.588 69.488 540.884 69.476H544.16C545.72 69.524 546.236 70.04 546.284 71.6V74.084ZM540.92 72.464H544.136V72.008C544.124 71.432 543.968 71.288 543.344 71.276H541.784C541.052 71.288 540.932 71.396 540.92 72.068V72.464ZM549.073 69.476H553.777C555.649 69.524 556.225 70.172 556.165 72.2V77H554.101V72.692C554.077 71.408 553.957 71.288 552.685 71.276H551.185V77H549.073V69.476ZM558.716 69.524H560.456V67.436H562.604V69.524H564.608V71.324H562.604V74.42C562.616 75.164 562.652 75.2 563.408 75.224H564.512V77H562.76C560.96 77.024 560.48 76.604 560.456 74.924V71.324H558.716V69.524ZM568.148 76.976V74.684H570.464V76.976H568.148ZM575.266 76.976V74.684H577.582V76.976H575.266ZM582.384 76.976V74.684H584.7V76.976H582.384Z" fill="white"/>
<path d="M2.60761 16.55H28.7376V20.66H7.28761V30.02C7.31761 35.39 7.13761 36.62 6.02761 38.51C4.76761 40.52 3.35761 41.63 1.13761 42.38V36.35C2.21761 35.51 2.60761 34.25 2.60761 31.43V16.55ZM7.34761 38.87H8.78761L7.76761 35.24H11.7576L12.6276 38.54H13.1676L14.0076 35.24H18.1176L17.2176 38.27L18.5076 38.09V41.96C15.9276 42.35 11.7876 42.74 7.34761 42.98V38.87ZM8.21761 21.59H18.2376V25.04H8.21761V21.59ZM8.21761 26.18H17.9676V31.67C18.0276 33.92 17.3076 34.61 14.8476 34.61H8.21761V26.18ZM12.0576 31.43H14.1576V29.33H12.0576V31.43ZM18.4776 25.4H23.0076V21.59H27.4776V25.4H28.9776V29.39H27.4776V38.87C27.5676 41.99 26.6076 42.89 23.2476 42.89H20.7276V38.69H23.0076V29.39H18.4776V25.4ZM18.8076 34.91V30.26L22.4676 31.97V36.74L18.8076 34.91ZM35.8476 20.45H60.8076V24.71C60.8076 26.63 59.7576 27.59 57.5976 27.65H52.1976V28.7H61.7376V32.21H52.0476L51.9276 33.11H61.0476C60.8376 37.31 60.5976 39.29 60.1476 40.4C59.4876 42.05 58.0476 42.74 55.2876 42.74H51.0576V38.72H53.2476C55.6476 38.75 55.8276 38.6 55.8876 36.68H50.9076C49.1376 40.22 45.0876 42.89 40.4676 43.52V38.54C44.1876 37.7 46.3776 35.54 46.7976 32.27H40.7676C40.5876 35.66 40.1976 37.07 39.0576 38.84C37.6776 40.79 36.3576 41.75 34.1376 42.38V36.5C35.4576 35.75 35.8176 35.03 35.8476 33.11V20.45ZM40.7676 28.7H47.1876V27.65H40.7676V28.7ZM40.7676 24.71H55.4076V23.54H40.7676V24.71ZM34.7076 16.16H61.7376V19.82H34.7076V16.16ZM68.3976 30.5V25.82H93.9276V30.5H83.9676V33.65C83.9076 39.47 80.6976 42.68 75.0576 42.56H69.8676V37.61H73.5576C77.1276 37.73 78.5676 36.56 78.6276 33.53V30.5H68.3976ZM70.0776 18.29H87.3276V20.66H91.9176V22.88H70.0776V18.29ZM88.1376 19.73V15.17H90.9876V19.73H88.1376ZM91.9476 15.17H94.7676V19.73H91.9476V15.17ZM100.468 22.37H105.268V17.3H110.308V22.37H117.838V17.3H120.808V20.9H123.088V22.37H127.948V27.02H123.088V31.43C122.998 38 118.528 42.47 112.168 42.38H105.178V37.43H110.668C115.018 37.55 117.868 35.39 117.838 31.97V27.02H110.308V33.26H105.268V27.02H100.468V22.37ZM121.678 15.47H124.498V20.06H121.678V15.47ZM125.338 20.06V15.47H128.158V20.06H125.338ZM134.428 34.64V28.73L150.988 20.96C153.178 19.91 153.628 19.28 153.628 17.3V16.49H159.118V17.66C159.208 20.66 157.978 22.79 155.338 24.14L150.748 26.45V42.8H145.198V29.27L134.428 34.64ZM168.178 22.25V16.94C173.518 18.32 179.248 20.03 181.918 21.05V26.45C177.268 24.86 172.078 23.27 168.178 22.25ZM187.798 19.43H193.138V28.46C193.108 33.71 191.728 37.01 188.578 39.35C185.938 41.39 182.608 42.17 176.248 42.23H167.938V37.04H176.338C179.908 37.01 182.818 36.53 184.228 35.72C186.418 34.64 187.768 32.3 187.798 29.54V19.43ZM211.832 42.43V38.244C214.328 38.166 215.472 37.776 216.408 36.606C217.344 35.488 217.916 33.33 217.916 30.99C217.916 28.962 217.474 27.246 216.668 26.05C216.122 25.244 215.472 24.88 214.068 24.672C213.054 31.146 212.716 32.914 211.884 35.722C211.182 38.088 210.506 39.414 209.544 40.272C208.686 41.052 207.594 41.52 206.58 41.52C204.89 41.52 202.94 40.454 201.744 38.92C200.522 37.308 199.768 34.656 199.768 31.874C199.768 29.326 200.366 26.908 201.51 25.062C203.486 21.786 206.866 20.174 211.702 20.174C218.8 20.174 222.414 23.84 222.414 31.042C222.414 35.15 221.088 38.608 218.826 40.454C217.136 41.832 215.082 42.43 212.066 42.43H211.832ZM209.648 24.438C207.828 24.724 206.944 25.114 206.034 26.102C204.838 27.402 204.136 29.586 204.136 31.978C204.136 34.578 204.968 36.372 206.19 36.372C206.814 36.372 207.308 35.878 207.62 34.942C208.166 33.226 209.102 28.468 209.648 24.438ZM228.188 39.08L229.898 38.99V29.99H228.188V26.45H255.398V29.99H241.688V43.67H237.008V42.17C233.468 42.56 231.638 42.71 228.188 42.92V39.08ZM234.668 38.75L237.008 38.63V37.43H234.668V38.75ZM234.668 34.97H237.008V33.65H234.668V34.97ZM234.668 31.19H237.008V29.99H234.668V31.19ZM230.348 16.64H252.998V22.58C252.998 24.77 251.828 25.76 249.428 25.76H230.348V16.64ZM235.358 23.15H247.838V22.28H235.358V23.15ZM235.358 20.15H247.838V19.37H235.358V20.15ZM254.768 30.92V34.28C253.808 36.14 253.298 36.83 251.978 38.15C253.238 38.63 253.748 38.78 255.398 39.05V43.82C251.738 43.01 250.568 42.56 248.468 41.18C246.428 42.56 245.168 43.07 242.468 43.67V39.29C243.818 38.99 244.178 38.84 245.108 38.33C243.938 37.04 243.518 36.38 242.468 34.28V30.92H254.768ZM249.908 34.28H247.208C247.748 35.27 247.838 35.39 248.498 36.11C249.098 35.51 249.248 35.33 249.908 34.28ZM260.468 31.55V24.98C262.388 23.03 264.158 19.13 264.668 15.71H269.258C268.898 18.41 268.028 21.35 266.948 23.42V43.01H262.478V29.69C261.788 30.62 261.488 30.89 260.468 31.55ZM269.348 31.01H267.848V27.53H269.918V20.48H276.038L276.278 19.61H269.558V16.25H288.518V19.61H281.318L281.078 20.48H286.808V27.53H288.728V30.83H284.468V29.57H282.938L283.478 30.53H284.318V31.58H287.708L289.298 34.22H287.498V36.38C286.358 37.37 285.818 37.67 283.598 38.72C285.038 38.84 285.158 38.84 288.578 38.93V43.07C283.478 42.89 281.618 42.65 278.168 41.66C273.998 42.83 272.378 43.1 267.878 43.31V39.56C271.238 39.47 271.688 39.44 273.938 39.08C273.368 38.6 273.278 38.51 272.708 37.97C270.758 38.75 270.188 38.9 268.448 39.05V35.36C270.638 35.15 272.468 34.28 273.608 32.96H275.348C274.778 32.48 274.628 32.15 274.598 31.25V29.57H272.258V30.32H273.938C273.488 31.37 273.308 31.76 272.348 33.26H267.548C268.088 32.6 268.478 32.12 269.348 31.01ZM274.478 27.53H282.248V26.78H274.478V27.53ZM274.478 25.37H282.248V24.56H274.478V25.37ZM274.478 23.09H282.248V22.37H274.478V23.09ZM280.538 36.38H276.368C277.358 37.04 277.508 37.1 278.438 37.58C279.398 37.1 279.548 37.01 280.538 36.38ZM278.288 34.07H284.768L284.048 33.05H279.308L278.288 34.07ZM280.208 30.53L279.728 29.57H278.768V30.53H280.208ZM300.848 31.28H294.728V26.69H305.078V23.9H299.948C298.148 25.28 297.308 25.73 295.508 26.21V20.81C297.638 19.91 298.418 18.89 298.958 16.4H303.758C303.428 17.9 303.368 18.14 302.948 19.31H305.078V15.83H310.508V19.31H319.808V23.9H310.508V26.69H320.678V31.28H314.288V37.91H317.978C319.178 37.85 320.078 37.43 320.918 36.53V41.6C320.048 42.44 319.388 42.68 317.978 42.71H313.208C309.848 42.77 309.038 42.14 308.918 39.41V31.28H306.068C305.708 36.59 304.988 38.39 302.348 40.49C300.218 42.05 297.368 43.04 293.948 43.43V38.06C299.018 37.76 300.788 35.99 300.848 31.28ZM327.068 31.22H338.198V30.32H328.568V27.8H338.198V26.96H329.708V20.93H338.198V20H327.878V17H338.198V15.44H343.298V17H353.738V20H343.298V20.93H352.178V24.65C352.118 26.45 351.578 26.96 349.658 26.96H343.298V27.8H352.538V31.22H354.518V34.25H352.538V35.09C352.538 37.1 351.608 37.88 349.238 37.88H343.298V40.1C343.298 42.11 342.218 43.13 340.088 43.19H333.428V39.02H338.198V37.88H328.568V35.09H338.198V34.25H327.068V31.22ZM334.448 24.59H338.198V23.39H334.448V24.59ZM343.298 24.59H346.928V23.39H343.298V24.59ZM343.298 35.09H347.618V34.25H343.298V35.09ZM343.298 31.22H347.618V30.32H343.298V31.22ZM359.888 18.35H369.788V16.43H387.548V20.57H381.218L380.738 21.77H386.438V35.84C386.408 37.55 386.138 38.06 384.938 38.66C385.478 40.37 385.928 41.21 387.278 43.16H381.818C381.068 41.96 380.288 40.25 379.838 38.72H377.618C376.568 41.03 376.298 41.54 375.278 43.16H369.758C371.138 41.42 371.948 40.16 372.608 38.72H371.168V21.77H376.058L376.448 20.57H369.788V23.03H367.598V32.72L369.848 32.06V36.95C364.748 38.51 361.928 39.26 359.918 39.59V34.43L362.798 33.77V23.03H359.888V18.35ZM375.728 26.3H381.638V24.98H375.728V26.3ZM375.728 35.24H381.638V33.68H375.728V35.24ZM375.728 30.62H381.638V29.3H375.728V30.62ZM394.876 19.836H399.244C398.386 26.258 398.126 29.222 398.126 32.654C398.126 38.218 398.178 39.232 398.594 42.248H394.122C393.862 39.232 393.81 38.036 393.81 34.994C393.81 29.144 393.966 26.986 394.876 19.836ZM407.382 32.888V27.844H400.622V23.84H407.382V19.68H411.724V23.71H415.858V27.844H411.776V29.222L411.802 32.628L411.828 33.928C414.584 34.968 415.052 35.15 416.352 35.878V40.844C414.532 39.544 413.544 38.972 411.854 38.244C411.776 39.518 411.568 40.116 411.074 40.766C410.112 41.91 408.5 42.56 406.472 42.56C402.806 42.56 400.206 40.558 400.206 37.724C400.206 36.034 401.168 34.292 402.546 33.538C403.378 33.096 404.73 32.81 406.082 32.81C406.368 32.81 406.81 32.836 407.382 32.888ZM405.9 36.32C404.99 36.32 404.418 36.788 404.418 37.542C404.418 38.296 404.938 38.79 405.718 38.79C406.94 38.79 407.538 38.374 407.538 37.516C407.538 36.762 406.94 36.32 405.9 36.32ZM427.458 39.14V38.12H421.968V34.82H427.458V34.01H422.178V25.73H427.458V24.77H421.398V21.44H427.458V20.51L426.198 20.54L423.738 20.63L421.908 20.66V16.94C430.878 16.76 431.658 16.73 435.858 16.22V20C434.358 20.18 433.368 20.24 431.508 20.36V21.44H436.578V24.77H431.508V25.73H436.578V30.71C436.608 33.17 435.768 33.95 433.008 34.01H431.508V34.82H436.398V37.79C438.318 35.69 438.528 34.55 438.708 25.79H437.178V21.2H438.708V16.13H443.028V21.2H448.998L448.578 36.02C448.548 40.52 446.838 42.8 443.478 42.83H441.498V38.33C440.538 40.4 439.038 41.81 436.098 43.46V42.14C432.708 42.5 425.088 43.01 421.488 43.16V39.38C423.858 39.32 424.398 39.29 427.458 39.14ZM426.078 31.79H427.458V30.83H426.078V31.79ZM426.078 28.73H427.458V27.83H426.078V28.73ZM431.508 38.93L436.098 38.66V38.12H431.508V38.93ZM431.508 31.79H432.618V30.83H431.508V31.79ZM431.508 28.73H432.618V27.74H431.508V28.73ZM444.588 25.79H442.968C442.638 34.22 442.458 35.96 441.618 38.12C443.718 38.18 444.198 37.7 444.258 35.54L444.588 25.79ZM456.318 26.69L467.928 26.57L467.028 23.51L457.308 23.69V19.16L465.708 19.1L464.838 16.28H470.268L471.108 19.01L479.388 18.86V23.33L472.338 23.45L473.268 26.45L480.498 26.36V31.1L474.528 31.19L475.638 35.33H470.238L469.128 31.28L456.318 31.46V26.69ZM458.508 33.35H463.488C462.618 35.57 462.588 35.66 462.588 36.29C462.588 37.46 464.178 38.03 467.478 38.03C470.868 38.03 474.138 37.82 479.328 37.31V42.38C474.618 42.74 472.218 42.86 469.068 42.86C464.658 42.86 462.258 42.62 460.488 41.99C458.448 41.24 457.038 39.35 457.038 37.4C457.038 36.14 457.638 34.43 458.508 33.35ZM487.908 27.86V23.09L493.398 22.94L492.468 16.52H498.078L498.918 22.76L505.998 22.61H506.448C509.538 22.61 511.398 23.09 512.778 24.26C514.128 25.43 514.878 27.02 514.878 28.82C514.878 31.46 513.438 33.89 511.098 35.15C509.088 36.23 507.198 36.62 503.268 36.77L502.548 31.94C506.148 31.88 506.568 31.85 507.408 31.55C508.458 31.16 508.998 30.47 508.998 29.48C508.998 28.7 508.608 27.83 508.128 27.56C507.888 27.41 506.868 27.17 506.568 27.17L499.488 27.32L501.768 43.1H496.248L494.118 27.53L487.908 27.86ZM501.528 16.25H506.898C508.518 18.8 508.818 19.34 509.568 21.17H504.018C502.818 18.59 502.698 18.32 501.528 16.25ZM521.418 23.99V19.37L534.588 19.28V16.16H539.928V19.19L546.918 19.1V23.78L539.928 23.84V35.21C539.958 37.61 539.478 39.11 538.128 40.67C536.328 42.53 534.708 43.04 530.838 43.01H525.558V38.18H530.388C533.898 38.18 534.588 37.7 534.828 35.12C533.238 35.87 532.368 36.08 530.988 36.08C527.658 36.08 525.168 33.8 525.168 30.74C525.168 29.18 525.828 27.8 527.178 26.63C528.468 25.52 529.788 25.07 531.858 25.07C532.758 25.07 533.358 25.16 534.588 25.43V23.84L521.418 23.99ZM532.338 29.09C531.168 29.09 530.118 29.81 530.118 30.59C530.118 31.4 530.958 31.97 532.188 31.97C533.538 31.97 534.438 31.34 534.438 30.41C534.438 29.63 533.568 29.09 532.338 29.09ZM555.048 21.2L565.278 21.08L564.048 16.34H569.718L570.918 20.99L579.288 20.9V25.52L572.088 25.61L574.068 33.32H568.338L566.568 25.73L555.048 25.88V21.2ZM557.238 30.74H562.788C561.408 33.29 561.198 33.83 561.198 35.06C561.198 37.16 563.148 37.85 569.178 37.85C571.488 37.85 573.348 37.73 578.028 37.31V42.32C573.678 42.65 571.008 42.77 567.888 42.77C563.448 42.77 560.958 42.35 559.068 41.27C557.058 40.13 555.828 38.12 555.828 35.93C555.828 34.46 556.038 33.71 557.238 30.74ZM588.228 23.3V18.08L612.168 17.93V22.73C611.268 23 610.458 23.27 609.648 23.54C605.178 24.98 603.258 26.06 601.338 28.16C599.928 29.72 599.208 31.4 599.208 33.14C599.208 34.49 599.868 35.87 600.798 36.41C601.908 37.07 603.888 37.43 606.588 37.43C607.488 37.43 609.078 37.34 610.848 37.22V42.5C609.048 42.56 607.458 42.59 606.498 42.59C602.268 42.59 599.448 42.05 597.258 40.79C594.828 39.44 593.478 36.86 593.478 33.68C593.478 31.55 594.078 29.54 595.278 27.68C596.448 25.88 597.528 24.83 600.048 23.09L588.228 23.3ZM606.288 30.47V25.88H609.138V30.47H606.288ZM610.008 25.88H612.798V30.47H610.008V25.88ZM620.418 23.99V19.37L633.588 19.28V16.16H638.928V19.19L645.918 19.1V23.78L638.928 23.84V35.21C638.958 37.61 638.478 39.11 637.128 40.67C635.328 42.53 633.708 43.04 629.838 43.01H624.558V38.18H629.388C632.898 38.18 633.588 37.7 633.828 35.12C632.238 35.87 631.368 36.08 629.988 36.08C626.658 36.08 624.168 33.8 624.168 30.74C624.168 29.18 624.828 27.8 626.178 26.63C627.468 25.52 628.788 25.07 630.858 25.07C631.758 25.07 632.358 25.16 633.588 25.43V23.84L620.418 23.99ZM631.338 29.09C630.168 29.09 629.118 29.81 629.118 30.59C629.118 31.4 629.958 31.97 631.188 31.97C632.538 31.97 633.438 31.34 633.438 30.41C633.438 29.63 632.568 29.09 631.338 29.09ZM655.908 40.94V35.21H661.698V40.94H655.908ZM673.703 40.94V35.21H679.493V40.94H673.703ZM691.497 40.94V35.21H697.287V40.94H691.497Z" fill="white"/>
<circle cx="434" cy="4" r="4" fill="#F8C148"/>
<circle cx="467" cy="4" r="4" fill="#F8C148"/>
<circle cx="500" cy="4" r="4" fill="#F8C148"/>
<circle cx="533" cy="4" r="4" fill="#F8C148"/>
<circle cx="566" cy="4" r="4" fill="#F8C148"/>
</svg>
