<svg width="396" height="60" viewBox="0 0 396 60" fill="none" xmlns="http://www.w3.org/2000/svg">
<g filter="url(#filter0_d_229_3898)">
<rect width="396" height="56" fill="#F08B1B"/>
</g>
<rect y="28" width="396" height="28" fill="#E5861A"/>
<path d="M26.52 25.26H28.46V23.94C27.92 24.34 27.8 24.44 27.02 24.88V21.64C28.48 20.96 29.1 20.4 29.74 19.12H33.58C33.16 19.88 33.1 19.98 32.68 20.56H44.42V23.34H43.28V25.26H45.2V28.3H43.28V30.26H44.42V33.08H27.16V30.26H28.46V28.3H26.52V25.26ZM31.48 30.26H32.32V28.3H31.48V30.26ZM31.48 25.26H32.32V23.34H31.48V25.26ZM35.28 30.26H36.24V28.3H35.28V30.26ZM35.28 25.26H36.24V23.34H35.28V25.26ZM39.2 30.26H40.24V28.3H39.2V30.26ZM39.2 25.26H40.24V23.34H39.2V25.26ZM27.86 33.78H30.98C30.66 35.36 30.36 36.3 29.86 37.4H26.4C27.1 36.1 27.5 35.1 27.86 33.78ZM32.02 33.78H35.16C35.12 35.32 35.06 36.04 34.86 37.4H31.58C31.88 35.64 31.96 35.08 32.02 33.78ZM36.42 33.78H39.42C39.54 34.68 39.82 36.4 40.04 37.4H36.78C36.62 36.28 36.6 36.08 36.42 33.78ZM40.54 33.78H43.88C44.06 34.56 44.7 36.2 45.3 37.4H41.78C41.34 36.32 41.12 35.7 40.54 33.78ZM50.84 28.4H48.76V25.34H51.82V19.12H54.96V25.34H57.42V28.4H54.96V29.12L57.42 30.64V34.3L54.96 32.44V37.28H51.82V32.68C50.8 34.34 49.96 35.26 48.46 36.28V31.92C49.84 30.66 50.42 29.8 50.84 28.4ZM48.68 19.9H51.12L51.76 24.42H49.48L48.68 19.9ZM55.82 19.9H58.1L57.12 24.42H55.02L55.82 19.9ZM62.84 30.24V18.98H66.06V30.06L67.52 30V33L66.06 33.1V37.28H62.84V33.28L57.82 33.54V30.52L62.84 30.24ZM61.98 25.76V29.1C60.66 28.56 60.28 28.42 58.36 27.74V24.42C59.7 24.86 60.36 25.1 61.98 25.76ZM58.36 22.88V19.54C59.94 20 60.66 20.26 61.98 20.8V24.3C60.68 23.68 60.02 23.42 58.36 22.88ZM70.8 22.34H78.06V24.74H70.8V22.34ZM71.32 31.02H77.64V35.72C77.64 36.78 77 37.3 75.6 37.34H71.32V31.02ZM73.84 34.76H75.1V33.44H73.84V34.76ZM71.48 25.24H77.58V27.62H71.48V25.24ZM71.48 28.16H77.58V30.48H71.48V28.16ZM71.54 19.54H77.58V21.76H71.54V19.54ZM86.14 31.12H89.36C88.56 33.44 87.44 34.82 85.42 36.02C83.72 37 81.2 37.58 78.54 37.58H78.1V34.7C82.18 34.84 84.62 33.74 86.14 31.12ZM78.76 29.82V27.04C80.58 26.76 81.78 25.98 82.82 24.42H85.82C85.42 26.1 84.68 27.12 82.98 28.26C81.44 29.26 80.04 29.78 78.76 29.82ZM78.76 33.74V30.92C82.06 30.7 83.9 29.56 84.9 27.14H88.08C87.2 29.9 85.36 31.9 82.82 32.86C81.14 33.52 79.94 33.78 78.76 33.74ZM89.3 23V26.5C85.74 24.32 85.1 23.82 83.74 21.98C82.06 24 81.1 24.76 78.32 26.24V22.92C80.08 21.98 81.48 20.66 82.24 19.26H85.2C86.14 20.9 87.18 21.84 89.3 23ZM93.2 19.54H96.14V20.24H97.86L98.48 23.32V19.42H100.8V23.28L101.5 20.3H103.32L102.44 24.08H100.8V24.82H102.82V27.56H100.8V27.7C101.74 28.42 102.12 28.76 102.82 29.48V32.4C101.8 31.44 101.6 31.28 100.8 30.62V32.92H98.4V30.42C97.7 31.34 97.26 31.78 96.14 32.74V33.48H102.02V34.26C103.24 33.08 103.44 32.1 103.5 27.5V19.94C106.48 19.74 108.12 19.52 110.7 19.06V22.1C109.24 22.38 108.72 22.46 106.5 22.74V25.18H111.16V27.96H110.26V37.28H107.22V27.96H106.5C106.46 30.94 106.32 32.46 106 33.6C105.36 35.6 103.88 36.98 101.88 37.4V36.36H93.2V19.54ZM96.14 24.82H98.48V24.08H96.72L96.14 21.14V24.82ZM98.2 27.56H96.14V29.64C97.4 28.68 97.68 28.4 98.2 27.56ZM115.24 21.36H122.12V19H125.6V21.36H132.6V30.4C132.64 32.44 131.96 33.1 129.76 33.16H125.6V37.26H122.12V33.16H115.24V21.36ZM118.58 25.84H122.12V24.3H118.58V25.84ZM118.58 30.18H122.12V28.54H118.58V30.18ZM125.6 30.18H129V28.54H125.6V30.18ZM125.6 25.84H129V24.3H125.6V25.84ZM138.96 19.56H142.56L142.48 29.7L142.46 30.42V30.9C142.46 32.2 142.58 32.92 142.88 33.34C143.24 33.82 144.08 34.08 145.28 34.08C146.96 34.08 148.32 33.52 149.22 32.44C150.14 31.32 150.52 29.84 150.64 26.94H154.36C153.94 31.5 153.44 33.24 152.04 34.86C150.64 36.5 148 37.52 145.2 37.52C142.24 37.52 140.24 36.54 139.4 34.68C139.04 33.9 138.88 32.18 138.9 29.3L138.96 19.56ZM158.88 25.5H164.02V31.64C164.04 33.14 165.1 33.86 167.14 33.82H176.98V36.94H167.3C164.62 36.96 163.76 36.66 162.76 35.36C161.66 36.54 160.68 37.02 158.88 37.3V33.74C160.3 33.48 160.66 33.04 160.64 31.64V28.58H158.88V25.5ZM164.58 20.74V23.96C162.86 23.36 162.12 23.16 159.44 22.6V19.34C161.38 19.74 162.92 20.14 164.58 20.74ZM164.86 33.18V29.64C167.02 28.64 168.18 26.62 168.4 23.46H169.7L169.56 22.18H166.68V19.24H172.64C172.62 25.82 173.62 28.44 176.64 29.64V33.18C173.48 32.36 171.78 30.8 170.52 27.64C169.16 30.94 167.7 32.36 164.86 33.18ZM187.98 23.48H183.06V20.26H191.74C191.58 22.84 191.24 25.22 190.72 27.34C192.18 27.58 192.4 27.62 193.82 27.92C193.96 26.84 194 26.36 194 25.24C194 24.92 193.98 24.28 193.96 23.54H197.36C197.24 26.3 197.2 27.04 197 28.94L199.14 29.64V33.4L196.5 32.22C195.96 34.26 195.36 35.8 194.56 37.18H190.58C192.2 34.9 192.72 33.76 193.3 31.1C191.92 30.7 191.4 30.58 190 30.44C188.88 34.78 187.4 36.48 184.8 36.48C183.6 36.48 182.74 36.14 182.08 35.44C181.38 34.66 180.98 33.6 180.98 32.46C180.98 31.16 181.6 29.86 182.7 28.88C183.86 27.84 185.4 27.28 187.46 27.18C187.82 25.6 187.92 24.94 187.98 23.48ZM186.7 30.2C185.8 30.26 185.42 30.44 184.84 31.02C184.38 31.48 184.14 31.98 184.14 32.48C184.14 33 184.46 33.46 184.84 33.46C185.34 33.46 185.78 32.96 186.14 31.98C186.32 31.5 186.52 30.88 186.62 30.52C186.64 30.44 186.66 30.34 186.7 30.2ZM204.36 19.72H207.72C207.06 24.66 206.86 26.94 206.86 29.58C206.86 33.86 206.9 34.64 207.22 36.96H203.78C203.58 34.64 203.54 33.72 203.54 31.38C203.54 26.88 203.66 25.22 204.36 19.72ZM213.98 29.76V25.88H208.78V22.8H213.98V19.6H217.32V22.7H220.5V25.88H217.36V26.94L217.38 29.56L217.4 30.56C219.52 31.36 219.88 31.5 220.88 32.06V35.88C219.48 34.88 218.72 34.44 217.42 33.88C217.36 34.86 217.2 35.32 216.82 35.82C216.08 36.7 214.84 37.2 213.28 37.2C210.46 37.2 208.46 35.66 208.46 33.48C208.46 32.18 209.2 30.84 210.26 30.26C210.9 29.92 211.94 29.7 212.98 29.7C213.2 29.7 213.54 29.72 213.98 29.76ZM212.84 32.4C212.14 32.4 211.7 32.76 211.7 33.34C211.7 33.92 212.1 34.3 212.7 34.3C213.64 34.3 214.1 33.98 214.1 33.32C214.1 32.74 213.64 32.4 212.84 32.4ZM227.12 28.5H231C230.88 28.7 230.76 28.9 230.64 29.12C229.86 30.38 229.64 30.94 229.64 31.66C229.64 32.5 230.1 32.96 231.16 33.16C231.78 33.3 233.22 33.38 234.54 33.38C236.22 33.38 239.02 33.24 241.8 33.02V36.9L239.66 36.92L235.98 36.96C234.64 36.98 231.92 36.9 231.14 36.84C229.12 36.64 227.86 36.08 226.86 34.94C226.2 34.16 225.86 33.3 225.86 32.4C225.86 31.46 226.06 30.82 227.12 28.5ZM227.52 20.38L241.14 20.24V23.66L227.52 23.78V20.38ZM247.84 21.8H252.46L252.92 19.72H256.68L256.08 21.8H264.28V24.92H255.18L254.36 28.04C255.18 27.42 255.54 27.22 256.22 26.98C257.14 26.64 258.12 26.46 259 26.46C262.18 26.46 264.46 28.62 264.46 31.66C264.46 33.86 263.38 35.5 261.34 36.42C259.92 37.06 258.64 37.24 255.4 37.24H249.5V34.02H255.4C257.12 34.02 258.58 33.86 259.26 33.56C259.98 33.26 260.64 32.3 260.64 31.52C260.64 30.38 259.68 29.5 258.42 29.5C257.38 29.5 256.14 29.84 255.14 30.4C254.42 30.8 253.98 31.26 253.3 32.32H249.66L251.66 24.92H247.84V21.8ZM270.92 37.14V33.78H275.36C278.88 33.78 278.88 33.78 279.54 33.72C280.82 33.62 281.28 33.46 281.62 33.04C281.92 32.64 282.08 32.18 282.08 31.72C282.08 30.52 281.06 29.82 279.34 29.82C278 29.82 276.66 30.22 275.58 30.92C275.08 31.24 274.74 31.54 274.1 32.26H270.92V24.16H274.36V28.48C277 27.16 278.44 26.74 280.18 26.74C283.58 26.74 285.96 28.76 285.96 31.68C285.96 33.72 284.98 35.44 283.3 36.34C282.42 36.82 281.52 37.02 279.8 37.1C278.96 37.14 278.32 37.14 275.38 37.14H270.92ZM283.5 20.22V23.34C278.66 23.02 276.08 22.92 272.96 22.92H270.78V19.84C277.76 19.92 278.2 19.94 283.5 20.22ZM291.46 23.68H294.94C295.08 22.58 295.14 21.8 295.22 19.94H298.68C298.6 21.28 298.54 22 298.3 23.68H300.18C301.6 23.68 302.76 24.32 303.2 25.36C303.6 26.26 303.8 27.84 303.8 29.9C303.8 32.42 303.6 33.94 303.12 34.94C302.46 36.34 300.9 37.04 298.44 37.04C298.16 37.04 297.76 37.04 297.28 37.02V33.7C297.64 33.72 298.2 33.72 298.28 33.72C299.34 33.72 299.72 33.48 299.92 32.7C300.04 32.26 300.16 30.98 300.16 30.04C300.16 29.28 300.06 28.12 299.96 27.82C299.82 27.38 299.34 27.06 298.8 27.06H297.72C296.72 32.22 296.2 34.2 295.18 36.94H291.44C292.8 33.62 293.76 30.44 294.38 27.08L291.46 27.22V23.68ZM303.62 22.2H307.1C308.18 23.42 308.54 24.36 308.84 26.62C308.98 27.62 309.04 28.88 309.04 30.38C309.04 30.88 309.02 31.42 309 32.54H305.44C305.5 31.16 305.52 30.48 305.52 29.68C305.52 27.04 305.38 25.92 304.9 24.68C304.52 23.7 304.18 23.04 303.62 22.2ZM314.92 37.14V33.78H319.36C322.88 33.78 322.88 33.78 323.54 33.72C324.82 33.62 325.28 33.46 325.62 33.04C325.92 32.64 326.08 32.18 326.08 31.72C326.08 30.52 325.06 29.82 323.34 29.82C322 29.82 320.66 30.22 319.58 30.92C319.08 31.24 318.74 31.54 318.1 32.26H314.92V24.16H318.36V28.48C321 27.16 322.44 26.74 324.18 26.74C327.58 26.74 329.96 28.76 329.96 31.68C329.96 33.72 328.98 35.44 327.3 36.34C326.42 36.82 325.52 37.02 323.8 37.1C322.96 37.14 322.32 37.14 319.38 37.14H314.92ZM327.5 20.22V23.34C322.66 23.02 320.08 22.92 316.96 22.92H314.78V19.84C321.76 19.92 322.2 19.94 327.5 20.22Z" fill="white"/>
<path d="M366.364 20.478L373.417 28.3911L366.364 36.3041" stroke="white" stroke-width="2"/>
<defs>
<filter id="filter0_d_229_3898" x="0" y="0" width="396" height="60" filterUnits="userSpaceOnUse" color-interpolation-filters="sRGB">
<feFlood flood-opacity="0" result="BackgroundImageFix"/>
<feColorMatrix in="SourceAlpha" type="matrix" values="0 0 0 0 0 0 0 0 0 0 0 0 0 0 0 0 0 0 127 0" result="hardAlpha"/>
<feOffset dy="4"/>
<feComposite in2="hardAlpha" operator="out"/>
<feColorMatrix type="matrix" values="0 0 0 0 0.866667 0 0 0 0 0.352941 0 0 0 0 0 0 0 0 1 0"/>
<feBlend mode="normal" in2="BackgroundImageFix" result="effect1_dropShadow_229_3898"/>
<feBlend mode="normal" in="SourceGraphic" in2="effect1_dropShadow_229_3898" result="shape"/>
</filter>
</defs>
</svg>
