<svg width="292" height="35" viewBox="0 0 292 35" fill="none" xmlns="http://www.w3.org/2000/svg">
<path d="M17.282 1.14862H13.7295V10.3395L17.282 8.25353V1.14862ZM12.0861 1.14862H8.54624V13.4115L12.0861 11.3256V1.14862ZM26.1947 2.99438L22.4021 5.23205V8.56959H18.8749V7.31801L17.282 8.26617V14.2712H13.7295V10.3521L12.0734 11.3256V22.4886H8.5336V13.4115L2.11137 17.1916C4.42489 21.7554 9.15307 24.878 14.6019 24.878C22.3389 24.878 28.5968 18.6201 28.5968 10.8831C28.5968 7.95012 27.7118 5.24469 26.1695 2.99438M22.3768 1.14862H18.8496V7.31801L22.3768 5.21941V1.14862Z" fill="#DD5A00"/>
<path d="M5.01895 3.32244C5.01895 4.71308 3.89379 5.82559 2.50315 5.82559C1.11251 5.82559 0 4.71308 0 3.32244C0 1.9318 1.12515 0.806641 2.50315 0.806641C3.88115 0.806641 5.01895 1.9318 5.01895 3.30979V3.32244Z" fill="#DD5A00"/>
<path d="M5.39807 28.0252V26.9759H0.100998V34.8267L1.18823 34.8773V31.426H4.70275V30.4399L1.25144 30.3767V28.139L5.39807 28.0252Z" fill="white"/>
<path d="M11.7951 27.0522H12.8444V31.5655C12.8444 32.3493 12.7559 32.9814 12.5789 33.4365C12.4019 33.9043 12.0732 34.2836 11.6181 34.5617C11.1503 34.8525 10.5308 35.0042 9.7723 35.0042C9.01377 35.0042 8.43223 34.8778 7.96447 34.6123C7.49671 34.3594 7.15537 34.0054 6.9531 33.525C6.76346 33.0446 6.64968 32.3872 6.64968 31.5655V27.0522H7.69899V31.5655C7.69899 32.2355 7.7622 32.7412 7.88862 33.0699C8.01504 33.386 8.22996 33.6388 8.53337 33.8032C8.84943 33.9675 9.22869 34.0687 9.67117 34.0687C10.4297 34.0687 10.986 33.8917 11.302 33.5377C11.6181 33.1963 11.7824 32.5389 11.7824 31.5529V27.0396L11.7951 27.0522Z" fill="white"/>
<path d="M13.8682 32.3612H14.9555C14.9807 32.968 14.9934 33.5243 15.1957 33.7392C15.3979 33.9541 15.6887 34.0679 16.068 34.0679C16.3335 34.0679 16.5737 34.0047 16.7759 33.8909C16.9782 33.7771 17.1173 33.6128 17.1805 33.3979C17.2563 33.1956 17.2311 32.8542 17.2311 32.3865V26.963H18.3183V32.2853C18.3183 32.9427 18.2551 33.5748 18.1034 33.9415C17.9264 34.2955 17.6356 34.523 17.269 34.7126C16.9024 34.9023 16.422 34.9149 15.9289 34.9149C15.1957 34.9149 14.6394 34.6368 14.2854 34.2196C13.7545 33.5875 13.8556 32.3359 13.8556 32.3359L13.8682 32.3612Z" fill="white"/>
<path d="M21.0111 27.0521H19.8733V34.7638H21.0111V27.0521Z" fill="white"/>
<path d="M21.8961 34.8141L24.4372 31.1478L24.4625 30.7559L21.8835 26.9759H23.0971L24.5004 28.986C24.7912 29.3906 24.9935 29.7066 25.1072 29.9215C25.2842 29.6434 25.4992 29.34 25.7394 29.0366L27.2691 26.9759H28.3942L25.8152 30.7559V31.1225L28.3436 34.8141H27.13C27.13 34.8141 25.2463 31.919 25.1452 31.7673C24.9808 32.0075 23.1351 34.8141 23.1351 34.8141H21.9088H21.8961Z" fill="white"/>
<path d="M116.928 20.9333C114.298 20.8953 85.714 21.047 85.714 21.047C85.714 21.047 84.475 20.7689 84.4371 22.3112C84.3866 24.6121 84.5003 33.0065 84.5003 33.0065C84.5003 33.0065 84.2601 34.4225 85.4991 34.4225L118.053 34.3593C118.053 34.3593 119.19 34.5742 119.19 33.2594C119.19 31.0723 119.216 22.8043 119.216 22.8043C119.216 22.8043 119.153 20.9585 116.928 20.9206M97.6482 30.0356C97.6608 31.0344 97.2057 30.9206 97.2057 30.9206C97.2057 30.9206 90.6571 30.8953 89.671 30.8953C88.8998 30.8953 88.9757 30.377 88.9883 30.0356C89.0009 29.3403 89.6457 29.492 89.6457 29.492C89.6457 29.492 96.4598 29.4288 97.1299 29.4414C97.762 29.4541 97.6356 30.0356 97.6356 30.0356M97.6356 25.1684C97.6482 26.1545 97.1931 26.0407 97.1931 26.0407C97.1931 26.0407 90.6444 26.0028 89.6583 26.0028C88.8872 26.0028 88.963 25.4844 88.9757 25.1557C88.9883 24.4478 89.6331 24.5995 89.6331 24.5995C89.6331 24.5995 96.4472 24.5363 97.1172 24.5489C97.7493 24.5742 97.6229 25.1557 97.6229 25.1557M111.858 30.7942C110.91 30.8321 104.955 30.8194 104.955 30.8194C104.955 30.8194 104.437 30.87 104.437 30.4528V29.8207C104.437 29.8207 104.412 29.492 105.069 29.5173H110.606C110.606 29.5173 111.58 29.492 111.668 28.4554C111.732 27.6715 111.668 26.6854 111.668 26.6854C111.668 26.6854 111.567 25.889 110.265 25.9143C109.102 25.9143 104.74 25.9143 104.74 25.9143C104.74 25.9143 104.437 25.9396 104.412 25.6867C104.349 25.2822 104.386 24.9788 104.386 24.9788C104.386 24.9788 104.589 24.5363 105.12 24.5616C105.727 24.5995 111.668 24.5616 111.668 24.5616C111.668 24.5616 112.869 24.5995 112.907 25.4971C112.933 26.382 112.92 29.9724 112.92 29.9724C112.92 29.9724 113.008 30.7942 111.845 30.8068L111.858 30.7942Z" fill="white"/>
<path d="M114.235 12.8804C114.235 12.8804 114.285 11.73 113.072 11.73C111.327 11.73 90.1388 11.8437 90.1388 11.8437C90.1388 11.8437 89.0768 11.6415 89.0768 13.247V18.936C89.0768 18.936 89.178 19.606 90.0756 19.606L113.59 19.5175C113.59 19.5175 114.26 19.6945 114.26 18.6579C114.26 17.0523 114.235 12.8678 114.235 12.8678M108.786 16.6098H94.3992C94.3992 16.6098 93.6533 16.534 93.6533 15.8134C93.6533 15.0928 94.3992 15.0043 94.3992 15.0043C94.3992 15.0043 107.99 14.9284 108.571 14.9284C109.153 14.9284 109.747 15.2066 109.734 15.7375C109.734 16.5719 108.786 16.6098 108.786 16.6098Z" fill="white"/>
<path d="M90.3789 10.3383L112.869 10.4141C112.869 10.4141 114.336 10.4141 114.26 8.80856C114.184 7.203 112.869 6.98809 112.869 6.98809L90.303 7.06394C90.303 7.06394 88.9882 6.77317 88.9882 8.59364C88.9882 10.8566 90.3789 10.3509 90.3789 10.3509" fill="white"/>
<path d="M87.9646 10.78C87.9646 10.78 88.1163 11.943 86.8015 11.943H83.2238C83.2238 11.943 82.1239 12.0189 82.1239 10.8558V3.48542C82.1239 3.48542 82.0607 2.34762 83.3628 2.34762C84.665 2.34762 96.9405 2.38555 96.9405 2.38555C96.9405 2.38555 98.2553 2.38555 98.2553 1.58909C98.3185 1.14661 98.1795 0.716777 99.4184 0.716777H104.02C104.02 0.716777 105.044 0.640924 105.12 1.45002C105.209 2.14534 105.322 2.38555 105.853 2.38555C106.587 2.38555 120.013 2.30969 120.013 2.30969C120.013 2.30969 121.251 2.52461 121.251 3.48542C121.251 4.44622 121.327 10.1226 121.327 10.1226C121.327 10.1226 120.822 12.0189 118.622 12.0189C116.422 12.0189 115.335 10.7041 115.335 10.1984V6.69653C115.335 6.69653 115.487 5.74837 114.02 5.74837C112.554 5.74837 89.4816 5.81158 89.4816 5.81158C89.4816 5.81158 87.9519 5.88743 87.9519 7.20222V10.78H87.9646Z" fill="white"/>
<path d="M140.493 26.5073L140.417 13.4858C140.417 13.4858 140.417 12.3228 139.19 12.3228H126.397C126.397 12.3228 124.74 12.5503 124.74 11.324V7.87272C124.74 7.87272 124.665 6.64642 125.891 6.64642H139.405C139.405 6.64642 140.354 6.43151 140.354 5.42013V1.76654C140.354 1.76654 140.354 0.552889 141.428 0.552889C142.503 0.552889 145.663 0.477036 145.663 0.477036C145.663 0.477036 147.029 0.552889 147.029 1.62747C147.029 2.70206 146.953 5.87525 146.953 5.87525C146.953 5.87525 147.18 6.44415 148.04 6.44415H162.427C162.427 6.44415 164.222 6.73492 164.222 8.39105C164.222 10.0472 164.146 10.477 164.146 10.477C164.146 10.477 163.931 12.1205 162.351 12.1963C160.771 12.2722 148.255 12.2722 148.255 12.2722C148.255 12.2722 146.89 12.5503 146.814 13.4226C146.738 14.2823 146.738 27.7336 146.738 27.7336C146.738 27.7336 147.244 28.6691 147.964 28.6691H160.986C160.986 28.6691 162.996 28.5301 162.996 30.3885V32.2595C162.996 32.2595 162.857 34.1938 161.352 34.1938C159.848 34.1938 127.18 34.2696 127.18 34.2696C127.18 34.2696 126.169 34.4845 126.093 33.6249C126.03 32.7525 126.093 29.8069 126.093 29.8069C126.093 29.8069 126.03 28.5933 127.105 28.5933H139.115C139.115 28.5933 140.48 28.8082 140.48 26.5073H140.493Z" fill="white"/>
<path d="M182.351 8.32868C182.351 8.32868 182.477 7.57015 181.517 7.59544C180.341 7.62072 170.126 7.60808 170.126 7.60808C170.126 7.60808 168.685 7.67129 168.748 6.43235C168.824 5.18078 168.748 2.57649 168.748 2.57649C168.748 2.57649 168.748 1.66625 169.86 1.66625C170.973 1.66625 202.755 1.60304 202.755 1.60304C202.755 1.60304 204.601 1.86852 204.652 2.90518C204.715 3.95449 204.652 5.85081 204.652 5.85081C204.652 5.85081 204.449 7.41845 202.882 7.41845C201.314 7.41845 189.645 7.39316 189.645 7.39316C189.645 7.39316 188.912 7.45637 188.887 8.07584C188.912 8.73323 189.026 27.8356 189.026 27.8356C189.026 27.8356 189.051 28.139 189.582 28.139C190.379 28.1137 204.841 28.139 204.841 28.139C204.841 28.139 206.358 28.3539 206.422 29.7951C206.485 31.2363 206.422 32.3741 206.422 32.3741C206.422 32.3741 206.017 34.0808 204.386 34.0808C202.755 34.0808 168.432 34.1693 168.432 34.1693C168.432 34.1693 167.193 34.3084 167.193 33.2464V29.2009C167.193 29.2009 167.067 28.2275 168.432 28.2275C169.797 28.2275 181.908 28.1643 181.908 28.1643C181.908 28.1643 182.49 28.2275 182.427 27.6333C182.364 27.0391 182.364 8.34132 182.364 8.34132L182.351 8.32868Z" fill="white"/>
<path d="M224.867 8.10083L210.037 8.12612C210.037 8.12612 208.659 8.41689 208.723 7.03889C208.773 5.67353 208.419 4.71273 210.151 4.64952C211.883 4.59895 214.69 4.64952 214.69 4.64952C214.69 4.64952 215.587 4.82651 214.993 4.29554C214.399 3.75192 213.729 2.91754 214.45 1.96937C215.17 1.00857 216.055 0.287961 216.055 0.287961C216.055 0.287961 217.016 -0.243011 217.787 0.414383C218.571 1.05913 220.594 3.03132 220.594 3.03132C220.594 3.03132 221.302 3.92891 221.302 2.90489C221.302 1.88088 221.011 0.33853 223.097 0.33853C225.183 0.33853 226.51 0.275319 226.51 0.275319C226.51 0.275319 227.522 0.161539 227.522 2.2475V4.75065H229.254V2.09579C229.254 2.09579 229.203 0.300603 230.328 0.300603H234.159C234.159 0.300603 235.41 0.186824 235.524 1.6786C235.651 3.18302 235.474 3.9542 236.295 3.18302C237.13 2.39921 239.342 0.427025 239.342 0.427025C239.342 0.427025 239.999 -0.533781 241.137 0.427025C242.275 1.38783 242.755 2.03258 242.755 2.03258C242.755 2.03258 243.299 3.04396 242.578 3.65078C241.858 4.24497 241.327 4.61159 242.452 4.61159C243.577 4.61159 245.979 4.54838 245.979 4.54838C245.979 4.54838 248.04 4.54838 248.002 6.28036C247.977 7.77214 246.864 8.07555 245.979 8.07555C245.094 8.07555 231.883 8.01234 231.883 8.01234C231.883 8.01234 231.34 7.96177 231.34 8.79615C231.34 9.63054 231.099 10.4144 231.883 10.4144C232.667 10.4144 244.285 10.3891 244.285 10.3891C244.285 10.3891 245.688 10.4144 245.688 11.9061C245.688 13.3979 245.322 13.7393 244.361 13.7393C243.4 13.7393 231.706 13.7645 231.706 13.7645L231.352 14.0553V15.1931L231.706 15.4207L244.424 15.4839C244.424 15.4839 245.688 15.2437 245.688 16.9124C245.688 18.5812 244.968 18.7076 244.31 18.7708C243.653 18.8341 231.529 18.7708 231.529 18.7708L231.289 19.0616V20.0224L231.529 20.2626L246.586 20.1362C246.586 20.1362 248.015 20.427 248.015 21.805C248.015 23.183 247.597 23.6634 246.586 23.7139C245.575 23.7645 238.407 23.6634 238.407 23.6634C238.407 23.6634 237.635 23.7771 238.647 24.384C239.658 24.9782 241.567 26.4194 241.567 26.4194C241.567 26.4194 243.83 27.5445 245.334 27.9617C246.232 28.2651 247.433 28.7961 247.484 30.1741C247.534 31.5521 246.94 33.992 243.716 33.2841C241.453 32.3865 236.308 30.8315 232.01 25.585C231.896 25.3448 231.289 24.9908 231.289 25.8125V32.5635C231.289 32.5635 231.352 34.2954 229.266 34.2954H227.18C227.18 34.2954 225.082 34.3587 225.082 32.6267C225.082 30.8947 225.018 25.1551 225.018 25.1551C225.018 25.1551 225.195 24.1943 224.361 25.3321C223.527 26.4699 219.759 30.5913 215.107 32.5003C214.032 32.9807 210.202 35.3574 209.077 31.1223C209.19 30.0982 208.963 29.0237 211.276 28.0755C212.3 27.7215 216.599 25.7999 217.85 24.3208C218.204 24.0679 218.331 23.8909 217.37 23.8909C216.409 23.8909 210.328 23.9541 210.328 23.9541C210.328 23.9541 208.659 24.4345 208.659 21.982C208.71 20.0351 210.177 20.2879 210.177 20.2879L224.728 20.25L224.968 20.0098L225.018 18.9984L224.854 18.7582L212.262 18.6823C212.262 18.6823 210.998 19.049 210.998 17.317C210.998 15.585 211.479 15.3448 212.199 15.3448H224.614L225.031 15.1046V14.0806L224.563 13.8404L212.01 13.9036C212.01 13.9036 210.998 13.9795 210.998 12.1716C210.998 10.3638 211.63 10.3511 211.997 10.3511C212.364 10.3511 224.791 10.3764 224.791 10.3764L225.031 10.1362L225.094 8.46746" fill="white"/>
<path d="M270.555 9.61705C270.555 9.61705 270.48 8.35283 269 8.35283C267.521 8.35283 254.677 8.35283 254.677 8.35283C254.677 8.35283 253.387 8.49189 253.387 9.74347V22.5626C253.387 22.5626 253.172 25.5841 251.327 30.2997C251.099 30.8939 250.366 32.6511 251.921 33.0936C253.311 33.6246 254.563 34.0544 254.563 34.0544C254.563 34.0544 255.6 34.3452 256.042 33.3844C256.485 32.4236 258.621 25.0532 258.621 25.0532L258.773 22.6385L259.279 22.5626L269.304 22.4868C269.304 22.4868 270.517 22.5374 270.593 21.0582C270.669 19.5791 270.555 9.60441 270.555 9.60441M265.688 16.8105C265.625 17.6196 264.133 17.923 264.133 17.923H258.836V13.0557H264.588C265.322 13.0557 265.764 14.2441 265.764 14.2441C265.764 14.2441 265.764 16.014 265.701 16.8231L265.688 16.8105Z" fill="white"/>
<path d="M253.248 6.43238H269.013C269.013 6.43238 270.998 6.36917 270.998 4.44756C270.998 2.52595 270.479 1.50193 269.013 1.50193H253.096C253.096 1.50193 251.984 1.65364 251.984 2.90521V5.33251C251.984 5.33251 251.921 6.36917 253.248 6.43238Z" fill="white"/>
<path d="M277.989 10.4904H289.506C289.506 10.4904 291.326 10.857 291.326 12.8418C291.326 14.8267 290.53 15.4208 289.417 15.4208H287.281L286.977 15.7242V32.5889C286.977 32.5889 286.687 34.2071 284.247 34.2071C281.807 34.2071 281.377 32.8165 281.44 32.2982V15.5725H277.976V24.0428C277.976 24.0428 277.976 25.2185 277.243 26.1793C276.51 27.1401 269.885 33.7014 269.885 33.7014C269.885 33.7014 268.785 34.8898 267.306 33.4865C265.827 32.0832 264.879 30.9075 266.054 29.5801C267.23 28.2527 271.579 23.6762 271.579 23.6762C271.579 23.6762 272.034 23.4613 272.097 21.6281C272.173 19.7824 272.237 6.22996 272.237 6.22996C272.237 6.22996 272.173 3.48661 275.195 2.766C278.216 2.03276 286.611 0.338704 286.611 0.338704C286.611 0.338704 289.556 -0.394543 289.86 2.26032C290.075 3.95437 290.378 5.2818 288.975 5.87598C287.42 6.24261 278.431 7.93666 278.431 7.93666L277.989 8.30328V10.5157V10.4904Z" fill="white"/>
<path d="M55.9415 9.92033C56.0047 9.402 56.0047 9.56635 56.0047 9.56635H58.8365V7.11376H55.2209V5.445L58.5711 5.47028V3.09355H55.2209V1.0708H52.8694V3.09355L51.7316 3.06826L52.1868 1.52592L49.8227 1.5512C49.8227 1.5512 49.8227 3.52338 49.1021 4.58533L48.7734 4.64854L48.7354 3.7383H47.1931L47.1678 0.969662H44.8922V3.71302H42.7936V5.8369H44.7026V6.4943C44.7026 6.4943 43.6533 9.9709 42.6545 10.78C42.7936 11.7661 43.2487 13.9279 43.2487 13.9279C43.2487 13.9279 44.0958 12.9418 44.6267 11.2983C44.6899 11.0455 44.9554 10.7168 44.9554 11.5638V16.8862H47.1931L47.1299 10.4513H47.4586L48.0528 12.2212L49.6962 10.4513L49.1021 9.59163H51.4662L51.7316 9.92033C51.7316 9.92033 50.1514 12.6258 48.1792 13.8141C48.9756 14.9898 49.6962 16.1909 49.6962 16.1909C49.6962 16.1909 52.25 13.5613 52.6545 12.0442C52.92 12.0442 52.8568 12.0442 52.8568 12.0442V16.9115H55.2209L55.2841 11.9936L55.4737 12.0316C55.4737 12.0316 56.9276 15.1289 58.2424 15.9127C58.8998 14.737 59.3549 13.2199 59.3549 13.2199C59.3549 13.2199 57.901 12.4235 55.9288 9.93297M48.7734 7.12641L48.8113 9.19973C48.0275 8.87103 46.8391 6.30466 46.8391 6.30466L47.3574 5.84955H49.0009L49.987 7.12641H48.7607M50.2525 7.12641C50.5812 6.98734 51.1754 5.39443 51.1754 5.39443L52.8568 5.3565L52.8821 7.12641C52.8821 7.12641 51.896 7.18962 50.2525 7.12641Z" fill="white"/>
<path d="M59.9242 3.10817V5.73774H68.5461C68.5461 5.73774 69.0898 17.0525 73.287 17.0525C74.5259 17.0525 75.689 15.8894 76.3464 14.3471C75.9924 12.8174 75.2591 11.4267 75.2591 11.4267C75.2591 11.4267 72.5411 19.2649 71.2389 5.73774H76.0556V3.10817H74.8167V2.80475H75.3982L73.9317 0.693508L71.6688 1.64167L72.7686 2.74154V3.10817H71.2263V0.845214H68.5335V3.10817H59.9115H59.9242Z" fill="white"/>
<path d="M60.2274 7.12763V9.74457H62.9329V13.9165H60.0125V16.5461C60.0125 16.5461 67.3829 16.0277 68.7736 15.383V13.1074C68.7736 13.1074 66.8014 13.8406 65.6383 13.8406C65.6383 12.2351 65.7142 9.74457 65.7142 9.74457H68.2679L68.192 7.05178L60.2401 7.12763H60.2274Z" fill="white"/>
<path d="M45.9417 23.8155C46.3336 23.4236 46.5485 23.8155 46.5485 23.8155V24.6373H55.5877V23.7017C55.5877 23.3225 55.5877 23.7017 55.8658 23.7017C56.5991 24.4476 58.0529 24.8775 58.0529 24.8775C58.0529 24.8775 58.4954 24.081 59.4436 22.2352C55.0946 21.0342 52.6547 17.9622 52.6547 17.9622H49.5194C48.2552 20.1493 42.6168 22.5007 42.6168 22.5007L44.0327 24.9533C44.0327 24.9533 45.5751 24.1948 45.9543 23.8155M48.6345 22.0582C49.3424 22.0582 50.8722 19.8459 50.8722 19.8459H51.1756C51.7445 21.0342 53.3879 22.0582 53.3879 22.0582V22.3869H48.6218V22.0582H48.6345Z" fill="white"/>
<path d="M55.575 28.3021H58.647V25.8874L43.2488 25.938V28.3526H46.9277L47.1806 28.5928L46.0048 31.3109H43.3247L43.8683 33.8773L55.5876 33.2199L56.1944 34.2565C56.1944 34.2565 58.1919 33.0303 58.4448 33.2705L58.685 33.0176L55.5876 28.8836V28.2894M54.3866 28.5676L52.7937 29.2755L54.0326 30.5018V31.2983H48.7988V30.6914L49.9492 28.34H54.3866V28.5549V28.5676Z" fill="white"/>
<path d="M62.1238 20.3757V17.9105H64.8292V20.3631H66.5233V22.7651C66.5233 22.7651 65.967 24.3201 65.12 25.1798C65.967 26.0142 66.9531 27.0382 67.522 27.0382C67.0922 27.4806 66.2325 29.1241 66.2325 29.339C65.9291 29.0356 65.3475 28.4667 65.0315 28.138H64.7028V34.1178H62.3134L62.2755 28.5805H61.8077L60.4045 29.693C60.4045 29.693 60.0252 27.3037 59.7218 26.9876C60.3665 26.3428 63.6661 23.865 63.6661 23.0559C63.6661 22.7145 63.7041 22.7525 63.7041 22.7525H60.1516L60.1137 20.3505H62.1238V20.3757Z" fill="white"/>
<path d="M66.8012 22.3103V24.7881H69.8986V31.223H66.0806V33.7009H76.1944V31.2609H72.4143V24.7123H75.7266V22.3735H72.4523V17.9614L69.8606 17.9234V22.3103H66.8012Z" fill="white"/>
</svg>
