<svg width="636" height="256" viewBox="0 0 636 256" fill="none" xmlns="http://www.w3.org/2000/svg">
<g filter="url(#filter0_d_5_3)">
<path d="M134.2 198.4H169.04V203.88H140.44V216.36C140.48 223.52 140.24 225.16 138.76 227.68C137.08 230.36 135.2 231.84 132.24 232.84V224.8C133.68 223.68 134.2 222 134.2 218.24V198.4ZM140.52 228.16H142.44L141.08 223.32H146.4L147.56 227.72H148.28L149.4 223.32H154.88L153.68 227.36L155.4 227.12V232.28C151.96 232.8 146.44 233.32 140.52 233.64V228.16ZM141.68 205.12H155.04V209.72H141.68V205.12ZM141.68 211.24H154.68V218.56C154.76 221.56 153.8 222.48 150.52 222.48H141.68V211.24ZM146.8 218.24H149.6V215.44H146.8V218.24ZM155.36 210.2H161.4V205.12H167.36V210.2H169.36V215.52H167.36V228.16C167.48 232.32 166.2 233.52 161.72 233.52H158.36V227.92H161.4V215.52H155.36V210.2ZM155.8 222.88V216.68L160.68 218.96V225.32L155.8 222.88ZM178.52 203.6H211.8V209.28C211.8 211.84 210.4 213.12 207.52 213.2H200.32V214.6H213.04V219.28H200.12L199.96 220.48H212.12C211.84 226.08 211.52 228.72 210.92 230.2C210.04 232.4 208.12 233.32 204.44 233.32H198.8V227.96H201.72C204.92 228 205.16 227.8 205.24 225.24H198.6C196.24 229.96 190.84 233.52 184.68 234.36V227.72C189.64 226.6 192.56 223.72 193.12 219.36H185.08C184.84 223.88 184.32 225.76 182.8 228.12C180.96 230.72 179.2 232 176.24 232.84V225C178 224 178.48 223.04 178.52 220.48V203.6ZM185.08 214.6H193.64V213.2H185.08V214.6ZM185.08 209.28H204.6V207.72H185.08V209.28ZM177 197.88H213.04V202.76H177V197.88ZM230.08 206.48H222.88V200.84H233.6L235.08 197.84H242.24L241.04 200.84H253.6V206.48H237.56L235.92 209.4C238.44 208.04 239.8 207.6 241.48 207.6C243.48 207.6 245.04 208.52 245.96 210.2C246.4 211.08 246.52 211.88 246.52 214.4L255.56 213.44V219.84L246.52 220.52V225.6H239.72V221.68C235.24 222.84 233.84 223.8 233.84 225.68C233.84 227.48 234.88 227.96 238.88 227.96C242.92 227.96 248.28 227.76 253.44 227.4V233.76C250.6 233.84 249.52 233.88 247.6 233.88C236.8 233.88 233.92 233.72 231.6 232.92C229.52 232.24 227.96 230.68 227.08 228.4C226.72 227.52 226.56 226.68 226.56 225.8C226.56 223.2 228.36 220.6 231.52 218.76C233.64 217.48 235.36 216.84 239.72 215.72C239.72 214.4 239.64 213.84 239.4 213.4C239.08 212.84 238.48 212.52 237.76 212.52C235.4 212.52 232.84 214.12 230.32 217.28H222.6C225.8 213.24 227.44 210.88 230.08 206.48ZM272.72 197.72H279.68C279.28 200.52 276.92 206.04 274.8 209.16V234H268.24V216.32C266.84 218 266.12 218.64 264.12 220.04V211.16C267.88 208.44 271.6 202.68 272.72 197.72ZM283.04 197.72H290.28C289.8 199.28 289.8 199.28 288.64 202.48H300.92V208.4H287.88V211.48H300.24V217.48H287.88V221.08H300.24V227H287.88V234.16H280.96V214.04C279.32 215.88 278.44 216.72 276.24 218.44V209.52C278.76 207.8 281.96 202.24 283.04 197.72ZM313.56 233.68V226.8H322.36C328.52 226.8 330.72 226.16 332.96 223.64C334.44 222 335.28 219.24 335.28 216.12C335.28 214 335 210.84 334.68 209.68C334.32 208.32 333.36 207.4 332.2 207.4C331.6 207.4 330.92 207.8 330.16 208.72C329.44 209.56 328.8 210.52 325.2 216.2C321.16 222.6 320.68 222.92 315.96 223.04H313.76V198.76H320.8V211.92C327.72 201.28 328.96 200.04 333.04 200.04C336.56 200.04 339.04 201.56 340.44 204.52C341.56 206.96 342.4 211.8 342.4 215.72C342.4 222.12 340.8 226.44 337.28 229.56C335.44 231.16 333.08 232.32 330.04 233.04C328.08 233.52 326.24 233.68 322.8 233.68H313.56ZM352.64 226.68H366.64V197.88H373.64V208.12H387.64V214.48H373.64V226.68H389.4V232.88H352.64V226.68ZM399.64 198.84H406.6C405.2 207.68 404.72 213.16 404.72 220.04C404.72 224.48 404.92 227.92 405.48 233.44H398.72C398.28 229.44 398.2 228.04 398.2 224.12C398.2 213.64 398.32 211.44 399.64 198.84ZM417.2 213.76L408.24 213.88V207.32L417.2 207.16V198.84H424.28V207.04L431.84 206.96V213.6L424.28 213.68V221.52C424.28 225.4 422.32 229.12 419.2 231.16C416.48 232.88 414.08 233.36 407.88 233.44V226.68C408.48 226.72 409 226.72 409.2 226.72C412.16 226.72 413.96 226.24 415.2 225.08C416.48 223.88 417.2 221.96 417.2 219.6V213.76ZM425.44 198.76H428.88V204.92H425.44V198.76ZM430 198.76H433.44V204.92H430V198.76ZM460.88 205.12L446.68 205.36V199.24H471.32V205.12L461.96 210.76C463.84 210.52 464.56 210.48 465.44 210.48C471.32 210.48 475.88 214.88 475.88 220.64C475.88 224.4 474.4 227.88 471.88 230.16C469.08 232.64 465.04 233.84 459.48 233.84C451 233.84 446.52 231.28 446.52 226.36C446.52 222.28 450.12 219.12 454.8 219.12C459.32 219.12 462.88 221.96 462.88 225.56C462.88 225.96 462.84 226.64 462.76 227.28C465.32 227 466.56 226.48 467.48 225.24C468.32 224.12 468.8 222.68 468.8 221.12C468.8 217.64 466.36 215.76 461.84 215.76C457.76 215.76 454.24 216.52 449.96 218.4C446.68 219.8 445.2 220.64 442.72 222.52V215.56C443.04 215.32 443.96 214.76 444.04 214.72C445.36 214 446.68 213.2 448 212.44C448.92 211.92 450.36 211.08 451.92 210.16C456.16 207.64 456.64 207.36 460.88 205.12ZM456.6 228L456.92 227.96C456.6 225.84 455.88 224.96 454.36 224.96C453.48 224.96 453 225.32 453 226.04C453 227.16 454.32 228 456.08 228H456.44H456.6ZM498.28 197.6H508.08L506.16 224.6H500L498.28 197.6ZM499.16 226.52H506.92V234.08H499.16V226.52Z" fill="white"/>
</g>
<g filter="url(#filter1_d_5_3)">
<path d="M51.68 118.78H46.1C47.84 116.14 48.92 113.74 49.4 111.4H43.7V101.2H54.56V108.88C54.56 112.6 53.66 115.6 51.68 118.78ZM37.16 118.78H31.58C33.62 115.66 34.64 113.56 35.18 111.4H29.72V101.2H40.64V109C40.7 112.48 39.92 114.7 37.16 118.78Z" fill="white"/>
</g>
<g filter="url(#filter2_d_5_3)">
<path d="M82.88 100.6H92.84C91.88 104.68 88.46 112.78 85.7 117.4V154.9H76.04V128.68L70.58 133V119.92C75.8 116.56 80.3 109.48 82.88 100.6ZM88.22 116.08H101.36V100.84H111.62V116.08H124.88V125.2H111.62V144.28H123.02V153.28H89.54V144.28H101.36V125.2H88.22V116.08ZM136.52 131.44H158.78V129.64H139.52V124.6H158.78V122.92H141.8V110.86H158.78V109H138.14V103H158.78V99.88H168.98V103H189.86V109H168.98V110.86H186.74V118.3C186.62 121.9 185.54 122.92 181.7 122.92H168.98V124.6H187.46V131.44H191.42V137.5H187.46V139.18C187.46 143.2 185.6 144.76 180.86 144.76H168.98V149.2C168.98 153.22 166.82 155.26 162.56 155.38H149.24V147.04H158.78V144.76H139.52V139.18H158.78V137.5H136.52V131.44ZM151.28 118.18H158.78V115.78H151.28V118.18ZM168.98 118.18H176.24V115.78H168.98V118.18ZM168.98 139.18H177.62V137.5H168.98V139.18ZM168.98 131.44H177.62V129.64H168.98V131.44ZM208.88 101.68H219.68L219.44 132.1L219.38 134.26V135.7C219.38 139.6 219.74 141.76 220.64 143.02C221.72 144.46 224.24 145.24 227.84 145.24C232.88 145.24 236.96 143.56 239.66 140.32C242.42 136.96 243.56 132.52 243.92 123.82H255.08C253.82 137.5 252.32 142.72 248.12 147.58C243.92 152.5 236 155.56 227.6 155.56C218.72 155.56 212.72 152.62 210.2 147.04C209.12 144.7 208.64 139.54 208.7 130.9L208.88 101.68ZM310.16 99.82H315.44V108.52H310.16V99.82ZM317.24 99.82H322.52V108.52H317.24V99.82ZM269.6 108.04L294.5 107.68L298.58 107.62C307.28 107.62 310.94 108.52 314.3 111.4C318.98 115.36 321.86 122.14 321.86 129.04C321.86 137.2 317.96 144.82 311.66 148.72C306.92 151.66 300.98 152.68 288.2 152.68H273.5V142.12H286.88C297.02 142.12 301.46 141.7 304.22 140.38C308.24 138.52 310.76 133.9 310.76 128.56C310.76 124.3 308.9 120.64 306.14 119.38C304.22 118.54 300.86 118.12 295.82 118.12H294.5L269.6 118.72V108.04ZM340.76 154.42V144.34H354.08C364.64 144.34 364.64 144.34 366.62 144.16C370.46 143.86 371.84 143.38 372.86 142.12C373.76 140.92 374.24 139.54 374.24 138.16C374.24 134.56 371.18 132.46 366.02 132.46C362 132.46 357.98 133.66 354.74 135.76C353.24 136.72 352.22 137.62 350.3 139.78H340.76V115.48H351.08V128.44C359 124.48 363.32 123.22 368.54 123.22C378.74 123.22 385.88 129.28 385.88 138.04C385.88 144.16 382.94 149.32 377.9 152.02C375.26 153.46 372.56 154.06 367.4 154.3C364.88 154.42 362.96 154.42 354.14 154.42H340.76ZM378.5 103.66V113.02C363.98 112.06 356.24 111.76 346.88 111.76H340.34V102.52C361.28 102.76 362.6 102.82 378.5 103.66ZM403.82 104.62H414.44V132.4C414.5 139.6 414.5 139.6 414.98 140.2C415.4 140.68 415.94 140.92 416.72 140.92C417.98 140.92 420.86 139.6 426.92 136.18V148.42C417.74 152.62 415.52 153.4 412.82 153.4C409.94 153.4 407.42 152.26 405.92 150.22C404.3 148.06 403.82 145.96 403.82 140.74V104.62ZM452.84 151.18H441.92V129.82C441.86 123.52 441.38 121.18 439.88 119.86C438.98 119.14 438.02 118.84 436.4 118.78H432.26H430.7V107.98C442.16 108.1 444.44 108.64 447.98 111.64C452.18 115.66 452.9 118.24 452.84 129.88V151.18Z" fill="white"/>
</g>
<g filter="url(#filter3_d_5_3)">
<path d="M491.68 118.78H486.1C487.84 116.14 488.92 113.74 489.4 111.4H483.7V101.2H494.56V108.88C494.56 112.6 493.66 115.6 491.68 118.78ZM477.16 118.78H471.58C473.62 115.66 474.64 113.56 475.18 111.4H469.72V101.2H480.64V109C480.7 112.48 479.92 114.7 477.16 118.78Z" fill="white"/>
</g>
<g filter="url(#filter4_d_5_3)">
<path d="M506.28 126.64H513.36C513.68 124.28 513.76 123.44 514.08 118.88H520.68C520.44 121.92 520.32 122.92 519.88 126.64H522.8C526.24 126.64 527.68 127.2 528.8 128.96C529.88 130.72 530.2 133.36 530.2 140.8C530.2 145.4 529.96 146.96 529.04 148.92C528.08 150.96 525.88 152.52 523.56 152.88C522.2 153.12 521.96 153.12 517.76 153.12V146.52C518.32 146.56 518.76 146.56 519 146.56C522.2 146.56 523.16 145.2 523.16 140.8C523.16 137.4 523 134.96 522.72 134.48C522.4 133.92 521.84 133.64 520.88 133.56C520.56 133.52 520.56 133.52 518.8 133.52C517.08 141.32 515.48 147.4 513.6 153.12H506.28C509.44 145.2 510.68 141.12 512.28 133.52H506.28V126.64ZM528.76 117.4H532.56V123.68H528.76V117.4ZM530.48 124.92H537.32C539.88 129.48 540.44 132.56 540.44 142.32L540.4 145.12H533.48C533.6 142.84 533.64 141.68 533.64 139.72C533.64 132.36 533.44 131.44 530.48 124.92ZM533.72 117.4H537.6V123.68H533.72V117.4ZM548.04 129.52H551.92V126.88C550.84 127.68 550.6 127.88 549.04 128.76V122.28C551.96 120.92 553.2 119.8 554.48 117.24H562.16C561.32 118.76 561.2 118.96 560.36 120.12H583.84V125.68H581.56V129.52H585.4V135.6H581.56V139.52H583.84V145.16H549.32V139.52H551.92V135.6H548.04V129.52ZM557.96 139.52H559.64V135.6H557.96V139.52ZM557.96 129.52H559.64V125.68H557.96V129.52ZM565.56 139.52H567.48V135.6H565.56V139.52ZM565.56 129.52H567.48V125.68H565.56V129.52ZM573.4 139.52H575.48V135.6H573.4V139.52ZM573.4 129.52H575.48V125.68H573.4V129.52ZM550.72 146.56H556.96C556.32 149.72 555.72 151.6 554.72 153.8H547.8C549.2 151.2 550 149.2 550.72 146.56ZM559.04 146.56H565.32C565.24 149.64 565.12 151.08 564.72 153.8H558.16C558.76 150.28 558.92 149.16 559.04 146.56ZM567.84 146.56H573.84C574.08 148.36 574.64 151.8 575.08 153.8H568.56C568.24 151.56 568.2 151.16 567.84 146.56ZM576.08 146.56H582.76C583.12 148.12 584.4 151.4 585.6 153.8H578.56C577.68 151.64 577.24 150.4 576.08 146.56ZM594.88 120.08H601.96V138.6C602 143.4 602 143.4 602.32 143.8C602.6 144.12 602.96 144.28 603.48 144.28C604.32 144.28 606.24 143.4 610.28 141.12V149.28C604.16 152.08 602.68 152.6 600.88 152.6C598.96 152.6 597.28 151.84 596.28 150.48C595.2 149.04 594.88 147.64 594.88 144.16V120.08ZM627.56 151.12H620.28V136.88C620.24 132.68 619.92 131.12 618.92 130.24C618.32 129.76 617.68 129.56 616.6 129.52H613.84H612.8V122.32C620.44 122.4 621.96 122.76 624.32 124.76C627.12 127.44 627.6 129.16 627.56 136.92V151.12Z" fill="white"/>
</g>
<g filter="url(#filter5_d_5_3)">
<path d="M186.8 32.12H180.56V26.12H184.52V21.68H190.6V26.12H193.44V30.96C192.48 34.04 191.88 35.52 190.4 38.08C191.72 37.08 192.24 36.6 193.88 34.84V41L191.52 42.76L192.68 44.04L193.8 45.28V51.24C192.8 50.16 192.64 50.04 191.76 49.12C191.2 48.52 190.6 47.96 190.04 47.4V57.84H183.96V47.56C181.92 50.08 181.76 50.2 180.32 51.32V42.68C182.6 41 185.96 35.48 186.8 32.12ZM194.24 30.48V25.16H202.16V21.68H208.24V25.16H210.88L209.56 21.88H215.08L216.6 25.16H217.48V30.48H208.24V32H215.84V51.72C215.92 56.64 214.68 57.8 209.4 57.72H206.56V55.08H202.16V49.92H200.4V57.84H194.76V32H202.16V30.48H194.24ZM200.4 45.24H202.16V43.12H200.4V45.24ZM200.4 38.76H202.16V36.8H200.4V38.76ZM209.92 49.8H208.24V51.92H209.92V49.8ZM208.24 45.24H209.92V43.12H208.24V45.24ZM208.24 38.76H209.92V36.8H208.24V38.76ZM224.64 56.08V49.12L226.68 49.08V22.96H241.2V47.56L242.92 47.32V49.8C245.04 48.48 245.36 46.6 245.64 35.2H242.36V28.92H245.64V22.4H252.28V28.92H260.36V50.32C260.36 55.08 257.56 57.52 252.04 57.56H249.92V51.72C248.44 54.72 245.8 56.72 241.4 58.2V54.08L224.64 56.08ZM232.68 48.6L235.52 48.28V45.48H232.68V48.6ZM232.68 40.36H235.52V37.4H232.68V40.36ZM232.68 32.32H235.52V29.44H232.68V32.32ZM250.16 50.88H251.56C253.8 50.8 254.32 50.16 254.36 47.52V35.2H252.16C251.92 43.52 251.32 48.36 250.16 50.88ZM281.414 31.4062H293.328C290.932 29.8438 288.706 28.112 286.648 26.2109C284.904 28.2682 283.159 30 281.414 31.4062ZM284.148 37.1484H275.594V35.0391C274.109 35.8464 272.599 36.4453 271.062 36.8359L268.523 31.9141C274.695 29.7005 279.904 26.0677 284.148 21.0156H290.047L289.734 21.9141C294.318 25.8984 299.552 28.8021 305.438 30.625L303.133 36.3281C301.388 35.7292 299.669 34.9609 297.977 34.0234V37.1484H289.383V39.3359H303.602V44.8047H289.383V52.9297H291.492L294.422 45.2734L299.93 47.2266L297.742 52.9297H304.422V58.5938H268.914V52.9297H275.711L273.25 47.2266L278.406 45.1953L282 52.9297H284.148V44.8047H269.93V39.3359H284.148V37.1484ZM319.864 35.384H314.104V30.872H322.68L323.864 28.472H329.592L328.632 30.872H338.68V35.384H325.848L324.536 37.72C326.552 36.632 327.64 36.28 328.984 36.28C330.584 36.28 331.832 37.016 332.568 38.36C332.92 39.064 333.016 39.704 333.016 41.72L340.248 40.952V46.072L333.016 46.616V50.68H327.576V47.544C323.992 48.472 322.872 49.24 322.872 50.744C322.872 52.184 323.704 52.568 326.904 52.568C330.136 52.568 334.424 52.408 338.552 52.12V57.208C336.28 57.272 335.416 57.304 333.88 57.304C325.24 57.304 322.936 57.176 321.08 56.536C319.416 55.992 318.168 54.744 317.464 52.92C317.176 52.216 317.048 51.544 317.048 50.84C317.048 48.76 318.488 46.68 321.016 45.208C322.712 44.184 324.088 43.672 327.576 42.776C327.576 41.72 327.512 41.272 327.32 40.92C327.064 40.472 326.584 40.216 326.008 40.216C324.12 40.216 322.072 41.496 320.056 44.024H313.88C316.44 40.792 317.752 38.904 319.864 35.384ZM354.48 21.28H360.8C360.64 22.72 360.6 22.92 360.4 24.2H368.32V21.36H375.08V24.2H384.52V29.88H375.08V31.6H383.44V39.24C383.32 42.48 381.88 43.64 377.92 43.68H374.76C374.48 46.56 374.04 48.04 372.84 50.64C375.12 51.4 377.92 51.64 384.6 51.68V57.68C376.52 57.6 372.84 57 368.8 55.16C366.04 57.04 362.72 58.04 358.32 58.28V51.68C360.4 51.64 362.24 51.32 363 50.84C361.44 49.04 360.16 46.88 359.52 44.88H365.72C366.4 46.12 366.56 46.36 367.2 47.04C367.72 45.96 367.84 45.52 368.04 43.68H360.08V31.6H368.32V29.88H359.88V25.96C359 28.68 358.32 30.16 356.8 32.92V57.88H350.72V40.68C349.28 42.08 348.8 42.48 347.56 43.12V34.52C351.32 30.8 353.52 26.6 354.48 21.28ZM365.92 38.72H368.32V36.36H365.92V38.72ZM375.08 38.72H377.2V36.36H375.08V38.72ZM394.44 35.64V29.56L410.08 29.4H410.72C417.36 29.4 420.08 30.2 422.56 32.92C424.76 35.28 425.96 38.56 425.96 42.16C425.96 46.56 423.92 50.76 420.64 53.16C417.64 55.36 413.48 56.2 405.72 56.2H397.32V50.32H405.72C410.48 50.32 413.96 49.64 416.08 48.36C417.84 47.24 419 44.8 419 42.12C419 40.12 418.16 37.96 416.96 36.88C416.24 36.24 415.36 35.8 414.36 35.64C414.2 35.64 410.36 35.44 410 35.48L394.44 35.64ZM437.96 31.16V24.16L469.88 24V30.36C468.72 30.76 467.6 31.12 466.52 31.48C460.56 33.4 458 34.8 455.44 37.64C453.56 39.72 452.6 41.96 452.6 44.28C452.6 46.08 453.48 47.92 454.72 48.64C456.2 49.52 458.84 50 462.44 50C463.64 50 465.76 49.88 468.12 49.72V56.72C465.76 56.84 463.56 56.88 462.32 56.88C456.72 56.88 452.92 56.16 450 54.48C446.76 52.68 444.96 49.24 444.96 44.96C444.96 42.16 445.76 39.48 447.36 37C448.92 34.56 450.36 33.2 453.72 30.88L437.96 31.16Z" fill="white"/>
</g>
<circle cx="198" cy="5" r="5" fill="white"/>
<circle cx="242" cy="5" r="5" fill="white"/>
<circle cx="286" cy="5" r="5" fill="white"/>
<defs>
<filter id="filter0_d_5_3" x="124.24" y="191.6" width="391.84" height="52.76" filterUnits="userSpaceOnUse" color-interpolation-filters="sRGB">
<feFlood flood-opacity="0" result="BackgroundImageFix"/>
<feColorMatrix in="SourceAlpha" type="matrix" values="0 0 0 0 0 0 0 0 0 0 0 0 0 0 0 0 0 0 127 0" result="hardAlpha"/>
<feOffset dy="2"/>
<feGaussianBlur stdDeviation="4"/>
<feComposite in2="hardAlpha" operator="out"/>
<feColorMatrix type="matrix" values="0 0 0 0 0 0 0 0 0 0 0 0 0 0 0 0 0 0 0.25 0"/>
<feBlend mode="normal" in2="BackgroundImageFix" result="effect1_dropShadow_5_3"/>
<feBlend mode="normal" in="SourceGraphic" in2="effect1_dropShadow_5_3" result="shape"/>
</filter>
<filter id="filter1_d_5_3" x="21.72" y="95.2" width="40.84" height="33.58" filterUnits="userSpaceOnUse" color-interpolation-filters="sRGB">
<feFlood flood-opacity="0" result="BackgroundImageFix"/>
<feColorMatrix in="SourceAlpha" type="matrix" values="0 0 0 0 0 0 0 0 0 0 0 0 0 0 0 0 0 0 127 0" result="hardAlpha"/>
<feOffset dy="2"/>
<feGaussianBlur stdDeviation="4"/>
<feComposite in2="hardAlpha" operator="out"/>
<feColorMatrix type="matrix" values="0 0 0 0 0 0 0 0 0 0 0 0 0 0 0 0 0 0 0.25 0"/>
<feBlend mode="normal" in2="BackgroundImageFix" result="effect1_dropShadow_5_3"/>
<feBlend mode="normal" in="SourceGraphic" in2="effect1_dropShadow_5_3" result="shape"/>
</filter>
<filter id="filter2_d_5_3" x="62.58" y="93.82" width="398.32" height="71.74" filterUnits="userSpaceOnUse" color-interpolation-filters="sRGB">
<feFlood flood-opacity="0" result="BackgroundImageFix"/>
<feColorMatrix in="SourceAlpha" type="matrix" values="0 0 0 0 0 0 0 0 0 0 0 0 0 0 0 0 0 0 127 0" result="hardAlpha"/>
<feOffset dy="2"/>
<feGaussianBlur stdDeviation="4"/>
<feComposite in2="hardAlpha" operator="out"/>
<feColorMatrix type="matrix" values="0 0 0 0 0 0 0 0 0 0 0 0 0 0 0 0 0 0 0.25 0"/>
<feBlend mode="normal" in2="BackgroundImageFix" result="effect1_dropShadow_5_3"/>
<feBlend mode="normal" in="SourceGraphic" in2="effect1_dropShadow_5_3" result="shape"/>
</filter>
<filter id="filter3_d_5_3" x="461.72" y="95.2" width="40.84" height="33.58" filterUnits="userSpaceOnUse" color-interpolation-filters="sRGB">
<feFlood flood-opacity="0" result="BackgroundImageFix"/>
<feColorMatrix in="SourceAlpha" type="matrix" values="0 0 0 0 0 0 0 0 0 0 0 0 0 0 0 0 0 0 127 0" result="hardAlpha"/>
<feOffset dy="2"/>
<feGaussianBlur stdDeviation="4"/>
<feComposite in2="hardAlpha" operator="out"/>
<feColorMatrix type="matrix" values="0 0 0 0 0 0 0 0 0 0 0 0 0 0 0 0 0 0 0.25 0"/>
<feBlend mode="normal" in2="BackgroundImageFix" result="effect1_dropShadow_5_3"/>
<feBlend mode="normal" in="SourceGraphic" in2="effect1_dropShadow_5_3" result="shape"/>
</filter>
<filter id="filter4_d_5_3" x="498.28" y="111.24" width="137.32" height="52.56" filterUnits="userSpaceOnUse" color-interpolation-filters="sRGB">
<feFlood flood-opacity="0" result="BackgroundImageFix"/>
<feColorMatrix in="SourceAlpha" type="matrix" values="0 0 0 0 0 0 0 0 0 0 0 0 0 0 0 0 0 0 127 0" result="hardAlpha"/>
<feOffset dy="2"/>
<feGaussianBlur stdDeviation="4"/>
<feComposite in2="hardAlpha" operator="out"/>
<feColorMatrix type="matrix" values="0 0 0 0 0 0 0 0 0 0 0 0 0 0 0 0 0 0 0.25 0"/>
<feBlend mode="normal" in2="BackgroundImageFix" result="effect1_dropShadow_5_3"/>
<feBlend mode="normal" in="SourceGraphic" in2="effect1_dropShadow_5_3" result="shape"/>
</filter>
<filter id="filter5_d_5_3" x="172.32" y="15.0156" width="305.56" height="53.5781" filterUnits="userSpaceOnUse" color-interpolation-filters="sRGB">
<feFlood flood-opacity="0" result="BackgroundImageFix"/>
<feColorMatrix in="SourceAlpha" type="matrix" values="0 0 0 0 0 0 0 0 0 0 0 0 0 0 0 0 0 0 127 0" result="hardAlpha"/>
<feOffset dy="2"/>
<feGaussianBlur stdDeviation="4"/>
<feComposite in2="hardAlpha" operator="out"/>
<feColorMatrix type="matrix" values="0 0 0 0 0 0 0 0 0 0 0 0 0 0 0 0 0 0 0.25 0"/>
<feBlend mode="normal" in2="BackgroundImageFix" result="effect1_dropShadow_5_3"/>
<feBlend mode="normal" in="SourceGraphic" in2="effect1_dropShadow_5_3" result="shape"/>
</filter>
</defs>
</svg>
