<svg width="214" height="10" viewBox="0 0 214 10" fill="none" xmlns="http://www.w3.org/2000/svg">
<path d="M-0.401093 7.55893C-0.225113 7.68763 0.00762939 7.80582 0.302826 7.8938C0.598007 7.9831 0.949982 8.03826 1.30762 8.05927C2.0314 8.10261 2.75235 8.03563 3.42221 7.94371C4.09491 7.84915 4.73354 7.72046 5.35231 7.58125C6.58984 7.30153 7.75075 6.97454 8.88611 6.64098C10.0215 6.30742 11.1284 5.96204 12.224 5.62453L12.0651 5.70464C13.1692 5.25289 14.3216 4.77618 15.5506 4.30867C16.1637 4.07623 16.7967 3.8451 17.4495 3.63104C18.0995 3.4183 18.7751 3.21869 19.4307 3.07161C19.7571 2.99938 20.0779 2.9416 20.3617 2.90745C20.7761 2.85755 21.2359 2.80502 21.6702 2.75906C22.5444 2.66582 23.4187 2.58439 24.2219 2.5555C25.0309 2.52661 25.7234 2.5555 26.2655 2.66319C26.8077 2.76693 27.3157 2.96523 27.8068 3.27253C28.2921 3.5772 28.7321 3.96592 29.1181 4.38615C29.5041 4.8077 29.8476 5.26471 30.1626 5.73747C30.3216 5.97385 30.4692 6.21549 30.6168 6.46106L30.8297 6.8314L30.9404 7.02838C30.9829 7.10455 31.0312 7.18072 31.0823 7.25688C31.2895 7.56155 31.5591 7.8741 31.9452 8.1814C32.3283 8.48739 32.8364 8.78812 33.4807 9.04157C34.1194 9.29634 34.8914 9.49201 35.6776 9.61151C36.4695 9.73364 37.2671 9.78355 38.025 9.79143C39.5492 9.80325 40.9372 9.66536 42.2457 9.48413C44.8598 9.10986 47.2157 8.55042 49.5261 7.94371C51.8309 7.33174 54.0704 6.65542 56.2985 5.95416C58.5295 5.2542 60.7491 4.51879 62.9914 3.82015L63.8316 3.56276C64.1069 3.48002 64.3822 3.39991 64.6604 3.32112C65.2167 3.16484 65.7787 3.01776 66.3436 2.88644C67.4732 2.62379 68.6341 2.41761 69.7184 2.34539C70.8083 2.27185 71.7535 2.33488 72.6277 2.55944C73.5076 2.78138 74.3336 3.17666 75.0546 3.656C75.7783 4.13533 76.4028 4.69214 76.9648 5.2739C77.2458 5.56544 77.5098 5.86486 77.7624 6.16953L78.1314 6.63047L78.4947 7.10718C78.7785 7.47751 79.1362 7.84915 79.6215 8.20898C80.104 8.56749 80.7256 8.9155 81.5005 9.20572C82.2697 9.49595 83.1951 9.71526 84.1402 9.84264C85.0883 9.97134 86.0476 10.0107 86.9587 9.99761C88.7838 9.96609 90.4273 9.7494 91.96 9.48019C93.4927 9.20704 94.9233 8.87216 96.2999 8.50971C99.0474 7.77955 101.585 6.93645 104.043 6.05396C105.269 5.6114 106.473 5.15834 107.659 4.69739L109.427 4.00138L110.279 3.66256C110.554 3.55619 110.835 3.45244 111.116 3.35132C112.243 2.94947 113.43 2.59884 114.633 2.36377C115.836 2.12739 117.043 2.02102 118.102 2.10506C119.16 2.18386 120.134 2.45701 120.991 2.88119C121.845 3.30405 122.558 3.85429 123.145 4.44394C123.736 5.03489 124.213 5.6705 124.613 6.32055C124.712 6.48339 124.809 6.64754 124.899 6.8117L125.05 7.08222C125.11 7.18203 125.175 7.28315 125.249 7.38295C125.541 7.78349 125.961 8.19322 126.588 8.56618C127.213 8.93782 128.07 9.26219 129.021 9.46049C129.969 9.66404 130.962 9.7494 131.893 9.77042C132.827 9.79011 133.713 9.75072 134.556 9.68243C135.399 9.61414 136.205 9.51565 136.985 9.40271C138.544 9.17552 140.005 8.88923 141.416 8.58062C142.827 8.2707 144.189 7.93845 145.523 7.59439C148.188 6.90625 150.737 6.17478 153.255 5.46432C154.512 5.10975 155.761 4.75911 157.004 4.4308C158.253 4.09856 159.468 3.80702 160.754 3.54437C162.023 3.28435 163.297 3.05716 164.538 2.92584C165.778 2.7932 166.962 2.76693 167.921 2.91664C168.883 3.05847 169.709 3.39203 170.41 3.84773C171.111 4.30079 171.676 4.8471 172.161 5.40916C172.406 5.69151 172.63 5.98042 172.84 6.27065L173.146 6.70927L173.294 6.92989C173.348 7.01 173.407 7.09798 173.47 7.18203C173.723 7.51953 174.052 7.85703 174.5 8.17878C174.949 8.49789 175.533 8.80125 176.246 9.03632C176.955 9.2727 177.779 9.43291 178.593 9.51302C179.408 9.59576 180.211 9.60757 180.969 9.58394C182.49 9.53141 183.864 9.34755 185.156 9.13087C187.73 8.687 190.012 8.09998 192.186 7.49983C194.355 6.89443 196.398 6.26145 198.365 5.62847C200.33 4.99549 202.214 4.36251 204.037 3.74004L206.719 2.81684L208.022 2.36509C208.442 2.22063 208.865 2.08143 209.29 1.9501C208.714 2.11032 208.152 2.27973 207.576 2.46358L205.825 3.01514L202.288 4.11825C199.918 4.84973 197.525 5.57069 195.132 6.24175C192.74 6.9115 190.347 7.5366 187.954 8.04482C186.756 8.29697 185.561 8.52022 184.361 8.68962C183.163 8.85903 181.96 8.97722 180.784 8.99167C179.612 9.00743 178.457 8.90368 177.535 8.64629C176.606 8.39283 175.956 8.00805 175.525 7.61934C175.306 7.42367 175.136 7.22537 174.997 7.02969C174.855 6.83534 174.756 6.63966 174.642 6.45318C174.418 6.08023 174.191 5.73878 173.967 5.4328C173.22 4.39403 172.442 3.77025 172.218 3.59953C172.4 3.7361 172.933 4.1524 173.518 4.83397C173.884 5.25551 174.268 5.77556 174.651 6.37964C174.844 6.683 175.008 7.00474 175.309 7.32386C175.602 7.64166 176.002 7.9634 176.575 8.23656C177.143 8.50971 177.901 8.72245 178.766 8.83014C179.629 8.93914 180.577 8.95096 181.528 8.89974C183.438 8.79468 185.374 8.46637 187.29 8.06584C191.125 7.25032 194.945 6.12356 198.709 4.9561C200.588 4.36908 202.453 3.76631 204.283 3.16485L207 2.26397C207.891 1.96324 208.782 1.67826 209.702 1.43006C210.622 1.18317 211.564 0.96649 212.532 0.843045C213.014 0.781323 213.503 0.745867 213.974 0.756372C214.442 0.766878 214.885 0.831227 215.237 0.954671C215.592 1.0768 215.856 1.25146 216.043 1.44319C216.23 1.63493 216.347 1.84373 216.426 2.05122C216.579 2.47014 216.591 2.89169 216.557 3.29617C216.477 4.10775 216.21 4.8576 215.941 5.52998C215.665 6.20236 215.367 6.79594 215.106 7.30153C214.581 8.31272 214.209 8.96934 214.221 9.17289C214.223 9.35937 214.785 8.87085 215.603 7.83208C216.009 7.31204 216.477 6.65411 216.928 5.86486C217.153 5.46957 217.371 5.04146 217.561 4.5792C217.749 4.11563 217.911 3.61791 217.976 3.07686C218.007 2.80633 218.013 2.52399 217.964 2.2272C217.913 1.9304 217.811 1.61654 217.559 1.28429C217.431 1.11882 217.258 0.946792 217.014 0.778697C216.77 0.611917 216.446 0.447762 216.043 0.319065C215.646 0.189054 215.18 0.0984411 214.72 0.0511646C214.26 0.00257492 213.812 -0.00661755 213.389 0.00388813C212.543 0.0275269 211.791 0.126019 211.081 0.245524C210.372 0.366342 209.708 0.513424 209.06 0.674952C208.413 0.836479 207.789 1.01114 207.176 1.19631C206.869 1.28823 206.563 1.38541 206.265 1.47997L205.388 1.75968C203.037 2.51085 200.585 3.2896 198.048 4.06441C195.51 4.83659 192.887 5.60746 190.185 6.30085C188.599 6.74341 186.944 7.1689 185.224 7.51822C184.367 7.69156 183.489 7.84521 182.618 7.95684C181.747 8.06846 180.872 8.13675 180.081 8.12625C179.286 8.11574 178.613 8.02775 178.06 7.84521C177.5 7.66399 177.024 7.36588 176.66 6.98898C176.569 6.89574 176.487 6.79725 176.408 6.69482L176.297 6.53986L176.169 6.35338C175.999 6.10386 175.817 5.85435 175.624 5.60221C175.235 5.10055 174.804 4.59364 174.262 4.08936C173.72 3.58639 173.073 3.07817 172.167 2.61066C171.713 2.37822 171.188 2.15759 170.583 1.97374C169.982 1.78858 169.298 1.64281 168.594 1.55351C167.169 1.37097 165.741 1.40905 164.455 1.5233C163.161 1.64018 161.96 1.83191 160.802 2.04991C159.638 2.27053 158.537 2.51217 157.416 2.78269C156.309 3.05322 155.245 3.34345 154.183 3.63892C152.068 4.22988 149.982 4.84579 147.862 5.44593C145.742 6.04477 143.59 6.63441 141.368 7.16364C140.258 7.4276 139.128 7.67449 137.979 7.89118C136.829 8.10786 135.657 8.29303 134.473 8.41122C133.295 8.52678 132.095 8.57669 131.019 8.469C129.943 8.36394 129.046 8.08554 128.439 7.65085C128.132 7.43548 127.891 7.18991 127.707 6.92726C127.533 6.67643 127.377 6.35601 127.187 6.06447C126.815 5.46957 126.381 4.87862 125.847 4.30079C125.311 3.72297 124.675 3.15565 123.855 2.63167C123.037 2.11032 122.013 1.62311 120.713 1.29874C120.069 1.13721 119.362 1.02033 118.635 0.961237C117.909 0.900827 117.168 0.896888 116.45 0.936285C115.011 1.0177 113.679 1.26197 112.462 1.56532C111.244 1.87131 110.126 2.24164 109.073 2.63955C108.809 2.73936 108.55 2.84048 108.295 2.94422L107.543 3.24758L106.03 3.84904C104.003 4.64486 101.934 5.41573 99.7911 6.13538C97.6453 6.85109 95.4285 7.52347 93.0812 8.06058C91.9089 8.32717 90.6997 8.55961 89.4594 8.71983C88.2218 8.87873 86.9389 8.96672 85.7014 8.8958C84.4666 8.82883 83.3143 8.57406 82.4571 8.16302C81.5942 7.75197 81.0123 7.22143 80.6036 6.6633C79.7322 5.51553 78.7587 4.37827 77.3508 3.34213C76.6412 2.82866 75.8124 2.33882 74.7565 1.95142C74.2314 1.75837 73.6467 1.59553 73.0166 1.47865C72.3893 1.36046 71.7195 1.29217 71.0496 1.26985C69.7042 1.22651 68.3872 1.36309 67.1724 1.56795C65.9519 1.77413 64.8108 2.0486 63.718 2.34801C62.6253 2.64874 61.5893 2.97705 60.5589 3.30142L57.502 4.27847C55.4782 4.92589 53.4658 5.55887 51.4364 6.15114C49.4069 6.74078 47.3604 7.29365 45.2628 7.7546C44.2155 7.98442 43.1539 8.19059 42.0782 8.35344C41.0053 8.51628 39.9125 8.63709 38.8311 8.67124C37.7553 8.70407 36.6824 8.64103 35.8025 8.4191C34.9169 8.2011 34.267 7.82945 33.8469 7.40003C33.634 7.18597 33.4722 6.95878 33.3473 6.72634C33.2167 6.48208 33.0833 6.23519 32.9414 5.99224C32.6604 5.50503 32.3539 5.02307 31.9962 4.55162C31.6386 4.08017 31.2384 3.61528 30.7275 3.1701C30.2166 2.72754 29.5921 2.29548 28.7207 1.94616C28.2865 1.77282 27.7898 1.62573 27.2533 1.52067C26.7197 1.4143 26.1548 1.35127 25.6042 1.31975C24.4944 1.25934 23.4442 1.31187 22.4507 1.38278C21.4516 1.45764 20.5235 1.55482 19.5726 1.65725C18.5082 1.78464 17.6142 2.00263 16.7825 2.22982C15.1277 2.69208 13.7029 3.21606 12.3433 3.72166C10.1889 4.66062 8.36099 5.5221 6.67783 6.21549C5.83768 6.56218 5.04008 6.86817 4.27657 7.11899C3.51303 7.3672 2.78073 7.56287 2.10803 7.66399C1.4325 7.76773 0.839279 7.75854 0.407852 7.65479C-0.0292664 7.55236 -0.315933 7.37639 -0.51178 7.22931C-0.707642 7.0796 -0.821182 6.94959 -0.894974 6.86423C-0.968781 6.77755 -1 6.73159 -1 6.73159C-0.90918 7.02313 -0.758728 7.31598 -0.409607 7.576L-0.401093 7.55893Z" fill="#FDB726"/>
</svg>
