<svg width="397" height="278" viewBox="0 0 397 278" fill="none" xmlns="http://www.w3.org/2000/svg">
<path fill-rule="evenodd" clip-rule="evenodd" d="M359.649 -216.395C355.088 -219.942 350.524 -223.341 345.964 -226.592V-226.589C269.032 -89.4246 273.45 47.743 359.214 184.911C356.253 187.072 353.293 189.174 350.332 191.217C360.892 196.365 372.3 200.866 384.651 204.644V204.648C384.651 204.647 384.651 204.645 384.651 204.644C384.331 191.562 383.748 178.754 382.994 166.289C380.032 168.766 377.069 171.185 374.107 173.544C280.533 43.5644 275.712 -86.4153 359.649 -216.395Z" fill="white" fill-opacity="0.1"/>
<path fill-rule="evenodd" clip-rule="evenodd" d="M291.799 -231.46C291.798 -231.46 291.797 -231.461 291.796 -231.461H291.8C291.8 -231.461 291.799 -231.46 291.799 -231.46ZM313.541 190.025C258.354 51.407 254.847 -87.2149 303.019 -225.833C299.278 -227.812 295.54 -229.686 291.799 -231.46C248.662 -88.8158 251.803 53.8282 301.22 196.472C298.769 197.684 296.318 198.853 293.868 199.98C301.19 206.793 309.065 213.226 317.557 219.23C318.894 207.974 319.982 196.827 320.891 185.842C318.441 187.278 315.991 188.673 313.541 190.025Z" fill="white" fill-opacity="0.1"/>
<path fill-rule="evenodd" clip-rule="evenodd" d="M251.54 -277.513C251.539 -277.513 251.538 -277.513 251.536 -277.514H251.54C251.54 -277.513 251.54 -277.513 251.54 -277.513ZM271.746 235.822C231.098 66.1071 229.085 -103.608 265.706 -273.323C260.985 -274.876 256.261 -276.274 251.54 -277.513C222.329 -104.852 223.936 67.8123 256.355 240.473C253.294 241.294 250.233 242.053 247.171 242.75C254.54 252.502 262.586 261.889 271.413 270.839C271.413 270.84 271.412 270.841 271.412 270.842H271.415C271.415 270.841 271.414 270.84 271.413 270.839C275.05 258.082 278.186 245.292 280.927 232.549C277.867 233.702 274.806 234.793 271.746 235.822Z" fill="white" fill-opacity="0.1"/>
<path fill-rule="evenodd" clip-rule="evenodd" d="M214.517 -284.009C211.795 -284.251 209.074 -284.438 206.352 -284.576L206.356 -284.572C201.634 -134.208 201.13 16.1534 204.841 166.518C203.446 166.582 202.052 166.631 200.657 166.665C203.304 173.092 206.089 179.464 209.033 185.767H209.037C211.495 179.109 213.816 172.412 216.019 165.69C214.627 165.832 213.235 165.96 211.843 166.073C205.289 16.0448 206.181 -133.98 214.517 -284.009Z" fill="white" fill-opacity="0.1"/>
<path fill-rule="evenodd" clip-rule="evenodd" d="M170.161 -264.907C166.049 -264.394 161.933 -263.762 157.817 -263.007H157.813C176.151 -97.25 174.75 68.507 153.613 234.264C151.147 233.788 148.682 233.271 146.217 232.711C149.629 243.971 153.404 255.19 157.631 266.316V266.32C164.243 256.946 170.282 247.294 175.826 237.418C172.993 237.16 170.159 236.847 167.326 236.478C181.576 69.3497 182.521 -97.7786 170.161 -264.907Z" fill="white" fill-opacity="0.1"/>
<path fill-rule="evenodd" clip-rule="evenodd" d="M128.035 -238.414C125.078 -237.421 122.117 -236.363 119.16 -235.243L119.156 -235.247C156.54 -72.5518 149.032 90.1429 96.6361 252.838C94.3528 251.9 92.0694 250.93 89.7857 249.927C91.4765 258.987 93.3661 268.075 95.4948 277.174C102.386 271.575 108.87 265.734 114.983 259.673C112.697 258.908 110.411 258.111 108.126 257.282C154.445 92.0485 161.082 -73.1812 128.035 -238.414Z" fill="white" fill-opacity="0.1"/>
<path fill-rule="evenodd" clip-rule="evenodd" d="M87.0745 -208.296C83.8006 -206.518 80.5267 -204.658 77.2528 -202.718C125.497 -79.2937 121.417 44.1311 65.0185 167.556C62.8631 166.203 60.7078 164.816 58.5527 163.396C58.9602 173.261 59.4789 183.307 60.1559 193.49V193.493C68.051 188.61 75.4206 183.332 82.322 177.701C80.167 176.526 78.0117 175.319 75.8563 174.078C127.576 46.6199 131.317 -80.8379 87.0745 -208.296Z" fill="white" fill-opacity="0.1"/>
<path fill-rule="evenodd" clip-rule="evenodd" d="M41.3526 -164.105C41.3521 -164.105 41.3516 -164.104 41.3511 -164.104V-164.108C41.3516 -164.107 41.3521 -164.106 41.3526 -164.105ZM34.4958 133.291C99.0266 31.9635 104.224 -69.3646 50.0882 -170.693C47.1752 -168.558 44.2656 -166.366 41.3526 -164.105C98.7328 -67.5908 93.2237 28.9235 24.8219 125.438C22.899 123.831 20.9762 122.197 19.0537 120.536C18.4306 129.09 17.8344 137.879 17.3022 146.877V146.88C25.4331 144.243 33.0755 141.191 40.2666 137.759C38.3432 136.297 36.4196 134.808 34.4958 133.291Z" fill="white" fill-opacity="0.1"/>
<path fill-rule="evenodd" clip-rule="evenodd" d="M100.055 -258.878C96.4179 -257.231 92.7836 -255.49 89.1493 -253.655H89.1527C134.986 -122.633 140.177 8.38931 104.729 139.411C102.876 138.564 101.023 137.691 99.1695 136.792C100.325 146.155 101.564 155.659 102.935 165.267C108.88 159.018 114.414 152.469 119.591 145.653C117.74 144.945 115.889 144.211 114.038 143.451C145.858 9.34125 141.196 -124.768 100.055 -258.878Z" fill="white" fill-opacity="0.1"/>
<path fill-rule="evenodd" clip-rule="evenodd" d="M12.8832 -295.958C7.34254 -292.039 1.80523 -287.942 -3.73544 -283.666C98.5268 -154.62 122.131 -25.5753 67.0743 103.473C64.942 102.1 62.8098 100.692 60.6778 99.2499C60.7467 101.573 60.8151 103.914 60.8839 106.273C61.1249 114.525 61.372 122.987 61.6681 131.626C69.809 126.219 77.2864 120.244 84.1844 113.764C82.0541 112.573 79.9235 111.349 77.7927 110.091C128.262 -25.259 106.626 -160.608 12.8832 -295.958Z" fill="white" fill-opacity="0.1"/>
<path d="M334.785 74.4879C334.936 69.308 335.108 64.2437 335.313 59.3021C331.544 61.7657 327.775 64.1317 324.006 66.3966C327.432 69.2575 331.022 71.9594 334.785 74.4843V74.4879Z" fill="white" fill-opacity="0.1"/>
<path d="M388.804 -229.236C391.33 -227.076 393.856 -224.872 396.379 -222.629C311.945 -127.233 290.894 -31.8378 333.229 63.5577C331.497 64.6847 329.766 65.7865 328.035 66.8701C287.3 -31.8342 307.553 -130.535 388.8 -229.239L388.804 -229.236Z" fill="white" fill-opacity="0.1"/>
<path fill-rule="evenodd" clip-rule="evenodd" d="M336.455 -242.197C332.572 -244.751 328.685 -247.2 324.798 -249.541C266.949 -120.777 260.466 7.98364 305.346 136.748C303.377 137.832 301.408 138.887 299.439 139.912C305.626 145.956 312.258 151.641 319.392 156.926V156.922C320.072 146.898 320.642 137.048 321.157 127.418C319.187 128.658 317.217 129.869 315.248 131.051C266.313 6.63531 273.385 -117.781 336.455 -242.197Z" fill="white" fill-opacity="0.1"/>
<path fill-rule="evenodd" clip-rule="evenodd" d="M270.024 -196.047C268.495 -196.614 266.969 -197.167 265.44 -197.701V-197.705C243.116 -80.7034 244.44 36.2984 269.407 153.3C268.444 153.656 267.481 154.005 266.518 154.347C269.144 157.922 271.865 161.428 274.687 164.866C274.686 164.867 274.686 164.868 274.686 164.87H274.689C274.688 164.868 274.687 164.867 274.687 164.866C275.538 159.984 276.357 155.123 277.141 150.287C276.178 150.681 275.215 151.068 274.251 151.448C247.642 35.6166 246.233 -80.2152 270.024 -196.047Z" fill="white" fill-opacity="0.1"/>
<path fill-rule="evenodd" clip-rule="evenodd" d="M231.267 -230.106C228.939 -230.522 226.609 -230.898 224.278 -231.23L224.274 -231.233C215.148 -114.678 214.031 1.87665 220.924 118.432C219.699 118.582 218.473 118.722 217.248 118.85C219.824 125 222.525 131.085 225.363 137.087C225.363 137.089 225.363 137.09 225.362 137.092H225.366C225.365 137.09 225.364 137.089 225.363 137.087C227.249 130.385 229.047 123.682 230.782 116.986C229.553 117.196 228.325 117.394 227.096 117.582C218.52 1.6881 219.908 -114.209 231.267 -230.106Z" fill="white" fill-opacity="0.1"/>
<path fill-rule="evenodd" clip-rule="evenodd" d="M140.45 -314.398C135.634 -313.245 130.814 -311.945 125.994 -310.489C160.92 -150.477 165.745 9.53088 140.464 169.543C138.186 168.915 135.908 168.248 133.63 167.543C136.051 178.686 138.699 189.895 141.653 201.104L141.656 201.1C147.843 192.268 153.519 183.129 158.756 173.748C156.477 173.329 154.199 172.87 151.92 172.373C171.956 10.1135 168.131 -152.142 140.45 -314.398ZM186.18 167.871C189.494 160.163 192.6 152.364 195.53 144.496C193.939 144.495 192.348 144.475 190.756 144.436C192.453 8.95288 192.194 -126.527 189.983 -262.006C186.897 -261.923 183.809 -261.764 180.724 -261.54V-261.537C186.524 -126.332 187.199 8.87216 182.75 144.077C181.157 143.973 179.565 143.85 177.972 143.709C180.545 151.8 183.27 159.863 186.18 167.868V167.871Z" fill="white" fill-opacity="0.1"/>
</svg>
