<svg width="61" height="56" viewBox="0 0 61 56" fill="none" xmlns="http://www.w3.org/2000/svg">
<path d="M30.7243 53.9967C37.7699 53.9967 44.8154 54.0078 51.8604 53.9892C53.6612 53.9844 55.3694 53.5622 56.8598 52.487C58.2957 51.4511 59.1465 50.0485 59.3713 48.2767C59.5868 46.5817 59.2282 44.9832 58.4569 43.4925C57.7408 42.1089 56.9384 40.7699 56.1631 39.4176C53.6568 35.0468 51.1462 30.6785 48.636 26.3099C45.6543 21.121 42.6708 15.9331 39.6878 10.7447C38.7932 9.18818 37.916 7.62108 36.9968 6.07956C36.1543 4.66731 35.0516 3.50124 33.5831 2.72563C32.5537 2.18209 31.454 1.92929 30.2928 2.01708C28.8867 2.12385 27.6601 2.68637 26.574 3.57625C25.5191 4.44054 24.7408 5.52498 24.0656 6.70208C20.2094 13.4276 16.3436 20.1473 12.4812 26.8693C9.42361 32.1909 6.36422 37.5121 3.30922 42.8355C2.69901 43.8988 2.26835 45.0331 2.08616 46.2499C1.61687 49.3867 3.08269 52.0802 6.04112 53.2983C6.9718 53.6813 7.94023 53.901 8.94378 53.9548C9.42888 53.9809 9.91573 53.995 10.4017 53.9954C17.1759 53.9981 23.9501 53.9972 30.7243 53.9972V53.9967Z" fill="url(#paint0_linear_232_14)"/>
<path d="M30.7243 53.9967C37.7699 53.9967 44.8154 54.0078 51.8604 53.9892C53.6612 53.9844 55.3694 53.5622 56.8598 52.487C58.2957 51.4511 59.1465 50.0485 59.3713 48.2767C59.5868 46.5817 59.2282 44.9832 58.4569 43.4925C57.7408 42.1089 56.9384 40.7699 56.1631 39.4176C53.6568 35.0468 51.1462 30.6785 48.636 26.3099C45.6543 21.121 42.6708 15.9331 39.6878 10.7447C38.7932 9.18818 37.916 7.62107 36.9968 6.07956C36.1543 4.66731 35.0516 3.50124 33.5831 2.72563C32.5537 2.18209 31.454 1.92929 30.2928 2.01708C28.8867 2.12385 27.6601 2.68637 26.574 3.57625C25.5191 4.44054 24.7408 5.52498 24.0656 6.70208C20.2094 13.4276 16.3436 20.1473 12.4812 26.8693C9.42361 32.1909 6.36422 37.5121 3.30922 42.8355C2.69901 43.8988 2.26835 45.0331 2.08616 46.2499C1.61687 49.3867 3.08269 52.0802 6.04112 53.2983C6.9718 53.6813 7.94023 53.901 8.94378 53.9548C9.42888 53.9809 9.91573 53.995 10.4017 53.9954C17.1759 53.9981 23.9501 53.9972 30.7243 53.9972V53.9967Z" stroke="#8B722B" stroke-width="2.61109" stroke-miterlimit="10"/>
<path d="M30.717 5.60872C31.9238 5.60872 33.1143 6.52463 34.0696 8.18748L44.5156 26.3711L54.9616 44.5548C55.9169 46.2176 56.1109 47.7119 55.5073 48.7624C54.9037 49.8129 53.5195 50.3913 51.6085 50.3913H9.82451C7.91398 50.3913 6.52938 49.8129 5.92575 48.7624C5.32257 47.7119 5.51617 46.2176 6.47143 44.5548L16.9174 26.3711L27.3634 8.18748C28.3187 6.52463 29.5097 5.60872 30.7165 5.60872H30.717ZM30.717 4.27942C29.0887 4.27942 27.4609 5.36078 26.2185 7.52305L15.7725 25.7067L5.32652 43.8903C2.84222 48.2149 4.85591 51.7206 9.82495 51.7206H51.6094C56.5785 51.7206 58.5922 48.2149 56.1079 43.8903L45.6618 25.7067L35.2158 7.52305C33.9735 5.36078 32.3457 4.27942 30.7174 4.27942H30.717Z" fill="#000101"/>
<path d="M29.1708 38.0264L28.2282 18.5051C28.1905 17.7228 28.6664 16.7522 29.3692 16.5281C29.8082 16.3882 30.2446 16.319 30.6827 16.319C31.1208 16.319 31.587 16.394 32.0559 16.5435C32.7908 16.7778 33.2965 17.7506 33.2587 18.5329L32.3175 38.0268C32.2798 38.8091 31.6173 39.4431 30.8381 39.4431H30.6506C29.8714 39.4431 29.209 38.8091 29.1712 38.0268L29.1708 38.0264Z" fill="#000101"/>
<path d="M30.7168 46.4406C32.1715 46.4406 33.3508 45.2555 33.3508 43.7935C33.3508 42.3315 32.1715 41.1464 30.7168 41.1464C29.2621 41.1464 28.0828 42.3315 28.0828 43.7935C28.0828 45.2555 29.2621 46.4406 30.7168 46.4406Z" fill="#000101"/>
<defs>
<linearGradient id="paint0_linear_232_14" x1="30.7169" y1="53.9998" x2="30.7169" y2="1.99944" gradientUnits="userSpaceOnUse">
<stop stop-color="#F3BF17"/>
<stop offset="0.51" stop-color="#FFD129"/>
<stop offset="1" stop-color="#FFF3C5"/>
</linearGradient>
</defs>
</svg>
