<svg width="47" height="47" viewBox="0 0 47 47" fill="none" xmlns="http://www.w3.org/2000/svg">
<g clip-path="url(#clip0_232_45)">
<path d="M43.5979 24.7838C43.1976 22.7839 41.6092 21.4098 40.1654 20.115C38.5217 18.6355 36.8015 17.2313 35.0173 15.9108C31.4735 13.2865 27.679 11.0045 23.7017 9.06652C21.7002 8.0925 19.6526 7.21802 17.5639 6.43349C16.6839 6.10257 16.1663 7.4882 17.0462 7.81912C23.8663 10.3847 30.235 13.9739 35.9151 18.4655C37.3406 19.5916 38.7311 20.7677 40.0528 22.0133C41.1453 23.0433 42.4068 24.3697 42.1859 26.0201C41.9575 27.7408 40.0257 28.2803 38.552 28.1502C38.5414 28.1523 38.5319 28.1477 38.5252 28.1469C38.3739 27.6252 38.1678 27.1273 37.9048 26.6664C36.9719 25.0448 35.4983 23.8549 34.0404 22.718C32.1761 21.2754 30.2585 19.8907 28.2951 18.5817C24.548 16.0815 20.6276 13.8415 16.5657 11.8555C15.3069 11.2394 13.4789 10.3346 12.298 11.7086C10.896 13.3436 12.4388 15.123 13.609 16.224C16.7945 19.2246 20.3211 21.8501 24.1349 24.0292C27.8555 26.1491 31.8303 27.883 35.9676 29.0938C36.3951 29.2186 36.8314 29.331 37.2735 29.4271C37.2938 29.6708 37.2997 29.9195 37.2712 30.1707C37.1151 31.5778 36.0863 32.6073 34.7068 32.883C33.6861 33.0882 32.6373 32.9671 31.6279 32.7456C31.395 31.7144 30.833 30.7609 30.1122 29.9744C28.7111 28.4471 26.8854 27.2403 25.1771 26.0686C23.2503 24.7439 21.2562 23.5229 19.194 22.4122C18.3128 21.935 17.418 21.4799 16.52 21.0449C15.5269 20.5639 13.2132 19.3368 12.7151 21.1257C12.4072 22.2353 13.3205 23.012 13.9567 23.7506C15.403 25.4262 17.0339 26.9448 18.7939 28.2895C17.6263 27.7459 16.3716 27.3681 15.1303 27.1686C14.106 26.9996 12.7715 27.4474 12.556 28.5991C12.323 29.8641 13.5609 30.9022 14.3605 31.6647C15.0824 32.3562 15.874 32.9716 16.7066 33.5208C18.5114 34.708 20.4954 35.6187 22.4859 36.4656C22.6174 36.5195 22.745 36.5762 22.8766 36.63C22.6865 37.8155 22.0873 38.9565 21.1419 39.7112C20.952 39.2187 20.714 38.7507 20.3545 38.3626C19.3487 37.2789 17.2741 36.9547 16.2608 38.3258C15.2036 39.7594 16.3213 41.5535 17.8472 41.8974C18.6847 42.0837 19.5296 42.023 20.3298 41.7665C20.6808 42.8498 21.0621 43.8691 21.9994 44.6453C22.7195 45.2382 23.5818 44.0282 22.8645 43.4391C22.1691 42.8629 21.8586 42.0258 21.5971 41.1574C21.6396 41.1254 21.6877 41.1008 21.7369 41.0696C23.1007 40.1228 23.9327 38.712 24.246 37.192C25.4386 37.6402 26.6747 37.9614 27.9811 37.8056C29.7045 37.6001 31.2282 36.4796 31.6252 34.7494C31.6643 34.5845 31.6795 34.4199 31.7014 34.2562C32.6701 34.4318 33.6571 34.5112 34.6436 34.3731C36.2476 34.1459 37.6583 33.2049 38.3427 31.711C38.6506 31.043 38.7675 30.3308 38.7542 29.6226C39.6622 29.6615 40.5709 29.5408 41.4275 29.1181C43.1069 28.2923 43.9555 26.5745 43.6007 24.7875L43.5979 24.7838ZM17.3342 39.5233C17.3767 38.7848 18.3704 38.7767 18.8519 39.0373C19.3592 39.308 19.6528 39.8577 19.8689 40.4011C18.9769 40.6563 17.2638 40.7068 17.3342 39.5233ZM15.6253 23.3922C15.4559 23.2079 14.0443 21.771 14.1149 21.6236C14.1903 21.4666 17.9406 23.417 18.3212 23.6243C21.5197 25.3493 24.5889 27.3368 27.4381 29.5786C28.3873 30.3224 29.3925 31.1887 29.9097 32.2996C28.5423 31.9009 27.1961 31.4097 25.8977 30.8294C22.7617 29.4281 19.8451 27.4903 17.3482 25.1533C16.7494 24.5926 16.169 24.0003 15.6147 23.3942L15.6253 23.3922ZM18.6804 32.9968C17.224 32.1589 15.8381 31.1736 14.7338 29.9111C14.505 29.6481 13.6779 28.9535 14.1872 28.5927C14.4091 28.437 14.8868 28.6123 15.1094 28.6503C15.6138 28.7407 16.1131 28.8643 16.6016 29.0137C19.3701 29.8799 22.2363 31.8793 22.8517 34.8708C22.8617 34.9162 22.8641 34.9674 22.8769 35.0166C21.4468 34.4062 20.0284 33.7633 18.6814 32.9901L18.6804 32.9968ZM27.9733 36.3338C26.741 36.5396 25.5306 36.1402 24.3889 35.6712C24.3694 34.8264 24.2024 33.9868 23.8664 33.2043C23.4137 32.1388 22.749 31.2098 21.9334 30.4182C22.505 30.758 23.0787 31.0846 23.6727 31.3899C25.5908 32.3739 27.5998 33.1892 29.6888 33.7733C29.8787 33.8243 30.0648 33.8782 30.2548 33.9291C30.1875 35.1809 29.3101 36.1139 27.9694 36.3367L27.9733 36.3338ZM15.6057 16.0594C15.1592 15.6605 12.0451 13.124 13.62 12.4889C14.1258 12.2838 14.8376 12.6651 15.2767 12.8695C16.1615 13.2791 17.0334 13.7279 17.8987 14.1759C21.177 15.8702 24.3584 17.7494 27.4223 19.7939C28.9124 20.7888 30.3791 21.8249 31.8157 22.9015C33.1544 23.9047 34.5727 24.9008 35.6886 26.1546C36.133 26.6552 36.5355 27.2287 36.8255 27.8458C35.7431 27.5677 34.6868 27.1637 33.6646 26.8048C26.9955 24.4314 20.8336 20.7627 15.6036 16.0728L15.6057 16.0594Z" fill="white"/>
</g>
<defs>
<clipPath id="clip0_232_45">
<rect width="34" height="32" fill="white" transform="translate(25.5427) rotate(52.9593)"/>
</clipPath>
</defs>
</svg>
