<svg width="326" height="174" viewBox="0 0 326 174" fill="none" xmlns="http://www.w3.org/2000/svg">
<g clip-path="url(#clip0_241_12)">
<path d="M182.259 84.0912C182.911 84.0969 185.351 85.7282 188.005 87.7253L188.607 87.3972L201.346 83.2802L217.044 77.3894C217.044 77.3894 219.693 81.7446 216.875 84.1854C214.058 86.6269 200.367 91.241 200.367 91.241L196.313 92.6853L196.837 92.8815C196.837 92.8815 201.007 95.012 201.257 98.0761C201.299 98.5933 201.025 99.2202 199.519 100.299C199.871 100.81 201.833 103.786 201.346 105.96C201.234 106.464 201.403 107.433 199.941 108.286L200.373 108.915C200.373 108.915 201.426 110.836 200.53 113.11C200.295 113.705 200.38 115.069 197.37 115.556C194.361 116.043 188.126 115.396 186.41 113.438C185.714 112.643 185.666 111.884 185.948 111.207L185.434 111.55C185.434 111.55 177.28 117.683 170.805 112.608L166.006 105.284L166.18 95.3287L175.801 87.4735C175.801 87.4735 180.859 84.0777 182.261 84.0898L182.259 84.0912Z" fill="#FBDAD1"/>
<path d="M166.297 95.0022L175.918 87.1471C175.918 87.1471 180.975 83.7512 182.378 83.7633C183.78 83.7755 193.453 91.2961 195.759 93.856C198.066 96.4166 191.31 99.1776 186.807 96.6242C182.304 94.0707 181.996 92.9566 181.996 92.9566" stroke="#231815" stroke-width="2.06133" stroke-linecap="round" stroke-linejoin="round"/>
<path d="M188.725 87.0698L201.465 82.9528L217.163 77.062C217.163 77.062 219.811 81.4172 216.994 83.858C214.176 86.2995 200.485 90.9136 200.485 90.9136L195.249 93.0255" stroke="#231815" stroke-width="2.06133" stroke-linecap="round" stroke-linejoin="round"/>
<path d="M196.955 92.5547C196.955 92.5547 201.125 94.6852 201.375 97.7494C201.427 98.3906 201.027 99.1887 198.345 100.825C195.664 102.461 189.463 104.324 187.063 103.196C184.662 102.069 186.493 98.4298 187.61 97.0761" stroke="#231815" stroke-width="2.06133" stroke-linecap="round" stroke-linejoin="round"/>
<path d="M199.579 99.8878C199.579 99.8878 202 103.248 201.465 105.634C201.325 106.257 201.62 107.592 198.721 108.539C195.823 109.486 189.563 109.81 187.565 108.141C185.566 106.472 187.154 105.185 188.517 104.138" stroke="#231815" stroke-width="2.06133" stroke-linecap="round" stroke-linejoin="round"/>
<path d="M200.49 108.588C200.49 108.588 201.544 110.509 200.647 112.784C200.413 113.378 200.497 114.742 197.488 115.229C194.478 115.716 188.244 115.069 186.527 113.111C184.811 111.153 186.999 109.401 188.507 108.578" stroke="#231815" stroke-width="2.06133" stroke-linecap="round" stroke-linejoin="round"/>
<path d="M185.551 111.225C185.551 111.225 177.397 117.357 170.922 112.282" stroke="#231815" stroke-width="2.06133" stroke-linecap="round" stroke-linejoin="round"/>
<path d="M184.856 95.7487C184.856 95.7487 183.836 103.939 173.41 105.626" stroke="#231815" stroke-width="1.03066" stroke-linecap="round" stroke-linejoin="round"/>
<path d="M165.96 93.7822C165.96 93.7822 173.296 99.999 168.647 116.474C167.965 120.985 82.8076 149.054 73.824 140.791C66.8041 135.388 68.2777 125.573 71.1258 119.644C85.2904 101.364 165.96 93.7815 165.96 93.7815V93.7822Z" fill="#313131" stroke="#231815" stroke-width="2.48073" stroke-linecap="round" stroke-linejoin="round"/>
<path d="M27.2651 163.334C20.6225 130.651 38.6909 114.191 50.3827 111.002C57.5652 109.044 59.1515 98.7791 59.1515 98.7791H73.1364C73.1364 98.7791 74.906 111.33 82.0886 113.288C93.7804 116.477 107.392 131.436 102.882 163.334H27.2651Z" fill="#FBDAD1" stroke="#231815" stroke-width="2.53921" stroke-miterlimit="10"/>
<path d="M85.3732 110.004C94.0236 115.376 97.9409 116.365 101.496 124.635C105.242 140.07 107.318 163.286 107.318 163.286H19.5862C21.7702 143.847 22.6275 132.582 27.4492 124.336C35.9199 109.85 49.0703 107.601 49.0703 107.601C49.0703 107.601 61.1137 117.395 72.0865 119.635C78.1329 118.067 85.3732 110.004 85.3732 110.004Z" fill="#313131"/>
<path d="M101.646 124.933C107.02 145.236 107.317 163.956 107.317 163.956H19.5862C22.0098 142.382 23.2345 130.053 28.6439 121.947C36.6702 109.92 49.0703 108.272 49.0703 108.272C49.0703 108.272 61.1137 118.066 72.0865 120.305C77.0494 119.019 82.4239 113.132 84.4024 111.199L93.2847 107.915" stroke="#231815" stroke-width="2.48073" stroke-linecap="round" stroke-linejoin="round"/>
<path d="M93.1356 109.184C93.1356 109.184 86.0444 122.769 73.7285 127.024C62.0838 129.263 42.3528 111.408 42.3528 111.408" stroke="#231815" stroke-width="1.60484" stroke-linecap="round" stroke-linejoin="round"/>
<path d="M178.837 16.7948C178.837 16.7948 150.701 42.7176 150.923 42.0999C151.145 41.4823 150.672 27.6378 150.672 27.6378L135.099 40.1378L155.269 15.7235L157.243 28.9902L178.837 16.7948Z" fill="#DE2525"/>
<path d="M136.578 47.0144L161.434 54.0215C161.434 54.0215 149.926 58.1056 150.555 58.2946C151.184 58.4837 171.552 75.1098 171.552 75.1098L136.742 57.117L150.43 54.1442L136.578 47.0144Z" fill="#DE2525"/>
<path d="M26.8072 167.431C26.8072 167.431 30.7494 161.397 30.9841 158.493C31.2188 155.591 28.3743 150.258 28.3743 150.258L28.8308 149.988C28.8308 149.988 30.7259 149.372 31.6011 148.058C31.9677 147.508 32.0982 146.208 32.1253 144.884L31.8685 142.851C31.8685 142.851 32.6446 142.76 33.5033 139.753C34.3614 136.747 30.1517 127.947 29.0825 127.861C28.4627 127.811 27.5483 127.845 26.1054 128.543L25.4349 128.518C25.1953 127.589 24.9028 126.855 24.5605 126.726C24.2887 126.624 23.3151 127.08 22.0241 127.81L22.0555 127.6C22.0555 127.6 18.5134 121.623 17.5969 121.549C16.6803 121.474 0.812392 135.109 0.626943 137.402C0.441495 139.693 13.1853 171.125 13.1483 171.583C13.1483 171.583 20.5041 173.227 26.8072 167.431Z" fill="#FBDAD1"/>
<path d="M12.6248 133.912C12.6248 133.912 24.0255 126.068 25.0698 126.46C26.1147 126.853 26.7024 132.898 26.7024 132.898" stroke="#040000" stroke-width="2.26817" stroke-linecap="round" stroke-linejoin="round"/>
<path d="M16.4286 138.219C16.4286 138.219 27.3379 132.642 28.6517 133.517C29.9648 134.392 30.2844 139.955 30.2844 139.955" stroke="#040000" stroke-width="2.26817" stroke-linecap="round" stroke-linejoin="round"/>
<path d="M20.5013 143.009L32.514 140.905C32.514 140.905 32.9855 146.479 32.1103 147.793C31.2351 149.106 29.34 149.722 29.34 149.722" stroke="#040000" stroke-width="2.26817" stroke-linecap="round" stroke-linejoin="round"/>
<path d="M27.4028 148.949C27.4028 148.949 31.6524 155.438 31.4177 158.341C31.1831 161.244 26.9006 167.235 26.9006 167.235C26.9006 167.235 23.074 170.287 21.0077 171.01C18.9414 171.734 14.6047 173.172 13.0862 170.665C11.5676 168.156 0.950741 139.427 1.13619 137.135C1.32164 134.843 17.1889 121.208 18.1061 121.282C19.0227 121.356 21.8365 126.505 21.8365 126.505" stroke="#040000" stroke-width="2.26817" stroke-linecap="round" stroke-linejoin="round"/>
<path d="M26.6147 128.277C28.0576 127.578 28.972 127.545 29.5918 127.595C30.6617 127.681 34.8714 136.481 34.0126 139.487C33.1546 142.493 32.3778 142.585 32.3778 142.585" stroke="#040000" stroke-width="2.26817" stroke-linecap="round" stroke-linejoin="round"/>
<path d="M270.268 126.866C270.268 126.866 268.891 125.741 258.473 131.47C256.649 132.473 255.246 133.574 253.491 134.862C247.533 139.236 246.506 159.066 244.972 169.039C247.42 170.44 255.15 170.523 260.296 170.592C268.404 161.079 272.798 143.711 272.798 143.711L270.269 126.865L270.268 126.866Z" fill="white" stroke="#231815" stroke-width="1.50784" stroke-linecap="round" stroke-linejoin="round"/>
<path d="M292.858 110.89C292.858 110.89 290.623 119.632 295.481 127.39C295.574 126.001 295.388 122.007 295.388 122.007C295.388 122.007 300.162 129.814 305.901 130.763C303.954 126.842 305.078 121.418 302.583 118.102C304.468 118.435 307.887 121.403 307.887 121.403C307.887 121.403 302.967 110.247 297.858 109.025C292.751 107.804 292.857 110.89 292.857 110.89H292.858Z" fill="#313131" stroke="#040000" stroke-width="1.39514" stroke-linecap="round" stroke-linejoin="round"/>
<path d="M310.432 169.479C310.173 141.402 300.182 131.022 293.176 129.854C286.818 128.946 287.077 120.629 287.077 120.629H276.833C276.833 120.629 276.379 128.289 271.119 129.724C262.555 132.06 252.954 143.867 253.479 169.479H310.432H310.432Z" fill="#FBDAD1" stroke="#231815" stroke-width="1.85947" stroke-miterlimit="10"/>
<path d="M246.735 87.6581C246.735 87.6581 238.396 89.9277 242 99.4662C245.073 104.953 252.012 102.474 252.012 102.474L258.112 101.087L253.373 87.3785L246.736 87.6588L246.735 87.6581Z" fill="#FBDAD1" stroke="#040000" stroke-width="1.85947" stroke-linecap="round" stroke-linejoin="round"/>
<path d="M301.502 65.3001C301.502 65.3001 306.283 73.8342 307.434 79.3121C308.522 92.9925 306.994 118.127 282.279 123.461L281.179 123.605C246.079 125.284 244.412 78.4747 244.412 78.4747L261.66 49.7181L301.134 44.7467L304.767 63.171L301.504 65.3001H301.502Z" fill="#FBDAD1" stroke="#040000" stroke-width="1.85947" stroke-linecap="round" stroke-linejoin="round"/>
<path d="M245.855 89.4464C245.855 89.4464 244.176 110.603 253.95 125.289C250.464 112.66 252.621 107.142 252.621 107.142C252.621 107.142 249.543 103.62 245.855 89.4464Z" fill="#313131" stroke="#040000" stroke-width="1.39514" stroke-linecap="round" stroke-linejoin="round"/>
<path d="M311.934 169.078C312.007 149.692 315.541 135.486 309.392 131.98C295.711 124.181 293.812 128.42 293.812 128.42C293.812 128.42 293.623 130.907 283.892 131.296H281.786C272.055 130.907 271.866 128.42 271.866 128.42C271.866 128.42 248.204 126.117 252.498 169.623L311.934 169.078H311.934Z" fill="white"/>
<path d="M258.761 140.93C256.306 146.943 255.926 156.315 255.436 169.186L311.934 169.078C312.007 149.692 315.541 135.486 309.392 131.98C295.711 124.181 293.812 128.42 293.812 128.42C293.812 128.42 293.623 130.907 283.892 131.296H281.786C277.361 131.119 274.91 130.509 273.552 129.895" stroke="#231815" stroke-width="1.50784" stroke-linecap="round" stroke-linejoin="round"/>
<path d="M311.606 79.0099C311.606 79.0099 319.812 47.0237 295.596 33.9674C278.667 24.8405 267.753 30.4018 262.718 34.5758L261.585 34.6514C256.465 33.5273 251.205 36.1272 247.256 39.5743C237.217 48.3382 233.084 62.923 235.875 75.9536C236.939 80.9214 239.658 86.3415 244.636 87.3529L243.877 79.7118C245.822 78.9707 248.868 78.4593 250.7 77.475C252.298 76.6162 253.901 75.7539 255.376 74.7104C262.339 69.7803 265.694 60.9744 264.704 52.8275L264.498 53.1834C265.391 60.8139 271.064 67.7004 278.616 70.3231C275.197 64.2311 273.469 57.2725 273.652 50.3275C274.478 55.3431 276.823 60.1627 280.599 63.7154C284.373 67.2675 289.612 69.4722 294.953 69.3716C290.345 64.184 288.299 57.3588 287.049 50.6399C289.178 56.3167 293.057 61.5385 298.666 64.3124C301.166 65.5485 299.279 65.4073 302.427 65.49C302.427 65.49 307.388 74.9001 308.038 78.741C308.86 79.0256 311.606 79.0099 311.606 79.0099Z" fill="#313131"/>
<path d="M261.346 34.4474C256.226 33.3233 250.966 35.9231 247.017 39.3703C236.978 48.1342 232.846 62.7189 235.636 75.7495C236.7 80.7174 239.419 86.1375 244.397 87.1489" stroke="#231815" stroke-width="1.85947" stroke-linecap="round" stroke-linejoin="round"/>
<path d="M259.233 37.7078C259.233 37.7078 271.14 20.7079 295.356 33.7634C319.573 46.819 312.226 78.6633 312.226 78.6633" stroke="#231815" stroke-width="1.85947" stroke-linecap="round" stroke-linejoin="round"/>
<path d="M263.768 52.6235C264.446 58.632 262.886 64.8317 259.181 69.6498C257.142 72.301 254.538 74.2303 251.631 75.8416C248.356 77.6576 245.022 79.5292 241.316 80.2731C240.436 80.4493 240.809 81.7945 241.687 81.6183C245.578 80.8373 249.121 78.848 252.552 76.9265C255.538 75.2539 258.182 73.2218 260.279 70.4971C264.16 65.4558 265.875 58.9273 265.163 52.6242C265.063 51.7426 263.667 51.7319 263.768 52.6242V52.6235Z" fill="#040000"/>
<path d="M263.562 52.9792C264.609 61.1831 270.462 68.024 278.191 70.7915C278.791 71.0062 279.255 70.2665 278.979 69.7672C275.648 63.7459 273.972 57.0041 274.109 50.1233C273.653 50.1853 273.197 50.2467 272.739 50.3087C274.611 61.0997 283.408 69.942 294.713 69.865C295.346 69.8607 295.594 69.1196 295.206 68.6745C290.704 63.5119 288.726 56.8572 287.48 50.251C287.032 50.3744 286.584 50.4985 286.135 50.6219C288.667 57.2395 293.662 63.6596 300.675 65.8728C303.201 66.6695 306.449 66.616 308.443 64.6874C310.207 62.9805 310.905 60.3215 310.934 57.9342C310.945 57.0362 309.55 57.0355 309.539 57.9342C309.514 59.9527 308.961 62.2594 307.457 63.7017C305.611 65.4713 302.344 65.1524 300.167 64.1803C294.086 61.4634 289.839 56.4171 287.48 50.2517C287.161 49.4164 285.967 49.7317 286.135 50.6226C287.43 57.4856 289.549 64.3079 294.219 69.6617C294.383 69.2651 294.548 68.8678 294.712 68.4712C283.984 68.5447 275.851 60.1254 274.083 49.9393C273.945 49.144 272.729 49.3637 272.713 50.1247C272.57 57.2452 274.326 64.243 277.773 70.4727C278.035 70.131 278.298 69.7893 278.56 69.4484C271.477 66.912 265.917 60.5234 264.954 52.9806C264.842 52.1026 263.446 52.0912 263.559 52.9806L263.562 52.9792Z" fill="#040000"/>
<path d="M309.987 94.8844C309.987 94.8844 317.33 95.4935 318.887 89.4008C319.915 79.2561 311.272 79.2097 311.272 79.2097L303.709 79.8074L303.44 95.7417L309.987 94.8844H309.987Z" fill="#FBDAD1"/>
<path d="M306.096 94.1418L309.987 94.8843C309.987 94.8843 317.33 95.4934 318.887 89.4007C319.101 80.5313 314.313 78.9507 311.272 79.2096C308.231 79.4686 306.727 80.9735 306.727 80.9735" stroke="#040000" stroke-width="1.85947" stroke-linecap="round" stroke-linejoin="round"/>
<path d="M310.071 113.794C310.071 113.794 314.721 93.0859 307.118 77.1687C304.858 85.9297 305.442 91.6843 305.871 95.3205C306.301 98.9567 308.148 101.071 310.071 113.794Z" fill="#313131" stroke="#040000" stroke-width="1.39514" stroke-linecap="round" stroke-linejoin="round"/>
<path d="M293.7 84.4291C293.7 84.4291 293.36 87.7429 288.716 88.7457C285.655 89.4062 283.819 87.0525 283.819 87.0525" stroke="#231815" stroke-width="2.01996" stroke-linecap="round" stroke-linejoin="round"/>
<path d="M256.063 89.6696C256.063 89.6696 257.279 92.7709 262.023 92.4906C265.149 92.3058 266.286 89.5448 266.286 89.5448" stroke="#231815" stroke-width="2.01996" stroke-linecap="round" stroke-linejoin="round"/>
<path d="M262.706 78.9725C263.02 81.0403 258.433 82.2678 258.433 82.2678" stroke="#040000" stroke-width="1.23109" stroke-linecap="round" stroke-linejoin="round"/>
<path d="M283.978 76.7429C285.26 78.7821 290.926 78.0204 290.926 78.0204" stroke="#040000" stroke-width="1.23109" stroke-linecap="round" stroke-linejoin="round"/>
<path d="M272.867 101.252L273.579 103.503" stroke="#040000" stroke-width="1.23109" stroke-linecap="round" stroke-linejoin="round"/>
<path d="M271.904 112.407C271.904 112.407 278.741 109.979 285.611 110.912" stroke="#040000" stroke-width="1.23109" stroke-linecap="round" stroke-linejoin="round"/>
<path d="M270.229 22.8479C270.229 22.8479 242.035 25.2102 226.806 53.0453C225.292 63.262 264.413 55.7956 264.413 55.7956L270.229 22.8479Z" fill="#F37429" stroke="#231815" stroke-width="1.49714" stroke-linecap="round" stroke-linejoin="round"/>
<path d="M274.455 22.3075C274.455 22.3075 302.575 19.182 322.891 43.5534C326.349 53.2852 286.425 50.7659 286.425 50.7659L274.455 22.3082V22.3075Z" fill="#F37429" stroke="#231815" stroke-width="1.49714" stroke-linecap="round" stroke-linejoin="round"/>
<path d="M232.451 67.6538C232.451 67.6538 260.17 47.186 313.921 56.9876C310.557 47.1967 301.708 19.3659 268.438 22.8695C229.33 32.679 232.451 67.6538 232.451 67.6538Z" fill="#F37429" stroke="#231815" stroke-width="1.99571" stroke-linecap="round" stroke-linejoin="round"/>
<path d="M268.425 147.304L260.761 146.254L262.98 129.295L270.451 126.561L268.425 147.304Z" fill="#F37429" stroke="#231815" stroke-width="1.45791" stroke-linecap="round" stroke-linejoin="round"/>
<path d="M292.696 147.386L300.33 146.128L298.652 129.806L290.341 127.633L292.696 147.386Z" fill="#F37429" stroke="#231815" stroke-width="1.45791" stroke-linecap="round" stroke-linejoin="round"/>
<path d="M253.455 170.306L255.436 150.775L261.446 143.103C261.446 143.103 271.752 144.718 278.443 144.718H288.033C294.725 144.718 298.268 143.615 300.186 143.231C300.314 145.404 310.543 154.227 310.543 154.227L312.461 170.848L253.456 170.306H253.455Z" fill="#F37429" stroke="#231815" stroke-width="1.45791" stroke-linecap="round" stroke-linejoin="round"/>
<path d="M270.652 124.82L280.161 137.348L273.194 147.175L261.446 129.551L270.652 124.82Z" fill="white" stroke="#231815" stroke-width="1.50784" stroke-linecap="round" stroke-linejoin="round"/>
<path d="M304.405 144.638C304.405 144.638 306.601 166.373 308.264 171.359C313.378 172.766 325.397 170.848 325.397 170.848C325.397 170.848 323.351 149.496 317.853 137.477C314.529 131.852 303.405 128.655 303.405 128.655L304.405 144.637V144.638Z" fill="white"/>
<path d="M304.278 144.894C304.278 144.894 306.451 166.374 308.114 171.36C313.482 171.893 325.246 170.849 325.246 170.849C325.246 170.849 323.2 149.496 317.703 137.478C314.378 131.852 303.255 128.656 303.255 128.656" stroke="#231815" stroke-width="1.50784" stroke-linecap="round" stroke-linejoin="round"/>
<path d="M292.77 123.925L280.96 136.837L288.764 147.079L303.638 128.144L292.77 123.925Z" fill="white" stroke="#231815" stroke-width="1.50784" stroke-linecap="round" stroke-linejoin="round"/>
<path d="M238.243 148.117C230.717 153.177 232.556 154.22 229.535 163.357C227.961 168.117 223.536 168.019 221.128 167.175C216.899 165.692 218.543 158.267 220.527 155.27C224.495 149.278 232.682 148.046 238.243 148.116V148.117Z" fill="#A8E0FF" stroke="#040000" stroke-width="2.58985" stroke-linecap="round" stroke-linejoin="round"/>
<path d="M238.665 140.801C231.756 138.566 232.008 140.239 224.761 142.858C220.986 144.221 218.858 141.387 218.198 139.452C217.041 136.057 222.529 133.418 225.397 133.186C231.133 132.72 235.958 137.265 238.665 140.801Z" fill="#A8E0FF" stroke="#040000" stroke-width="2.07345" stroke-linecap="round" stroke-linejoin="round"/>
<path d="M258.143 92.3884L256.975 94.7244" stroke="#040000" stroke-width="0.930094" stroke-miterlimit="10" stroke-linecap="round"/>
<path d="M292.527 87.1989L295.251 89.1453" stroke="#040000" stroke-width="0.930094" stroke-miterlimit="10" stroke-linecap="round"/>
<path d="M84.0694 108.996C100.531 108.199 110.669 100.003 116.974 54.8138C121.665 8.74491 87.5509 4.51456 87.5509 4.51456C87.5509 4.51456 36.5441 -12.7072 33.6718 59.4329C37.452 91.1467 42.9427 98.9847 60.4155 104.418" stroke="#040000" stroke-width="2.04564" stroke-linecap="round" stroke-linejoin="round"/>
<path d="M119.036 44.2939C120.492 45.6448 121.462 48.7967 122.116 50.6712C122.862 52.811 123.463 55.1098 122.986 57.3252C122.755 58.3979 122.28 59.3994 121.809 60.3901C121.007 62.0791 120.205 63.7674 119.401 65.4564C118.848 66.6211 118.279 67.8087 117.384 68.7374C116.489 69.6661 115.195 70.308 113.923 70.0954C113.307 69.9927 112.7 69.6661 112.401 69.1183C112.033 68.4435 112.2 67.6133 112.391 66.8686C113.536 62.3908 115.207 57.9272 114.983 53.3102C114.895 51.51 114.518 49.7275 114.536 47.9258C114.555 46.1241 113.829 45.709 115.159 44.4943C115.159 44.4943 118.166 43.4858 119.037 44.2939H119.036Z" fill="#D3D3D4"/>
<path d="M118.222 45.1075C119.297 46.1838 119.857 47.7244 120.364 49.1288C120.976 50.8214 121.649 52.5589 121.906 54.3471C122.235 56.6331 121.451 58.4711 120.487 60.5004C119.581 62.4084 118.741 64.3691 117.735 66.2279C117.275 67.0795 116.73 67.9483 115.901 68.4875C115.158 68.9697 113.66 69.3962 113.352 68.2421C113.144 67.4625 113.786 66.0824 113.996 65.3227C114.296 64.2407 114.609 63.1623 114.897 62.0767C115.412 60.1316 115.849 58.1637 116.049 56.1587C116.26 54.0382 115.993 51.9933 115.79 49.887C115.69 48.8535 115.73 47.8143 115.602 46.7851C115.57 46.5261 115.498 46.2537 115.505 45.9912C115.509 45.82 115.839 45.33 115.488 45.5968C116.037 45.1795 117.915 44.8942 118.454 45.2886C119.652 46.1638 120.801 44.1674 119.616 43.3015C118.421 42.4277 116.503 42.8857 115.203 43.278C113.939 43.6603 113.142 44.8928 113.217 46.2023C113.363 48.7266 113.792 51.2586 113.847 53.7886C113.906 56.5603 113.273 59.2714 112.552 61.9298C112.195 63.245 111.811 64.5524 111.461 65.8691C111.154 67.0239 110.79 68.2714 111.29 69.4254C112.141 71.384 114.622 71.6337 116.374 70.8398C118.736 69.7692 119.785 67.3213 120.832 65.118C121.964 62.7357 123.536 60.2329 124.094 57.6331C124.695 54.8378 123.829 52.1167 122.924 49.494C122.2 47.3963 121.453 45.0882 119.849 43.4812C118.8 42.432 117.173 44.059 118.221 45.1089L118.222 45.1075Z" fill="#231815"/>
<path d="M108.282 88.8379C108.282 88.8379 120.187 94.8656 121.352 78.2602C121.93 70.0334 113.539 69.5313 113.539 69.5313L106.404 69.3822L105.148 88.4869L108.282 88.8379H108.282Z" fill="#F7BDAA" stroke="#231815" stroke-width="2.04564" stroke-miterlimit="10"/>
<path d="M72.3134 110.534C72.3134 110.534 77.9867 112.38 84.7092 109.069C90.9759 108.735 97.5551 106.874 103.248 99.7578C109.855 91.5004 113.937 76.5903 116.974 54.8144C121.981 6.91105 87.5509 4.51449 87.5509 4.51449C87.5509 4.51449 37.1461 -12.3306 33.6718 59.4328C35.3108 73.1859 37.2003 84.1174 41.7452 91.4704C45.5112 97.5631 54.0133 102.952 60.0346 104.176C66.2871 111.492 72.3127 110.534 72.3127 110.534H72.3134Z" fill="url(#paint0_linear_241_12)" stroke="#040000" stroke-width="2.51425" stroke-miterlimit="10"/>
<path d="M102.857 80.6726C103.037 79.5757 101.405 78.3942 99.2108 78.0338C97.017 77.6733 95.0924 78.2704 94.9121 79.3673C94.7319 80.4643 96.3643 81.6457 98.5582 82.0062C100.752 82.3666 102.677 81.7695 102.857 80.6726Z" fill="#EC779C"/>
<path d="M62.1442 71.4696C62.3244 70.3727 60.692 69.1912 58.4981 68.8308C56.3042 68.4703 54.3796 69.0674 54.1994 70.1643C54.0191 71.2613 55.6515 72.4427 57.8454 72.8032C60.0393 73.1636 61.9639 72.5665 62.1442 71.4696Z" fill="#EC779C"/>
<path d="M105.532 45.1332C106.188 47.3443 94.0315 52.2194 91.8767 49.6895L105.532 45.1332Z" fill="#BFC0C0" stroke="#040000" stroke-width="1.20256" stroke-linecap="round" stroke-linejoin="round"/>
<path d="M75.5466 45.92C72.2043 48.4735 60.6444 41.1568 60.8891 37.1205L75.5466 45.92Z" fill="#BFC0C0" stroke="#040000" stroke-width="1.20256" stroke-linecap="round" stroke-linejoin="round"/>
<path d="M89.7426 83.5474C89.7426 83.5474 93.6256 91.5102 89.4017 98.9174" stroke="#040000" stroke-width="1.20256" stroke-linecap="round" stroke-linejoin="round"/>
<path d="M68.409 78.8334C68.409 78.8334 61.0381 81.0366 59.7129 93.2156" stroke="#040000" stroke-width="1.20256" stroke-linecap="round" stroke-linejoin="round"/>
<path d="M39.0241 30.0174C39.0705 31.9924 39.1126 33.0959 39.7096 34.9796C40.6931 38.0794 42.9749 40.568 45.1917 42.9474C46.1874 44.0166 47.1831 45.0851 48.1788 46.1543C48.6874 46.6999 49.2338 47.4274 48.9534 48.1186C48.7537 48.6107 48.2131 48.8518 47.7345 49.0815C44.1275 50.809 41.5669 54.5444 41.2552 58.5315C41.1696 59.6264 41.1125 60.9587 40.1404 61.468C39.6782 61.7105 39.1268 61.682 38.6076 61.6363C36.0783 61.4124 33.5741 60.8995 31.1604 60.1121C30.8245 60.0022 30.465 59.8689 30.2717 59.5729C30.139 59.3696 30.1055 59.1192 30.077 58.8781C29.1754 51.2955 29.6904 43.5466 31.5862 36.1493C32.0427 34.369 32.5926 32.578 33.6233 31.0566C34.654 29.5353 36.2388 28.2992 38.0634 28.0802L39.0241 30.0167V30.0174Z" fill="#D3D3D4"/>
<path d="M37.8735 30.017C37.932 32.3765 38.203 34.6204 39.1873 36.7951C40.2059 39.0455 41.8193 40.9691 43.4712 42.7801C44.3178 43.7088 45.1809 44.6232 46.0375 45.5426C46.4676 46.0041 46.9997 46.4555 47.3649 46.9677C47.9676 47.8122 47.5703 47.8585 46.8078 48.2601C44.922 49.2544 43.3328 50.7672 42.1574 52.5375C40.9634 54.3357 40.3093 56.392 40.1046 58.5304C40.0632 58.9655 40.0968 59.5033 39.9206 59.9119C39.641 60.5624 39.2551 60.5225 38.6075 60.4847C37.0297 60.3927 35.4406 60.071 33.9078 59.6973C33.2494 59.5368 32.5975 59.3535 31.9499 59.1559C31.1311 58.9055 31.2074 58.7251 31.1154 57.8656C30.9627 56.4319 30.8736 54.9897 30.8272 53.5489C30.7359 50.6652 30.845 47.7765 31.1532 44.9078C31.4998 41.6874 32.0932 38.4563 32.9969 35.3436C33.8001 32.5769 35.2501 29.691 38.3685 29.1896C37.9356 29.0134 37.5019 28.8373 37.069 28.6611C37.3892 29.3066 37.7095 29.9521 38.0297 30.5976C38.6881 31.9243 40.6738 30.7602 40.0169 29.4357C39.6966 28.7902 39.3764 28.1447 39.0561 27.4992C38.8129 27.0085 38.2401 26.8922 37.7565 26.9707C31.4934 27.9778 30.2188 35.9827 29.375 41.0718C28.8165 44.4377 28.512 47.8457 28.4948 51.2587C28.487 52.7857 28.5355 54.3136 28.6403 55.8371C28.7316 57.163 28.5712 59.2836 29.457 60.3863C30.2252 61.342 31.9477 61.5767 33.049 61.8549C34.7074 62.2736 36.3999 62.5667 38.1018 62.7379C39.3143 62.8599 40.5554 62.8606 41.4348 61.8848C42.1788 61.0603 42.2808 59.9177 42.3799 58.8649C42.6331 56.178 43.7244 53.7351 45.7001 51.8635C46.6702 50.9448 47.78 50.4648 48.8934 49.7779C49.8242 49.203 50.3813 48.2266 50.0996 47.1167C49.7101 45.5854 48.0304 44.3072 47.0004 43.2024C45.8585 41.9763 44.6887 40.7673 43.626 39.4699C41.2915 36.6197 40.2651 33.6725 40.1738 30.017C40.1367 28.5384 37.835 28.5327 37.8721 30.017H37.8735Z" fill="#231815"/>
<path d="M41.4762 80.5859C25.5997 88.8206 17.9357 72.9562 24.4057 63.9541C30.8757 54.952 39.2886 62.2658 39.2886 62.2658C40.9954 62.5868 42.9291 64.3706 42.9291 64.3706L43.7757 78.9069L41.4762 80.5859Z" fill="#F7BDAA"/>
<path d="M42.6702 79.8098C26.9549 90.0394 17.9735 72.9026 24.4057 63.9533C30.8757 54.9512 41.8949 63.556 41.8949 63.556" stroke="#231815" stroke-width="2.04564" stroke-linecap="round" stroke-linejoin="round"/>
<path d="M86.5987 2.65612C84.7021 2.24243 82.8056 1.82945 80.909 1.41576C80.1144 1.24243 79.297 1.0684 78.4939 1.19607C77.5902 1.33944 70.1787 6.14397 67.2557 8.04267C69.7992 8.23811 75.899 8.75166 76.1123 9.1682C76.3441 9.62041 74.046 12.8465 73.2051 13.9899C77.0945 13.1732 80.9832 12.3565 84.8726 11.5405C85.1408 11.4842 85.0552 14.8429 85.3676 15.574C85.5645 16.0333 88.6843 13.6026 89.1415 13.3993C89.7299 14.9028 92.3433 17.6303 93.2106 18.3622C94.0787 17.3907 95.2128 14.7552 96.436 14.3051C98.6799 13.4784 99.7862 12.1268 100.062 9.75165C100.337 7.37649 99.1792 4.89005 97.1835 3.57266C93.7998 1.33801 94.0452 2.33301 89.9945 2.53058L86.5987 2.65754V2.65612Z" fill="#D3D3D4"/>
<path d="M86.9046 1.54666C85.4388 1.22712 83.9738 0.907582 82.508 0.58804C81.232 0.309868 79.8162 -0.147333 78.4938 0.045248C77.4268 0.200739 76.4325 0.914714 75.5231 1.45465C72.5231 3.23567 69.6001 5.14935 66.6751 7.04877C65.6858 7.69142 66.1208 9.1051 67.2556 9.19355C69.7449 9.38613 72.2827 9.51951 74.742 9.96316C74.9118 9.99383 75.1336 10.0858 75.3034 10.0759C75.3747 10.0923 75.446 10.1108 75.5167 10.1315C75.1764 9.9653 74.9953 9.64433 74.9731 9.1693C74.8376 9.22065 74.4011 10.2099 74.3141 10.3505C73.6615 11.4004 72.9418 12.4111 72.2114 13.4082C71.5687 14.2855 72.6265 15.2848 73.511 15.0986C77.4004 14.282 81.2891 13.4653 85.1785 12.6493C84.8832 12.6108 84.5872 12.5723 84.2919 12.533C83.1871 12.0131 84.0679 11.8726 83.8939 12.3176C83.839 12.4567 83.9367 12.9703 83.9446 13.1165C83.9774 13.6842 84.0023 14.2534 84.0651 14.819C84.16 15.6657 84.3162 16.6272 85.3283 16.7613C86.8896 16.9681 88.4467 15.0573 89.722 14.3925C89.197 14.2549 88.6721 14.1172 88.1471 13.9795C89.003 15.946 90.7933 17.7826 92.396 19.1756C92.8318 19.5544 93.6043 19.6806 94.0237 19.1756C94.9324 18.0815 95.4773 16.4082 96.6107 15.5402C97.1834 15.1015 97.9495 14.9382 98.5564 14.528C99.0629 14.1864 99.5115 13.7827 99.891 13.3048C101.96 10.6971 101.524 6.72851 99.5429 4.2164C97.8681 2.09302 95.2462 0.744245 92.5579 1.11229C90.575 1.38333 88.595 1.43183 86.5979 1.50672C85.1214 1.56164 85.1143 3.86405 86.5979 3.80842C88.1414 3.75064 89.6984 3.74494 91.2362 3.58731C92.1357 3.4953 93.1285 3.19287 94.0372 3.29701C95.1192 3.42112 96.3746 4.302 97.1478 5.00171C99.1556 6.81838 99.8432 10.7691 97.3945 12.5409C96.4281 13.2399 95.3746 13.4132 94.5693 14.3583C93.7298 15.3433 93.2177 16.5587 92.3953 17.5487H94.0229C92.5479 16.267 90.9217 14.6286 90.1335 12.8183C89.8775 12.2292 89.0565 12.1457 88.5586 12.4054C88.0936 12.6479 87.6721 12.9888 87.242 13.2855C86.7127 13.6507 85.9959 13.961 85.528 14.3904C85.5166 14.4011 85.3497 14.4703 85.3361 14.4881C85.1521 14.727 86.2969 15.553 86.3896 14.9567C86.4324 14.68 86.3154 14.2827 86.2962 13.9981C86.2455 13.2534 86.2584 12.4867 86.1307 11.7492C85.7384 9.47956 83.0487 10.7485 81.5216 11.0694C78.6472 11.6728 75.7727 12.2763 72.8976 12.8797C73.3305 13.4432 73.7642 14.0066 74.1971 14.5701C75.1087 13.3269 79.0223 9.01024 76.2385 7.94962C75.0694 7.50383 73.6258 7.48742 72.3954 7.35476C70.685 7.17002 68.9696 7.02523 67.2542 6.89256L67.8348 9.03734C70.5231 7.29199 73.2121 5.54379 75.9532 3.88188C76.7114 3.42254 78.0659 2.48888 78.6586 2.34623C79.7278 2.08946 81.1043 2.63653 82.1521 2.86549C83.5316 3.16648 84.911 3.46677 86.2898 3.76776C87.7334 4.08231 88.3504 1.86407 86.9017 1.54809L86.9046 1.54666Z" fill="#231815"/>
<path d="M86.4296 105.455C86.4296 105.455 84.5458 112.93 72.5538 111.159C60.6908 109.407 60.0068 100.783 60.0068 100.783" stroke="#040000" stroke-width="2.04564" stroke-linecap="round" stroke-linejoin="round"/>
<path d="M58.9462 48.395L73.3113 58.2195C73.3113 58.2195 69.1908 63.999 64.3092 61.9855C59.4276 59.9727 57.4926 53.6689 58.9462 48.3943V48.395Z" fill="#FFF78C" stroke="#040000" stroke-width="2.04564" stroke-linecap="round" stroke-linejoin="round"/>
<path d="M106.795 54.0226L91.2783 61.9041C91.2783 61.9041 94.6157 68.1687 99.7169 66.8042C104.818 65.4405 107.553 59.4405 106.795 54.0219V54.0226Z" fill="#FFF78C" stroke="#040000" stroke-width="2.04564" stroke-linecap="round" stroke-linejoin="round"/>
<path d="M87.8332 88.1617C86.5529 86.1874 85.61 88.2972 71.9696 85.0612C70.3982 84.6881 68.8319 84.1617 67.3605 84.8272C66.0702 85.4107 65.3041 86.6054 64.5345 87.7944C63.6679 89.1332 63.1686 91.6061 63.9789 92.9798C64.5024 93.8678 70.5224 95.3835 73.0559 95.81C79.135 96.8328 84.3504 97.0561 84.3504 97.0561C88.1485 95.5169 88.8774 89.549 87.8332 88.1617Z" fill="#231815"/>
<path d="M88.4766 87.7849C87.3967 86.1544 85.4189 86.409 83.6835 86.2835C81.3262 86.113 78.9881 85.7606 76.6679 85.3149C74.7984 84.9554 72.9511 84.5131 71.098 84.0809C69.4775 83.7029 67.8327 83.5609 66.3805 84.5231C64.1494 86.0024 62.5496 89.1886 62.867 91.8562C63.1351 94.1101 65.1109 94.5466 67.0082 95.1215C72.4125 96.7606 78.1072 97.4375 83.7299 97.7677C85.8133 97.8904 87.4067 95.7713 88.1614 94.0359C88.9017 92.3341 89.625 89.486 88.4766 87.7856C87.9424 86.9953 86.6514 87.7399 87.1899 88.5374C88.0166 89.7613 87.3932 91.9881 86.8996 93.2178C86.5401 94.1129 86.0116 94.9731 85.2805 95.6108C85.0951 95.7727 84.9025 95.9182 84.6935 96.048C84.7006 96.0437 83.9545 96.394 84.3404 96.3098C84.2085 96.3383 84.0023 96.2927 83.8718 96.2855C79.1179 96.0145 74.3198 95.4845 69.6979 94.3162C68.6608 94.0545 67.6273 93.7699 66.6116 93.4339C66.0324 93.242 65.0631 93.0516 64.6251 92.5901C63.9212 91.8483 64.3905 89.9446 64.715 89.0959C65.1979 87.8341 66.235 86.2856 67.4254 85.628C68.9133 84.8056 70.705 85.5288 72.2278 85.8855C73.8027 86.2549 75.3868 86.5916 76.9781 86.884C78.8961 87.2364 80.8283 87.5238 82.7712 87.6993C83.8904 87.8006 85.0437 87.7749 86.1557 87.9404C86.7142 88.0238 86.9167 88.1223 87.1913 88.5367C87.7184 89.3327 89.0094 88.5873 88.4781 87.7849H88.4766Z" fill="#040000"/>
<path d="M104.166 71.5795C104.166 71.5795 99.5507 77.6294 90.4637 68.1259" stroke="#231815" stroke-width="1.02282" stroke-linecap="round" stroke-linejoin="round"/>
<path d="M70.1829 65.0752C70.1829 65.0752 62.1045 71.4297 53.673 63.4169" stroke="#231815" stroke-width="1.02282" stroke-linecap="round" stroke-linejoin="round"/>
<path d="M83.4646 71.3669L83.0059 76.1087" stroke="#231815" stroke-width="1.02282" stroke-linecap="round" stroke-linejoin="round"/>
<path d="M58.0831 16.9544C58.3634 18.1662 58.6437 19.3788 58.924 20.5906C59.1637 21.6277 59.5303 22.7668 60.6722 23.1013C61.3113 23.2881 61.9832 23.0663 62.603 22.9087C63.2093 22.7546 63.8163 22.6006 64.4226 22.4472C65.6358 22.1391 66.8484 21.8317 68.0616 21.5235C69.3262 21.2026 68.7906 19.2454 67.5224 19.5671C65.4454 20.0942 63.3691 20.7168 61.27 21.1469C61.1837 21.1648 61.2935 21.2104 61.24 21.1505C61.2264 21.1348 61.1273 20.9658 61.123 20.9558C60.9511 20.5428 60.8855 20.0713 60.7856 19.6384C60.5374 18.5642 60.2885 17.4893 60.0403 16.4152C59.7464 15.1434 57.7892 15.6819 58.0838 16.9544H58.0831Z" fill="#040000"/>
<path d="M67.6337 25.2781C66.5524 25.0741 65.434 24.8544 64.3291 24.9514C63.2464 25.0462 62.2692 25.39 61.4247 26.0833C60.6601 26.7124 60.1879 27.6126 60.1109 28.5976C60.0695 29.1218 60.1837 29.6618 60.3142 30.1668C60.377 30.4086 60.4476 30.6482 60.5061 30.8907C60.531 30.9949 60.5517 31.099 60.5745 31.2031C60.5945 31.328 60.5988 31.3429 60.5859 31.2481C60.5938 31.318 60.5995 31.3886 60.6023 31.4592C60.6344 31.9877 61.046 32.4991 61.6166 32.4734C62.1387 32.4499 62.6658 32.0262 62.6309 31.4592C62.6016 30.9763 62.506 30.507 62.3812 30.0412C62.3263 29.8351 62.2671 29.6297 62.2186 29.4214C62.1943 29.318 62.173 29.2153 62.153 29.1111C62.1138 28.9093 62.1394 29.1882 62.1373 28.9649C62.1359 28.8601 62.1359 28.7552 62.1359 28.6511C62.1351 28.4257 62.0881 28.7531 62.1501 28.5534C62.1758 28.4699 62.1979 28.385 62.2222 28.3009C62.2735 28.124 62.1794 28.3536 62.2386 28.2631C62.2856 28.191 62.3206 28.109 62.367 28.0355C62.3898 27.9984 62.414 27.9621 62.4397 27.9264C62.3777 28.0027 62.3691 28.0127 62.4147 27.9571C62.5353 27.8223 62.6558 27.6989 62.7899 27.5769C62.8719 27.502 62.6794 27.6447 62.8334 27.5412C62.909 27.4906 62.9832 27.4392 63.061 27.3922C63.1387 27.3451 63.2186 27.3009 63.2999 27.2602C63.3527 27.2338 63.5553 27.1511 63.3898 27.2139C63.7707 27.0698 64.1316 26.9935 64.4447 26.9728C65.4126 26.9086 66.1694 27.0612 67.0937 27.236C67.6137 27.3344 68.2129 27.0919 68.342 26.5277C68.4554 26.0284 68.1907 25.385 67.6337 25.2795V25.2781Z" fill="#040000"/>
<path d="M53.4126 17.0279C53.2165 17.8788 53.4383 18.6783 53.5738 19.5171C53.5367 19.2868 53.5752 19.5742 53.5767 19.6042C53.5816 19.6933 53.5795 19.7811 53.5781 19.8709C53.5745 20.1277 53.6294 19.7219 53.5681 19.9422C53.5652 19.9529 53.5139 20.1634 53.5025 20.1619C53.5531 20.0485 53.5624 20.0257 53.5296 20.0935C53.5132 20.1277 53.4961 20.1612 53.4775 20.194C53.4404 20.2604 53.3948 20.3203 53.3555 20.3852C53.4754 20.189 53.3634 20.3695 53.3199 20.4159C53.2671 20.4722 53.2115 20.5264 53.1537 20.5778C53.1109 20.6163 52.9197 20.7489 53.1145 20.6156C53.0488 20.6605 52.9846 20.7062 52.9169 20.7482C52.7807 20.8331 52.6387 20.9037 52.4946 20.9743C52.3042 21.0678 52.6623 20.9237 52.4433 20.9936C52.3684 21.0171 52.2949 21.0457 52.22 21.0692C52.031 21.1277 51.8391 21.1755 51.6466 21.219C50.8741 21.3923 50.0859 21.4836 49.3392 21.7568C48.842 21.9387 48.4526 22.4536 48.6309 23.005C48.7885 23.4929 49.3456 23.9087 49.8791 23.7133C50.6879 23.4173 51.5467 23.3352 52.3791 23.1305C53.1922 22.9308 53.9632 22.5763 54.5888 22.0136C55.2428 21.4251 55.6301 20.5763 55.6102 19.694C55.6002 19.2425 55.4996 18.7946 55.414 18.3531C55.3969 18.2639 55.3812 18.1748 55.3655 18.0856C55.3156 17.8025 55.3691 18.2846 55.357 18C55.3534 17.9116 55.3463 17.8239 55.3484 17.7354C55.3498 17.6769 55.3534 17.6184 55.3591 17.56C55.3427 17.6841 55.3463 17.6869 55.3698 17.5685C55.4889 17.0528 55.2107 16.4458 54.6615 16.3203C54.1444 16.2026 53.541 16.4758 53.4133 17.0286L53.4126 17.0279Z" fill="#040000"/>
<path d="M50.4369 27.8588C50.464 27.8103 50.4932 27.7633 50.5246 27.7176C50.4462 27.8132 50.444 27.8175 50.5175 27.7319C50.5753 27.6762 50.6316 27.6192 50.6908 27.5643C50.5246 27.719 50.6944 27.565 50.7457 27.5336C50.8385 27.4758 50.9355 27.4259 51.0346 27.381C50.8727 27.4544 51.0225 27.3909 51.1038 27.3653C51.1979 27.3353 51.2942 27.3103 51.3905 27.2882C51.4404 27.2768 51.75 27.2276 51.5018 27.259C51.5874 27.2483 51.6737 27.2404 51.76 27.2347C51.9597 27.2212 52.1601 27.2205 52.3598 27.2312C52.4519 27.2362 52.5432 27.2447 52.6344 27.2519C52.7564 27.2661 52.7621 27.2654 52.6516 27.2511C52.6994 27.2583 52.7471 27.2661 52.7942 27.2747C53.0004 27.3118 53.1986 27.3674 53.3976 27.4316C53.5096 27.4744 53.516 27.4758 53.4183 27.4366C53.4611 27.4566 53.5032 27.4772 53.5446 27.5001C53.6401 27.5514 53.7364 27.6063 53.8227 27.6734C53.6694 27.555 53.8712 27.7369 53.9005 27.7626C53.9768 27.8517 53.9818 27.8524 53.9148 27.7654C53.9497 27.8139 53.9825 27.8631 54.0132 27.9145C54.0595 27.9908 54.1009 28.07 54.138 28.1513C54.0503 27.9566 54.1473 28.1998 54.1608 28.2454C54.1958 28.3624 54.2193 28.4801 54.2436 28.5992C54.2878 28.8139 54.2478 28.4551 54.2528 28.6948C54.2571 28.9123 54.2685 29.1256 54.255 29.3431C54.2493 29.4352 54.2407 29.5265 54.2307 29.6177C54.2093 29.8203 54.2372 29.6149 54.2051 29.8003C54.1594 30.0628 54.1138 30.326 54.0681 30.5885C53.969 31.1627 53.8805 31.7433 53.8891 32.3274C53.8976 32.8581 54.3498 33.3667 54.9033 33.3417C55.4461 33.3174 55.9269 32.8959 55.9176 32.3274C55.9155 32.1755 55.9176 32.025 55.9269 31.8731C55.9319 31.7975 55.9383 31.7219 55.9461 31.647C55.9618 31.5193 55.9632 31.4965 55.9518 31.5785C55.9903 31.2768 56.0517 30.9772 56.1045 30.6777C56.2079 30.0864 56.3113 29.4829 56.2913 28.8802C56.2514 27.6527 55.7714 26.4794 54.6901 25.8182C53.7742 25.2583 52.5524 25.1099 51.5004 25.2312C50.367 25.3617 49.285 25.8139 48.6823 26.8367C48.4127 27.2939 48.5631 27.9694 49.046 28.2247C49.5339 28.4822 50.1459 28.3496 50.434 27.861L50.4369 27.8588Z" fill="#040000"/>
<path d="M83.9139 95.4046C83.9139 95.4046 85.5751 88.9967 78.4246 87.2028C69.5688 84.9803 67.0146 91.9339 66.6216 92.4924C66.2293 93.0508 78.742 97.4403 83.9139 95.4046Z" fill="#F09196" stroke="#040000" stroke-width="1.21183" stroke-linecap="round" stroke-linejoin="round"/>
</g>
<defs>
<linearGradient id="paint0_linear_241_12" x1="88.1352" y1="4.38817" x2="61.906" y2="108.427" gradientUnits="userSpaceOnUse">
<stop offset="0.01" stop-color="#EA5A3F"/>
<stop offset="0.87" stop-color="#FBDAD1"/>
</linearGradient>
<clipPath id="clip0_241_12">
<rect width="326" height="173.217" fill="white"/>
</clipPath>
</defs>
</svg>
