<svg width="205" height="172" viewBox="0 0 205 172" fill="none" xmlns="http://www.w3.org/2000/svg">
<path d="M123.831 2H98.3461V67.8444L123.831 52.9004V2ZM86.5561 2H61.1623V89.853L86.5561 74.9089V2ZM187.768 15.2232L160.561 31.2541V55.1646H135.258V46.1982L123.831 52.9909V96.0117H98.3461V67.935L86.4654 74.9089V154.882H61.0716V89.853L15 116.933C31.5967 149.629 65.5155 172 104.604 172C160.107 172 205 127.168 205 71.7389C205 50.7267 198.652 31.3447 187.587 15.2232M160.379 2H135.076V46.1982L160.379 31.1636V2Z" fill="#F37429"/>
<path d="M36 18.0453C36 28.0202 27.9295 36 17.9547 36C7.97985 36 0 28.0202 0 18.0453C0 8.07053 8.07053 0 17.9547 0C27.8388 0 36 8.07053 36 17.9547V18.0453Z" fill="#F37429"/>
</svg>
