<svg width="319" height="103" viewBox="0 0 319 103" fill="none" xmlns="http://www.w3.org/2000/svg">
<g filter="url(#filter0_d_241_383)">
<rect y="43" width="319" height="56" fill="#F08B1B"/>
</g>
<path d="M58.26 62.1798H61.56C63.98 64.8198 66.02 65.9998 69.28 66.6398V70.1798C67.74 69.8798 66.98 69.6398 65.58 69.0198V70.4398H54.42V69.3998C53.28 69.8998 52.6 70.1398 50.84 70.6398V67.1798C54.22 66.1398 56.48 64.5998 58.26 62.1798ZM57.14 67.6398H63.04C61.68 66.6998 61.08 66.1998 60 65.1198C59.02 66.1398 58.46 66.6398 57.14 67.6398ZM52.22 74.1798V71.2998H67.72C67.48 75.0998 66.94 77.0598 65.74 78.4198C64.38 79.8598 62.82 80.2398 58.54 80.2198H53.26V77.1998H59.56C62.32 77.2198 63.6 76.2798 63.74 74.1798H52.22ZM73.34 67.6598V64.5798L82.12 64.5198V62.4398H85.68V64.4598L90.34 64.3998V67.5198L85.68 67.5598V75.1398C85.7 76.7398 85.38 77.7398 84.48 78.7798C83.28 80.0198 82.2 80.3598 79.62 80.3398H76.1V77.1198H79.32C81.66 77.1198 82.12 76.7998 82.28 75.0798C81.22 75.5798 80.64 75.7198 79.72 75.7198C77.5 75.7198 75.84 74.1998 75.84 72.1598C75.84 71.1198 76.28 70.1998 77.18 69.4198C78.04 68.6798 78.92 68.3798 80.3 68.3798C80.9 68.3798 81.3 68.4398 82.12 68.6198V67.5598L73.34 67.6598ZM80.62 71.0598C79.84 71.0598 79.14 71.5398 79.14 72.0598C79.14 72.5998 79.7 72.9798 80.52 72.9798C81.42 72.9798 82.02 72.5598 82.02 71.9398C82.02 71.4198 81.44 71.0598 80.62 71.0598ZM103.98 62.7998H108.26L102.32 69.9398C101.96 70.3598 101.74 70.8798 101.74 71.2998C101.74 71.7198 101.84 71.8798 102.5 72.6798L108.62 80.0998H103.86L99.02 73.9798L98.18 72.9798C97.78 72.4998 97.64 72.0598 97.64 71.3398C97.64 70.7198 97.84 70.1198 98.16 69.7398L103.98 62.7998ZM107.96 65.1398H109.88V68.1998H107.96V65.1398ZM110.44 65.1398H112.34V68.1998H110.44V65.1398ZM116.8 65.3398H124.06V67.7398H116.8V65.3398ZM117.32 74.0198H123.64V78.7198C123.64 79.7798 123 80.2998 121.6 80.3398H117.32V74.0198ZM119.84 77.7598H121.1V76.4398H119.84V77.7598ZM117.48 68.2398H123.58V70.6198H117.48V68.2398ZM117.48 71.1598H123.58V73.4798H117.48V71.1598ZM117.54 62.5398H123.58V64.7598H117.54V62.5398ZM132.14 74.1198H135.36C134.56 76.4398 133.44 77.8198 131.42 79.0198C129.72 79.9998 127.2 80.5798 124.54 80.5798H124.1V77.6998C128.18 77.8398 130.62 76.7398 132.14 74.1198ZM124.76 72.8198V70.0398C126.58 69.7598 127.78 68.9798 128.82 67.4198H131.82C131.42 69.0998 130.68 70.1198 128.98 71.2598C127.44 72.2598 126.04 72.7798 124.76 72.8198ZM124.76 76.7398V73.9198C128.06 73.6998 129.9 72.5598 130.9 70.1398H134.08C133.2 72.8998 131.36 74.8998 128.82 75.8598C127.14 76.5198 125.94 76.7798 124.76 76.7398ZM135.3 65.9998V69.4998C131.74 67.3198 131.1 66.8198 129.74 64.9798C128.06 66.9998 127.1 67.7598 124.32 69.2398V65.9198C126.08 64.9798 127.48 63.6598 128.24 62.2598H131.2C132.14 63.8998 133.18 64.8398 135.3 65.9998ZM139.2 62.5398H142.14V63.2398H143.86L144.48 66.3198V62.4198H146.8V66.2798L147.5 63.2998H149.32L148.44 67.0798H146.8V67.8198H148.82V70.5598H146.8V70.6998C147.74 71.4198 148.12 71.7598 148.82 72.4798V75.3998C147.8 74.4398 147.6 74.2798 146.8 73.6198V75.9198H144.4V73.4198C143.7 74.3398 143.26 74.7798 142.14 75.7398V76.4798H148.02V77.2598C149.24 76.0798 149.44 75.0998 149.5 70.4998V62.9398C152.48 62.7398 154.12 62.5198 156.7 62.0598V65.0998C155.24 65.3798 154.72 65.4598 152.5 65.7398V68.1798H157.16V70.9598H156.26V80.2798H153.22V70.9598H152.5C152.46 73.9398 152.32 75.4598 152 76.5998C151.36 78.5998 149.88 79.9798 147.88 80.3998V79.3598H139.2V62.5398ZM142.14 67.8198H144.48V67.0798H142.72L142.14 64.1398V67.8198ZM144.2 70.5598H142.14V72.6398C143.4 71.6798 143.68 71.3998 144.2 70.5598ZM161.16 71.8798V68.9798H166.8L165.6 66.5598H169.28L170.12 68.4998L172.56 65.7998H162.68V62.5998H177.44V65.1798L173.84 68.9798H178.64V73.4198C178.62 75.5998 177.6 76.4398 174.88 76.4798H172.66V73.4198H175.2V71.8798H171.44V77.7398C171.46 79.6598 170.62 80.4798 168.54 80.5798H164.8V77.4998H168.04V71.8798H161.16ZM182.96 73.4998H185.14C185.14 75.2398 184.96 77.1198 184.64 78.7798H182.52C182.82 77.3998 182.98 75.6998 182.98 73.9198C182.98 73.8398 182.98 73.6798 182.96 73.4998ZM187.54 62.2998L185.78 65.6598L186.24 66.2198L187.54 63.6798H190.72L188 68.4198H190.04L190.84 70.2998V67.3398C192.06 66.0598 192.6 64.6598 192.78 62.2998H196.04C195.86 63.3598 195.82 63.5198 195.58 64.5598H200.9C200.88 71.6598 200.78 74.9598 200.58 75.8798C200 78.9598 198.34 80.1398 194.48 80.1998H193.04V76.9398H193.98C196.02 76.9598 196.62 76.7598 197.22 75.7398C197.44 75.3198 197.52 74.9198 197.56 73.9798C197.58 73.4798 197.58 73.3198 197.6 72.2598L197.64 69.1798L197.66 67.5398H194.38C193.16 69.8798 192.28 70.9598 190.96 71.6598C190.96 72.3998 190.56 72.7198 189.68 72.6998H188.48V80.3798H185.72V72.6998H182.96V70.0598H184.04L184.64 68.9598L183.06 66.5998C182.92 66.3798 182.82 66.0398 182.82 65.7998C182.82 65.5998 182.86 65.4598 183.12 64.8998L184.34 62.2998H187.54ZM187.1 70.0598H188.22L187.8 68.9198L187.1 70.0598ZM189.14 78.3998V73.4998H191.28V78.3998H189.14ZM196.8 71.2798V74.4798C195.16 73.7798 194.74 73.6198 193.26 73.0198V69.9398C194.62 70.2998 195.3 70.5598 196.8 71.2798ZM209.54 66.7398H205.94V63.9198H211.3L212.04 62.4198H215.62L215.02 63.9198H221.3V66.7398H213.28L212.46 68.1998C213.72 67.5198 214.4 67.2998 215.24 67.2998C216.24 67.2998 217.02 67.7598 217.48 68.5998C217.7 69.0398 217.76 69.4398 217.76 70.6998L222.28 70.2198V73.4198L217.76 73.7598V76.2998H214.36V74.3398C212.12 74.9198 211.42 75.3998 211.42 76.3398C211.42 77.2398 211.94 77.4798 213.94 77.4798C215.96 77.4798 218.64 77.3798 221.22 77.1998V80.3798C219.8 80.4198 219.26 80.4398 218.3 80.4398C212.9 80.4398 211.46 80.3598 210.3 79.9598C209.26 79.6198 208.48 78.8398 208.04 77.6998C207.86 77.2598 207.78 76.8398 207.78 76.3998C207.78 75.0998 208.68 73.7998 210.26 72.8798C211.32 72.2398 212.18 71.9198 214.36 71.3598C214.36 70.6998 214.32 70.4198 214.2 70.1998C214.04 69.9198 213.74 69.7598 213.38 69.7598C212.2 69.7598 210.92 70.5598 209.66 72.1398H205.8C207.4 70.1198 208.22 68.9398 209.54 66.7398ZM227.34 67.6598V64.5798L236.12 64.5198V62.4398H239.68V64.4598L244.34 64.3998V67.5198L239.68 67.5598V75.1398C239.7 76.7398 239.38 77.7398 238.48 78.7798C237.28 80.0198 236.2 80.3598 233.62 80.3398H230.1V77.1198H233.32C235.66 77.1198 236.12 76.7998 236.28 75.0798C235.22 75.5798 234.64 75.7198 233.72 75.7198C231.5 75.7198 229.84 74.1998 229.84 72.1598C229.84 71.1198 230.28 70.1998 231.18 69.4198C232.04 68.6798 232.92 68.3798 234.3 68.3798C234.9 68.3798 235.3 68.4398 236.12 68.6198V67.5598L227.34 67.6598ZM234.62 71.0598C233.84 71.0598 233.14 71.5398 233.14 72.0598C233.14 72.5998 233.7 72.9798 234.52 72.9798C235.42 72.9798 236.02 72.5598 236.02 71.9398C236.02 71.4198 235.44 71.0598 234.62 71.0598ZM258.94 66.0598L251.84 66.1798V63.1198H264.16V66.0598L259.48 68.8798C260.42 68.7598 260.78 68.7398 261.22 68.7398C264.16 68.7398 266.44 70.9398 266.44 73.8198C266.44 75.6998 265.7 77.4398 264.44 78.5798C263.04 79.8198 261.02 80.4198 258.24 80.4198C254 80.4198 251.76 79.1398 251.76 76.6798C251.76 74.6398 253.56 73.0598 255.9 73.0598C258.16 73.0598 259.94 74.4798 259.94 76.2798C259.94 76.4798 259.92 76.8198 259.88 77.1398C261.16 76.9998 261.78 76.7398 262.24 76.1198C262.66 75.5598 262.9 74.8398 262.9 74.0598C262.9 72.3198 261.68 71.3798 259.42 71.3798C257.38 71.3798 255.62 71.7598 253.48 72.6998C251.84 73.3998 251.1 73.8198 249.86 74.7598V71.2798C250.02 71.1598 250.48 70.8798 250.52 70.8598C251.18 70.4998 251.84 70.0998 252.5 69.7198C252.96 69.4598 253.68 69.0398 254.46 68.5798C256.58 67.3198 256.82 67.1798 258.94 66.0598ZM256.8 77.4998L256.96 77.4798C256.8 76.4198 256.44 75.9798 255.68 75.9798C255.24 75.9798 255 76.1598 255 76.5198C255 77.0798 255.66 77.4998 256.54 77.4998H256.72H256.8Z" fill="white"/>
<g style="mix-blend-mode:multiply">
<rect y="71" width="319" height="28" fill="#F3F5F8"/>
</g>
<path d="M285.364 62.4783L292.417 70.3913L285.364 78.3044" stroke="white" stroke-width="2"/>
<path fill-rule="evenodd" clip-rule="evenodd" d="M6 0C3.79086 0 2 1.79086 2 4V31C2 33.2091 3.79086 35 6 35H153.649L160 46L166.351 35H314C316.209 35 318 33.2091 318 31V4C318 1.79086 316.209 0 314 0H6Z" fill="white"/>
<path d="M48.9824 13.712V11.043H55.7484C57.4994 11.043 58.6554 11.4 59.2674 12.148C59.7944 12.777 60.1174 13.933 60.1174 15.14C60.1174 16.585 59.6924 17.809 58.9444 18.489C58.2474 19.135 57.2444 19.407 55.5954 19.407H53.7764C52.1104 19.492 51.6344 19.9 51.6854 21.209V22.314H59.8454V25H48.5064V21.889C48.4554 18.064 49.9514 16.551 53.8104 16.551H55.5444C56.7344 16.551 56.9554 16.33 56.9554 15.14C56.9554 13.967 56.6324 13.712 55.0684 13.712H48.9824ZM63.8019 11.043H66.8449V17.282C66.8619 18.54 66.9469 18.608 68.2219 18.625H70.0579V11.043H73.2709V18.625H75.5149V21.311H73.2709V25H70.0579V21.311H66.9299C65.4339 21.294 64.8899 21.175 64.4139 20.733C63.9039 20.24 63.8189 19.866 63.8019 18.115V11.043ZM78.5629 24.643V11.757H84.6489V22.348C84.6829 24.184 84.1559 24.677 82.1839 24.643H78.5629ZM80.9939 22.042H82.1839V19.373H80.9939V22.042ZM80.9939 16.993H82.1839V14.358H80.9939V16.993ZM84.9889 20.648V18.319H90.2759V17.384H84.9889V15.276H88.0319V14.307H85.3119V12.012H88.0319V10.822H90.6839V12.012H93.5909V14.307H90.6839V15.276H93.9819V17.384H92.8259V18.319H93.9819V20.648H92.8259V23.623C92.8939 25.459 92.1969 26.224 90.4799 26.241H88.6779V23.946H86.3149C86.0429 23.045 85.9409 22.756 85.3799 21.379H87.9129C88.3209 22.314 88.5079 22.79 88.7969 23.708H90.2759V20.648H84.9889ZM108.228 26.275V24.337C108.007 25.204 107.548 25.459 106.307 25.442H101.275V18.591H108.313V23.776H109.605V17.877H105.219V11.094H112.308V23.708C112.342 25.748 111.747 26.292 109.486 26.275H108.228ZM103.638 23.47H105.831V22.501H103.638V23.47ZM103.638 21.022H105.831V20.308H103.638V21.022ZM107.684 16.058H109.605V15.327H107.684V16.058ZM107.684 13.865H109.605V13.219H107.684V13.865ZM97.3139 11.094H104.301V17.877H99.8639V26.411H97.3139V11.094ZM99.8639 16.058H101.768V15.327H99.8639V16.058ZM99.8639 13.865H101.768V13.219H99.8639V13.865ZM199.641 26.275V23.589C201.46 23.555 203.347 23.368 204.112 23.13C203.058 22.212 202.684 21.77 201.987 20.631H201.29V19.373H200.066V15.514H201.358L200.712 14.154H203.67L204.299 15.514H205.863L205.285 14.154H208.379L208.974 15.514H210.181L210.997 13.899H214.346L213.394 15.514H214.975V19.475H213.632V20.376C212.68 21.634 212.034 22.229 210.589 23.215C211.762 23.538 212.306 23.572 215.281 23.589V26.377C211.694 26.173 209.688 25.833 207.325 25.017C204.741 25.833 203.092 26.105 199.641 26.275ZM202.939 18.608H212.017V17.741H202.939V18.608ZM209.875 20.631H205.2C205.914 21.362 206.339 21.651 207.342 22.161C208.481 21.702 208.974 21.413 209.875 20.631ZM200.168 13.644V11.179C208.073 11.128 211.49 10.992 214.839 10.533V12.998C212.153 13.372 207.495 13.576 200.168 13.644ZM218.477 20.053V16.279C219.973 15.089 221.333 12.845 221.809 10.788H224.716C224.478 11.825 223.747 13.542 222.914 15.038V26.054H220.007V18.642C219.31 19.373 219.072 19.594 218.477 20.053ZM223.883 13.78H229.799V10.788H232.757V13.78H234.117V16.398H232.757V23.725C232.74 25.136 231.89 25.884 230.241 25.901H226.331V23.3H229.799V16.398H223.883V13.78ZM223.985 20.563V17.809C224.325 17.86 224.631 17.911 224.733 17.928C226.416 18.353 227.742 18.71 228.677 18.965V21.821C226.977 21.277 226.637 21.192 223.985 20.563ZM237.551 13.168H243.467V10.703H246.612V13.168H252.494V19.458C252.579 21.345 252.103 21.991 250.522 22.11H246.612V26.224H243.467V22.11H237.551V13.168ZM240.577 19.39H243.467V15.871H240.577V19.39ZM246.612 19.39H249.434V15.871H246.612V19.39ZM257.543 11.026H261.3L260.569 21.396H258.206L257.543 11.026ZM257.883 22.127H260.858V25.034H257.883V22.127ZM267.594 11.026H271.351L270.62 21.396H268.257L267.594 11.026ZM267.934 22.127H270.909V25.034H267.934V22.127Z" fill="#3A3A3A"/>
<path d="M115.47 11.043H118.717L119.805 19.849L121.284 11.043H124.786L126.095 19.56L127.37 11.043H130.617L127.965 25H124.208L122.933 16.585L121.607 25H117.901L115.47 11.043ZM144.105 20.869H136.506V21.566C136.574 22.314 136.846 22.45 138.155 22.45H144.258V25H137.645C134.993 25.068 133.684 23.946 133.684 21.566V17.707C133.701 15.48 134.619 14.358 136.455 14.341H141.096C143.306 14.409 144.037 15.14 144.105 17.35V20.869ZM136.506 18.574H141.062V17.928C141.045 17.112 140.824 16.908 139.94 16.891H137.73C136.693 16.908 136.523 17.061 136.506 18.013V18.574ZM148.056 11.026H150.946V14.256H155.91C157.338 14.273 157.916 14.426 158.443 14.953C159.004 15.548 159.089 15.956 159.106 18.302V21.991C159.004 24.49 158.273 25.068 155.315 25H148.056V11.026ZM150.946 22.45H154.329C155.774 22.433 156.029 22.229 156.063 21.005V18.353C156.046 16.942 155.859 16.772 154.431 16.806H150.946V22.45ZM162.734 18.948V16.483H167.528L166.508 14.426H169.636L170.35 16.075L172.424 13.78H164.026V11.06H176.572V13.253L173.512 16.483H177.592V20.257C177.575 22.11 176.708 22.824 174.396 22.858H172.509V20.257H174.668V18.948H171.472V23.929C171.489 25.561 170.775 26.258 169.007 26.343H165.828V23.725H168.582V18.948H162.734ZM181.264 20.325H183.117C183.117 21.804 182.964 23.402 182.692 24.813H180.89C181.145 23.64 181.281 22.195 181.281 20.682C181.281 20.614 181.281 20.478 181.264 20.325ZM185.157 10.805L183.661 13.661L184.052 14.137L185.157 11.978H187.86L185.548 16.007H187.282L187.962 17.605V15.089C188.999 14.001 189.458 12.811 189.611 10.805H192.382C192.229 11.706 192.195 11.842 191.991 12.726H196.513C196.496 18.761 196.411 21.566 196.241 22.348C195.748 24.966 194.337 25.969 191.056 26.02H189.832V23.249H190.631C192.365 23.266 192.875 23.096 193.385 22.229C193.572 21.872 193.64 21.532 193.674 20.733C193.691 20.308 193.691 20.172 193.708 19.271L193.742 16.653L193.759 15.259H190.971C189.934 17.248 189.186 18.166 188.064 18.761C188.064 19.39 187.724 19.662 186.976 19.645H185.956V26.173H183.61V19.645H181.264V17.401H182.182L182.692 16.466L181.349 14.46C181.23 14.273 181.145 13.984 181.145 13.78C181.145 13.61 181.179 13.491 181.4 13.015L182.437 10.805H185.157ZM184.783 17.401H185.735L185.378 16.432L184.783 17.401ZM186.517 24.49V20.325H188.336V24.49H186.517ZM193.028 18.438V21.158C191.634 20.563 191.277 20.427 190.019 19.917V17.299C191.175 17.605 191.753 17.826 193.028 18.438Z" fill="#F37429"/>
<defs>
<filter id="filter0_d_241_383" x="0" y="43" width="319" height="60" filterUnits="userSpaceOnUse" color-interpolation-filters="sRGB">
<feFlood flood-opacity="0" result="BackgroundImageFix"/>
<feColorMatrix in="SourceAlpha" type="matrix" values="0 0 0 0 0 0 0 0 0 0 0 0 0 0 0 0 0 0 127 0" result="hardAlpha"/>
<feOffset dy="4"/>
<feComposite in2="hardAlpha" operator="out"/>
<feColorMatrix type="matrix" values="0 0 0 0 0.866667 0 0 0 0 0.352941 0 0 0 0 0 0 0 0 1 0"/>
<feBlend mode="normal" in2="BackgroundImageFix" result="effect1_dropShadow_241_383"/>
<feBlend mode="normal" in="SourceGraphic" in2="effect1_dropShadow_241_383" result="shape"/>
</filter>
</defs>
</svg>
