<svg width="359" height="103" viewBox="0 0 359 103" fill="none" xmlns="http://www.w3.org/2000/svg">
<g filter="url(#filter0_d_247_563)">
<rect y="43" width="358.295" height="56" fill="#F08B1B"/>
</g>
<path d="M48.1059 68.2598H50.0459V66.9398C49.5059 67.3398 49.3859 67.4398 48.6059 67.8798V64.6398C50.0659 63.9598 50.6859 63.3998 51.3259 62.1198H55.1659C54.7459 62.8798 54.6859 62.9798 54.2659 63.5598H66.0059V66.3398H64.8659V68.2598H66.7859V71.2998H64.8659V73.2598H66.0059V76.0798H48.7459V73.2598H50.0459V71.2998H48.1059V68.2598ZM53.0659 73.2598H53.9059V71.2998H53.0659V73.2598ZM53.0659 68.2598H53.9059V66.3398H53.0659V68.2598ZM56.8659 73.2598H57.8259V71.2998H56.8659V73.2598ZM56.8659 68.2598H57.8259V66.3398H56.8659V68.2598ZM60.7859 73.2598H61.8259V71.2998H60.7859V73.2598ZM60.7859 68.2598H61.8259V66.3398H60.7859V68.2598ZM49.4459 76.7798H52.5659C52.2459 78.3598 51.9459 79.2998 51.4459 80.3998H47.9859C48.6859 79.0998 49.0859 78.0998 49.4459 76.7798ZM53.6059 76.7798H56.7459C56.7059 78.3198 56.6459 79.0398 56.4459 80.3998H53.1659C53.4659 78.6398 53.5459 78.0798 53.6059 76.7798ZM58.0059 76.7798H61.0059C61.1259 77.6798 61.4059 79.3998 61.6259 80.3998H58.3659C58.2059 79.2798 58.1859 79.0798 58.0059 76.7798ZM62.1259 76.7798H65.4659C65.6459 77.5598 66.2859 79.1998 66.8859 80.3998H63.3659C62.9259 79.3198 62.7059 78.6998 62.1259 76.7798ZM72.4259 71.3998H70.3459V68.3398H73.4059V62.1198H76.5459V68.3398H79.0059V71.3998H76.5459V72.1198L79.0059 73.6398V77.2998L76.5459 75.4398V80.2798H73.4059V75.6798C72.3859 77.3398 71.5459 78.2598 70.0459 79.2798V74.9198C71.4259 73.6598 72.0059 72.7998 72.4259 71.3998ZM70.2659 62.8998H72.7059L73.3459 67.4198H71.0659L70.2659 62.8998ZM77.4059 62.8998H79.6859L78.7059 67.4198H76.6059L77.4059 62.8998ZM84.4259 73.2398V61.9798H87.6459V73.0598L89.1059 72.9998V75.9998L87.6459 76.0998V80.2798H84.4259V76.2798L79.4059 76.5398V73.5198L84.4259 73.2398ZM83.5659 68.7598V72.0998C82.2459 71.5598 81.8659 71.4198 79.9459 70.7398V67.4198C81.2859 67.8598 81.9459 68.0998 83.5659 68.7598ZM79.9459 65.8798V62.5398C81.5259 62.9998 82.2459 63.2598 83.5659 63.7998V67.2998C82.2659 66.6798 81.6059 66.4198 79.9459 65.8798ZM92.3859 65.3398H99.6459V67.7398H92.3859V65.3398ZM92.9059 74.0198H99.2259V78.7198C99.2259 79.7798 98.5859 80.2998 97.1859 80.3398H92.9059V74.0198ZM95.4259 77.7598H96.6859V76.4398H95.4259V77.7598ZM93.0659 68.2398H99.1659V70.6198H93.0659V68.2398ZM93.0659 71.1598H99.1659V73.4798H93.0659V71.1598ZM93.1259 62.5398H99.1659V64.7598H93.1259V62.5398ZM107.726 74.1198H110.946C110.146 76.4398 109.026 77.8198 107.006 79.0198C105.306 79.9998 102.786 80.5798 100.126 80.5798H99.6859V77.6998C103.766 77.8398 106.206 76.7398 107.726 74.1198ZM100.346 72.8198V70.0398C102.166 69.7598 103.366 68.9798 104.406 67.4198H107.406C107.006 69.0998 106.266 70.1198 104.566 71.2598C103.026 72.2598 101.626 72.7798 100.346 72.8198ZM100.346 76.7398V73.9198C103.646 73.6998 105.486 72.5598 106.486 70.1398H109.666C108.786 72.8998 106.946 74.8998 104.406 75.8598C102.726 76.5198 101.526 76.7798 100.346 76.7398ZM110.886 65.9998V69.4998C107.326 67.3198 106.686 66.8198 105.326 64.9798C103.646 66.9998 102.686 67.7598 99.9059 69.2398V65.9198C101.666 64.9798 103.066 63.6598 103.826 62.2598H106.786C107.726 63.8998 108.766 64.8398 110.886 65.9998ZM114.786 62.5398H117.726V63.2398H119.446L120.066 66.3198V62.4198H122.386V66.2798L123.086 63.2998H124.906L124.026 67.0798H122.386V67.8198H124.406V70.5598H122.386V70.6998C123.326 71.4198 123.706 71.7598 124.406 72.4798V75.3998C123.386 74.4398 123.186 74.2798 122.386 73.6198V75.9198H119.986V73.4198C119.286 74.3398 118.846 74.7798 117.726 75.7398V76.4798H123.606V77.2598C124.826 76.0798 125.026 75.0998 125.086 70.4998V62.9398C128.066 62.7398 129.706 62.5198 132.286 62.0598V65.0998C130.826 65.3798 130.306 65.4598 128.086 65.7398V68.1798H132.746V70.9598H131.846V80.2798H128.806V70.9598H128.086C128.046 73.9398 127.906 75.4598 127.586 76.5998C126.946 78.5998 125.466 79.9798 123.466 80.3998V79.3598H114.786V62.5398ZM117.726 67.8198H120.066V67.0798H118.306L117.726 64.1398V67.8198ZM119.786 70.5598H117.726V72.6398C118.986 71.6798 119.266 71.3998 119.786 70.5598ZM136.826 64.3598H143.706V61.9998H147.186V64.3598H154.186V73.3998C154.226 75.4398 153.546 76.0998 151.346 76.1598H147.186V80.2598H143.706V76.1598H136.826V64.3598ZM140.166 68.8398H143.706V67.2998H140.166V68.8398ZM140.166 73.1798H143.706V71.5398H140.166V73.1798ZM147.186 73.1798H150.586V71.5398H147.186V73.1798ZM147.186 68.8398H150.586V67.2998H147.186V68.8398ZM158.466 68.4998H163.606V74.6398C163.626 76.1398 164.686 76.8598 166.726 76.8198H176.566V79.9398H166.886C164.206 79.9598 163.346 79.6598 162.346 78.3598C161.246 79.5398 160.266 80.0198 158.466 80.2998V76.7398C159.886 76.4798 160.246 76.0398 160.226 74.6398V71.5798H158.466V68.4998ZM164.166 63.7398V66.9598C162.446 66.3598 161.706 66.1598 159.026 65.5998V62.3398C160.966 62.7398 162.506 63.1398 164.166 63.7398ZM164.446 76.1798V72.6398C166.606 71.6398 167.766 69.6198 167.986 66.4598H169.286L169.146 65.1798H166.266V62.2398H172.226C172.206 68.8198 173.206 71.4398 176.226 72.6398V76.1798C173.066 75.3598 171.366 73.7998 170.106 70.6398C168.746 73.9398 167.286 75.3598 164.446 76.1798ZM181.946 62.7198H185.306C184.646 67.6598 184.446 69.9398 184.446 72.5798C184.446 76.8598 184.486 77.6398 184.806 79.9598H181.366C181.166 77.6398 181.126 76.7198 181.126 74.3798C181.126 69.8798 181.246 68.2198 181.946 62.7198ZM191.566 72.7598V68.8798H186.366V65.7998H191.566V62.5998H194.906V65.6998H198.086V68.8798H194.946V69.9398L194.966 72.5598L194.986 73.5598C197.106 74.3598 197.466 74.4998 198.466 75.0598V78.8798C197.066 77.8798 196.306 77.4398 195.006 76.8798C194.946 77.8598 194.786 78.3198 194.406 78.8198C193.666 79.6998 192.426 80.1998 190.866 80.1998C188.046 80.1998 186.046 78.6598 186.046 76.4798C186.046 75.1798 186.786 73.8398 187.846 73.2598C188.486 72.9198 189.526 72.6998 190.566 72.6998C190.786 72.6998 191.126 72.7198 191.566 72.7598ZM190.426 75.3998C189.726 75.3998 189.286 75.7598 189.286 76.3398C189.286 76.9198 189.686 77.2998 190.286 77.2998C191.226 77.2998 191.686 76.9798 191.686 76.3198C191.686 75.7398 191.226 75.3998 190.426 75.3998ZM204.706 71.4998H208.586C208.466 71.6998 208.346 71.8998 208.226 72.1198C207.446 73.3798 207.226 73.9398 207.226 74.6598C207.226 75.4998 207.686 75.9598 208.746 76.1598C209.366 76.2998 210.806 76.3798 212.126 76.3798C213.806 76.3798 216.606 76.2398 219.386 76.0198V79.8998L217.246 79.9198L213.566 79.9598C212.226 79.9798 209.506 79.8998 208.726 79.8398C206.706 79.6398 205.446 79.0798 204.446 77.9398C203.786 77.1598 203.446 76.2998 203.446 75.3998C203.446 74.4598 203.646 73.8198 204.706 71.4998ZM205.106 63.3798L218.726 63.2398V66.6598L205.106 66.7798V63.3798ZM225.426 64.7998H230.046L230.506 62.7198H234.266L233.666 64.7998H241.866V67.9198H232.766L231.946 71.0398C232.766 70.4198 233.126 70.2198 233.806 69.9798C234.726 69.6398 235.706 69.4598 236.586 69.4598C239.766 69.4598 242.046 71.6198 242.046 74.6598C242.046 76.8598 240.966 78.4998 238.926 79.4198C237.506 80.0598 236.226 80.2398 232.986 80.2398H227.086V77.0198H232.986C234.706 77.0198 236.166 76.8598 236.846 76.5598C237.566 76.2598 238.226 75.2998 238.226 74.5198C238.226 73.3798 237.266 72.4998 236.006 72.4998C234.966 72.4998 233.726 72.8398 232.726 73.3998C232.006 73.7998 231.566 74.2598 230.886 75.3198H227.246L229.246 67.9198H225.426V64.7998ZM248.506 80.1398V76.7798H252.946C256.466 76.7798 256.466 76.7798 257.126 76.7198C258.406 76.6198 258.866 76.4598 259.206 76.0398C259.506 75.6398 259.666 75.1798 259.666 74.7198C259.666 73.5198 258.646 72.8198 256.926 72.8198C255.586 72.8198 254.246 73.2198 253.166 73.9198C252.666 74.2398 252.326 74.5398 251.686 75.2598H248.506V67.1598H251.946V71.4798C254.586 70.1598 256.026 69.7398 257.766 69.7398C261.166 69.7398 263.546 71.7598 263.546 74.6798C263.546 76.7198 262.566 78.4398 260.886 79.3398C260.006 79.8198 259.106 80.0198 257.386 80.0998C256.546 80.1398 255.906 80.1398 252.966 80.1398H248.506ZM261.086 63.2198V66.3398C256.246 66.0198 253.666 65.9198 250.546 65.9198H248.366V62.8398C255.346 62.9198 255.786 62.9398 261.086 63.2198ZM269.046 66.6798H272.526C272.666 65.5798 272.726 64.7998 272.806 62.9398H276.266C276.186 64.2798 276.126 64.9998 275.886 66.6798H277.766C279.186 66.6798 280.346 67.3198 280.786 68.3598C281.186 69.2598 281.386 70.8398 281.386 72.8998C281.386 75.4198 281.186 76.9398 280.706 77.9398C280.046 79.3398 278.486 80.0398 276.026 80.0398C275.746 80.0398 275.346 80.0398 274.866 80.0198V76.6998C275.226 76.7198 275.786 76.7198 275.866 76.7198C276.926 76.7198 277.306 76.4798 277.506 75.6998C277.626 75.2598 277.746 73.9798 277.746 73.0398C277.746 72.2798 277.646 71.1198 277.546 70.8198C277.406 70.3798 276.926 70.0598 276.386 70.0598H275.306C274.306 75.2198 273.786 77.1998 272.766 79.9398H269.026C270.386 76.6198 271.346 73.4398 271.966 70.0798L269.046 70.2198V66.6798ZM281.206 65.1998H284.686C285.766 66.4198 286.126 67.3598 286.426 69.6198C286.566 70.6198 286.626 71.8798 286.626 73.3798C286.626 73.8798 286.606 74.4198 286.586 75.5398H283.026C283.086 74.1598 283.106 73.4798 283.106 72.6798C283.106 70.0398 282.966 68.9198 282.486 67.6798C282.106 66.6998 281.766 66.0398 281.206 65.1998ZM292.506 80.1398V76.7798H296.946C300.466 76.7798 300.466 76.7798 301.126 76.7198C302.406 76.6198 302.866 76.4598 303.206 76.0398C303.506 75.6398 303.666 75.1798 303.666 74.7198C303.666 73.5198 302.646 72.8198 300.926 72.8198C299.586 72.8198 298.246 73.2198 297.166 73.9198C296.666 74.2398 296.326 74.5398 295.686 75.2598H292.506V67.1598H295.946V71.4798C298.586 70.1598 300.026 69.7398 301.766 69.7398C305.166 69.7398 307.546 71.7598 307.546 74.6798C307.546 76.7198 306.566 78.4398 304.886 79.3398C304.006 79.8198 303.106 80.0198 301.386 80.0998C300.546 80.1398 299.906 80.1398 296.966 80.1398H292.506ZM305.086 63.2198V66.3398C300.246 66.0198 297.666 65.9198 294.546 65.9198H292.366V62.8398C299.346 62.9198 299.786 62.9398 305.086 63.2198Z" fill="white"/>
<g style="mix-blend-mode:multiply">
<path d="M0 71C139.923 71 218.372 71 358.295 71V99H0V71Z" fill="#F3F5F8"/>
</g>
<path d="M326.516 62.4783L334.437 70.3913L326.516 78.3044" stroke="white" stroke-width="2"/>
<path fill-rule="evenodd" clip-rule="evenodd" d="M52 0C49.7909 0 48 1.79086 48 4V31C48 33.2091 49.7909 35 52 35H172.649L179 46L185.351 35H307C309.209 35 311 33.2091 311 31V4C311 1.79086 309.209 0 307 0H52Z" fill="#515151"/>
<path d="M71.4083 23.453H70.0993V21.243H71.3233V13.916H70.0993V11.757H71.3233V10.839H73.6353V11.842H75.3183V10.839H77.7493V11.842H78.9393V13.916H77.7493V21.243H78.8033V23.232C79.4323 22.654 79.5513 22.28 79.5853 20.903V10.924H85.5013V23.538C85.5013 24.575 85.3993 24.966 85.0083 25.425C84.5493 25.935 84.2093 26.02 82.7983 26.037H81.9823V23.419H82.4413C83.0023 23.402 83.1043 23.266 83.1043 22.586V20.665H82.1353C81.9823 23.742 81.0303 25.374 78.8033 26.326V23.453H77.6133C77.8513 24.235 77.9023 24.371 78.6673 26.207H75.8963C75.6243 25.272 75.5563 25.034 75.1823 23.453H73.9073C73.5843 24.541 73.3803 25.034 72.8023 26.207H69.9463C70.9153 24.694 71.0683 24.422 71.4083 23.453ZM73.6353 21.243H75.3183V20.036H73.6353V21.243ZM73.6353 18.047H75.3183V16.857H73.6353V18.047ZM73.6353 14.851H75.3183V13.916H73.6353V14.851ZM83.1043 18.489V16.823H82.1353V18.489H83.1043ZM82.1353 14.851H83.1043V13.27H82.1353V14.851ZM99.9513 26.275V24.337C99.7303 25.204 99.2713 25.459 98.0303 25.442H92.9983V18.591H100.036V23.776H101.328V17.877H96.9423V11.094H104.031V23.708C104.065 25.748 103.47 26.292 101.209 26.275H99.9513ZM95.3613 23.47H97.5543V22.501H95.3613V23.47ZM95.3613 21.022H97.5543V20.308H95.3613V21.022ZM99.4073 16.058H101.328V15.327H99.4073V16.058ZM99.4073 13.865H101.328V13.219H99.4073V13.865ZM89.0373 11.094H96.0243V17.877H91.5873V26.411H89.0373V11.094ZM91.5873 16.058H93.4913V15.327H91.5873V16.058ZM91.5873 13.865H93.4913V13.219H91.5873V13.865ZM107.788 26.173V10.975H113.925V13.338L112.548 16.857C113.568 18.659 113.84 19.543 113.84 21.107C113.84 22.79 113.194 23.504 111.664 23.504H110.355V26.173H107.788ZM110.355 18.353V20.903H110.78C111.086 20.903 111.222 20.716 111.222 20.325C111.222 19.543 110.933 18.88 110.355 18.353ZM110.355 16.313L111.035 13.576H110.355V16.313ZM114.469 23.606V10.975H122.238V16.517C122.255 18.319 121.779 18.863 120.164 18.863H118.94C119.178 19.56 119.314 19.832 119.688 20.427C119.96 19.883 119.994 19.798 120.198 19.271H122.765C122.357 20.563 122.068 21.175 121.32 22.314C122.017 22.892 122.306 23.062 122.969 23.334V26.224C121.728 25.867 121.235 25.629 120.232 24.881V25.595C118.821 25.867 115.659 26.122 113.296 26.156V23.691C113.84 23.674 113.925 23.657 114.469 23.606ZM117.019 16.823H119.518V16.024H117.019V16.823ZM117.019 23.504L118.719 23.385C118.175 22.654 117.699 21.855 117.019 20.444V23.504ZM117.019 14.137H119.518V13.44H117.019V14.137ZM128.035 18.693H130.806L130.721 19.407L130.568 20.716L130.5 21.362C131.027 22.178 131.367 22.416 132.506 22.79V17.69H128.035V15.531H126.386V12.012H132.404V10.703H135.447V12.012H141.329V15.548H139.901V17.69H135.379V19.101H139.884V21.549H135.379V23.351H141.567V25.952H134.937C132.625 25.969 130.891 25.323 129.446 23.861C128.681 25.187 127.797 25.833 126.08 26.343V23.368C127.338 22.807 127.899 21.447 128.035 18.693ZM129.327 15.429H138.405V14.392H129.327V15.429ZM145.273 19.016V11.043H156.476V13.712H148.384V16.33H153.178C155.541 16.381 156.663 17.401 156.714 19.492V21.736C156.612 23.963 155.303 25 152.651 25H145.324V22.314H151.342C152.209 22.314 152.447 22.297 152.719 22.263L152.787 22.246H152.838C153.314 22.212 153.62 21.906 153.62 21.43V20.087C153.586 19.067 153.45 18.982 151.784 19.016H145.273ZM160.044 23.028V19.492C161.506 18.642 162.866 17.299 163.988 15.599H160.316V12.913H162.458V10.533H165.229V12.913H167.201V15.174C166.657 16.126 166.334 16.602 165.569 17.673C166.436 18.2 166.606 18.319 167.592 19.033V22.382C166.572 21.481 166.096 21.124 165.093 20.478V26.139H162.271V21.43C161.387 22.144 161.217 22.263 160.044 23.028ZM166.436 23.198H169.87V17.86H167.575V15.208H169.87V10.856H172.607V15.208H175.089V17.86H172.607V23.198H175.531V25.816H166.436V23.198ZM179.73 18.846V16.33H185.221V14.885H180.597V12.352H185.221V10.89H188.009V12.352H192.361V14.885H188.009V16.33H193.296V18.846H188.009V20.41C189.76 20.971 190.083 21.09 190.474 21.226C190.967 21.413 191.154 21.498 192.871 22.229V25.459C190.491 24.082 190.066 23.895 188.179 23.215C188.077 24.337 187.907 24.864 187.482 25.306C186.921 25.901 185.748 26.309 184.575 26.309C183.657 26.309 182.756 26.088 181.991 25.68C180.903 25.085 180.308 24.133 180.308 22.96C180.308 21.073 181.804 19.934 184.286 19.934C184.541 19.934 184.762 19.951 185.221 20.002V18.846H179.73ZM184.235 22.246C183.402 22.246 182.994 22.518 182.994 23.062C182.994 23.589 183.419 23.878 184.235 23.878C184.864 23.878 185.323 23.47 185.323 22.892C185.323 22.45 184.966 22.246 184.235 22.246ZM198.43 14.97V12.012L211.996 11.927V14.647C211.486 14.8 211.027 14.953 210.568 15.106C208.035 15.922 206.947 16.534 205.859 17.724C205.06 18.608 204.652 19.56 204.652 20.546C204.652 21.311 205.026 22.093 205.553 22.399C206.182 22.773 207.304 22.977 208.834 22.977C209.344 22.977 210.245 22.926 211.248 22.858V25.85C210.228 25.884 209.327 25.901 208.783 25.901C206.386 25.901 204.788 25.595 203.547 24.881C202.17 24.116 201.405 22.654 201.405 20.852C201.405 19.645 201.745 18.506 202.425 17.452C203.088 16.432 203.7 15.837 205.128 14.851L198.43 14.97ZM208.664 19.033V16.432H210.279V19.033H208.664ZM210.772 16.432H212.353V19.033H210.772V16.432ZM224.44 25.935V23.198C226.072 23.147 226.82 22.892 227.432 22.127C228.044 21.396 228.418 19.985 228.418 18.455C228.418 17.129 228.129 16.007 227.602 15.225C227.245 14.698 226.82 14.46 225.902 14.324C225.239 18.557 225.018 19.713 224.474 21.549C224.015 23.096 223.573 23.963 222.944 24.524C222.383 25.034 221.669 25.34 221.006 25.34C219.901 25.34 218.626 24.643 217.844 23.64C217.045 22.586 216.552 20.852 216.552 19.033C216.552 17.367 216.943 15.786 217.691 14.579C218.983 12.437 221.193 11.383 224.355 11.383C228.996 11.383 231.359 13.78 231.359 18.489C231.359 21.175 230.492 23.436 229.013 24.643C227.908 25.544 226.565 25.935 224.593 25.935H224.44ZM223.012 14.171C221.822 14.358 221.244 14.613 220.649 15.259C219.867 16.109 219.408 17.537 219.408 19.101C219.408 20.801 219.952 21.974 220.751 21.974C221.159 21.974 221.482 21.651 221.686 21.039C222.043 19.917 222.655 16.806 223.012 14.171ZM238.788 19.492H235.32V16.891H241.185V15.31H238.278C237.258 16.092 236.782 16.347 235.762 16.619V13.559C236.969 13.049 237.411 12.471 237.717 11.06H240.437C240.25 11.91 240.216 12.046 239.978 12.709H241.185V10.737H244.262V12.709H249.532V15.31H244.262V16.891H250.025V19.492H246.404V23.249H248.495C249.175 23.215 249.685 22.977 250.161 22.467V25.34C249.668 25.816 249.294 25.952 248.495 25.969H245.792C243.888 26.003 243.429 25.646 243.361 24.099V19.492H241.746C241.542 22.501 241.134 23.521 239.638 24.711C238.431 25.595 236.816 26.156 234.878 26.377V23.334C237.751 23.164 238.754 22.161 238.788 19.492ZM256.706 17.826H253.578V15.99H259.766V15.429H254.445V13.814H259.766V13.304H254.02V11.706H256.298L255.618 10.822H258.95L259.766 11.706H262.826L263.557 10.822H267.11L266.294 11.706H268.861V13.304H262.894V13.814H268.198V15.429H262.894V15.99H269.082V17.826H260.395L260.072 18.2H268.232V23.827C268.317 25.391 267.705 26.037 266.073 26.122H255.55V21.821C254.598 22.365 254.445 22.45 253.391 22.892V20.002C254.649 19.543 255.754 18.812 256.706 17.826ZM258.287 24.269H265.393V23.64H258.287V24.269ZM258.287 22.212H265.393V21.566H258.287V22.212ZM258.287 20.206H265.393V19.594H258.287V20.206ZM272.788 10.839H274.862V20.903C274.913 23.827 274.199 25.255 272.176 26.275V22.841C272.754 22.161 272.805 21.906 272.788 20.155V10.839ZM275.321 11.434H277.106V23.725H275.321V11.434ZM277.565 25.918V10.839H279.707V25.918H277.565ZM279.945 11.06H288.037V13.27H285.232L285.079 13.95H287.425V22.11C287.442 22.994 287.255 23.402 286.626 23.725C287.017 24.643 287.289 25.221 287.782 26.19H284.977C284.484 24.762 284.399 24.473 284.195 23.81H283.651C283.243 24.864 283.039 25.374 282.665 26.19H280.047C280.744 24.898 280.931 24.524 281.22 23.81H280.421V13.95H282.512L282.665 13.27H279.945V11.06ZM282.801 21.787H284.943V20.937H282.801V21.787ZM282.801 19.322H284.943V18.404H282.801V19.322ZM282.801 16.772H284.943V15.939H282.801V16.772Z" fill="white"/>
<defs>
<filter id="filter0_d_247_563" x="0" y="43" width="358.295" height="60" filterUnits="userSpaceOnUse" color-interpolation-filters="sRGB">
<feFlood flood-opacity="0" result="BackgroundImageFix"/>
<feColorMatrix in="SourceAlpha" type="matrix" values="0 0 0 0 0 0 0 0 0 0 0 0 0 0 0 0 0 0 127 0" result="hardAlpha"/>
<feOffset dy="4"/>
<feComposite in2="hardAlpha" operator="out"/>
<feColorMatrix type="matrix" values="0 0 0 0 0.866667 0 0 0 0 0.352941 0 0 0 0 0 0 0 0 1 0"/>
<feBlend mode="normal" in2="BackgroundImageFix" result="effect1_dropShadow_247_563"/>
<feBlend mode="normal" in="SourceGraphic" in2="effect1_dropShadow_247_563" result="shape"/>
</filter>
</defs>
</svg>
