<svg width="276" height="212" viewBox="0 0 276 212" fill="none" xmlns="http://www.w3.org/2000/svg">
<path d="M18.486 16.74V13.412H16.51V16.74H18.486ZM18.486 22.798V19.496H16.51V22.798H18.486ZM7.566 19.496V22.798H9.438V19.496H7.566ZM13.936 19.496H12.012V22.798H13.936V19.496ZM12.012 16.74H13.936V13.412H12.012V16.74ZM7.566 13.412V16.74H9.438V13.412H7.566ZM4.836 16.74V14.868C4.316 15.362 3.822 15.83 3.302 16.22C2.73 15.674 1.482 14.686 0.78 14.192C2.964 12.762 5.018 10.396 6.162 7.978L9.178 8.862C8.892 9.486 8.554 10.084 8.164 10.682H23.764V13.412H21.32V16.74H24.7V19.496H21.32V22.798H24.336V25.554H1.742V22.798H4.836V19.496H1.352V16.74H4.836ZM4.03 32.288L1.092 31.092C2.236 30 3.406 27.998 4.004 26.1L6.994 26.828C6.422 28.804 5.304 30.936 4.03 32.288ZM8.658 27.01L11.518 26.672C11.83 28.258 12.142 30.312 12.168 31.534L9.152 31.976C9.152 30.728 8.944 28.596 8.658 27.01ZM13.806 27.062L16.718 26.568C17.342 28.102 17.992 30.13 18.226 31.404L15.132 32.002C14.976 30.754 14.378 28.648 13.806 27.062ZM18.954 26.932L21.918 25.996C23.088 27.582 24.544 29.766 25.194 31.196L22.022 32.262C21.476 30.884 20.098 28.596 18.954 26.932ZM45.994 12.528L44.408 14.842C43.602 13.828 41.808 12.424 40.378 11.462L41.86 9.382C43.316 10.24 45.162 11.566 45.994 12.528ZM39.182 17.988L40.638 15.778C42.146 16.584 44.07 17.832 45.006 18.768L43.446 21.238C42.588 20.276 40.69 18.898 39.182 17.988ZM36.842 9.408L39.442 9.98C38.766 12.06 38.012 14.53 37.362 16.038L35.412 15.492C35.932 13.854 36.556 11.228 36.842 9.408ZM31.798 15.492L29.484 16.116C29.432 14.504 28.912 11.982 28.314 10.11L30.472 9.538C31.148 11.41 31.668 13.88 31.798 15.492ZM38.896 24.046L36.998 26.438C36.608 25.606 35.88 24.254 35.126 23.058V32.184H32.266V23.006C31.434 25.424 30.394 27.842 29.276 29.402C29.016 28.466 28.34 27.062 27.872 26.204C29.172 24.618 30.498 21.836 31.304 19.47H28.34V16.584H32.266V8.082H35.126V16.584H38.974V19.47H35.126V19.652C35.88 20.406 38.35 23.318 38.896 24.046ZM52.65 24.644L49.53 25.216V32.236H46.618V25.736L39.364 27.036L38.896 24.15L46.618 22.772V7.952H49.53V22.252L52.182 21.758L52.65 24.644ZM64.402 8.784V11.124H56.758V8.784H64.402ZM70.538 8.082H73.372C75.036 10.838 77.61 13.568 80.158 14.842C79.586 15.596 78.936 16.74 78.52 17.65C76.05 16.09 73.45 13.334 72.046 10.994C70.746 13.334 68.276 16.168 65.572 17.858C65.26 17.078 64.558 15.908 64.038 15.258C64.324 15.102 64.61 14.92 64.87 14.712H55.458V12.268H65.234V14.452C67.47 12.762 69.498 10.214 70.538 8.082ZM74.334 18.586L77.038 19.756C74.906 22.46 71.656 24.696 68.432 26.178C67.99 25.528 67.184 24.618 66.456 24.046C69.394 22.902 72.67 20.848 74.334 18.586ZM71.994 14.894L74.672 15.96C73.06 18.092 70.668 19.964 68.354 21.212C67.886 20.64 67.054 19.834 66.378 19.34C68.406 18.326 70.772 16.584 71.994 14.894ZM64.48 15.882V18.248H56.68V15.882H64.48ZM56.68 21.758V19.444H64.48V21.758H56.68ZM61.88 25.476H59.202V28.466H61.88V25.476ZM64.506 23.032V30.884H59.202V31.898H56.602V23.032H64.506ZM76.388 22.72L79.17 23.916C76.518 27.972 72.124 30.676 67.106 32.314C66.716 31.508 65.936 30.416 65.182 29.662C69.862 28.466 74.152 26.1 76.388 22.72ZM89.7 14.27L87.698 14.946C87.672 13.724 87.282 11.878 86.814 10.474L88.686 9.876C89.232 11.228 89.622 13.074 89.7 14.27ZM107.12 16.506V19.366H104.832V32.236H101.894V19.366H99.372C99.346 23.24 98.8 28.726 95.446 32.314C95.056 31.638 93.938 30.598 93.236 30.208C93.366 30.052 93.522 29.896 93.652 29.74H86.268V31.56H83.59V8.862H86.268V22.954C87.568 21.784 88.842 19.886 89.648 18.066H86.762V15.466H89.908V8.238H92.43V14.296C92.898 13.048 93.392 11.15 93.626 9.85L96.044 10.422C95.394 11.982 94.718 13.802 94.146 14.946L92.43 14.374V15.466H95.55V18.066H92.43V18.43C93.158 19.028 95.238 20.952 95.732 21.446L94.068 23.5C93.73 22.954 93.08 22.07 92.43 21.238V26.568H89.908V22.096C89.154 23.474 88.296 24.748 87.36 25.606C87.152 24.878 86.658 23.89 86.268 23.214V27.062H95.134V27.244C96.278 24.566 96.408 21.576 96.408 19.054V10.032L98.228 10.526C100.568 9.954 102.986 9.122 104.494 8.29L106.99 10.552C104.78 11.54 101.972 12.32 99.372 12.892V16.506H107.12ZM133.302 20.848C133.302 26.334 129.948 30.208 123.396 31.222L121.446 28.128C122.434 28.024 123.162 27.868 123.864 27.712C127.192 26.932 129.792 24.54 129.792 20.744C129.792 17.156 127.842 14.478 124.332 13.88C123.968 16.09 123.526 18.482 122.772 20.926C121.212 26.178 118.976 29.402 116.142 29.402C113.256 29.402 110.864 26.23 110.864 21.836C110.864 15.83 116.064 10.708 122.798 10.708C129.246 10.708 133.302 15.18 133.302 20.848ZM114.192 21.498C114.192 24.124 115.232 25.398 116.246 25.398C117.338 25.398 118.352 23.76 119.418 20.25C120.016 18.326 120.51 16.116 120.796 13.958C116.506 14.842 114.192 18.638 114.192 21.498ZM215.826 15.076H203.242C203.164 16.194 203.086 17.338 202.956 18.456H212.992C212.992 18.456 212.966 19.392 212.888 19.808C212.42 26.88 211.874 29.792 210.834 30.936C210.054 31.768 209.248 32.028 208.026 32.132C207.064 32.236 205.322 32.21 203.58 32.132C203.528 31.248 203.06 29.974 202.488 29.09C204.282 29.272 206.102 29.272 206.856 29.272C207.428 29.272 207.792 29.22 208.104 28.934C208.78 28.362 209.248 26.1 209.612 21.368H202.462C201.474 25.762 199.316 29.818 194.116 32.444C193.674 31.586 192.738 30.494 191.932 29.818C198.952 26.568 199.55 20.64 199.836 15.076H192.4V12.112H202.358V7.874H205.556V12.112H215.826V15.076ZM227.37 10.708L225.55 13.23C224.536 12.32 222.404 11.072 220.688 10.37L222.404 8.056C224.068 8.706 226.252 9.824 227.37 10.708ZM225.836 17.494L224.12 20.094C223.08 19.21 220.922 18.066 219.232 17.416L220.818 15.076C222.482 15.648 224.718 16.636 225.836 17.494ZM224.536 21.758L226.85 23.734C225.576 26.438 224.068 29.402 222.612 31.898L219.934 29.922C221.234 27.972 223.08 24.748 224.536 21.758ZM243.854 30.676L240.916 32.262C240.708 31.664 240.422 30.936 240.032 30.208C235.326 30.624 230.412 30.962 226.902 31.222L226.486 28.102L228.436 28.024C229.372 26.048 230.282 23.474 230.906 21.29H226.46V18.326H233.142V14.66H227.76V11.696H233.142V8.004H236.366V11.696H242.008V14.66H236.366V18.326H243.23V21.29H234.494L234.598 21.316C233.766 23.5 232.726 25.892 231.79 27.842C233.87 27.738 236.184 27.608 238.472 27.478C237.822 26.438 237.094 25.424 236.392 24.514L239.044 23.11C240.968 25.398 243.048 28.492 243.854 30.676Z" fill="#3A3A3A"/>
<path d="M141.466 15.024H147.81V13.542H150.904V15.024H157.378V12.97H141.466V15.024ZM160.94 25.892H152.412C154.258 27.972 157.17 29.168 161.278 29.61C160.654 30.26 159.848 31.482 159.458 32.314C154.518 31.534 151.424 29.688 149.37 26.464C147.836 28.778 144.95 30.832 139.646 32.262C139.282 31.586 138.398 30.416 137.722 29.766C142.09 28.778 144.586 27.426 146.016 25.892H138.19V23.214H147.524C147.654 22.668 147.732 22.122 147.784 21.576H141.128V19.08H147.81V17.52H140.712V15.804H138.398V10.266H147.888V8.004H151.06V10.266H160.576V15.804H158.496V17.52H150.904V19.08H157.976V21.576H150.878C150.852 22.122 150.8 22.668 150.67 23.214H160.94V25.892ZM174.824 21.342L176.956 20.354V17.65L176.722 17.91C176.228 17.338 175.084 16.194 174.408 15.726C174.694 15.44 174.98 15.128 175.24 14.79H170.274C170.248 15.726 170.222 16.662 170.196 17.572H174.876V18.742L174.824 21.342ZM181.168 29.61H185.172C186.186 29.61 186.394 29.168 186.55 26.88C187.174 27.322 188.292 27.764 189.046 27.946C188.708 31.196 187.928 32.184 185.406 32.184H180.856C177.788 32.184 176.956 31.352 176.956 28.388V23.396L175.89 23.89L174.824 21.368C174.72 27.738 174.538 30.234 173.94 31.066C173.472 31.742 172.978 32.002 172.276 32.132C171.626 32.288 170.638 32.262 169.598 32.262C169.546 31.404 169.26 30.26 168.844 29.506C169.65 29.61 170.378 29.61 170.716 29.61C171.054 29.61 171.262 29.532 171.47 29.194C171.808 28.674 171.964 26.49 172.068 20.38H170.04C169.676 25.06 168.844 29.272 166.686 32.236C166.192 31.508 165.23 30.572 164.476 30.078C167.05 26.516 167.284 20.796 167.362 14.79H164.866V11.93H168.844V8.004H171.808V11.93H175.864V13.88C176.93 12.19 177.71 10.11 178.178 7.978L181.22 8.55C181.012 9.46 180.726 10.37 180.44 11.254H188.604V14.062H179.27C178.828 14.972 178.334 15.83 177.788 16.584H179.686V19.08L181.09 18.43V14.712H183.664V17.234L185.536 16.376L185.64 16.298L186.108 15.96L188.032 16.636L187.928 17.052C187.902 20.744 187.902 23.396 187.824 24.176C187.772 25.112 187.408 25.684 186.706 25.97C186.082 26.23 185.25 26.256 184.548 26.256C184.496 25.554 184.288 24.566 184.002 23.994C184.314 24.02 184.678 24.02 184.886 24.02C185.094 24.02 185.224 23.968 185.25 23.63C185.302 23.396 185.302 21.966 185.328 19.496L183.664 20.276V27.53H181.09V21.472L179.686 22.122V28.388C179.686 29.454 179.868 29.61 181.168 29.61Z" fill="#F37429"/>
<path d="M52.376 75.84V73.792H51.16V75.84H52.376ZM52.376 79.568V77.536H51.16V79.568H52.376ZM45.656 77.536V79.568H46.808V77.536H45.656ZM49.576 77.536H48.392V79.568H49.576V77.536ZM48.392 75.84H49.576V73.792H48.392V75.84ZM45.656 73.792V75.84H46.808V73.792H45.656ZM43.976 75.84V74.688C43.656 74.992 43.352 75.28 43.032 75.52C42.68 75.184 41.912 74.576 41.48 74.272C42.824 73.392 44.088 71.936 44.792 70.448L46.648 70.992C46.472 71.376 46.264 71.744 46.024 72.112H55.624V73.792H54.12V75.84H56.2V77.536H54.12V79.568H55.976V81.264H42.072V79.568H43.976V77.536H41.832V75.84H43.976ZM43.48 85.408L41.672 84.672C42.376 84 43.096 82.768 43.464 81.6L45.304 82.048C44.952 83.264 44.264 84.576 43.48 85.408ZM46.328 82.16L48.088 81.952C48.28 82.928 48.472 84.192 48.488 84.944L46.632 85.216C46.632 84.448 46.504 83.136 46.328 82.16ZM49.496 82.192L51.288 81.888C51.672 82.832 52.072 84.08 52.216 84.864L50.312 85.232C50.216 84.464 49.848 83.168 49.496 82.192ZM52.664 82.112L54.488 81.536C55.208 82.512 56.104 83.856 56.504 84.736L54.552 85.392C54.216 84.544 53.368 83.136 52.664 82.112ZM69.304 73.248L68.328 74.672C67.832 74.048 66.728 73.184 65.848 72.592L66.76 71.312C67.656 71.84 68.792 72.656 69.304 73.248ZM65.112 76.608L66.008 75.248C66.936 75.744 68.12 76.512 68.696 77.088L67.736 78.608C67.208 78.016 66.04 77.168 65.112 76.608ZM63.672 71.328L65.272 71.68C64.856 72.96 64.392 74.48 63.992 75.408L62.792 75.072C63.112 74.064 63.496 72.448 63.672 71.328ZM60.568 75.072L59.144 75.456C59.112 74.464 58.792 72.912 58.424 71.76L59.752 71.408C60.168 72.56 60.488 74.08 60.568 75.072ZM64.936 80.336L63.768 81.808C63.528 81.296 63.08 80.464 62.616 79.728V85.344H60.856V79.696C60.344 81.184 59.704 82.672 59.016 83.632C58.856 83.056 58.44 82.192 58.152 81.664C58.952 80.688 59.768 78.976 60.264 77.52H58.44V75.744H60.856V70.512H62.616V75.744H64.984V77.52H62.616V77.632C63.08 78.096 64.6 79.888 64.936 80.336ZM73.4 80.704L71.48 81.056V85.376H69.688V81.376L65.224 82.176L64.936 80.4L69.688 79.552V70.432H71.48V79.232L73.112 78.928L73.4 80.704ZM80.632 70.944V72.384H75.928V70.944H80.632ZM84.408 70.512H86.152C87.176 72.208 88.76 73.888 90.328 74.672C89.976 75.136 89.576 75.84 89.32 76.4C87.8 75.44 86.2 73.744 85.336 72.304C84.536 73.744 83.016 75.488 81.352 76.528C81.16 76.048 80.728 75.328 80.408 74.928C80.584 74.832 80.76 74.72 80.92 74.592H75.128V73.088H81.144V74.432C82.52 73.392 83.768 71.824 84.408 70.512ZM86.744 76.976L88.408 77.696C87.096 79.36 85.096 80.736 83.112 81.648C82.84 81.248 82.344 80.688 81.896 80.336C83.704 79.632 85.72 78.368 86.744 76.976ZM85.304 74.704L86.952 75.36C85.96 76.672 84.488 77.824 83.064 78.592C82.776 78.24 82.264 77.744 81.848 77.44C83.096 76.816 84.552 75.744 85.304 74.704ZM80.68 75.312V76.768H75.88V75.312H80.68ZM75.88 78.928V77.504H80.68V78.928H75.88ZM79.08 81.216H77.432V83.056H79.08V81.216ZM80.696 79.712V84.544H77.432V85.168H75.832V79.712H80.696ZM88.008 79.52L89.72 80.256C88.088 82.752 85.384 84.416 82.296 85.424C82.056 84.928 81.576 84.256 81.112 83.792C83.992 83.056 86.632 81.6 88.008 79.52ZM96.2 74.32L94.968 74.736C94.952 73.984 94.712 72.848 94.424 71.984L95.576 71.616C95.912 72.448 96.152 73.584 96.2 74.32ZM106.92 75.696V77.456H105.512V85.376H103.704V77.456H102.152C102.136 79.84 101.8 83.216 99.736 85.424C99.496 85.008 98.808 84.368 98.376 84.128C98.456 84.032 98.552 83.936 98.632 83.84H94.088V84.96H92.44V70.992H94.088V79.664C94.888 78.944 95.672 77.776 96.168 76.656H94.392V75.056H96.328V70.608H97.88V74.336C98.168 73.568 98.472 72.4 98.616 71.6L100.104 71.952C99.704 72.912 99.288 74.032 98.936 74.736L97.88 74.384V75.056H99.8V76.656H97.88V76.88C98.328 77.248 99.608 78.432 99.912 78.736L98.888 80C98.68 79.664 98.28 79.12 97.88 78.608V81.888H96.328V79.136C95.864 79.984 95.336 80.768 94.76 81.296C94.632 80.848 94.328 80.24 94.088 79.824V82.192H99.544V82.304C100.248 80.656 100.328 78.816 100.328 77.264V71.712L101.448 72.016C102.888 71.664 104.376 71.152 105.304 70.64L106.84 72.032C105.48 72.64 103.752 73.12 102.152 73.472V75.696H106.92ZM117.16 79.456H120.712V77.76H117.16V79.456ZM111.688 79.456H115.16V77.76H111.688V79.456ZM115.16 74.4H111.688V76.016H115.16V74.4ZM120.712 74.4H117.16V76.016H120.712V74.4ZM117.16 72.576H122.696V82.048H120.712V81.28H117.16V85.376H115.16V81.28H111.688V82.128H109.784V72.576H115.16V70.432H117.16V72.576ZM130.936 71.312C130.84 71.984 130.76 72.8 130.728 73.44C130.664 75.168 130.536 78.752 130.536 80.736C130.536 82.352 131.496 82.88 132.744 82.88C135.384 82.88 137.064 81.36 138.216 79.616L139.672 81.376C138.648 82.912 136.376 85.056 132.728 85.056C130.104 85.056 128.408 83.904 128.408 81.168C128.408 79.024 128.568 74.816 128.568 73.44C128.568 72.688 128.504 71.92 128.36 71.28L130.936 71.312ZM150.616 74.432L151.24 74.528C151.176 74 151.112 73.456 151.064 72.912H148.28V71.12H152.68C152.92 75.648 153.88 79.504 157.208 81.168C156.76 81.488 156.072 82.16 155.72 82.624C153.752 81.456 152.584 79.616 151.88 77.376C151.08 79.664 149.864 81.424 148.12 82.64C147.832 82.272 147.096 81.536 146.648 81.2C148.888 79.872 150.12 77.488 150.616 74.432ZM146.648 73.232L145.144 74.496C144.648 73.728 143.512 72.672 142.568 71.968L143.976 70.816C144.936 71.488 146.104 72.48 146.648 73.232ZM146.248 76.656V81.68C146.904 82.752 148.104 83.184 149.768 83.248C151.64 83.328 155.24 83.28 157.368 83.12C157.16 83.568 156.872 84.496 156.776 85.04C154.856 85.136 151.64 85.168 149.736 85.088C147.768 85.008 146.456 84.56 145.416 83.312C144.712 83.936 144.008 84.56 143.128 85.232L142.2 83.248C142.888 82.848 143.688 82.32 144.392 81.776V78.4H142.552V76.656H146.248ZM162.024 71.888C162.456 71.936 163 71.968 163.352 71.968C164.264 71.968 165.96 71.888 166.712 71.824C167.112 71.808 167.528 71.712 167.8 71.6L169.08 72.592C168.856 72.832 168.664 73.04 168.536 73.264C168.12 73.952 167.512 75.344 166.936 76.704C168.184 76.896 169.368 77.28 170.408 77.728C170.424 77.536 170.44 77.36 170.456 77.184C170.504 76.56 170.504 75.92 170.456 75.44L172.552 75.68C172.488 76.752 172.408 77.744 172.248 78.64C172.92 79.024 173.496 79.392 173.96 79.712L173.032 81.936C172.616 81.552 172.152 81.184 171.656 80.816C170.952 82.624 169.736 84.032 167.592 85.152L165.896 83.76C168.312 82.72 169.432 81.2 169.96 79.744C168.824 79.12 167.544 78.64 166.168 78.448C165.592 79.808 164.92 81.408 164.36 82.288C163.72 83.248 162.952 83.696 161.864 83.696C160.456 83.696 159.4 82.72 159.4 81.104C159.4 78.624 161.656 76.736 164.872 76.592C165.32 75.536 165.784 74.448 166.152 73.696C165.512 73.728 164.136 73.776 163.4 73.824C163.08 73.84 162.52 73.888 162.104 73.952L162.024 71.888ZM161.272 80.8C161.272 81.328 161.576 81.6 161.944 81.6C162.264 81.6 162.488 81.44 162.776 81.04C163.192 80.448 163.624 79.44 164.072 78.432C162.28 78.704 161.272 79.792 161.272 80.8Z" fill="#3A3A3A"/>
<path d="M54.488 113.24C54.28 113.608 53.976 114.312 53.816 114.68C53.336 115.944 52.616 117.56 51.672 119.032C53.08 120.184 54.424 121.416 55.512 122.568L53.864 124.392C52.744 123.08 51.592 121.96 50.312 120.856C48.904 122.552 47.064 124.328 44.36 125.8L42.568 124.184C45.176 122.92 47.064 121.368 48.648 119.464C47.496 118.552 45.96 117.416 44.328 116.424L45.688 114.792C46.968 115.576 48.648 116.728 49.944 117.688C50.76 116.408 51.304 115.144 51.72 113.88C51.864 113.464 52.04 112.824 52.104 112.408L54.488 113.24ZM59.272 117.592C59.848 117.64 61.016 117.688 61.848 117.688H70.44C71.192 117.688 71.896 117.624 72.312 117.592V120.104C71.928 120.088 71.112 120.024 70.44 120.024H61.848C60.936 120.024 59.864 120.056 59.272 120.104V117.592ZM82.648 124.648C82.712 124.344 82.776 123.896 82.776 123.464V114.136C82.776 113.416 82.664 112.808 82.648 112.76H85.032C85.016 112.808 84.92 113.432 84.92 114.152V122.52C86.216 121.96 87.8 120.696 88.872 119.144L90.104 120.904C88.776 122.632 86.472 124.36 84.68 125.272C84.328 125.464 84.136 125.624 83.992 125.752L82.648 124.648ZM75.24 124.408C76.648 123.416 77.512 121.944 77.96 120.584C78.408 119.208 78.424 116.184 78.424 114.248C78.424 113.608 78.376 113.176 78.28 112.776H80.632C80.616 112.856 80.52 113.56 80.52 114.232C80.52 116.12 80.472 119.496 80.04 121.112C79.56 122.92 78.552 124.488 77.192 125.704L75.24 124.408ZM98.568 113.816C100.536 114.088 103.72 114.008 105.448 113.8V115.864C103.48 116.04 100.584 116.056 98.568 115.864V113.816ZM99.848 120.648C99.72 121.176 99.656 121.56 99.656 121.992C99.656 122.696 100.264 123.128 101.896 123.128C103.32 123.128 104.504 123 105.912 122.712L105.944 124.872C104.904 125.064 103.624 125.176 101.816 125.176C99.064 125.176 97.736 124.2 97.736 122.552C97.736 121.928 97.832 121.288 98.008 120.472L99.848 120.648ZM96.104 112.744C95.976 113.08 95.768 113.88 95.704 114.168C95.496 115.24 94.936 118.44 94.936 120.04C94.936 120.344 94.952 120.76 95 121.08C95.24 120.536 95.496 119.976 95.72 119.448L96.712 120.232C96.264 121.56 95.736 123.304 95.56 124.152C95.512 124.392 95.48 124.744 95.48 124.904C95.48 125.08 95.496 125.336 95.512 125.56L93.656 125.688C93.336 124.584 93.032 122.632 93.032 120.456C93.032 118.056 93.528 115.352 93.704 114.12C93.752 113.672 93.848 113.064 93.864 112.552L96.104 112.744ZM111.96 122.952C111.96 123.736 112.776 124.024 113.896 124.024C114.92 124.024 115.288 123.576 115.288 122.504C115.288 122.36 115.288 122.168 115.272 121.944C114.856 121.88 114.408 121.832 113.96 121.832C112.712 121.832 111.96 122.264 111.96 122.952ZM117.32 112.168C117.24 112.632 117.192 113.416 117.176 114.04C117.16 114.408 117.16 114.792 117.16 115.208C118.44 115.192 120.312 115.128 121.64 114.968L121.704 116.872C120.36 116.984 118.472 117.064 117.176 117.096C117.208 118.056 117.272 119.336 117.352 120.52C119.384 121.112 121.112 122.232 122.216 123.256L120.984 125.16C120.072 124.248 118.872 123.304 117.448 122.648C117.464 122.856 117.464 123.048 117.464 123.208C117.464 124.632 116.744 125.976 114.056 125.976C111.768 125.976 109.896 125.224 109.896 123.048C109.896 121.384 111.32 120.056 114.264 120.056C114.584 120.056 114.904 120.072 115.208 120.104C115.16 118.856 115.096 117.496 115.096 116.648C115.096 115.672 115.096 114.728 115.08 114.04C115.048 113.256 115 112.568 114.904 112.168H117.32ZM130.756 123.112C130.756 123.704 131.412 124.104 132.372 124.104C132.708 124.104 133.012 124.088 133.3 124.056C133.204 123.016 132.612 122.344 131.748 122.344C131.14 122.344 130.756 122.712 130.756 123.112ZM128.036 112.808C128.484 112.872 129.044 112.888 129.492 112.888C130.34 112.888 133.764 112.824 134.676 112.744C135.332 112.68 135.7 112.632 135.892 112.568L136.932 113.992C136.564 114.232 136.18 114.456 135.812 114.728C134.948 115.336 133.268 116.744 132.26 117.544C132.788 117.416 133.268 117.368 133.78 117.368C136.5 117.368 138.564 119.064 138.564 121.4C138.564 123.928 136.644 125.928 132.772 125.928C130.548 125.928 128.868 124.904 128.868 123.304C128.868 122.008 130.036 120.808 131.732 120.808C133.716 120.808 134.916 122.024 135.14 123.544C136.02 123.08 136.468 122.344 136.468 121.368C136.468 119.928 135.028 118.952 133.14 118.952C130.692 118.952 129.092 120.248 127.38 122.2L125.924 120.696C127.06 119.784 128.996 118.152 129.94 117.368C130.836 116.632 132.5 115.288 133.284 114.6C132.468 114.616 130.26 114.712 129.412 114.76C128.98 114.792 128.468 114.84 128.1 114.888L128.036 112.808ZM145.764 123.24H152.868V119.656H145.764V123.24ZM152.868 114.328H145.764V117.768H152.868V114.328ZM143.796 112.408H154.916V126.168H152.868V125.16H145.764V126.2H143.796V112.408ZM170.948 115.848V113.64H167.22V115.848H170.948ZM172.804 112.04V117.448H165.46V112.04H172.804ZM164.996 120.264L163.908 121.752C163.716 121.336 163.332 120.712 162.948 120.136V126.376H161.108V120.632C160.596 121.864 159.988 123 159.364 123.8C159.188 123.256 158.788 122.472 158.484 121.992C159.38 120.952 160.26 119.256 160.852 117.704H158.82V115.928H161.108V114.072C160.436 114.2 159.78 114.312 159.156 114.392C159.06 113.96 158.836 113.32 158.628 112.936C160.388 112.632 162.356 112.168 163.588 111.608L164.852 113.064C164.276 113.288 163.636 113.496 162.948 113.672V115.928H164.66V117.704H162.948V118.168C163.38 118.52 164.692 119.912 164.996 120.264ZM170.02 124.376H173.572V126.04H164.324V124.376H168.132V122.968H165.332V121.368H168.132V120.04H164.948V118.408H173.236V120.04H170.02V121.368H172.852V122.968H170.02V124.376ZM180.292 111.944V113.384H176.196V111.944H180.292ZM180.724 114.088V115.592H175.444V114.088H180.724ZM180.34 116.312V117.768H176.1V116.312H180.34ZM176.1 119.928V118.504H180.34V119.928H176.1ZM183.54 117.32H184.836V116.232H183.604V114.856H184.836V113.816H186.324V114.856H187.588V116.232H186.324V117.32H187.7V118.712H183.54V117.32ZM186.196 120.904H184.98V122.408H186.196V120.904ZM187.572 123.768H184.98V124.312H183.636V119.528H187.572V123.768ZM178.788 124.04V122.2H177.524V124.04H178.788ZM189.94 112.024V124.248C189.94 125.176 189.796 125.72 189.252 126.024C188.708 126.344 187.924 126.376 186.788 126.376C186.74 125.864 186.5 125.016 186.26 124.52C186.916 124.552 187.652 124.536 187.892 124.536C188.116 124.536 188.18 124.472 188.18 124.232V113.64H183.076V117.976C183.076 120.52 182.884 124.168 181.636 126.472C181.364 126.184 180.724 125.736 180.308 125.528H177.524V126.168H176.052V120.712H180.308V125.16C181.268 123.08 181.348 120.184 181.348 117.976V112.024H189.94ZM200.612 123.816V124.6H207.012V126.152H192.468V124.6H194.804V122.2H196.628V124.6H198.756V121.672H193.412V120.168H206.02V121.672H200.612V122.424H204.74V123.816H200.612ZM199.748 118.232L199.476 118.584C200.596 118.264 201.524 117.816 202.276 117.224C201.908 116.776 201.604 116.296 201.348 115.832C201.108 116.104 200.884 116.36 200.628 116.584C200.452 116.328 200.068 115.896 199.732 115.56V117.176H197.732C198.42 117.528 199.428 118.04 199.748 118.232ZM194.42 115.192V116.056H195.46V115.192H194.42ZM198.164 115.192H197.124V116.056H198.164V115.192ZM204.068 114.568H202.292C202.548 115.096 202.884 115.624 203.316 116.12C203.636 115.672 203.892 115.144 204.068 114.568ZM206.932 114.568H205.876C205.556 115.624 205.124 116.504 204.548 117.24C205.284 117.784 206.164 118.216 207.22 118.488C206.852 118.824 206.388 119.512 206.164 119.96C205.092 119.592 204.164 119.048 203.412 118.392C202.612 119.048 201.636 119.56 200.5 119.96C200.308 119.592 199.78 118.936 199.444 118.616L198.836 119.4C198.452 119.096 197.748 118.6 197.124 118.184V119.832H195.46V118.312C194.804 118.952 194.02 119.544 193.332 119.912C193.092 119.544 192.596 119.016 192.276 118.728C193.108 118.392 194.084 117.8 194.788 117.176H192.948V114.072H195.46V113.528H192.596V112.264H195.46V111.448H197.124V112.264H199.956V113.528H197.124V114.072H199.732V114.952C200.628 114.072 201.316 112.808 201.684 111.464L203.38 111.848C203.252 112.264 203.108 112.664 202.948 113.064H206.932V114.568Z" fill="#3A3A3A"/>
<path d="M44.456 154.656V157.936C44.456 160.656 44.248 164.752 43 167.392C42.648 167.104 41.832 166.672 41.368 166.512C42.552 164.048 42.648 160.448 42.648 157.936V153.008H56.2V154.656H44.456ZM44.856 157.072V155.536H50.712V157.072H44.856ZM53.176 163.072L51.624 163.648C51.496 162.8 51.048 161.424 50.568 160.384L52.024 159.872C52.536 160.88 53.032 162.208 53.176 163.072ZM48.632 160.592V159.12H46.696V160.592H48.632ZM50.376 157.856V161.872H45.048V157.856H50.376ZM47.32 164.656L45.752 165.04C45.72 164.352 45.496 163.264 45.224 162.416L46.68 162.112C47 162.928 47.272 163.984 47.32 164.656ZM49.448 164.88L50.872 164.736L50.92 166.288C48.68 166.592 46.296 166.864 44.552 167.072L44.28 165.392C45.528 165.28 47.272 165.104 49.08 164.928L47.976 164.624C48.216 163.904 48.488 162.816 48.616 162.032L50.264 162.432C49.976 163.312 49.688 164.24 49.448 164.88ZM56.296 157.504V159.216H55.256V165.424C55.256 166.336 55.096 166.784 54.552 167.056C53.976 167.344 53.176 167.392 52.04 167.392C51.96 166.896 51.72 166.16 51.48 165.664C52.168 165.696 52.904 165.696 53.112 165.696C53.336 165.68 53.416 165.616 53.416 165.392V159.216H50.76V157.504H53.416V155.104H55.256V157.504H56.296ZM72.584 153.184V154.88H59.096V153.184H72.584ZM65.56 159.328H62.008C62.008 159.648 61.992 159.984 61.976 160.32H65.56V159.328ZM69.736 156.96H62.008V157.952H69.736V156.96ZM72.952 161.808H66.504C66.472 162.112 66.424 162.416 66.36 162.704H71.592C71.592 162.704 71.576 163.152 71.544 163.376C71.368 165.472 71.176 166.464 70.776 166.864C70.424 167.232 70.008 167.344 69.512 167.392C69.064 167.424 68.248 167.44 67.4 167.408C67.368 166.928 67.176 166.272 66.904 165.824C67.624 165.904 68.328 165.92 68.632 165.92C68.888 165.92 69.048 165.888 69.192 165.76C69.368 165.6 69.496 165.136 69.608 164.16H65.912C65.288 165.584 64.12 166.672 61.768 167.392C61.592 166.944 61.112 166.256 60.728 165.904C63.672 165.12 64.344 163.744 64.6 161.808H61.864C61.64 163.728 61.08 165.76 59.816 167.216C59.464 166.88 58.648 166.368 58.184 166.16C59.976 164.16 60.152 161.264 60.152 159.136V155.584H71.592V159.328H67.448V160.32H72.952V161.808ZM77.72 165.36C77.912 164.96 77.928 164.688 77.928 164.32V155.648C77.928 155.04 77.848 154.288 77.752 153.824H80.264C80.168 154.448 80.104 155.024 80.104 155.648V163.968C82.712 163.216 86.28 161.168 88.328 158.672L89.464 160.48C87.272 163.104 83.96 165.008 80.184 166.24C79.96 166.32 79.608 166.432 79.24 166.672L77.72 165.36ZM92.392 159.776C95.256 159.04 97.608 158 99.384 156.912C101.032 155.888 102.856 154.288 103.896 153.024L105.624 154.672C104.408 155.872 102.872 157.12 101.32 158.144V164.608C101.32 165.312 101.352 166.304 101.464 166.704H98.936C99 166.32 99.048 165.312 99.048 164.608V159.488C97.4 160.352 95.368 161.216 93.4 161.792L92.392 159.776ZM123.48 155.168C123.304 155.376 123 155.76 122.856 156C122.104 157.248 120.584 159.264 119.016 160.384L117.352 159.056C118.632 158.272 119.88 156.864 120.296 156.08H111.96C111.288 156.08 110.76 156.128 110.008 156.192V153.968C110.616 154.064 111.288 154.128 111.96 154.128H120.584C121.032 154.128 121.912 154.08 122.216 153.984L123.48 155.168ZM116.952 157.328C116.952 161.296 116.872 164.56 112.52 166.896L110.648 165.376C111.16 165.2 111.736 164.928 112.328 164.496C114.36 163.088 114.744 161.392 114.744 158.768C114.744 158.272 114.712 157.84 114.632 157.328H116.952ZM134.152 152.928C134.072 153.616 134.04 153.952 134.04 154.4V155.632H136.824C137.496 155.632 137.88 155.552 138.152 155.456L139.544 156.304C139.416 156.656 139.288 157.264 139.224 157.584C138.952 159.12 138.52 160.656 137.736 162.112C136.456 164.48 134.056 166.176 131.208 166.912L129.544 164.992C130.264 164.864 131.144 164.624 131.8 164.368C133.128 163.872 134.536 162.928 135.432 161.632C136.248 160.464 136.664 158.944 136.856 157.52H128.92V159.856C128.92 160.224 128.936 160.72 128.968 161.04H126.76C126.808 160.64 126.84 160.128 126.84 159.696V156.928C126.84 156.576 126.824 155.936 126.76 155.552C127.304 155.616 127.784 155.632 128.392 155.632H131.816V154.4C131.816 153.952 131.8 153.616 131.688 152.928H134.152ZM146.824 164.464V155.264C146.824 154.704 146.776 153.904 146.664 153.344H149.16C149.096 153.904 149.016 154.608 149.016 155.264V157.632C151.16 158.256 154.232 159.392 155.704 160.112L154.792 162.32C153.144 161.456 150.744 160.528 149.016 159.936V164.464C149.016 164.928 149.096 166.048 149.16 166.704H146.664C146.76 166.064 146.824 165.104 146.824 164.464ZM169.976 157.84V155.792H168.76V157.84H169.976ZM169.976 161.568V159.536H168.76V161.568H169.976ZM163.256 159.536V161.568H164.408V159.536H163.256ZM167.176 159.536H165.992V161.568H167.176V159.536ZM165.992 157.84H167.176V155.792H165.992V157.84ZM163.256 155.792V157.84H164.408V155.792H163.256ZM161.576 157.84V156.688C161.256 156.992 160.952 157.28 160.632 157.52C160.28 157.184 159.512 156.576 159.08 156.272C160.424 155.392 161.688 153.936 162.392 152.448L164.248 152.992C164.072 153.376 163.864 153.744 163.624 154.112H173.224V155.792H171.72V157.84H173.8V159.536H171.72V161.568H173.576V163.264H159.672V161.568H161.576V159.536H159.432V157.84H161.576ZM161.08 167.408L159.272 166.672C159.976 166 160.696 164.768 161.064 163.6L162.904 164.048C162.552 165.264 161.864 166.576 161.08 167.408ZM163.928 164.16L165.688 163.952C165.88 164.928 166.072 166.192 166.088 166.944L164.232 167.216C164.232 166.448 164.104 165.136 163.928 164.16ZM167.096 164.192L168.888 163.888C169.272 164.832 169.672 166.08 169.816 166.864L167.912 167.232C167.816 166.464 167.448 165.168 167.096 164.192ZM170.264 164.112L172.088 163.536C172.808 164.512 173.704 165.856 174.104 166.736L172.152 167.392C171.816 166.544 170.968 165.136 170.264 164.112ZM186.904 155.248L185.928 156.672C185.432 156.048 184.328 155.184 183.448 154.592L184.36 153.312C185.256 153.84 186.392 154.656 186.904 155.248ZM182.712 158.608L183.608 157.248C184.536 157.744 185.72 158.512 186.296 159.088L185.336 160.608C184.808 160.016 183.64 159.168 182.712 158.608ZM181.272 153.328L182.872 153.68C182.456 154.96 181.992 156.48 181.592 157.408L180.392 157.072C180.712 156.064 181.096 154.448 181.272 153.328ZM178.168 157.072L176.744 157.456C176.712 156.464 176.392 154.912 176.024 153.76L177.352 153.408C177.768 154.56 178.088 156.08 178.168 157.072ZM182.536 162.336L181.368 163.808C181.128 163.296 180.68 162.464 180.216 161.728V167.344H178.456V161.696C177.944 163.184 177.304 164.672 176.616 165.632C176.456 165.056 176.04 164.192 175.752 163.664C176.552 162.688 177.368 160.976 177.864 159.52H176.04V157.744H178.456V152.512H180.216V157.744H182.584V159.52H180.216V159.632C180.68 160.096 182.2 161.888 182.536 162.336ZM191 162.704L189.08 163.056V167.376H187.288V163.376L182.824 164.176L182.536 162.4L187.288 161.552V152.432H189.08V161.232L190.712 160.928L191 162.704ZM198.232 152.944V154.384H193.528V152.944H198.232ZM202.008 152.512H203.752C204.776 154.208 206.36 155.888 207.928 156.672C207.576 157.136 207.176 157.84 206.92 158.4C205.4 157.44 203.8 155.744 202.936 154.304C202.136 155.744 200.616 157.488 198.952 158.528C198.76 158.048 198.328 157.328 198.008 156.928C198.184 156.832 198.36 156.72 198.52 156.592H192.728V155.088H198.744V156.432C200.12 155.392 201.368 153.824 202.008 152.512ZM204.344 158.976L206.008 159.696C204.696 161.36 202.696 162.736 200.712 163.648C200.44 163.248 199.944 162.688 199.496 162.336C201.304 161.632 203.32 160.368 204.344 158.976ZM202.904 156.704L204.552 157.36C203.56 158.672 202.088 159.824 200.664 160.592C200.376 160.24 199.864 159.744 199.448 159.44C200.696 158.816 202.152 157.744 202.904 156.704ZM198.28 157.312V158.768H193.48V157.312H198.28ZM193.48 160.928V159.504H198.28V160.928H193.48ZM196.68 163.216H195.032V165.056H196.68V163.216ZM198.296 161.712V166.544H195.032V167.168H193.432V161.712H198.296ZM205.608 161.52L207.32 162.256C205.688 164.752 202.984 166.416 199.896 167.424C199.656 166.928 199.176 166.256 198.712 165.792C201.592 165.056 204.232 163.6 205.608 161.52ZM213.8 156.32L212.568 156.736C212.552 155.984 212.312 154.848 212.024 153.984L213.176 153.616C213.512 154.448 213.752 155.584 213.8 156.32ZM224.52 157.696V159.456H223.112V167.376H221.304V159.456H219.752C219.736 161.84 219.4 165.216 217.336 167.424C217.096 167.008 216.408 166.368 215.976 166.128C216.056 166.032 216.152 165.936 216.232 165.84H211.688V166.96H210.04V152.992H211.688V161.664C212.488 160.944 213.272 159.776 213.768 158.656H211.992V157.056H213.928V152.608H215.48V156.336C215.768 155.568 216.072 154.4 216.216 153.6L217.704 153.952C217.304 154.912 216.888 156.032 216.536 156.736L215.48 156.384V157.056H217.4V158.656H215.48V158.88C215.928 159.248 217.208 160.432 217.512 160.736L216.488 162C216.28 161.664 215.88 161.12 215.48 160.608V163.888H213.928V161.136C213.464 161.984 212.936 162.768 212.36 163.296C212.232 162.848 211.928 162.24 211.688 161.824V164.192H217.144V164.304C217.848 162.656 217.928 160.816 217.928 159.264V153.712L219.048 154.016C220.488 153.664 221.976 153.152 222.904 152.64L224.44 154.032C223.08 154.64 221.352 155.12 219.752 155.472V157.696H224.52ZM240.632 160.368C240.632 163.744 238.568 166.128 234.536 166.752L233.336 164.848C233.944 164.784 234.392 164.688 234.824 164.592C236.872 164.112 238.472 162.64 238.472 160.304C238.472 158.096 237.272 156.448 235.112 156.08C234.888 157.44 234.616 158.912 234.152 160.416C233.192 163.648 231.816 165.632 230.072 165.632C228.296 165.632 226.824 163.68 226.824 160.976C226.824 157.28 230.024 154.128 234.168 154.128C238.136 154.128 240.632 156.88 240.632 160.368ZM228.872 160.768C228.872 162.384 229.512 163.168 230.136 163.168C230.808 163.168 231.432 162.16 232.088 160C232.456 158.816 232.76 157.456 232.936 156.128C230.296 156.672 228.872 159.008 228.872 160.768ZM245.656 156.784H249.56V155.872H251.464V156.784H255.448V155.52H245.656V156.784ZM257.64 163.472H252.392C253.528 164.752 255.32 165.488 257.848 165.76C257.464 166.16 256.968 166.912 256.728 167.424C253.688 166.944 251.784 165.808 250.52 163.824C249.576 165.248 247.8 166.512 244.536 167.392C244.312 166.976 243.768 166.256 243.352 165.856C246.04 165.248 247.576 164.416 248.456 163.472H243.64V161.824H249.384C249.464 161.488 249.512 161.152 249.544 160.816H245.448V159.28H249.56V158.32H245.192V157.264H243.768V153.856H249.608V152.464H251.56V153.856H257.416V157.264H256.136V158.32H251.464V159.28H255.816V160.816H251.448C251.432 161.152 251.4 161.488 251.32 161.824H257.64V163.472ZM266.184 160.672L267.496 160.064V158.4L267.352 158.56C267.048 158.208 266.344 157.504 265.928 157.216C266.104 157.04 266.28 156.848 266.44 156.64H263.384C263.368 157.216 263.352 157.792 263.336 158.352H266.216V159.072L266.184 160.672ZM270.088 165.76H272.552C273.176 165.76 273.304 165.488 273.4 164.08C273.784 164.352 274.472 164.624 274.936 164.736C274.728 166.736 274.248 167.344 272.696 167.344H269.896C268.008 167.344 267.496 166.832 267.496 165.008V161.936L266.84 162.24L266.184 160.688C266.12 164.608 266.008 166.144 265.64 166.656C265.352 167.072 265.048 167.232 264.616 167.312C264.216 167.408 263.608 167.392 262.968 167.392C262.936 166.864 262.76 166.16 262.504 165.696C263 165.76 263.448 165.76 263.656 165.76C263.864 165.76 263.992 165.712 264.12 165.504C264.328 165.184 264.424 163.84 264.488 160.08H263.24C263.016 162.96 262.504 165.552 261.176 167.376C260.872 166.928 260.28 166.352 259.816 166.048C261.4 163.856 261.544 160.336 261.592 156.64H260.056V154.88H262.504V152.464H264.328V154.88H266.824V156.08C267.48 155.04 267.96 153.76 268.248 152.448L270.12 152.8C269.992 153.36 269.816 153.92 269.64 154.464H274.664V156.192H268.92C268.648 156.752 268.344 157.28 268.008 157.744H269.176V159.28L270.04 158.88V156.592H271.624V158.144L272.776 157.616L272.84 157.568L273.128 157.36L274.312 157.776L274.248 158.032C274.232 160.304 274.232 161.936 274.184 162.416C274.152 162.992 273.928 163.344 273.496 163.52C273.112 163.68 272.6 163.696 272.168 163.696C272.136 163.264 272.008 162.656 271.832 162.304C272.024 162.32 272.248 162.32 272.376 162.32C272.504 162.32 272.584 162.288 272.6 162.08C272.632 161.936 272.632 161.056 272.648 159.536L271.624 160.016V164.48H270.04V160.752L269.176 161.152V165.008C269.176 165.664 269.288 165.76 270.088 165.76Z" fill="#3A3A3A"/>
<path d="M47.032 193.944V195.384H42.328V193.944H47.032ZM50.808 193.512H52.552C53.576 195.208 55.16 196.888 56.728 197.672C56.376 198.136 55.976 198.84 55.72 199.4C54.2 198.44 52.6 196.744 51.736 195.304C50.936 196.744 49.416 198.488 47.752 199.528C47.56 199.048 47.128 198.328 46.808 197.928C46.984 197.832 47.16 197.72 47.32 197.592H41.528V196.088H47.544V197.432C48.92 196.392 50.168 194.824 50.808 193.512ZM53.144 199.976L54.808 200.696C53.496 202.36 51.496 203.736 49.512 204.648C49.24 204.248 48.744 203.688 48.296 203.336C50.104 202.632 52.12 201.368 53.144 199.976ZM51.704 197.704L53.352 198.36C52.36 199.672 50.888 200.824 49.464 201.592C49.176 201.24 48.664 200.744 48.248 200.44C49.496 199.816 50.952 198.744 51.704 197.704ZM47.08 198.312V199.768H42.28V198.312H47.08ZM42.28 201.928V200.504H47.08V201.928H42.28ZM45.48 204.216H43.832V206.056H45.48V204.216ZM47.096 202.712V207.544H43.832V208.168H42.232V202.712H47.096ZM54.408 202.52L56.12 203.256C54.488 205.752 51.784 207.416 48.696 208.424C48.456 207.928 47.976 207.256 47.512 206.792C50.392 206.056 53.032 204.6 54.408 202.52ZM62.6 197.32L61.368 197.736C61.352 196.984 61.112 195.848 60.824 194.984L61.976 194.616C62.312 195.448 62.552 196.584 62.6 197.32ZM73.32 198.696V200.456H71.912V208.376H70.104V200.456H68.552C68.536 202.84 68.2 206.216 66.136 208.424C65.896 208.008 65.208 207.368 64.776 207.128C64.856 207.032 64.952 206.936 65.032 206.84H60.488V207.96H58.84V193.992H60.488V202.664C61.288 201.944 62.072 200.776 62.568 199.656H60.792V198.056H62.728V193.608H64.28V197.336C64.568 196.568 64.872 195.4 65.016 194.6L66.504 194.952C66.104 195.912 65.688 197.032 65.336 197.736L64.28 197.384V198.056H66.2V199.656H64.28V199.88C64.728 200.248 66.008 201.432 66.312 201.736L65.288 203C65.08 202.664 64.68 202.12 64.28 201.608V204.888H62.728V202.136C62.264 202.984 61.736 203.768 61.16 204.296C61.032 203.848 60.728 203.24 60.488 202.824V205.192H65.944V205.304C66.648 203.656 66.728 201.816 66.728 200.264V194.712L67.848 195.016C69.288 194.664 70.776 194.152 71.704 193.64L73.24 195.032C71.88 195.64 70.152 196.12 68.552 196.472V198.696H73.32ZM75.736 202.808L77.304 203.08C77.144 204.584 76.808 206.184 76.344 207.208C76.008 207 75.304 206.664 74.888 206.52C75.352 205.576 75.608 204.152 75.736 202.808ZM79.304 203.16L80.712 202.712C81.144 203.656 81.56 204.904 81.752 205.72L80.248 206.248C80.12 205.432 79.704 204.136 79.304 203.16ZM79.032 199.176L80.376 198.584C81.016 199.656 81.656 201.048 81.848 201.96L80.408 202.632C80.36 202.376 80.28 202.088 80.184 201.768L79.272 201.832V208.408H77.592V201.96C76.728 202.008 75.928 202.072 75.224 202.12L75.064 200.456L76.248 200.408C76.488 200.104 76.744 199.768 76.984 199.416C76.52 198.728 75.736 197.864 75.064 197.224L75.96 195.912C76.088 196.024 76.216 196.136 76.344 196.248C76.792 195.368 77.24 194.296 77.512 193.464L79.192 194.056C78.616 195.16 77.96 196.392 77.384 197.288C77.592 197.512 77.784 197.752 77.944 197.96C78.52 197.064 79.032 196.136 79.416 195.336L81.032 196.008C80.136 197.416 79.016 199.048 77.976 200.344L79.592 200.264C79.416 199.896 79.224 199.512 79.032 199.176ZM87.496 203.752H83.928V206.008H87.496V203.752ZM82.184 208.376V202.056H89.336V208.36H87.496V207.704H83.928V208.376H82.184ZM90.056 197.24H86.552V198.984H89.688V200.712H81.688V198.984H84.616V197.24H81.24V195.512H84.616V193.448H86.552V195.512H90.056V197.24ZM95.848 199.288H98.424V198.264H95.848V199.288ZM95.848 195.768V196.792H98.424V195.768H95.848ZM102.984 196.792V195.768H100.44V196.792H102.984ZM102.984 199.288V198.264H100.44V199.288H102.984ZM106.552 203.56H101.832C103.24 204.696 105.192 205.72 107.016 206.248C106.584 206.632 106.008 207.384 105.736 207.864C103.88 207.16 101.928 205.912 100.44 204.456V208.392H98.424V204.536C96.952 206.008 95 207.256 93.096 207.96C92.808 207.512 92.232 206.776 91.8 206.376C93.704 205.816 95.688 204.76 97.032 203.56H92.296V201.816H98.424V200.872H93.848V194.184H105.08V200.872H100.44V201.816H106.552V203.56ZM115.976 194.168C115.896 194.568 115.784 195.096 115.576 195.768C117.096 195.688 118.696 195.544 120.104 195.304L120.088 197.16C118.568 197.384 116.6 197.512 114.872 197.56C114.6 198.152 114.28 198.728 113.96 199.192C114.376 199 115.24 198.872 115.768 198.872C116.744 198.872 117.544 199.288 117.896 200.104C118.728 199.72 119.4 199.448 120.056 199.16C120.68 198.888 121.24 198.632 121.832 198.328L122.632 200.184C122.12 200.328 121.272 200.648 120.728 200.856C120.008 201.144 119.096 201.496 118.12 201.944C118.136 202.84 118.168 204.024 118.184 204.76H116.264C116.312 204.28 116.328 203.512 116.344 202.808C115.144 203.496 114.504 204.12 114.504 204.92C114.504 205.8 115.256 206.04 116.824 206.04C118.184 206.04 119.96 205.864 121.368 205.592L121.304 207.656C120.248 207.8 118.28 207.928 116.776 207.928C114.264 207.928 112.408 207.32 112.408 205.256C112.408 203.208 114.328 201.928 116.152 200.984C115.912 200.584 115.48 200.44 115.032 200.44C114.136 200.44 113.144 200.952 112.536 201.544C112.056 202.024 111.592 202.6 111.048 203.304L109.336 202.024C111.016 200.472 112.152 199.048 112.872 197.608C112.792 197.608 112.728 197.608 112.664 197.608C112.008 197.608 110.84 197.576 109.96 197.512V195.64C110.776 195.768 111.96 195.832 112.776 195.832C113.016 195.832 113.288 195.832 113.544 195.832C113.72 195.192 113.832 194.568 113.864 193.992L115.976 194.168ZM138.68 194.568V196.408H127.32V194.568H138.68ZM136.552 206.344H137.992C138.52 206.344 138.616 205.928 138.696 203.624C139.112 203.96 139.928 204.296 140.456 204.424C140.264 207.288 139.784 208.12 138.152 208.12H136.232C134.424 208.12 133.96 207.512 133.96 205.64V200.744H131.56C131.272 204.072 130.536 206.808 126.712 208.36C126.488 207.88 125.96 207.176 125.528 206.808C128.856 205.56 129.304 203.4 129.496 200.744H125.88V198.888H140.152V200.744H135.928V205.64C135.928 206.248 136.024 206.344 136.552 206.344ZM148.968 195.816C150.936 196.088 154.12 196.008 155.848 195.8V197.864C153.88 198.04 150.984 198.056 148.968 197.864V195.816ZM150.248 202.648C150.12 203.176 150.056 203.56 150.056 203.992C150.056 204.696 150.664 205.128 152.296 205.128C153.72 205.128 154.904 205 156.312 204.712L156.344 206.872C155.304 207.064 154.024 207.176 152.216 207.176C149.464 207.176 148.136 206.2 148.136 204.552C148.136 203.928 148.232 203.288 148.408 202.472L150.248 202.648ZM146.504 194.744C146.376 195.08 146.168 195.88 146.104 196.168C145.896 197.24 145.336 200.44 145.336 202.04C145.336 202.344 145.352 202.76 145.4 203.08C145.64 202.536 145.896 201.976 146.12 201.448L147.112 202.232C146.664 203.56 146.136 205.304 145.96 206.152C145.912 206.392 145.88 206.744 145.88 206.904C145.88 207.08 145.896 207.336 145.912 207.56L144.056 207.688C143.736 206.584 143.432 204.632 143.432 202.456C143.432 200.056 143.928 197.352 144.104 196.12C144.152 195.672 144.248 195.064 144.264 194.552L146.504 194.744ZM165.576 194.008C165.528 194.296 165.464 194.984 165.432 195.4C165.416 195.752 165.4 196.136 165.384 196.536C166.44 196.408 167.496 196.2 168.328 195.96L168.376 197.944C167.464 198.152 166.36 198.312 165.32 198.44C165.304 198.92 165.304 199.416 165.304 199.88C165.304 200.072 165.304 200.264 165.304 200.472C166.392 200.2 167.496 200.056 168.376 200.056C170.84 200.056 172.776 201.336 172.776 203.544C172.776 205.432 171.784 206.856 169.24 207.496C168.504 207.656 167.8 207.704 167.144 207.752L166.408 205.688C167.128 205.688 167.816 205.672 168.376 205.576C169.672 205.336 170.696 204.696 170.696 203.528C170.696 202.44 169.736 201.8 168.344 201.8C167.352 201.8 166.312 201.96 165.336 202.248C165.368 203.512 165.4 204.76 165.4 205.304C165.4 207.288 164.696 207.816 163.64 207.816C162.088 207.816 159.896 206.472 159.896 204.776C159.896 203.384 161.496 201.928 163.464 201.08C163.448 200.696 163.448 200.312 163.448 199.944C163.448 199.496 163.448 199.048 163.448 198.6C163.144 198.616 162.856 198.632 162.6 198.632C161.528 198.632 160.904 198.616 160.36 198.552L160.328 196.616C161.272 196.728 161.96 196.744 162.536 196.744C162.824 196.744 163.144 196.728 163.464 196.712C163.48 196.152 163.48 195.688 163.48 195.416C163.48 195.08 163.416 194.296 163.368 194.008H165.576ZM170.136 195.736C171.368 196.328 173.224 197.384 174.072 197.992L173.112 199.624C172.344 198.968 170.248 197.768 169.256 197.288L170.136 195.736ZM161.864 204.696C161.864 205.192 162.616 205.624 163.032 205.624C163.32 205.624 163.544 205.496 163.544 204.952C163.544 204.552 163.528 203.816 163.496 202.952C162.52 203.48 161.864 204.136 161.864 204.696ZM181.96 200.104L182.2 201.912C181.512 202.104 180.824 202.296 180.136 202.472V206.184C180.136 207.128 179.944 207.608 179.4 207.896C178.856 208.2 178.088 208.248 176.936 208.248C176.888 207.752 176.616 206.968 176.376 206.456C177.016 206.488 177.688 206.488 177.896 206.488C178.12 206.488 178.2 206.408 178.2 206.168V203L176.488 203.432L175.96 201.544C176.6 201.416 177.384 201.24 178.2 201.032V198.28H176.136V196.488H178.2V193.464H180.136V196.488H181.944V198.28H180.136V200.568L181.96 200.104ZM190.856 194.664V196.568H188.312V205.896C188.312 207.016 188.056 207.576 187.32 207.912C186.6 208.264 185.528 208.296 184.04 208.296C183.96 207.704 183.592 206.76 183.288 206.216C184.28 206.28 185.48 206.264 185.8 206.264C186.12 206.264 186.248 206.168 186.248 205.864V196.568H182.2V194.664H190.856ZM199.448 194.248C199.272 194.808 199.176 195.352 199.064 195.88C199.032 196.024 199 196.2 198.968 196.376C200.792 196.28 202.952 196.04 204.888 195.624L204.92 197.528C203.256 197.8 200.712 198.104 198.568 198.216C198.344 199.192 198.088 200.216 197.848 201C199.144 200.28 200.392 199.992 201.816 199.992C204.408 199.992 206.12 201.368 206.12 203.416C206.12 207.016 202.648 208.312 197.48 207.752L196.92 205.688C200.424 206.264 203.96 205.832 203.96 203.48C203.96 202.52 203.144 201.72 201.576 201.72C199.736 201.72 198.104 202.376 197.144 203.592C196.968 203.816 196.856 204.024 196.696 204.296L194.808 203.624C195.576 202.136 196.216 200.008 196.632 198.248C195.624 198.232 194.68 198.184 193.864 198.104V196.12C194.824 196.28 196.024 196.408 197 196.424C197.032 196.184 197.064 195.96 197.096 195.768C197.192 195.08 197.208 194.68 197.176 194.152L199.448 194.248ZM220.184 203.528H213.864V206.136H220.184V203.528ZM211.992 208.408V201.848H222.136V208.408H220.184V207.816H213.864V208.408H211.992ZM213.768 198.584H220.232C218.904 197.544 217.72 196.392 216.952 195.336C216.2 196.408 215.08 197.544 213.768 198.584ZM215.88 193.464H217.848C219.56 195.912 222.152 197.944 224.696 198.968C224.232 199.464 223.8 200.088 223.464 200.68C222.648 200.264 221.816 199.736 221.016 199.16V200.264H213.048V199.144C212.264 199.72 211.416 200.248 210.568 200.712C210.312 200.248 209.784 199.56 209.368 199.16C212.12 197.832 214.68 195.416 215.88 193.464ZM230.152 195.464C230.152 195 230.168 194.52 230.088 194.024L232.424 194.104C232.328 194.552 232.2 195.368 232.072 196.376L232.664 197.128C232.44 197.416 232.12 197.944 231.848 198.36C231.832 198.504 231.832 198.664 231.816 198.808C233.432 197.608 235.08 197.16 236.52 197.16C238.984 197.16 240.92 198.904 240.936 201.48C240.936 204.712 238.904 206.648 234.936 207.432L233.976 205.496C236.792 205.08 238.808 203.928 238.792 201.432C238.792 200.184 237.784 199.032 236.184 199.032C234.488 199.032 233 199.848 231.656 201.08C231.64 201.544 231.624 202.008 231.624 202.424C231.624 203.736 231.624 205.08 231.72 206.584C231.736 206.872 231.784 207.448 231.832 207.816H229.624C229.656 207.464 229.672 206.888 229.672 206.632C229.704 205.384 229.72 204.456 229.736 203.112C229.064 204.12 228.28 205.288 227.72 206.04L226.456 204.296C227.368 203.176 228.968 201.064 229.88 199.72C229.912 199.352 229.944 198.968 229.96 198.584C229.176 198.68 227.944 198.84 227.048 198.968L226.84 196.92C227.304 196.936 227.672 196.936 228.232 196.904C228.696 196.872 229.4 196.792 230.088 196.696C230.12 196.088 230.152 195.64 230.152 195.464ZM254.84 194.44C254.808 194.696 254.76 195.4 254.744 195.832C254.728 196.456 254.728 197.032 254.712 197.56C255.144 197.528 255.544 197.496 255.912 197.48C256.36 197.448 256.984 197.416 257.448 197.368V199.336C257.176 199.32 256.328 199.336 255.912 199.352C255.56 199.368 255.144 199.384 254.68 199.416C254.632 200.632 254.568 201.944 254.44 202.616C254.264 203.464 253.864 203.672 253.048 203.672C252.472 203.672 251.192 203.512 250.632 203.432L250.68 201.656C251.176 201.768 251.832 201.864 252.152 201.864C252.472 201.864 252.616 201.8 252.648 201.496C252.712 201.064 252.76 200.328 252.776 199.56C251.352 199.672 249.784 199.816 248.424 199.96C248.408 201.432 248.392 202.904 248.424 203.592C248.456 205.16 248.6 205.512 251 205.512C252.568 205.512 254.584 205.32 255.784 205.112L255.704 207.288C254.632 207.416 252.664 207.544 251.144 207.544C247 207.544 246.504 206.68 246.424 203.912C246.408 203.224 246.408 201.672 246.408 200.184C245.976 200.232 245.608 200.264 245.336 200.296C244.824 200.36 243.832 200.52 243.416 200.584L243.192 198.536C243.656 198.536 244.392 198.504 245.208 198.424C245.496 198.392 245.912 198.36 246.424 198.312C246.424 197.56 246.424 196.968 246.424 196.696C246.424 196.04 246.376 195.496 246.296 194.92H248.552C248.472 195.464 248.456 195.912 248.456 196.584C248.456 196.952 248.44 197.496 248.44 198.12C249.8 197.992 251.352 197.848 252.808 197.72V195.912C252.808 195.512 252.744 194.76 252.696 194.44H254.84Z" fill="#3A3A3A"/>
<line x1="13.5" y1="45" x2="13.5" y2="201" stroke="#666666"/>
<line x1="13" y1="78.0134" x2="29" y2="78.0134" stroke="#666666"/>
<line x1="13" y1="117.646" x2="29" y2="117.646" stroke="#666666"/>
<line x1="13" y1="159.808" x2="29" y2="159.808" stroke="#666666"/>
<line x1="13" y1="200.5" x2="29" y2="200.5" stroke="#666666"/>
</svg>
