<svg width="285" height="315" viewBox="0 0 285 315" fill="none" xmlns="http://www.w3.org/2000/svg">
<g clip-path="url(#clip0_247_423)">
<path d="M210.287 1.51223C213.809 2.40389 216.961 4.32989 220.057 6.23448C220.576 6.55548 221.172 7.07621 220.966 7.64688C220.781 8.15334 219.709 8.98081 219.177 8.98794C213.759 9.03074 208.746 8.34594 203.328 8.38874C200.445 8.41014 198.081 5.77795 200.182 3.09582C202.242 0.470763 207.51 0.806028 210.294 1.51223H210.287Z" fill="#DFDFDF"/>
<path d="M152.949 124.883C153.801 128.564 152.544 132.48 150.392 135.576C148.234 138.672 153.68 143.358 150.698 145.662C133.89 158.624 150.868 161.092 131.675 170.115C127.613 172.027 90.4414 183.226 85.968 183.497C81.4945 183.768 63.7357 179.068 61.2292 175.33C58.3818 171.071 59.3049 165.122 62.1239 160.842C64.9429 156.562 67.3216 146.297 71.9654 144.15C92.3231 134.741 131.902 119.012 151.841 113.227C158.054 111.422 169.323 115.41 172.93 120.803C174.13 122.6 152.608 123.442 152.942 124.883H152.949Z" fill="#A5A6A9"/>
<path d="M34.6726 61.218C33.5436 58.9924 26.8193 44.2622 25.2784 40.453C23.7376 36.6438 26.1944 35.4097 28.7649 36.7722C31.9673 38.4628 32.8406 41.8725 34.6229 45.6959C35.404 47.3723 35.3756 47.2439 43.6479 65.6193L34.6726 61.2252V61.218Z" fill="white"/>
<path d="M42.3058 59.4491L42.3485 59.4277C43.5769 60.9685 45.487 64.1428 45.9485 64.4281C47.5888 65.4839 50.3296 71.8182 50.5213 74.7072C50.706 77.5748 50.7273 84.1161 50.8551 86.4487C51.0113 89.2521 52.8007 97.2128 53.7166 101.322L54.4125 108.862L40.5236 113.035C40.5236 113.035 36.32 104.118 35.6525 102.927C35.404 102.442 35.1271 101.892 34.8359 101.3C33.1389 97.7478 31.0087 92.3336 28.6512 91.1495C23.3754 88.4745 22.7435 82.5253 19.9884 79.3582C17.7588 76.7688 17.6807 74.4932 18.4334 72.7028C19.186 70.9123 22.2038 69.9493 22.2038 69.9493C22.2038 69.9493 22.1541 66.7607 23.4109 65.0273C24.6536 63.2725 27.4796 63.6078 27.4796 63.6078C27.4796 63.6078 26.1447 62.0599 26.1589 60.462C26.1731 58.8641 27.3589 57.4803 28.5731 56.6956C29.5246 56.0465 30.5116 56.1963 31.3495 56.9738C31.7613 57.3376 32.1661 57.7513 32.514 58.2221L33.2099 57.8583C31.0229 53.2859 26.5281 43.5846 25.2713 40.4673C23.7305 36.6439 26.6062 34.8106 28.7649 36.7651C31.5625 39.3117 32.8335 41.8726 34.6158 45.7032C36.0857 48.8918 40.7437 56.8311 42.3058 59.4562V59.4491Z" fill="white"/>
<path d="M36.0217 103.69C35.6454 103.69 35.2833 103.476 35.1129 103.119C31.9459 96.4924 29.624 92.7688 28.2039 92.0555C24.5044 90.1794 22.9281 86.891 21.5363 83.9877C20.8121 82.4826 20.1304 81.0559 19.2357 80.0216C16.4736 76.8187 16.7789 74.0582 17.5174 72.3034C18.2061 70.6698 20.1588 69.6712 21.2239 69.236C21.2878 68.0947 21.5434 65.8976 22.6086 64.4282C23.4109 63.3011 24.6606 62.8446 25.7115 62.6663C25.4062 62.0314 25.1577 61.2539 25.1648 60.4478C25.1861 58.4077 26.663 56.7313 28.0406 55.8397C29.3187 54.9623 30.824 55.0978 32.0383 56.2177C32.1519 56.3176 32.3436 56.4531 32.5566 56.6101C33.0821 56.9953 33.6288 57.3876 33.9412 57.8156C34.275 58.265 34.1827 58.8999 33.7353 59.228C33.288 59.5633 32.656 59.4705 32.3294 59.0211C32.1945 58.8428 31.6832 58.4647 31.3779 58.2436C31.1081 58.051 30.8595 57.8655 30.7033 57.7229C30.0075 57.0809 29.5175 57.2806 29.1625 57.5231C28.2465 58.1152 27.2027 59.228 27.1885 60.4621C27.1814 61.4465 27.9625 62.5807 28.2678 62.9373C28.5376 63.2512 28.5873 63.7077 28.3956 64.0715C28.2039 64.4424 27.8063 64.6493 27.3944 64.5994C26.7696 64.528 24.9873 64.578 24.263 65.6052C23.3896 66.8107 23.2334 69.129 23.2405 69.9208C23.2405 70.3631 22.9636 70.7626 22.5375 70.8981C21.8701 71.1121 19.8535 71.9752 19.3919 73.0809C18.6393 74.8642 19.1079 76.7474 20.7766 78.6805C21.8488 79.9146 22.5872 81.4554 23.3754 83.0961C24.6891 85.8353 26.0524 88.6743 29.1341 90.2365C31.5625 91.4634 34.4454 96.9918 36.9519 102.235C37.1933 102.741 36.9803 103.34 36.4833 103.583C36.3413 103.647 36.1922 103.683 36.0501 103.683L36.0217 103.69Z" fill="black"/>
<path d="M52.8432 98.4184C52.3817 98.4184 51.9627 98.0974 51.8633 97.6266C50.5994 91.8415 49.939 88.2035 49.8467 86.5129C49.7899 85.4215 49.5201 83.6096 49.2361 81.6908C48.9307 79.6364 48.6183 77.5178 48.526 76.0126C48.3059 72.7242 46.4668 65.9761 45.4017 65.2913C44.8479 64.9417 41.4608 60.0269 41.4395 59.977C41.191 59.5561 35.3969 49.8049 33.6998 46.1241C31.9459 42.3577 30.7388 39.9252 28.0903 37.507C27.4938 36.972 26.8192 36.8294 26.3648 37.1504C25.8819 37.4928 25.5482 38.4629 26.2086 40.0821C27.4725 43.2137 32.0524 53.0862 34.1258 57.4161C34.417 58.051 34.6868 58.5646 34.8998 58.9783C35.0276 59.228 35.1341 59.4348 35.2122 59.5846C35.4466 60.0911 35.2335 60.6903 34.7294 60.9328C34.2252 61.1682 33.6288 60.9542 33.3874 60.4478C33.3235 60.3122 33.2311 60.1339 33.1175 59.9199C32.9045 59.5062 32.6063 58.9426 32.301 58.2721C30.3057 54.0991 25.676 44.1481 24.3411 40.8383C23.2405 38.1205 24.0713 36.2944 25.2074 35.4883C26.4358 34.618 28.14 34.832 29.4394 36.0019C32.3152 38.6198 33.6572 41.252 35.5247 45.2609C36.8454 48.1285 40.9496 55.1976 43.165 58.9284C43.4561 59.4134 46.1189 63.1013 46.6017 63.6577C48.8739 65.3697 50.4006 73.8299 50.5355 75.87C50.6278 77.2966 50.9331 79.3796 51.2314 81.384C51.5225 83.3528 51.7923 85.2075 51.8562 86.3988C51.9414 87.9752 52.5876 91.5062 53.8231 97.1843C53.9438 97.7265 53.5959 98.2686 53.0562 98.3898C52.9852 98.4041 52.9142 98.4113 52.8432 98.4113V98.4184Z" fill="black"/>
<path d="M30.0643 82.4826C29.9578 82.5254 29.8513 82.5682 29.7306 82.5968C28.3388 82.932 27.224 82.2829 26.4075 81.6766C26.0382 81.4055 25.669 81.0988 25.2785 80.7849C23.9719 79.722 22.6228 78.6164 21.2027 78.4452C20.9186 78.4095 20.7198 78.1527 20.7553 77.8674C20.7908 77.5821 21.0536 77.3752 21.3305 77.418C23.0488 77.632 24.5826 78.8803 25.9317 79.986C26.301 80.2856 26.6702 80.5852 27.0252 80.8491C27.9909 81.5696 28.701 81.7836 29.4892 81.591C30.0501 81.4554 30.4975 80.842 30.5259 80.1643C30.5685 79.3012 30.043 78.5736 29.7306 78.2169C29.5602 78.0172 29.2761 77.6605 28.9424 77.2397C28.3104 76.4265 27.2453 75.0783 26.8193 74.7858C26.301 74.4363 25.6122 73.8371 24.9447 73.2521C24.3057 72.6886 23.6382 72.1108 23.1767 71.7969C22.9352 71.64 22.8713 71.3119 23.0346 71.0765C23.1909 70.8411 23.5104 70.7769 23.7518 70.9338C24.2702 71.2833 24.9589 71.8825 25.6264 72.4675C26.2655 73.0239 26.9329 73.6088 27.3945 73.9155C27.9128 74.2651 28.7365 75.2851 29.7519 76.5834C30.0643 76.9829 30.3341 77.3253 30.4975 77.5107C31.2217 78.3311 31.5981 79.2869 31.5555 80.1928C31.5058 81.2058 30.8951 82.1046 30.0572 82.4684L30.0643 82.4826Z" fill="black"/>
<path d="M28.9566 83.089C27.8063 83.089 26.8832 82.5255 26.1731 81.9976C25.8039 81.7265 25.4275 81.4198 25.0441 81.1059C23.7731 80.0645 22.4666 79.0016 21.1529 78.8376C20.9115 78.809 20.6914 78.6878 20.5423 78.488C20.3932 78.2954 20.3293 78.0529 20.3577 77.8104C20.3861 77.5678 20.5068 77.3538 20.7056 77.1969C20.8973 77.0471 21.1387 76.9829 21.3802 77.0114C23.205 77.2397 24.7885 78.5237 26.1802 79.665L26.237 79.715C26.585 80.0003 26.9258 80.2785 27.2595 80.521C28.1329 81.1701 28.7294 81.3628 29.3897 81.1987C29.7803 81.106 30.0998 80.6423 30.1211 80.143C30.1566 79.4225 29.7021 78.7876 29.4252 78.4738C29.2548 78.2812 28.985 77.9388 28.6655 77.5322C28.1329 76.8474 26.9755 75.3708 26.5921 75.114C26.0595 74.7573 25.3707 74.151 24.7033 73.5732C24.05 73.0025 23.3967 72.4318 22.9565 72.1322C22.7506 71.9967 22.6157 71.7898 22.566 71.5473C22.5163 71.3048 22.566 71.0622 22.7009 70.8554C22.8358 70.6556 23.0417 70.513 23.2831 70.463C23.5246 70.4131 23.766 70.463 23.9719 70.5986C24.5116 70.9552 25.2003 71.5616 25.8749 72.1465C26.4926 72.6815 27.1672 73.2807 27.6145 73.5803C28.1826 73.9655 28.9921 74.9642 30.0643 76.3338C30.3767 76.7332 30.6394 77.0614 30.7957 77.2468C31.5909 78.1456 31.9957 79.2014 31.946 80.2143C31.8892 81.3627 31.1933 82.4113 30.2063 82.8393C30.0785 82.8964 29.9507 82.9392 29.8087 82.9749C29.5104 83.0462 29.2193 83.0819 28.9424 83.0819L28.9566 83.089ZM21.2665 77.8032C21.2665 77.8032 21.2097 77.8175 21.1955 77.8246C21.1813 77.8389 21.1529 77.8603 21.1529 77.9031C21.1529 77.9459 21.16 77.9744 21.1742 77.9958C21.1884 78.0101 21.2097 78.0386 21.2523 78.0386C22.7861 78.2312 24.1849 79.3654 25.534 80.4711C25.9175 80.7849 26.2867 81.0846 26.6489 81.3556C27.3944 81.912 28.4027 82.5112 29.6382 82.2116C29.7306 82.1902 29.8229 82.1617 29.9081 82.1189C30.6181 81.8122 31.1223 81.0417 31.1649 80.1929C31.2004 79.3868 30.8667 78.538 30.2063 77.789C30.043 77.5964 29.7732 77.254 29.4536 76.8545C28.4808 75.6133 27.6501 74.5718 27.1743 74.258C26.6844 73.9298 26.0169 73.3449 25.3636 72.7742C24.6962 72.1964 24.0216 71.6044 23.5317 71.2762C23.4891 71.2477 23.3967 71.262 23.3683 71.3119C23.347 71.3476 23.347 71.3832 23.347 71.4046C23.347 71.426 23.3612 71.4546 23.3967 71.476C23.8867 71.8041 24.5542 72.389 25.2003 72.9526C25.8749 73.5375 26.5423 74.1296 27.0394 74.4577C27.4867 74.7573 28.3814 75.8772 29.2548 76.9972C29.6027 77.4323 29.8584 77.7676 30.0217 77.953C30.3767 78.3596 30.9661 79.1871 30.9164 80.1858C30.8738 81.0489 30.3128 81.7979 29.5743 81.9762C28.6726 82.1973 27.8418 81.9477 26.7838 81.163C26.4429 80.9062 26.095 80.628 25.74 80.3356L25.6832 80.2928C24.3695 79.2228 22.8855 78.0101 21.2807 77.8104H21.2665V77.8032Z" fill="black"/>
<path d="M36.0075 80.4853C35.8442 80.5567 35.6737 80.6066 35.4962 80.6423C34.3104 80.8563 33.2027 80.1786 32.4642 79.7292L29.7802 78.0957C29.5316 77.9459 29.4606 77.6249 29.6027 77.3823C29.7447 77.1327 30.0642 77.0542 30.3127 77.204L32.9968 78.8375C33.7921 79.3226 34.566 79.7506 35.3045 79.6151C35.9933 79.4938 36.5542 78.7662 36.5116 78.0671C36.5045 77.9316 36.469 77.7889 36.4122 77.6534C36.3057 77.3895 36.4619 77.0756 36.6962 76.9757C36.959 76.8687 37.2643 76.9971 37.3708 77.2611C37.4702 77.4965 37.527 77.7461 37.5412 77.9958C37.6051 79.0515 36.9448 80.0716 35.9933 80.4782L36.0075 80.4853Z" fill="black"/>
<path d="M35.0347 81.0845C33.9199 81.0845 32.9471 80.4853 32.2654 80.0787L29.5814 78.4381C29.3754 78.3097 29.2263 78.1099 29.1695 77.8745C29.1127 77.6391 29.1482 77.3895 29.276 77.1826C29.3967 76.9757 29.5956 76.8259 29.8299 76.7689C30.0713 76.7047 30.3198 76.7475 30.5329 76.8759L33.2169 78.5094C33.9483 78.9517 34.6513 79.344 35.2477 79.237C35.7377 79.1514 36.1566 78.6093 36.1282 78.1099C36.1282 78.0172 36.0998 77.9173 36.0643 77.8246C35.8797 77.3752 36.114 76.8117 36.5613 76.6262C36.7886 76.5335 37.0371 76.5335 37.2643 76.6262C37.4915 76.7189 37.6619 76.8973 37.7542 77.1255C37.8679 77.4037 37.9318 77.6891 37.9531 77.9815C38.0312 79.1871 37.2927 80.3712 36.1637 80.8562C35.972 80.9418 35.7661 80.9989 35.5672 81.0346C35.3897 81.0702 35.2122 81.0845 35.0347 81.0845ZM30.05 77.5321C30.05 77.5321 30.0287 77.5321 30.0216 77.5321C30.0003 77.5321 29.9719 77.5464 29.9577 77.5821C29.9293 77.6249 29.9364 77.6605 29.9364 77.6819C29.9364 77.7033 29.9577 77.7319 29.9932 77.7533L32.6773 79.3868C33.366 79.8005 34.3956 80.4354 35.4323 80.2499C35.5743 80.2214 35.7164 80.1786 35.8584 80.1215C36.6678 79.772 37.2217 78.8946 37.1649 78.0315C37.1507 77.8246 37.101 77.6177 37.0229 77.418C37.0087 77.3752 36.9732 77.3609 36.959 77.3538C36.9448 77.3538 36.9093 77.3395 36.8667 77.3538C36.8312 77.3681 36.7815 77.4537 36.8028 77.5107C36.8738 77.6819 36.9164 77.8674 36.9306 78.0457C36.9874 78.9517 36.2844 79.8504 35.3968 80.0145C34.5234 80.1714 33.6714 79.7078 32.8122 79.1871L30.1281 77.5535C30.1281 77.5535 30.0784 77.5321 30.0642 77.5321H30.05Z" fill="black"/>
<path d="M38.4643 77.5534C38.017 77.746 37.4844 77.7104 36.6821 77.4036C35.3826 76.9043 33.998 75.2494 33.0678 73.944C30.6394 70.5414 29.3329 68.4157 26.9896 64.0786C26.8547 63.8289 26.947 63.5079 27.1956 63.3724C27.4441 63.2226 27.7636 63.3296 27.8985 63.5793C30.2204 67.8735 31.5128 69.9707 33.9128 73.3376C35.0915 74.9926 36.2347 76.1196 37.0513 76.4335C38.0241 76.8044 38.1022 76.7402 38.8478 75.8343C39.0537 75.5846 39.1531 75.0211 39.1389 74.158C39.1389 73.8726 39.3661 73.6301 39.6501 73.6301C39.9342 73.6301 40.1685 73.8584 40.1756 74.1437C40.1827 74.9284 40.133 75.8985 39.6501 76.4906C39.2241 77.0184 38.8762 77.3822 38.4714 77.5606L38.4643 77.5534Z" fill="black"/>
<path d="M37.8679 78.0742C37.4916 78.0742 37.0584 77.9743 36.533 77.7746C35.1412 77.2396 33.6998 75.5204 32.7412 74.1722C30.3057 70.7554 28.992 68.6225 26.6346 64.2641C26.521 64.0501 26.4926 63.8004 26.5636 63.565C26.6346 63.3296 26.7908 63.137 27.0039 63.0157C27.1956 62.9016 27.4441 62.8659 27.6784 62.9301C27.9198 62.9943 28.1258 63.1655 28.2465 63.3867C30.5613 67.6595 31.8465 69.7496 34.2323 73.0951C35.3543 74.6644 36.4549 75.7701 37.1862 76.0483C37.6738 76.2338 38.1235 76.0745 38.5354 75.5704C38.5851 75.5062 38.7484 75.2208 38.7413 74.1508C38.7413 73.9012 38.8336 73.6658 39.004 73.4946C39.1815 73.3162 39.4016 73.2235 39.6573 73.2235C40.1543 73.2235 40.5591 73.6301 40.5662 74.1294C40.5733 74.9783 40.5165 76.0412 39.9484 76.7331C39.4656 77.3252 39.0963 77.7104 38.6206 77.9172C38.3862 78.0171 38.1448 78.067 37.8679 78.067V78.0742ZM27.4654 63.7077L27.3802 63.7219C27.3447 63.7433 27.3305 63.779 27.3234 63.7933C27.3234 63.8147 27.3163 63.8503 27.3305 63.8789C29.6666 68.2088 30.9731 70.3131 33.3874 73.7014C34.6584 75.4848 35.8726 76.6618 36.817 77.0256C37.5058 77.2895 37.9531 77.3394 38.301 77.1825C38.6277 77.0398 38.9259 76.726 39.3306 76.2266C39.7354 75.7344 39.778 74.8499 39.7709 74.1366C39.7709 74.0724 39.707 73.9939 39.6502 74.0153C39.6076 74.0153 39.5792 74.0367 39.565 74.051C39.5508 74.0652 39.5295 74.0938 39.5295 74.1366C39.5437 75.121 39.4158 75.7416 39.146 76.0697C38.3152 77.0898 38.0738 77.2324 36.9022 76.7902C36.0004 76.4478 34.8217 75.2993 33.5791 73.5516C31.172 70.1705 29.8725 68.0661 27.5435 63.7576C27.5293 63.7219 27.5009 63.7005 27.4654 63.6934V63.7077Z" fill="black"/>
<path d="M47.0065 77.1754C46.9284 77.211 46.8361 77.2253 46.7438 77.2182C45.1532 77.0327 40.3603 76.4692 38.1094 72.3604C32.9827 71.1549 30.7531 67.3671 28.5732 62.923C28.4737 62.7161 28.4737 62.4736 28.5732 62.1883C28.7649 61.6176 29.3897 60.8329 29.8158 60.6189C30.2844 60.3836 30.8667 60.4335 31.2927 60.5048C32.3933 60.7045 33.4726 61.1397 34.4028 61.7603C36.0147 62.8374 38.0029 63.6078 40.481 64.1214L43.7118 65.3983C43.9745 65.5053 44.1094 65.8049 44.0029 66.0688C43.8964 66.3327 43.5982 66.4683 43.3355 66.3613L40.1899 65.1058C37.662 64.5922 35.5602 63.7647 33.8348 62.6163C33.0182 62.0741 32.0738 61.6961 31.1152 61.5177C30.8312 61.4678 30.5258 61.4107 30.2702 61.5391C30.0643 61.6533 29.5601 62.3309 29.5388 62.5592C31.6761 66.8606 33.7211 70.3274 38.5709 71.376C38.72 71.4116 38.8478 71.5044 38.9188 71.6471C40.8644 75.4562 45.3876 75.9912 46.8716 76.1624C47.1556 76.1981 47.3616 76.4549 47.326 76.7402C47.3047 76.9328 47.1769 77.0898 47.0136 77.154L47.0065 77.1754Z" fill="black"/>
<path d="M46.8006 77.6176C46.8006 77.6176 46.7296 77.6176 46.6941 77.6176C45.0822 77.425 40.2254 76.8544 37.8395 72.7099C32.6631 71.4188 30.4122 67.5953 28.2039 63.1013C28.1045 62.8945 28.0122 62.5449 28.1755 62.067C28.4027 61.3965 29.0986 60.5262 29.6169 60.2694C30.0714 60.0483 30.6323 59.9983 31.3424 60.1196C32.4998 60.3265 33.6288 60.783 34.6016 61.4321C36.1709 62.4736 38.1164 63.2297 40.5449 63.7362L43.8396 65.0345C44.0668 65.1272 44.2443 65.2984 44.3437 65.5267C44.4432 65.7549 44.4432 66.0046 44.3508 66.2328C44.2656 66.4611 44.0881 66.6394 43.8609 66.7393C43.6337 66.8392 43.3852 66.8392 43.1579 66.7464L40.0123 65.491C37.4845 64.9774 35.3614 64.1499 33.5791 62.9658C32.8051 62.4522 31.9176 62.0955 31.0087 61.9315C30.7672 61.8887 30.5471 61.853 30.4193 61.9172C30.3199 61.9885 30.043 62.3595 29.9365 62.5592C32.0241 66.7464 34.0265 70.0206 38.6206 71.0122C38.8904 71.0692 39.1176 71.2476 39.2384 71.4901C41.0916 75.1138 45.4515 75.6274 46.8858 75.7915C47.3899 75.8486 47.745 76.3051 47.6882 76.8116C47.6527 77.1397 47.4396 77.4179 47.1414 77.5463C47.0278 77.5962 46.9 77.6248 46.7793 77.6248L46.8006 77.6176ZM30.6394 60.8472C30.3696 60.8472 30.1495 60.89 29.972 60.9827C29.6666 61.1325 29.0986 61.8245 28.9282 62.3238C28.8643 62.5021 28.8643 62.6448 28.914 62.7518C31.0513 67.1102 33.2241 70.8053 38.1875 71.9752L38.3579 72.018L38.4431 72.1749C40.5946 76.0982 45.2455 76.6475 46.7722 76.8258L46.9923 77.1825L46.8361 76.8187C46.8361 76.8187 46.9 76.7759 46.9071 76.7188C46.9142 76.6546 46.8645 76.5904 46.8006 76.5833C45.2668 76.405 40.5875 75.8557 38.5425 71.8539C38.5283 71.8182 38.4999 71.7968 38.4644 71.7897C33.4655 70.7126 31.3708 67.2172 29.1554 62.7589L29.1057 62.6519L29.1199 62.5378C29.1625 62.1455 29.766 61.3751 30.0501 61.211C30.4335 61.0113 30.8241 61.0826 31.1365 61.1397C32.1732 61.3251 33.1673 61.7246 34.0265 62.3024C35.7164 63.4295 37.7472 64.2213 40.2467 64.7277L43.4633 65.9974C43.5059 66.0117 43.5414 65.9974 43.5556 65.9974C43.5698 65.9903 43.6053 65.9689 43.6195 65.9333C43.6337 65.8905 43.6195 65.8548 43.6195 65.8405C43.6124 65.8263 43.5911 65.7906 43.5556 65.7763L40.3248 64.4995C37.8608 63.993 35.8229 63.2012 34.1685 62.0955C33.2809 61.5035 32.2584 61.0897 31.2075 60.9043C31.0016 60.8686 30.817 60.8472 30.6394 60.8472Z" fill="black"/>
<path d="M58.4741 103.833L55.0374 96.7849C54.6753 96.093 53.6883 96.1001 53.3261 96.7921C52.545 98.2829 51.1604 99.7595 47.5888 102.099C44.2728 104.268 38.6561 104.632 34.7578 104.739C33.217 104.781 32.159 106.315 32.656 107.777C33.359 109.86 33.288 112.621 33.8064 113.898C34.2253 114.939 34.8289 116.673 35.4253 118.484C41.0917 117.778 45.9272 116.687 50.4006 113.655C53.738 111.394 56.493 109.111 58.6303 104.147L58.4812 103.833H58.4741Z" fill="#A5A6A9"/>
<path d="M77.0069 140.804L58.8291 102.399C57.4587 104.795 56.564 105.33 50.7273 108.983C45.2952 112.378 33.8063 113.241 31.0939 113.491C31.1365 113.619 34.6513 124.619 34.6513 124.619C34.6513 124.619 53.4113 172.262 57.7072 179.117C64.3748 189.753 80.3655 184.46 84.9951 183.861C87.523 183.533 80.3087 181.921 83.433 179.303C86.0247 177.142 88.1052 173.646 90.1786 169.701L77.014 140.797L77.0069 140.804Z" fill="#A5A6A9"/>
<path d="M71.7737 186.7C66.2139 186.7 60.3487 185.231 56.8552 179.66C52.5593 172.805 35.6454 129.02 34.9283 127.166C33.8135 124.048 30.185 113.955 30.1424 113.819C30.043 113.527 30.0856 113.206 30.256 112.949C30.4264 112.692 30.7034 112.521 31.0087 112.492L31.527 112.442C34.9283 112.136 45.274 111.208 50.2018 108.127L50.351 108.034C52.1403 106.914 53.4397 106.108 54.4267 105.445C54.8883 105.131 55.5131 105.259 55.8256 105.723C56.1309 106.187 56.0102 106.814 55.5486 107.128C54.5333 107.813 53.2267 108.626 51.4161 109.753L51.2669 109.846C46.2752 112.963 36.604 114.005 32.4856 114.39C33.4016 116.951 35.5531 122.943 36.8171 126.459C36.9804 126.887 54.3699 171.899 58.5593 178.59C63.8919 187.093 75.7501 184.674 82.1265 183.376C83.22 183.155 84.1573 182.962 84.8674 182.87C85.2792 182.82 85.762 182.684 86.3017 182.477C86.3727 182.449 86.4437 182.434 86.5147 182.42C89.3266 182.006 95.0639 180.188 101.71 178.076C107.653 176.193 114.392 174.053 121.187 172.212C121.72 172.063 122.274 172.384 122.423 172.926C122.565 173.468 122.252 174.017 121.713 174.167C114.953 176 108.243 178.133 102.314 180.009C95.3906 182.206 89.9017 183.947 86.9124 184.403C86.2591 184.646 85.6697 184.803 85.123 184.874C84.491 184.953 83.5821 185.138 82.5241 185.352C79.8188 185.901 75.8779 186.707 71.7737 186.707V186.7Z" fill="black"/>
<path d="M76.2897 140.469C75.9133 140.469 75.5512 140.255 75.3808 139.891L58.6871 104.453C58.5238 104.66 58.3533 104.853 58.1758 105.038C57.7924 105.437 57.1533 105.452 56.7557 105.067C56.358 104.681 56.3438 104.039 56.7273 103.64C57.1675 103.183 57.5084 102.698 57.9628 101.906C58.1474 101.578 58.4883 101.379 58.8788 101.4C59.2551 101.414 59.5889 101.635 59.7451 101.978L77.1985 139.035C77.4329 139.542 77.2199 140.141 76.7228 140.384C76.5808 140.448 76.4388 140.483 76.2897 140.483V140.469Z" fill="black"/>
<path d="M77.4116 142.702C77.0281 142.702 76.6589 142.481 76.4885 142.103C76.2612 141.589 76.4885 140.997 76.9997 140.769C91.4354 134.356 118.106 124.683 135.751 118.285L136.667 117.949C137.185 117.757 137.767 118.035 137.952 118.556C138.144 119.084 137.867 119.661 137.348 119.847L136.432 120.182C118.809 126.566 92.181 136.225 77.8092 142.609C77.6743 142.666 77.5394 142.695 77.4045 142.695L77.4116 142.702Z" fill="black"/>
<path d="M73.3855 167.783C73.1725 167.783 72.9595 167.719 72.782 167.576C72.3346 167.241 72.2494 166.606 72.5831 166.164C76.595 160.814 78.8175 154.18 78.8601 147.481C78.8601 146.925 79.3146 146.476 79.8684 146.476C80.4223 146.476 80.8696 146.932 80.8696 147.496C80.827 154.622 78.4554 161.684 74.1879 167.383C73.9891 167.647 73.6908 167.79 73.3855 167.79V167.783Z" fill="black"/>
<path d="M84.1217 157.29C84.0649 157.29 84.0081 157.29 83.9442 157.275C83.3974 157.175 83.0282 156.655 83.1276 156.105C83.6672 153.024 83.4684 149.828 82.5453 146.868C82.382 146.333 82.6732 145.769 83.2057 145.598C83.7383 145.427 84.2992 145.726 84.4696 146.261C85.485 149.528 85.7122 153.052 85.1158 156.455C85.0306 156.947 84.6045 157.29 84.1288 157.29H84.1217Z" fill="black"/>
<path d="M33.9767 113.948C33.5719 113.948 33.1885 113.698 33.0323 113.291C32.4571 111.75 32.1163 109.104 31.9956 107.306C31.9388 106.422 31.9601 105.302 32.6489 104.539C33.1246 104.018 33.7992 103.747 34.7223 103.726C38.5353 103.626 43.9673 103.255 47.0348 101.25C50.571 98.9319 51.7 97.7192 52.2964 96.6136C52.6373 95.9787 53.2976 95.5793 54.0148 95.565C54.7249 95.5293 55.371 95.9217 55.7332 96.5494L58.751 102.306C59.0066 102.798 58.822 103.412 58.332 103.668C57.8421 103.925 57.2314 103.74 56.9758 103.248L54.029 97.6265C53.1485 99.2743 51.5367 100.722 48.1425 102.948C44.6845 105.209 39.1886 105.63 34.7862 105.751C34.4666 105.758 34.2252 105.816 34.1471 105.908C34.0832 105.98 33.9483 106.236 34.0122 107.178C34.1258 108.911 34.4595 111.337 34.9282 112.585C35.1199 113.106 34.8572 113.691 34.3388 113.883C34.2252 113.926 34.1045 113.948 33.9838 113.948H33.9767Z" fill="black"/>
<path d="M31.25 114.083C31.1293 114.083 31.0015 114.062 30.8808 114.012C30.3624 113.805 30.1068 113.22 30.3127 112.699C30.7175 111.658 31.598 110.845 32.6631 110.517C33.1956 110.353 33.7566 110.652 33.9199 111.187C34.0832 111.722 33.785 112.286 33.2524 112.45C32.7767 112.592 32.3719 112.978 32.1873 113.441C32.0311 113.841 31.6548 114.083 31.25 114.083Z" fill="black"/>
<path d="M221.996 110.566C231.354 117.857 229.92 117.101 244.249 126.41C251.307 130.996 256.398 169.024 257.194 175.936C257.499 178.583 255.312 194.747 255.362 197.407C255.362 197.407 252.649 212.416 249.49 221.654C247.317 227.995 247.913 251.892 247.409 266.693C247.175 273.449 243.021 271.059 243.021 271.059L129.303 267.342C129.303 267.342 131.86 247.184 130.773 225.37C129.687 203.492 123.09 176.257 124.865 160.221C126.293 147.332 138.953 125.596 147.822 120.253C155.54 115.603 155.895 109.175 162.442 106.821C168.982 104.475 170.778 102.591 170.778 102.591L205.068 96.8206L222.017 110.559L221.996 110.566Z" fill="#A5A6A9"/>
<path d="M158.011 67.5383C158.011 67.5383 159.119 37.0078 166.937 28.4621C174.826 16.5994 182.828 20.5369 194.623 13.5035C215.669 2.8178 219.397 34.2186 219.312 58.7572C219.056 74.5647 216.5 78.1599 212.701 85.2218C211.323 88.4532 208.022 93.2183 206.04 95.9289C204.542 99.945 204.84 102.606 204.542 107.806C203.03 111.23 196.873 116.073 185.278 119.255C183.879 119.64 183.297 120.275 182.36 115.431C181.714 112.079 180.826 109.332 181.06 104.204C168.769 102.256 156.662 88.8741 158.019 67.5526L158.011 67.5383Z" fill="white"/>
<path d="M224.069 67.0033C223.771 66.1331 223.359 65.3912 222.869 64.8206C222.166 65.9048 221.484 67.039 220.831 68.2303C221.918 67.7737 224.524 68.3301 224.069 67.0033Z" fill="black"/>
<path d="M218.573 70.2775L219.944 67.7451C220.568 66.5895 221.25 65.4482 222.017 64.2641L222.748 63.1299L223.622 64.1571C224.204 64.8347 224.68 65.705 225.013 66.6751C225.241 67.3457 225.063 67.8307 224.871 68.1161C224.36 68.8865 223.352 68.9507 222.386 69.0077C221.967 69.0363 221.435 69.0719 221.215 69.1647L218.566 70.2775H218.573ZM222.869 66.7037C222.819 66.7893 222.77 66.8677 222.72 66.9533C222.805 66.9462 222.89 66.9391 222.968 66.9248C222.94 66.8463 222.905 66.775 222.869 66.6965V66.7037Z" fill="black"/>
<path d="M229.515 42.7285C227.023 41.9225 224.538 41.1093 222.102 40.1962C216.038 37.9421 209.96 35.745 203.775 33.8618C204.777 35.5738 205.977 38.5912 206.431 39.2546C209.641 43.9412 209.889 47.1654 212.886 52.009C213.439 52.9078 213.716 54.2988 213.567 55.3688C212.751 61.0469 211.622 71.8752 211.622 71.8752L215.477 70.8124C215.477 70.8124 216.848 65.8904 218.467 64.4209C220.015 63.0157 221.676 63.4009 222.869 64.8061C225.546 60.6831 228.55 57.1378 231.22 52.9363C230.197 50.4682 229.579 47.786 229.451 44.9898C229.416 44.2194 229.451 43.4633 229.515 42.7143V42.7285Z" fill="black"/>
<path d="M210.464 73.2449L210.62 71.7755C210.635 71.6685 211.756 60.8615 212.566 55.2262C212.687 54.3844 212.452 53.236 212.026 52.544C210.585 50.2043 209.761 48.2427 208.966 46.3452C208.078 44.2337 207.248 42.2293 205.6 39.8253C205.359 39.4687 205.046 38.7982 204.514 37.6426C204.003 36.5298 203.42 35.26 202.902 34.3755L201.61 32.1499L204.066 32.8989C210.372 34.8178 216.628 37.0862 222.45 39.2547C224.957 40.1891 227.57 41.0451 229.828 41.7727L230.587 42.0153L230.524 42.8142C230.453 43.6345 230.438 44.3122 230.467 44.9542C230.58 47.5793 231.156 50.1401 232.157 52.5512L232.363 53.0362L232.079 53.4785C230.673 55.6898 229.167 57.7371 227.705 59.713C226.37 61.5249 224.992 63.3938 223.721 65.3555L222.99 66.4897L222.116 65.4625C221.783 65.0701 221.25 64.5922 220.597 64.5494C220.121 64.5137 219.638 64.7277 219.155 65.17C218.133 66.0973 216.961 69.2859 216.464 71.0835L216.308 71.6328L210.478 73.2307L210.464 73.2449ZM205.756 35.5382C205.955 35.9591 206.154 36.3871 206.339 36.7937C206.694 37.5712 207.098 38.4486 207.255 38.6769C209.016 41.252 209.932 43.4419 210.819 45.5605C211.586 47.3867 212.374 49.277 213.73 51.4741C214.412 52.5726 214.739 54.199 214.547 55.5115C213.922 59.8628 213.106 67.3528 212.765 70.5057L214.661 69.985C215.094 68.5655 216.287 65.0273 217.778 63.672C218.673 62.866 219.681 62.4736 220.703 62.5378C221.392 62.5806 222.06 62.8303 222.67 63.2654C223.778 61.6176 224.942 60.0483 226.064 58.5146C227.406 56.6956 228.791 54.8196 230.076 52.8294C229.103 50.3398 228.557 47.7219 228.436 45.0398C228.415 44.5333 228.415 44.0126 228.443 43.4419C226.348 42.7643 224.005 41.9867 221.733 41.1379C216.642 39.2404 211.224 37.2716 205.742 35.5311L205.756 35.5382Z" fill="black"/>
<path d="M225.518 66.768C224.85 64.5852 222.812 63.4581 221.023 63.8576C219.241 64.2642 217.742 65.9262 216.755 67.895C215.768 69.8638 215.215 72.1393 214.668 74.3792C214.668 74.3792 211.387 81.2486 216.102 82.5611C221.641 84.1019 225.227 76.0555 225.227 76.0555C225.638 74.2365 226.057 68.5299 225.518 66.768Z" fill="white"/>
<path d="M218.076 83.9022C224.133 83.9022 226.071 76.9615 226.718 74.6717C227.2 72.9383 228.258 68.6226 227.57 65.9975C227.108 64.2356 226.15 62.916 224.8 62.1812C223.231 61.3324 221.215 61.2753 218.957 62.0314C218.325 62.2454 217.977 62.9302 218.19 63.5722C218.403 64.2071 219.084 64.5566 219.723 64.3426C221.307 63.8148 222.699 63.8076 223.65 64.3212C224.41 64.735 224.935 65.5054 225.226 66.6181C225.589 67.9949 225.255 70.8981 224.381 74.0154C222.94 79.1585 220.923 81.5125 217.97 81.4768C217.558 81.4697 216.322 81.2486 215.193 80.7635C214.575 80.4996 213.865 80.7849 213.603 81.3984C213.34 82.019 213.624 82.7323 214.235 82.9962C215.569 83.574 217.103 83.895 217.927 83.9093C217.977 83.9093 218.026 83.9093 218.076 83.9093V83.9022Z" fill="black"/>
<path d="M204.876 98.2686L172.163 99.5526L171.829 106.672L169.053 109.04C167.349 110.495 166.483 112.706 166.738 114.939L167.271 119.483C167.001 119.326 166.731 119.176 166.447 119.005L170.083 160.314C170.083 160.314 181.5 141.254 191.846 127.693C200.63 118.691 204.208 113.32 204.208 113.32L204.876 98.2686Z" fill="white"/>
<path d="M168.066 242.968C167.512 242.968 167.058 242.519 167.058 241.955C167.058 239.687 167.335 221.233 167.597 203.392C167.86 185.559 168.137 167.119 168.137 164.858C168.137 164.53 168.3 164.216 168.57 164.031C170.054 162.989 174.038 159.487 178.653 155.435C188.679 146.618 196.774 139.613 200.268 137.794L196.554 127.123C196.419 126.738 196.526 126.31 196.831 126.039C197.129 125.768 197.569 125.703 197.931 125.875L216.407 134.641L229.402 126.224L216.954 112.136C216.585 111.715 216.62 111.08 217.039 110.709C217.458 110.338 218.09 110.374 218.46 110.795L231.688 125.761C231.88 125.982 231.972 126.274 231.93 126.567C231.887 126.859 231.724 127.116 231.475 127.28L217.025 136.639C216.734 136.831 216.365 136.853 216.052 136.703L199.245 128.728L202.483 138.016C202.575 138.287 202.554 138.586 202.412 138.836C202.277 139.086 202.036 139.271 201.759 139.335C199.366 139.899 187.699 150.156 179.974 156.947C175.515 160.864 171.922 164.031 170.147 165.372C170.118 169.145 169.863 186.551 169.614 203.414C169.351 221.247 169.074 239.687 169.074 241.948C169.074 242.504 168.627 242.961 168.066 242.961V242.968Z" fill="black"/>
<path d="M165.055 104.988L140.636 116.801L148.639 129.306L163.067 130.226L156.187 137.338C158.253 140.847 164.878 157.204 166.795 162.319L165.055 104.995V104.988Z" fill="#A5A6A9"/>
<path d="M166.639 159.216C166.234 159.216 165.851 158.966 165.694 158.559C163.848 153.63 157.465 141.475 155.32 137.844C155.086 137.452 155.15 136.953 155.462 136.624L160.816 131.089L148.575 130.311C148.255 130.29 147.964 130.119 147.794 129.848L139.791 117.343C139.635 117.093 139.592 116.794 139.67 116.516C139.756 116.237 139.947 116.002 140.217 115.881L167.036 103.462C167.541 103.226 168.137 103.447 168.371 103.954C168.606 104.46 168.386 105.06 167.881 105.295L142.113 117.229L149.214 128.328L163.131 129.213C163.522 129.241 163.862 129.491 164.004 129.855C164.146 130.226 164.061 130.64 163.784 130.925L157.436 137.488C159.85 141.71 165.723 152.91 167.576 157.853C167.775 158.374 167.512 158.959 166.987 159.159C166.873 159.201 166.752 159.223 166.632 159.223L166.639 159.216Z" fill="black"/>
<path d="M168.478 266.358C167.938 266.358 167.491 265.923 167.47 265.381L166.873 246.214C166.859 245.657 167.292 245.186 167.846 245.172C168.393 245.158 168.868 245.593 168.883 246.149L169.479 265.317C169.493 265.873 169.06 266.344 168.506 266.358C168.492 266.358 168.485 266.358 168.471 266.358H168.478Z" fill="black"/>
<path d="M166.426 115.189C166.426 115.189 166.362 115.189 166.326 115.189C165.772 115.132 165.368 114.64 165.425 114.083C165.567 112.592 165.879 112.193 166.66 111.522C166.887 111.33 167.164 111.087 167.519 110.716L171.155 106.5V100.908C171.155 100.352 171.602 99.895 172.163 99.895C172.724 99.895 173.171 100.344 173.171 100.908V106.879C173.171 107.121 173.086 107.356 172.923 107.542L169.01 112.079C168.549 112.564 168.215 112.849 167.974 113.063C167.666 113.329 167.486 113.736 167.434 114.283C167.384 114.804 166.944 115.196 166.433 115.196L166.426 115.189Z" fill="black"/>
<path d="M231.305 187.521C231.993 186.879 232.682 186.237 233.364 185.588C237.34 181.8 241.224 177.919 245.243 174.181C250.278 169.495 255.589 165.129 261.142 161.07C262.122 160.357 263.116 159.687 264.117 159.045C261.525 151.462 253.246 134.791 249.333 130.397C244.569 125.047 239.925 119.911 233.939 116.958C231.922 115.966 229.693 114.761 227.442 113.527C229.672 116.908 235.146 124.583 235.338 128.878C235.437 131.189 230.957 129.805 230.247 131.909C230.382 132.773 230.481 133.657 230.516 134.549C230.637 137.238 230.14 139.827 229.174 142.224C229.267 142.909 229.331 143.608 229.359 144.307C229.757 153.202 223.451 161.07 215.449 164.131C218.161 169.88 223.679 180.138 228.912 189.261C229.7 188.669 230.495 188.091 231.305 187.528V187.521Z" fill="#A5A6A9"/>
<path d="M130.212 267.692C130.212 267.692 130.163 267.692 130.134 267.692C129.58 267.649 129.161 267.164 129.204 266.608C130.475 249.616 130.021 239.401 129.58 229.522C129.46 226.854 129.339 224.093 129.254 221.247C129.14 220.277 127.223 203.678 126.449 196.287C125.661 188.755 122.984 173.532 122.955 173.382C122.856 172.833 123.225 172.305 123.772 172.213C124.326 172.113 124.844 172.484 124.936 173.033C124.965 173.19 127.649 188.477 128.451 196.081C129.247 203.649 131.242 220.89 131.256 221.061C131.256 221.09 131.256 221.119 131.256 221.147C131.341 223.986 131.469 226.754 131.583 229.429C132.023 239.366 132.484 249.645 131.206 266.757C131.164 267.285 130.724 267.692 130.205 267.692H130.212Z" fill="black"/>
<path d="M180.173 103.369C180.173 103.369 180.144 103.369 180.13 103.369C172.767 103.077 166.227 99.0463 162.172 92.3267C158.629 86.4417 156.513 78.909 156.513 72.1609C156.513 66.7752 157.841 57.0454 158.473 52.373L158.65 51.0462C158.729 50.4898 159.233 50.1046 159.78 50.176C160.333 50.2473 160.717 50.7609 160.646 51.3102L160.468 52.6441C159.836 57.2736 158.523 66.9107 158.523 72.1609C158.523 78.5523 160.532 85.6999 163.891 91.2781C167.583 97.4057 173.534 101.079 180.208 101.343C180.762 101.365 181.195 101.835 181.174 102.392C181.153 102.934 180.705 103.362 180.173 103.362V103.369Z" fill="black"/>
<path d="M137.192 170.315C137.192 170.315 137.164 170.315 137.15 170.315C136.596 170.294 136.163 169.823 136.184 169.267L136.482 161.605C136.496 161.306 136.638 161.028 136.873 160.842C137.107 160.657 137.412 160.593 137.703 160.657L150.407 163.51L159.765 165.001C160.312 165.087 160.688 165.607 160.603 166.157C160.518 166.706 160 167.084 159.453 166.998L150.037 165.5L138.449 162.897L138.2 169.345C138.179 169.887 137.732 170.315 137.199 170.315H137.192Z" fill="black"/>
<path d="M147.95 176.778C147.737 176.778 147.524 176.707 147.353 176.578L140.281 171.335C139.834 171.007 139.741 170.372 140.068 169.923C140.395 169.474 141.027 169.381 141.474 169.709L148.17 174.674L160.348 171.749L160.958 167.947C161.043 167.398 161.562 167.02 162.109 167.112C162.655 167.198 163.032 167.719 162.939 168.268L162.222 172.741C162.158 173.14 161.86 173.468 161.462 173.561L148.177 176.757C148.099 176.778 148.021 176.785 147.943 176.785L147.95 176.778Z" fill="black"/>
<path d="M147.14 197.978C146.991 197.978 146.842 197.943 146.707 197.878L136.603 193.042C136.255 192.878 136.035 192.521 136.028 192.136L135.907 173.019C135.907 172.462 136.354 172.006 136.908 171.999C137.441 172.006 137.916 172.448 137.924 173.005L138.037 191.487L147.233 195.888L157.706 193.056L160.078 176.728C160.156 176.179 160.674 175.794 161.221 175.872C161.768 175.951 162.151 176.464 162.073 177.021L159.609 194.012C159.552 194.412 159.261 194.74 158.878 194.84L147.403 197.943C147.318 197.964 147.225 197.978 147.14 197.978Z" fill="black"/>
<path d="M146.657 197.094C146.657 197.094 146.622 197.094 146.601 197.094C146.047 197.065 145.621 196.587 145.656 196.024C145.919 191.401 145.997 186.708 145.891 182.071C145.876 181.515 146.317 181.051 146.87 181.037C147.446 181.044 147.886 181.465 147.9 182.021C148.007 186.708 147.928 191.458 147.666 196.131C147.637 196.666 147.19 197.087 146.665 197.087L146.657 197.094Z" fill="black"/>
<path d="M199.401 180.573C199.273 180.573 199.146 180.551 199.032 180.501L190.05 176.921C189.531 176.714 189.283 176.129 189.489 175.608C189.695 175.087 190.277 174.838 190.795 175.045L199.515 178.526L216.258 175.758L217.785 169.003L187.522 165.686L187.323 172.263C187.309 172.819 186.84 173.261 186.286 173.24C185.732 173.226 185.292 172.755 185.313 172.198L185.548 164.53C185.555 164.245 185.683 163.981 185.896 163.795C186.109 163.61 186.393 163.524 186.663 163.553L219.127 167.112C219.411 167.141 219.674 167.298 219.837 167.533C220 167.769 220.064 168.061 220 168.346L218.069 176.871C217.977 177.27 217.657 177.577 217.252 177.641L199.565 180.566C199.508 180.573 199.458 180.58 199.401 180.58V180.573Z" fill="black"/>
<path d="M197.314 204.962C197.108 204.962 196.902 204.898 196.731 204.776L185.512 196.751C185.235 196.552 185.079 196.231 185.093 195.888L185.846 175.737C185.867 175.18 186.336 174.745 186.89 174.766C187.444 174.788 187.877 175.259 187.856 175.815L187.117 195.417L197.491 202.836L214.519 197.714L215.889 179.967C215.932 179.41 216.422 178.989 216.968 179.039C217.522 179.082 217.934 179.567 217.891 180.123L216.471 198.563C216.436 198.977 216.152 199.334 215.754 199.455L197.591 204.919C197.498 204.947 197.399 204.962 197.299 204.962H197.314Z" fill="black"/>
<path d="M197.903 203.278C197.356 203.278 196.902 202.836 196.895 202.279C196.859 199.505 196.987 196.323 197.122 193.241C197.25 190.188 197.385 187.036 197.342 184.318C197.335 183.761 197.775 183.298 198.336 183.291C198.336 183.291 198.343 183.291 198.35 183.291C198.897 183.291 199.352 183.733 199.359 184.289C199.394 187.064 199.266 190.245 199.132 193.327C199.004 196.38 198.869 199.533 198.911 202.251C198.918 202.807 198.478 203.271 197.917 203.278C197.917 203.278 197.91 203.278 197.903 203.278Z" fill="black"/>
<path d="M169.515 132.045L176.196 126.053L183.127 134.891L175.891 138.344L178.966 145.705L170.885 158.395C170.431 159.116 169.323 158.809 169.294 157.96L168.691 141.254L172.163 138.9L169.522 132.052L169.515 132.045Z" fill="#F37429"/>
<path d="M177.375 124.648C177.006 124.648 176.651 124.448 176.473 124.091C176.225 123.592 176.424 122.986 176.921 122.736L179.42 121.473C187.671 117.3 194.8 113.705 202.696 107.863C203.143 107.535 203.775 107.628 204.102 108.077C204.429 108.526 204.336 109.161 203.889 109.489C195.858 115.432 188.658 119.062 180.322 123.278L177.822 124.541C177.673 124.612 177.524 124.648 177.368 124.648H177.375Z" fill="black"/>
<path d="M176.281 124.605C175.855 124.605 175.465 124.334 175.323 123.906C175.096 123.192 174.868 122.5 174.648 121.823C173.171 117.3 171.9 113.398 171.212 108.105C171.141 107.549 171.531 107.043 172.078 106.971C172.625 106.9 173.136 107.292 173.207 107.842C173.867 112.942 175.117 116.765 176.558 121.195C176.779 121.88 177.006 122.572 177.24 123.292C177.41 123.827 177.119 124.391 176.594 124.562C176.494 124.598 176.388 124.612 176.281 124.612V124.605Z" fill="black"/>
<path d="M178.284 147.788C177.801 147.788 177.375 147.439 177.29 146.946C176.679 143.38 175.401 138.287 175.387 138.237C175.266 137.752 175.515 137.245 175.976 137.052L182.232 134.456C180.776 132.558 177.709 128.564 176.097 126.552C175.749 126.117 175.813 125.482 176.246 125.133C176.679 124.783 177.311 124.855 177.659 125.283C179.825 127.979 184.582 134.206 184.625 134.27C184.816 134.52 184.88 134.841 184.795 135.148C184.717 135.455 184.497 135.697 184.206 135.818L177.538 138.586C177.936 140.205 178.788 143.808 179.264 146.604C179.356 147.153 178.987 147.674 178.44 147.774C178.383 147.781 178.326 147.788 178.27 147.788H178.284Z" fill="black"/>
<path d="M168.868 142.445C168.57 142.445 168.272 142.31 168.073 142.06C167.732 141.618 167.803 140.983 168.243 140.641C169.003 140.041 170.509 138.351 171.425 137.288L168.08 132.687C167.789 132.28 167.832 131.724 168.187 131.374C168.386 131.175 173.036 126.545 175.451 124.876C175.912 124.562 176.537 124.676 176.85 125.14C177.162 125.604 177.048 126.231 176.587 126.545C174.812 127.765 171.567 130.882 170.217 132.202L173.519 136.739C173.789 137.117 173.775 137.63 173.477 137.987C173.37 138.115 170.771 141.218 169.486 142.231C169.301 142.374 169.081 142.445 168.868 142.445Z" fill="black"/>
<path d="M169.728 160.307C169.635 160.307 169.543 160.293 169.458 160.271C169.046 160.157 168.755 159.793 168.726 159.373L165.673 117.072C165.631 116.516 166.049 116.031 166.603 115.988C167.157 115.945 167.64 116.366 167.683 116.922L170.53 156.412C171.304 155.314 172.177 154.065 173.122 152.71C181.792 140.334 196.298 119.626 203.669 112.007C204.059 111.608 204.691 111.601 205.089 111.986C205.487 112.378 205.494 113.013 205.11 113.413C197.846 120.917 183.396 141.546 174.762 153.873C173.072 156.291 171.631 158.345 170.537 159.879C170.345 160.15 170.04 160.3 169.721 160.3L169.728 160.307Z" fill="black"/>
<path d="M204.812 46.5091C211.266 49.8261 222.493 57.1092 226.015 60.2907C227.456 61.5961 228.599 62.6019 229.451 63.3366C230.076 63.8716 230.928 61.9028 230.886 61.0754C230.808 59.5203 231.39 54.5983 232.277 53.0361C235.359 47.6219 237.411 39.5042 234.543 27.7699C231.198 14.1096 219.702 7.74672 209.044 3.63793C199.38 -0.085659 188.26 0.449339 181.621 3.63793C172.823 7.86799 168.982 12.7044 166.873 18.354C164.764 24.0107 160.063 37.0432 160.063 37.0432C160.063 37.0432 169.394 35.9447 178.539 37.621C187.685 39.2974 196.902 42.436 204.812 46.4949V46.5091Z" fill="#FFD1B6"/>
<path d="M182.132 38.5983C175.777 36.2158 169.188 36.1017 162.684 38.0205C162.08 38.4485 161.91 39.6755 161.448 41.523C158.991 39.2332 157.493 37.3857 157.223 35.2813C157.024 33.7406 160.66 32.3567 164.139 32.3567C168.606 32.3567 169.884 32.3567 172.241 32.7205C175.792 33.2698 177.446 33.5979 182.132 38.6055V38.5983Z" fill="#DFDFDF"/>
<path d="M161.043 42.322C160.802 42.322 160.553 42.2364 160.362 42.0509C157.649 39.5257 156.527 37.721 156.222 35.4027C155.966 33.4624 158.395 32.2355 160.93 31.6862C162.314 27.8627 164.622 21.4998 165.929 18.0045C168.428 11.3063 173.136 6.59833 181.188 2.72495C186.556 0.149819 194.502 -0.634846 201.979 0.663418C204.656 -0.349513 208.227 -0.0499138 210.535 0.527885C214.235 1.46235 217.458 3.44541 220.583 5.3714C222.258 6.40574 222.067 7.54706 221.91 7.98933C221.641 8.73833 220.753 9.38746 220.277 9.65139C219.787 9.92246 219.177 9.74413 218.907 9.25193C218.637 8.75973 218.815 8.14626 219.304 7.8752C219.567 7.7254 219.802 7.5328 219.929 7.39013C219.858 7.31167 219.731 7.2118 219.532 7.09053C216.542 5.25014 213.446 3.34554 210.045 2.48955C207.794 1.91888 204.585 1.74768 202.476 2.63935C202.298 2.71781 202.1 2.73921 201.908 2.70355C194.736 1.40528 187.131 2.11148 182.054 4.55107C174.407 8.22473 170.146 12.4619 167.817 18.7107C166.454 22.3701 163.983 29.1753 162.634 32.9131C162.513 33.2555 162.215 33.4981 161.86 33.5623C159.41 33.9974 158.281 34.8677 158.217 35.1601C158.452 36.9363 159.403 38.4058 161.725 40.5672C162.13 40.9452 162.158 41.5872 161.782 41.9938C161.583 42.2078 161.313 42.3148 161.043 42.3148V42.322Z" fill="black"/>
<path d="M229.672 64.4354C229.359 64.4354 229.047 64.3212 228.791 64.1001C228.372 63.7363 228.322 63.0943 228.685 62.6735C228.891 62.4309 229.189 62.3168 229.487 62.3239C229.686 61.9958 229.899 61.3895 229.885 61.1327C229.799 59.5134 230.367 54.3774 231.411 52.5441C235.196 45.8888 235.927 37.6355 233.577 28.0198C231.93 21.3002 228.159 15.886 222.045 11.4705C221.591 11.1424 221.492 10.5147 221.818 10.0581C222.145 9.6016 222.77 9.50173 223.224 9.82986C229.75 14.5378 233.776 20.3301 235.537 27.5347C238.015 37.6712 237.22 46.4166 233.165 53.5428C232.427 54.8411 231.83 59.5491 231.908 61.0257C231.958 61.9744 231.291 63.8076 230.311 64.2927C230.105 64.3926 229.899 64.4425 229.693 64.4425L229.672 64.4354Z" fill="black"/>
<path d="M226.569 61.803C226.327 61.803 226.093 61.7174 225.901 61.5462L225.34 61.0397C221.925 57.951 210.748 50.6893 204.358 47.4079C197.477 43.877 186.052 40.3103 178.327 38.6197C175.465 37.992 172.483 37.8422 169.905 37.7566C167.604 37.8992 165.268 38.313 162.961 38.9906C162.428 39.1476 161.867 38.8408 161.711 38.3058C161.555 37.7708 161.86 37.2073 162.393 37.0504C164.864 36.3228 167.363 35.8805 169.827 35.7307C169.855 35.7307 169.891 35.7307 169.919 35.7307C172.596 35.8234 175.699 35.9732 178.745 36.6438C186.599 38.3629 198.23 41.9938 205.259 45.6104C211.891 49.0129 223.096 56.3032 226.675 59.5417L227.229 60.041C227.641 60.412 227.676 61.054 227.307 61.4677C227.108 61.6888 226.831 61.803 226.554 61.803H226.569Z" fill="black"/>
<path d="M186.031 103.347C185.534 103.347 185.037 103.305 184.54 103.226C183.993 103.133 183.624 102.613 183.709 102.063C183.801 101.514 184.319 101.143 184.866 101.229C187.188 101.614 189.673 100.815 191.342 99.1387C191.733 98.7464 192.372 98.7464 192.762 99.1387C193.153 99.5311 193.153 100.173 192.762 100.565C190.994 102.342 188.516 103.34 186.024 103.34L186.031 103.347Z" fill="black"/>
<path d="M188.537 30.2166C188.374 30.2166 188.211 30.181 188.062 30.0954C187.572 29.8314 187.387 29.218 187.657 28.7258C190.405 23.6112 194.019 18.8889 197.569 15.7788C200.928 12.8399 205.742 10.3432 210.457 9.0949C210.997 8.95223 211.544 9.27323 211.686 9.81536C211.828 10.3575 211.508 10.9068 210.968 11.0494C206.609 12.1979 201.979 14.5947 198.89 17.2982C195.51 20.2585 192.059 24.7739 189.425 29.6816C189.24 30.024 188.899 30.2095 188.537 30.2095V30.2166Z" fill="black"/>
<path d="M173.597 28.4407C173.47 28.4407 173.342 28.4193 173.214 28.3622C172.703 28.1482 172.454 27.5633 172.667 27.0425C175.046 21.2075 178.135 16.6208 183.332 11.2066C185.448 8.99524 191.008 5.63545 194.871 3.87352C195.382 3.64526 195.972 3.87352 196.206 4.37999C196.433 4.88646 196.206 5.48565 195.702 5.72105C191.626 7.57572 186.528 10.8 184.781 12.619C179.782 17.8334 176.807 22.2347 174.535 27.8129C174.371 28.2053 174.002 28.4407 173.604 28.4407H173.597Z" fill="black"/>
<path d="M227.854 53.4C227.641 53.4 227.421 53.3287 227.236 53.186C217.203 45.318 206.779 39.9823 192.386 35.3313C191.853 35.1601 191.569 34.5895 191.74 34.0616C191.91 33.5337 192.478 33.2413 193.004 33.4125C207.638 38.1419 218.247 43.5774 228.479 51.6024C228.919 51.9448 228.997 52.5797 228.656 53.022C228.457 53.2788 228.159 53.4143 227.861 53.4143L227.854 53.4Z" fill="black"/>
<path d="M175.855 217.395L283.992 243.638L269.975 313.987L161.846 287.751L175.855 217.395Z" fill="#E77A32"/>
<path d="M269.982 315C269.904 315 269.826 314.993 269.748 314.971L161.611 288.728C161.086 288.599 160.752 288.079 160.859 287.544L174.868 217.188C174.925 216.917 175.081 216.681 175.316 216.532C175.55 216.382 175.827 216.339 176.097 216.403L284.24 242.647C284.766 242.775 285.099 243.296 284.993 243.831L270.976 314.187C270.919 314.458 270.763 314.693 270.529 314.843C270.365 314.95 270.181 315 269.989 315H269.982ZM163.017 286.994L269.194 312.76L282.813 244.394L176.629 218.629L163.017 287.002V286.994Z" fill="black"/>
<path d="M169.216 282.715L180.634 225.377L276.621 248.667L265.196 306.012L169.216 282.715Z" fill="white"/>
<path d="M260.041 305.769C259.963 305.769 259.885 305.762 259.807 305.741L168.982 283.699C168.456 283.571 168.123 283.05 168.229 282.515L172.078 263.169C172.184 262.62 172.717 262.263 173.264 262.377C173.81 262.484 174.165 263.019 174.052 263.569L170.388 281.958L260.268 303.772C260.808 303.9 261.142 304.45 261.007 304.992C260.893 305.456 260.481 305.762 260.027 305.762L260.041 305.769Z" fill="black"/>
<path d="M265.196 307.018C265.132 307.018 265.061 307.018 264.997 306.996C264.451 306.889 264.096 306.354 264.209 305.805L275.443 249.416L181.415 226.597L179.235 237.546C179.129 238.096 178.596 238.452 178.05 238.338C177.503 238.231 177.148 237.696 177.261 237.147L179.647 225.17C179.704 224.899 179.86 224.664 180.095 224.514C180.329 224.364 180.606 224.321 180.876 224.385L276.856 247.676C277.381 247.804 277.715 248.325 277.608 248.86L266.183 306.204C266.091 306.682 265.665 307.018 265.196 307.018Z" fill="black"/>
<path d="M223.551 282.073C222.322 282.073 220.923 282.044 219.219 281.987C212.878 281.773 211.345 280.061 207.212 279.918C203.079 279.776 198.72 277.971 197.023 279.298C195.318 280.625 195.759 283.97 199.032 285.19C202.305 286.41 206.665 287.943 209.42 288.314C212.168 288.685 209.243 291.638 208.909 293.286C208.575 294.934 205.856 297.802 204.471 298.037C203.3 298.679 203.207 298.793 203.065 298.757C201.965 298.529 196.675 297.502 196.675 297.502C196.675 297.502 195.652 301.989 198.081 303.736C200.509 305.484 200.857 305.063 203.619 305.156C206.374 305.249 205.11 308.131 207.297 308.758C209.484 309.386 211.977 309.193 213.326 310.071C214.675 310.948 217.48 312.817 219.688 312.896C221.896 312.967 224.687 312.054 228.905 309.7C232.498 307.695 234.28 303.872 238.036 300.662C231.411 296.118 226.505 289.534 223.565 282.073H223.551Z" fill="white"/>
<path d="M248.41 292.402L225.056 275.289C221.818 275.588 223.039 278.948 221.449 282.044C225.716 287.572 231.404 296.118 238.029 300.662C238.682 300.106 239.392 299.563 240.188 299.05C245.549 295.626 248.417 292.394 248.417 292.394L248.41 292.402Z" fill="#A5A6A9"/>
<path d="M219.794 313.909C219.745 313.909 219.688 313.909 219.638 313.909C217.245 313.83 214.277 312.953 213.12 310.741C213.027 310.563 211.92 310.549 211.387 310.542C210.059 310.527 208.398 310.506 206.807 309.657C205.614 309.022 205.21 308.016 204.911 307.289C204.578 306.454 204.471 306.205 203.562 306.169C203.044 306.155 202.618 306.155 202.242 306.155C200.417 306.155 199.607 306.098 197.477 304.564C196.014 303.508 195.318 301.589 195.46 299.007C195.489 298.451 195.965 298.023 196.518 298.051C197.072 298.08 197.498 298.558 197.47 299.114C197.413 300.177 197.484 302.082 198.649 302.916C200.346 304.136 200.708 304.143 202.242 304.129C202.639 304.129 203.094 304.129 203.633 304.143C205.849 304.214 206.41 305.605 206.779 306.526C207.049 307.196 207.226 307.588 207.752 307.867C208.916 308.48 210.244 308.502 211.416 308.516C212.807 308.537 214.256 308.551 214.902 309.8C215.612 311.155 217.82 311.819 219.702 311.883C221.151 311.947 223.373 310.663 226.149 309.058C226.902 308.623 227.705 308.159 228.564 307.681C230.495 306.604 231.908 305.078 233.548 303.301C235.245 301.461 237.177 299.378 240.01 297.566L240.287 297.388C240.756 297.088 241.38 297.224 241.679 297.695C241.977 298.165 241.842 298.793 241.373 299.093L241.089 299.271C238.469 300.947 236.715 302.845 235.018 304.678C233.335 306.497 231.752 308.216 229.537 309.443C228.692 309.914 227.896 310.37 227.151 310.806C224.055 312.596 221.79 313.901 219.78 313.901L219.794 313.909Z" fill="black"/>
<path d="M204.45 297.873C204.123 297.873 203.804 297.716 203.612 297.416C203.307 296.953 203.434 296.325 203.896 296.018C204.201 295.811 204.578 295.59 204.975 295.348C205.82 294.834 207.787 293.636 207.922 293.086C208.057 292.43 208.426 291.745 208.824 291.025C209.08 290.568 209.527 289.741 209.577 289.377C209.52 289.356 209.427 289.334 209.285 289.313C206.367 288.921 201.837 287.308 198.684 286.131C196.71 285.397 195.368 283.877 195.091 282.065C194.871 280.639 195.361 279.305 196.405 278.492C197.605 277.55 200.843 278.021 208.483 279.405C212.474 280.125 216.599 280.874 219.255 280.967C219.809 280.988 220.249 281.452 220.228 282.008C220.206 282.565 219.752 283 219.191 282.986C216.386 282.893 212.19 282.13 208.128 281.395C204.088 280.66 198.556 279.654 197.598 280.111C197.186 280.439 196.98 281.06 197.079 281.752C197.243 282.829 198.102 283.749 199.38 284.227C201.148 284.883 206.516 286.888 209.548 287.294C210.457 287.415 211.075 287.793 211.387 288.414C211.941 289.513 211.252 290.768 210.585 291.981C210.294 292.509 209.96 293.115 209.889 293.464C209.626 294.77 208.114 295.776 206.012 297.06C205.636 297.288 205.288 297.502 205.004 297.687C204.833 297.802 204.642 297.859 204.45 297.859V297.873Z" fill="black"/>
<path d="M227.669 282.023C232.782 283.927 234.699 286.83 239.158 291.025C242.524 294.192 242.786 294.242 244.136 296.332C245.428 298.329 248.311 298.408 249.688 296.468C257.57 285.347 272.929 257.948 277.189 250.073C282.096 240.985 282.181 230.342 278.886 217.794C276.103 207.18 266.829 176.478 265.374 168.332C263.918 160.186 261.22 154.893 261.355 150.848C261.49 146.804 253.153 137.851 247.828 142.295C242.502 146.739 236.19 163.296 235.941 170.8C235.693 178.304 233.485 192.685 236.105 200.289C238.725 207.893 246.379 237.14 246.876 239.472C247.373 241.805 248.027 239.43 243.83 244.494C239.634 249.559 221.641 276.081 221.641 276.081L227.669 282.015V282.023Z" fill="#A5A6A9"/>
<path d="M252.472 293.357C252.28 293.357 252.088 293.3 251.918 293.193C251.456 292.887 251.321 292.259 251.627 291.795C259.899 279.126 272.602 256.428 276.295 249.587C280.832 241.184 281.35 231.162 277.906 218.051C277.175 215.255 275.883 209.891 274.25 203.1C269.734 184.311 262.903 155.92 260.254 150.499C260.013 149.999 260.219 149.393 260.716 149.143C261.213 148.901 261.816 149.1 262.065 149.607C264.813 155.221 271.665 183.747 276.209 202.622C277.843 209.405 279.128 214.763 279.859 217.53C283.438 231.169 282.87 241.662 278.07 250.55C274.363 257.406 261.617 280.175 253.317 292.901C253.125 293.193 252.806 293.357 252.472 293.357Z" fill="black"/>
<path d="M222.067 276.694C221.875 276.694 221.676 276.637 221.506 276.523C221.044 276.209 220.923 275.581 221.236 275.118C221.953 274.048 238.881 248.896 243.063 243.852C245.989 240.321 245.698 239.587 245.243 238.467C245.08 238.067 244.895 237.611 244.775 237.04C244.349 235.028 236.105 202.836 233.435 195.082C233.25 194.554 233.534 193.976 234.06 193.798C234.585 193.612 235.16 193.898 235.338 194.426C238.029 202.229 246.315 234.6 246.749 236.619C246.834 237.026 246.969 237.361 247.111 237.711C247.856 239.565 248.062 240.985 244.611 245.151C240.493 250.115 223.082 275.995 222.905 276.259C222.713 276.551 222.393 276.701 222.067 276.701V276.694Z" fill="black"/>
<path d="M236.715 300.84C236.566 300.84 236.41 300.805 236.275 300.74C232.412 298.85 230.545 296.51 228.18 293.55L227.896 293.193C225.809 290.59 224.147 287.501 223.778 286.809L220.455 283.399C220.171 283.114 220.093 282.679 220.242 282.308L221.676 278.791C221.889 278.278 222.478 278.028 222.99 278.242C223.501 278.456 223.749 279.048 223.536 279.562L222.351 282.458L225.319 285.497C225.39 285.568 225.447 285.654 225.496 285.739C225.51 285.775 227.279 289.192 229.466 291.924L229.75 292.28C231.944 295.027 233.556 297.045 236.715 298.693L242.786 295.64C243.042 295.512 243.34 295.498 243.61 295.605L244.086 295.797C245.428 296.339 245.669 296.439 247.388 296.132C247.608 296.09 248.488 295.654 249.61 294.777C250.05 294.435 250.682 294.513 251.023 294.955C251.364 295.398 251.286 296.033 250.846 296.375C250.512 296.632 248.815 297.93 247.743 298.123C245.563 298.515 244.902 298.315 243.333 297.673L243.283 297.652L237.163 300.726C237.021 300.798 236.864 300.833 236.715 300.833V300.84Z" fill="black"/>
<path d="M242.95 297.416C242.715 297.416 242.481 297.338 242.297 297.174C240.33 295.476 238.732 293.443 237.184 291.474C235.906 289.848 234.585 288.164 233.094 286.738L232.114 285.789C230.417 284.148 229.075 282.857 227.84 282.051C226.192 280.981 221.243 278.057 221.193 278.028C220.718 277.743 220.554 277.122 220.838 276.644C221.122 276.166 221.733 276.002 222.216 276.288C222.422 276.409 227.25 279.262 228.933 280.354C230.332 281.259 231.738 282.615 233.513 284.334L234.493 285.276C236.083 286.802 237.454 288.543 238.775 290.219C240.33 292.202 241.807 294.071 243.624 295.64C244.043 296.004 244.093 296.639 243.731 297.067C243.532 297.302 243.248 297.416 242.964 297.416H242.95Z" fill="black"/>
<path d="M258.209 146.49C257.84 146.49 257.485 146.283 257.307 145.926C253.828 138.893 250.491 133.201 248.588 131.061L247.338 129.655C243.354 125.154 240.727 122.18 235.459 119.583C234.819 119.269 233.002 118.256 231.397 117.365C230.374 116.801 229.458 116.287 229.025 116.052C228.983 116.031 228.947 116.009 228.912 115.981L213.951 105.274L206.907 99.5527C206.474 99.2031 206.41 98.5683 206.758 98.1332C207.106 97.698 207.745 97.6338 208.171 97.9834L215.165 103.669L230.019 114.297C230.481 114.547 231.376 115.039 232.37 115.596C233.875 116.43 235.75 117.472 236.346 117.764C241.97 120.539 244.853 123.799 248.843 128.307L250.086 129.712C252.131 132.009 255.504 137.73 259.111 145.028C259.359 145.527 259.153 146.133 258.656 146.383C258.514 146.454 258.358 146.49 258.209 146.49Z" fill="black"/>
<path d="M176.779 262.948C176.7 262.948 176.622 262.941 176.551 262.92L167.391 260.758C166.859 260.63 166.525 260.102 166.639 259.567L170.991 238.488C171.048 238.224 171.204 237.989 171.432 237.846C171.659 237.696 171.936 237.654 172.199 237.711L181.614 239.872C182.154 239.993 182.495 240.535 182.374 241.077L177.766 262.156C177.709 262.42 177.545 262.649 177.318 262.798C177.155 262.898 176.97 262.955 176.779 262.955V262.948ZM168.797 259.018L176.012 260.716L180.187 241.62L172.745 239.915L168.804 259.018H168.797Z" fill="black"/>
<path d="M15.6215 31.5864C15.1173 31.5864 14.6132 31.3724 14.2653 30.9515C11.3469 27.4705 9.34448 25.3162 7.406 23.2333C5.43911 21.1218 3.40122 18.9319 0.42603 15.3795C-0.20593 14.6234 -0.106521 13.5034 0.639051 12.8686C1.39172 12.2337 2.50653 12.3336 3.13849 13.0826C6.05687 16.5636 8.05926 18.7179 9.99775 20.8008C11.9646 22.9123 14.0025 25.1022 16.9777 28.6546C17.6097 29.4107 17.5103 30.5306 16.7647 31.1655C16.431 31.4437 16.0262 31.5864 15.6215 31.5864Z" fill="#E77A32"/>
<path d="M27.5435 25.3305C26.6986 25.3305 25.9459 24.717 25.7968 23.8539C25.0228 19.367 24.3695 16.4923 23.7376 13.7175C23.0985 10.8927 22.4381 7.97515 21.6429 3.39556C21.4725 2.42543 22.1186 1.50523 23.0843 1.33403C24.05 1.16283 24.9731 1.81197 25.1364 2.7821C25.9104 7.26895 26.5636 10.1437 27.1956 12.9185C27.8347 15.7433 28.495 18.6609 29.2903 23.2404C29.4607 24.2106 28.8146 25.1308 27.8489 25.302C27.7424 25.3234 27.6429 25.3305 27.5435 25.3305Z" fill="#E77A32"/>
<path d="M204.208 112.157C203.676 112.157 203.229 111.736 203.2 111.194C202.937 105.338 202.952 97.1416 206.033 93.5536C206.395 93.1327 207.035 93.0828 207.453 93.4466C207.872 93.8104 207.922 94.4524 207.56 94.8732C205.622 97.1274 204.833 102.584 205.21 111.102C205.238 111.658 204.805 112.129 204.251 112.157C204.237 112.157 204.223 112.157 204.208 112.157Z" fill="black"/>
<path d="M206.8 95.2226C206.566 95.2226 206.332 95.1441 206.14 94.9801C205.721 94.6163 205.671 93.9743 206.033 93.5534C208.838 90.2935 212.282 85.5998 213.659 82.4754C213.887 81.9618 214.476 81.7335 214.987 81.9618C215.499 82.19 215.726 82.7821 215.499 83.2957C213.83 87.0835 209.726 92.3621 207.56 94.8802C207.361 95.1085 207.077 95.2297 206.8 95.2297V95.2226Z" fill="black"/>
<path d="M182.473 34.0331C182.416 34.0331 182.353 34.0331 182.296 34.0188C176.85 33.0344 171.304 32.8917 165.822 33.5908C165.268 33.655 164.764 33.2698 164.7 32.7134C164.629 32.157 165.02 31.6505 165.574 31.5863C171.261 30.8587 177.013 31.0085 182.658 32.0286C183.205 32.1285 183.567 32.6563 183.467 33.2056C183.382 33.6978 182.956 34.0402 182.48 34.0402L182.473 34.0331Z" fill="black"/>
<path d="M170.501 71.5115C170.352 71.5115 170.203 71.483 170.061 71.4116C169.209 71.0122 168.748 70.7768 168.208 70.4915C167.903 70.3345 167.569 70.1562 167.107 69.9279C166.596 69.6711 166.383 69.0434 166.639 68.5298C168.258 65.1985 168.385 64.9132 169.593 62.174L170.09 61.0469C170.324 60.5191 170.942 60.2765 171.467 60.5119C171.993 60.7473 172.234 61.3679 172 61.8958L171.503 63.0229C170.402 65.5195 170.189 66.0046 168.968 68.5227C169.039 68.5583 169.11 68.594 169.174 68.6297C169.706 68.9079 170.125 69.129 170.935 69.4999C171.46 69.7425 171.687 70.3702 171.446 70.8909C171.268 71.2761 170.892 71.5044 170.494 71.5044L170.501 71.5115Z" fill="black"/>
<path d="M194.175 53.2789C193.941 53.2789 193.707 53.2004 193.508 53.0435C192.812 52.4942 192.045 52.0733 191.214 51.788C189.638 51.2459 188.196 51.3315 187.266 51.4955C186.684 51.6025 186.123 51.2102 186.017 50.6181C185.91 50.0332 186.301 49.4697 186.89 49.3627C188.587 49.0631 190.327 49.1915 191.917 49.7407C192.968 50.1045 193.955 50.6467 194.843 51.3457C195.311 51.7167 195.389 52.3943 195.02 52.8651C194.807 53.1362 194.495 53.2789 194.175 53.2789Z" fill="black"/>
<path d="M170.679 46.7804C170.367 46.7804 170.061 46.6449 169.848 46.3881C169.145 45.5249 167.959 44.4407 166.312 44.1625C166.035 44.1125 165.751 44.0911 165.46 44.0911C164.871 44.0911 164.388 43.6132 164.381 43.014C164.381 42.4148 164.856 41.9297 165.453 41.9226C165.879 41.9226 166.277 41.9511 166.681 42.0225C168.982 42.4148 170.58 43.8629 171.517 45.0113C171.893 45.475 171.829 46.1527 171.368 46.5307C171.169 46.6948 170.928 46.7733 170.686 46.7733L170.679 46.7804Z" fill="black"/>
<path d="M187.671 86.9266C187.493 86.9266 187.309 86.8695 187.153 86.7554C184.88 85.0505 183.261 82.5895 182.594 79.8218C182.48 79.3581 182.764 78.8873 183.226 78.7732C183.688 78.6591 184.156 78.9444 184.27 79.4081C184.838 81.7478 186.265 83.9234 188.189 85.3644C188.573 85.6497 188.651 86.1918 188.36 86.577C188.189 86.8053 187.934 86.9266 187.671 86.9266Z" fill="black"/>
<path d="M176.289 85.8494C175.927 85.8494 175.586 85.614 175.465 85.2502C175.316 84.7937 175.564 84.3015 176.019 84.1517C177.524 83.6523 178.362 82.7535 178.795 82.0759C175.422 81.334 173.406 80.6706 171.268 79.2653C170.871 79.0014 170.757 78.4664 171.02 78.0598C171.283 77.6603 171.815 77.5462 172.22 77.8101C174.364 79.2154 176.338 79.7861 180.237 80.6064C180.471 80.6563 180.677 80.799 180.798 81.0059C180.918 81.2127 180.954 81.4624 180.89 81.6907C180.854 81.8119 180.016 84.6653 176.558 85.8066C176.466 85.8351 176.381 85.8494 176.289 85.8494Z" fill="black"/>
<path d="M164.345 53.0576C164.146 54.6626 164.935 56.1392 166.106 56.3675C167.271 56.5958 168.378 55.4758 168.577 53.878C168.776 52.273 167.988 50.7964 166.816 50.5681C165.652 50.3398 164.544 51.4598 164.345 53.0576Z" fill="black"/>
<path d="M184.873 58.9925C184.675 60.5974 185.463 62.074 186.634 62.3023C187.799 62.5306 188.907 61.4106 189.105 59.8128C189.304 58.2149 188.516 56.7312 187.344 56.5029C186.18 56.2747 185.072 57.3946 184.873 58.9925Z" fill="black"/>
<path d="M195.638 99.6525C194.807 99.6525 194.41 99.0747 195.077 98.5754C205.543 90.8214 213.588 68.3872 212.303 50.561C212.246 49.7264 212.871 48.9988 213.702 48.9418C214.533 48.8776 216.202 50.3327 216.216 51.1745C216.549 69.6997 211.295 89.6159 200.118 97.8977C199.849 98.0974 196.689 99.6596 195.638 99.6596V99.6525Z" fill="#FFD1B6"/>
<path d="M212.438 54.9693C211.884 54.9693 211.437 54.5199 211.43 53.9635C211.423 52.8293 211.38 51.7094 211.302 50.6251C211.259 50.0687 211.678 49.5836 212.232 49.5408C212.779 49.498 213.269 49.9189 213.312 50.4753C213.39 51.6024 213.439 52.7651 213.446 53.9421C213.446 54.4985 213.006 54.955 212.445 54.9622H212.438V54.9693Z" fill="black"/>
<path d="M195.077 99.5883C194.772 99.5883 194.466 99.4456 194.267 99.1746C193.941 98.7252 194.033 98.0903 194.481 97.7622C203.96 90.7358 211.565 71.0907 211.43 53.9707C211.43 53.4143 211.87 52.9578 212.431 52.9507H212.438C212.992 52.9507 213.439 53.4001 213.446 53.9565C213.588 71.6471 205.614 92.027 195.68 99.3886C195.503 99.5241 195.29 99.5883 195.084 99.5883H195.077Z" fill="black"/>
<path d="M207.312 88.76C207.12 88.76 206.928 88.7029 206.751 88.5888C206.289 88.2749 206.161 87.6472 206.474 87.1835C210.13 81.6837 212.942 75.492 214.398 69.7426C214.533 69.2004 215.08 68.8723 215.619 69.0078C216.159 69.1434 216.486 69.6926 216.351 70.2348C214.845 76.2054 211.934 82.6253 208.149 88.3035C207.958 88.5959 207.638 88.7528 207.312 88.7528V88.76Z" fill="black"/>
<path d="M183.176 276.594C182.757 276.594 182.36 276.323 182.225 275.902C182.111 275.553 182.196 275.182 182.416 274.918C183.24 273.056 186.876 255.515 189.006 244.723C189.112 244.173 189.645 243.817 190.192 243.931C190.738 244.038 191.093 244.573 190.98 245.122C190.966 245.2 189.46 252.812 187.877 260.359C184.554 276.188 184.227 276.302 183.496 276.544C183.389 276.58 183.283 276.594 183.176 276.594Z" fill="black"/>
<path d="M190.809 242.376C190.731 242.376 190.646 242.369 190.568 242.347C190.028 242.212 189.702 241.663 189.837 241.12L190.653 237.832C190.788 237.29 191.335 236.962 191.875 237.097C192.414 237.233 192.741 237.782 192.606 238.324L191.789 241.613C191.676 242.069 191.264 242.376 190.817 242.376H190.809Z" fill="black"/>
<path d="M190.533 278.513C190.114 278.513 189.716 278.242 189.581 277.821C189.446 277.415 189.581 276.987 189.886 276.73C190.334 275.831 191.157 271.266 191.683 267.399C191.761 266.843 192.265 266.465 192.819 266.536C193.373 266.615 193.756 267.121 193.678 267.678C192.265 277.992 191.449 278.263 190.852 278.463C190.746 278.499 190.639 278.513 190.533 278.513Z" fill="black"/>
<path d="M193.501 264.988C193.423 264.988 193.352 264.981 193.273 264.96C192.734 264.832 192.393 264.289 192.521 263.747L198.002 239.765C198.13 239.223 198.67 238.881 199.21 239.009C199.749 239.137 200.09 239.679 199.962 240.222L194.481 264.204C194.374 264.675 193.962 264.988 193.501 264.988Z" fill="black"/>
<path d="M199.124 276.345C199.046 276.345 198.968 276.337 198.89 276.316C198.35 276.188 198.017 275.638 198.144 275.096C199.827 268.013 202.547 253.946 202.575 253.803C202.682 253.254 203.207 252.897 203.754 253.004C204.301 253.111 204.656 253.639 204.549 254.188C204.521 254.331 201.794 268.441 200.104 275.567C199.991 276.031 199.579 276.345 199.124 276.345Z" fill="black"/>
<path d="M204.379 251.449C204.301 251.449 204.23 251.442 204.152 251.421C203.612 251.292 203.271 250.75 203.399 250.208L205.359 241.684C205.487 241.142 206.026 240.799 206.566 240.928C207.105 241.056 207.446 241.598 207.319 242.14L205.359 250.665C205.252 251.135 204.84 251.449 204.379 251.449Z" fill="black"/>
<path d="M207.07 275.888C206.992 275.888 206.921 275.881 206.843 275.859C206.303 275.731 205.962 275.189 206.09 274.647C207.631 267.913 209.555 258.162 209.577 258.069C209.683 257.52 210.209 257.163 210.762 257.277C211.309 257.384 211.664 257.919 211.551 258.468C211.529 258.568 209.598 268.348 208.057 275.11C207.95 275.581 207.539 275.895 207.077 275.895L207.07 275.888Z" fill="black"/>
<path d="M210.897 256.321C210.819 256.321 210.741 256.314 210.656 256.293C210.116 256.157 209.783 255.615 209.917 255.073L212.715 243.588C212.85 243.046 213.39 242.711 213.929 242.847C214.469 242.982 214.803 243.524 214.668 244.066L211.87 255.551C211.756 256.015 211.345 256.321 210.89 256.321H210.897Z" fill="black"/>
<path d="M214.227 278.456C214.149 278.456 214.078 278.449 214 278.428C213.461 278.299 213.12 277.757 213.248 277.215C215.264 268.434 219.063 250.165 219.099 249.987C219.212 249.438 219.745 249.095 220.291 249.202C220.838 249.317 221.186 249.852 221.073 250.401C221.037 250.586 217.238 268.876 215.214 277.671C215.108 278.142 214.696 278.456 214.235 278.456H214.227Z" fill="black"/>
<path d="M220.703 248.468C220.632 248.468 220.568 248.468 220.497 248.446C219.951 248.332 219.603 247.797 219.716 247.248L220.071 245.536C220.185 244.986 220.718 244.637 221.264 244.751C221.811 244.865 222.159 245.4 222.045 245.949L221.69 247.661C221.591 248.139 221.172 248.468 220.703 248.468Z" fill="black"/>
<path d="M224.658 265.609C224.587 265.609 224.509 265.602 224.438 265.588C223.899 265.466 223.551 264.924 223.671 264.382L227.428 247.448C227.548 246.905 228.081 246.556 228.628 246.677C229.167 246.798 229.515 247.341 229.395 247.883L225.638 264.817C225.532 265.288 225.12 265.609 224.658 265.609Z" fill="black"/>
</g>
<defs>
<clipPath id="clip0_247_423">
<rect width="285" height="315" fill="white"/>
</clipPath>
</defs>
</svg>
