<svg width="293" height="189" viewBox="0 0 293 189" fill="none" xmlns="http://www.w3.org/2000/svg">
<path d="M18.486 16.74V13.412H16.51V16.74H18.486ZM18.486 22.798V19.496H16.51V22.798H18.486ZM7.566 19.496V22.798H9.438V19.496H7.566ZM13.936 19.496H12.012V22.798H13.936V19.496ZM12.012 16.74H13.936V13.412H12.012V16.74ZM7.566 13.412V16.74H9.438V13.412H7.566ZM4.836 16.74V14.868C4.316 15.362 3.822 15.83 3.302 16.22C2.73 15.674 1.482 14.686 0.78 14.192C2.964 12.762 5.018 10.396 6.162 7.978L9.178 8.862C8.892 9.486 8.554 10.084 8.164 10.682H23.764V13.412H21.32V16.74H24.7V19.496H21.32V22.798H24.336V25.554H1.742V22.798H4.836V19.496H1.352V16.74H4.836ZM4.03 32.288L1.092 31.092C2.236 30 3.406 27.998 4.004 26.1L6.994 26.828C6.422 28.804 5.304 30.936 4.03 32.288ZM8.658 27.01L11.518 26.672C11.83 28.258 12.142 30.312 12.168 31.534L9.152 31.976C9.152 30.728 8.944 28.596 8.658 27.01ZM13.806 27.062L16.718 26.568C17.342 28.102 17.992 30.13 18.226 31.404L15.132 32.002C14.976 30.754 14.378 28.648 13.806 27.062ZM18.954 26.932L21.918 25.996C23.088 27.582 24.544 29.766 25.194 31.196L22.022 32.262C21.476 30.884 20.098 28.596 18.954 26.932ZM45.994 12.528L44.408 14.842C43.602 13.828 41.808 12.424 40.378 11.462L41.86 9.382C43.316 10.24 45.162 11.566 45.994 12.528ZM39.182 17.988L40.638 15.778C42.146 16.584 44.07 17.832 45.006 18.768L43.446 21.238C42.588 20.276 40.69 18.898 39.182 17.988ZM36.842 9.408L39.442 9.98C38.766 12.06 38.012 14.53 37.362 16.038L35.412 15.492C35.932 13.854 36.556 11.228 36.842 9.408ZM31.798 15.492L29.484 16.116C29.432 14.504 28.912 11.982 28.314 10.11L30.472 9.538C31.148 11.41 31.668 13.88 31.798 15.492ZM38.896 24.046L36.998 26.438C36.608 25.606 35.88 24.254 35.126 23.058V32.184H32.266V23.006C31.434 25.424 30.394 27.842 29.276 29.402C29.016 28.466 28.34 27.062 27.872 26.204C29.172 24.618 30.498 21.836 31.304 19.47H28.34V16.584H32.266V8.082H35.126V16.584H38.974V19.47H35.126V19.652C35.88 20.406 38.35 23.318 38.896 24.046ZM52.65 24.644L49.53 25.216V32.236H46.618V25.736L39.364 27.036L38.896 24.15L46.618 22.772V7.952H49.53V22.252L52.182 21.758L52.65 24.644ZM64.402 8.784V11.124H56.758V8.784H64.402ZM70.538 8.082H73.372C75.036 10.838 77.61 13.568 80.158 14.842C79.586 15.596 78.936 16.74 78.52 17.65C76.05 16.09 73.45 13.334 72.046 10.994C70.746 13.334 68.276 16.168 65.572 17.858C65.26 17.078 64.558 15.908 64.038 15.258C64.324 15.102 64.61 14.92 64.87 14.712H55.458V12.268H65.234V14.452C67.47 12.762 69.498 10.214 70.538 8.082ZM74.334 18.586L77.038 19.756C74.906 22.46 71.656 24.696 68.432 26.178C67.99 25.528 67.184 24.618 66.456 24.046C69.394 22.902 72.67 20.848 74.334 18.586ZM71.994 14.894L74.672 15.96C73.06 18.092 70.668 19.964 68.354 21.212C67.886 20.64 67.054 19.834 66.378 19.34C68.406 18.326 70.772 16.584 71.994 14.894ZM64.48 15.882V18.248H56.68V15.882H64.48ZM56.68 21.758V19.444H64.48V21.758H56.68ZM61.88 25.476H59.202V28.466H61.88V25.476ZM64.506 23.032V30.884H59.202V31.898H56.602V23.032H64.506ZM76.388 22.72L79.17 23.916C76.518 27.972 72.124 30.676 67.106 32.314C66.716 31.508 65.936 30.416 65.182 29.662C69.862 28.466 74.152 26.1 76.388 22.72ZM89.7 14.27L87.698 14.946C87.672 13.724 87.282 11.878 86.814 10.474L88.686 9.876C89.232 11.228 89.622 13.074 89.7 14.27ZM107.12 16.506V19.366H104.832V32.236H101.894V19.366H99.372C99.346 23.24 98.8 28.726 95.446 32.314C95.056 31.638 93.938 30.598 93.236 30.208C93.366 30.052 93.522 29.896 93.652 29.74H86.268V31.56H83.59V8.862H86.268V22.954C87.568 21.784 88.842 19.886 89.648 18.066H86.762V15.466H89.908V8.238H92.43V14.296C92.898 13.048 93.392 11.15 93.626 9.85L96.044 10.422C95.394 11.982 94.718 13.802 94.146 14.946L92.43 14.374V15.466H95.55V18.066H92.43V18.43C93.158 19.028 95.238 20.952 95.732 21.446L94.068 23.5C93.73 22.954 93.08 22.07 92.43 21.238V26.568H89.908V22.096C89.154 23.474 88.296 24.748 87.36 25.606C87.152 24.878 86.658 23.89 86.268 23.214V27.062H95.134V27.244C96.278 24.566 96.408 21.576 96.408 19.054V10.032L98.228 10.526C100.568 9.954 102.986 9.122 104.494 8.29L106.99 10.552C104.78 11.54 101.972 12.32 99.372 12.892V16.506H107.12ZM133.302 20.848C133.302 26.334 129.948 30.208 123.396 31.222L121.446 28.128C122.434 28.024 123.162 27.868 123.864 27.712C127.192 26.932 129.792 24.54 129.792 20.744C129.792 17.156 127.842 14.478 124.332 13.88C123.968 16.09 123.526 18.482 122.772 20.926C121.212 26.178 118.976 29.402 116.142 29.402C113.256 29.402 110.864 26.23 110.864 21.836C110.864 15.83 116.064 10.708 122.798 10.708C129.246 10.708 133.302 15.18 133.302 20.848ZM114.192 21.498C114.192 24.124 115.232 25.398 116.246 25.398C117.338 25.398 118.352 23.76 119.418 20.25C120.016 18.326 120.51 16.116 120.796 13.958C116.506 14.842 114.192 18.638 114.192 21.498Z" fill="#3A3A3A"/>
<path d="M155.688 20.51V18.17H146.458V15.804H144.742V19.782L147.134 19.106L147.342 20.51H155.688ZM161.59 18.17H158.73V20.51H161.356V23.37H158.73V28.804C158.73 30.364 158.47 31.196 157.43 31.69C156.364 32.158 154.908 32.21 152.958 32.21C152.854 31.326 152.438 30 152.022 29.142C153.322 29.194 154.726 29.194 155.142 29.194C155.584 29.168 155.688 29.09 155.688 28.752V23.37H150.254C151.398 24.514 152.75 26.1 153.374 27.244L150.904 28.83C150.384 27.712 149.058 25.996 147.94 24.748L150.176 23.37H147.03V21.992C146.276 22.226 145.496 22.486 144.742 22.72V32.262H141.908V23.578C140.504 23.994 139.178 24.384 138.008 24.722L137.28 21.758C138.554 21.472 140.166 21.056 141.908 20.588V15.804H140.166C139.906 17.052 139.568 18.17 139.204 19.106C138.736 18.716 137.618 18.014 137.02 17.702C137.852 15.622 138.268 12.398 138.502 9.33L141.076 9.746C140.972 10.786 140.842 11.826 140.686 12.866H141.908V8.004H144.742V12.866H146.9V15.31H152.62V13.1H148.018V10.292H152.62V7.978H155.688V10.292H160.472V13.1H155.688V15.31H161.59V18.17ZM168.636 7.978L171.418 8.992C170.014 11.254 167.856 13.698 165.88 15.284C165.542 14.66 164.84 13.464 164.346 12.918C165.958 11.644 167.778 9.59 168.636 7.978ZM180.44 26.568L180.466 28.57C181.532 27.608 182.364 26.464 183.04 25.164C182.52 23.578 182.13 21.862 181.818 19.99C181.584 20.406 181.324 20.796 181.064 21.16C180.882 20.848 180.544 20.328 180.18 19.808V20.952H177.216V22.694H179.894V25.008H177.216V26.828C178.282 26.75 179.348 26.646 180.44 26.568ZM185.276 15.648H183.638C183.56 15.908 183.482 16.168 183.378 16.428C183.612 18.248 183.924 19.964 184.366 21.576C184.808 19.808 185.094 17.832 185.276 15.648ZM188.994 15.648H187.954C187.59 19.574 186.94 22.824 185.796 25.528C186.68 27.322 187.824 28.804 189.306 29.792C188.708 30.286 187.85 31.352 187.434 32.106C186.16 31.092 185.12 29.792 184.314 28.232C183.196 29.87 181.792 31.222 179.998 32.34C179.634 31.82 178.62 30.754 178.048 30.26C178.75 29.87 179.374 29.454 179.972 28.986C176.904 29.324 173.758 29.636 171.34 29.87L170.95 27.244L174.616 27.01V25.008H171.912V22.694H174.616V20.952H171.522V18.56H179.322C179.608 18.118 179.894 17.624 180.154 17.078H171.418V15.024C171.028 15.804 170.586 16.61 170.118 17.39V32.262H167.31V21.446C166.816 22.07 166.296 22.642 165.802 23.162C165.516 22.512 164.658 20.978 164.164 20.354C165.984 18.612 167.882 15.96 169.052 13.412L171.418 14.27V10.188H173.498V14.712H174.616V8.004H177.112V14.712H178.256V10.214H180.44V16.402C181.428 14.036 182.026 11.046 182.364 8.004L185.198 8.42C184.964 9.98 184.704 11.54 184.34 13.048H188.994V15.648Z" fill="#F37429"/>
<path d="M44.104 73.776V75.776H42.168V72H47.944V70.464H49.96V72H55.832V75.776H53.8V73.776H44.104ZM53.08 76.688H44.84V74.96H53.08V76.688ZM52.424 83.424H54.008C54.536 83.424 54.616 83.168 54.68 81.504C55.064 81.792 55.896 82.096 56.392 82.224C56.184 84.544 55.704 85.152 54.184 85.152H52.136C50.28 85.152 49.832 84.608 49.832 82.88V79.632H47.752C47.432 82.384 46.552 84.368 42.536 85.424C42.344 84.928 41.848 84.144 41.432 83.728C44.856 82.992 45.432 81.616 45.672 79.632H41.88V77.84H56.136V79.632H51.752V82.848C51.752 83.36 51.848 83.424 52.424 83.424ZM61.736 76.208H69.864C68.2 74.992 66.664 73.536 65.736 72.24C64.824 73.536 63.4 74.976 61.736 76.208ZM66.744 81.392V83.296H72.664V85.008H59.048V83.296H64.76V81.392H60.328V79.728H64.76V77.888H61.144V76.624C60.568 77.024 59.976 77.392 59.368 77.728C59.128 77.28 58.6 76.592 58.168 76.192C60.904 74.816 63.48 72.352 64.664 70.4H66.632C68.344 72.832 70.952 74.928 73.48 76C72.984 76.512 72.568 77.12 72.216 77.712C71.64 77.392 71.064 77.04 70.488 76.64V77.888H66.744V79.728H71.224V81.392H66.744ZM85.976 75.84V73.792H84.76V75.84H85.976ZM85.976 79.568V77.536H84.76V79.568H85.976ZM79.256 77.536V79.568H80.408V77.536H79.256ZM83.176 77.536H81.992V79.568H83.176V77.536ZM81.992 75.84H83.176V73.792H81.992V75.84ZM79.256 73.792V75.84H80.408V73.792H79.256ZM77.576 75.84V74.688C77.256 74.992 76.952 75.28 76.632 75.52C76.28 75.184 75.512 74.576 75.08 74.272C76.424 73.392 77.688 71.936 78.392 70.448L80.248 70.992C80.072 71.376 79.864 71.744 79.624 72.112H89.224V73.792H87.72V75.84H89.8V77.536H87.72V79.568H89.576V81.264H75.672V79.568H77.576V77.536H75.432V75.84H77.576ZM77.08 85.408L75.272 84.672C75.976 84 76.696 82.768 77.064 81.6L78.904 82.048C78.552 83.264 77.864 84.576 77.08 85.408ZM79.928 82.16L81.688 81.952C81.88 82.928 82.072 84.192 82.088 84.944L80.232 85.216C80.232 84.448 80.104 83.136 79.928 82.16ZM83.096 82.192L84.888 81.888C85.272 82.832 85.672 84.08 85.816 84.864L83.912 85.232C83.816 84.464 83.448 83.168 83.096 82.192ZM86.264 82.112L88.088 81.536C88.808 82.512 89.704 83.856 90.104 84.736L88.152 85.392C87.816 84.544 86.968 83.136 86.264 82.112ZM102.904 73.248L101.928 74.672C101.432 74.048 100.328 73.184 99.448 72.592L100.36 71.312C101.256 71.84 102.392 72.656 102.904 73.248ZM98.712 76.608L99.608 75.248C100.536 75.744 101.72 76.512 102.296 77.088L101.336 78.608C100.808 78.016 99.64 77.168 98.712 76.608ZM97.272 71.328L98.872 71.68C98.456 72.96 97.992 74.48 97.592 75.408L96.392 75.072C96.712 74.064 97.096 72.448 97.272 71.328ZM94.168 75.072L92.744 75.456C92.712 74.464 92.392 72.912 92.024 71.76L93.352 71.408C93.768 72.56 94.088 74.08 94.168 75.072ZM98.536 80.336L97.368 81.808C97.128 81.296 96.68 80.464 96.216 79.728V85.344H94.456V79.696C93.944 81.184 93.304 82.672 92.616 83.632C92.456 83.056 92.04 82.192 91.752 81.664C92.552 80.688 93.368 78.976 93.864 77.52H92.04V75.744H94.456V70.512H96.216V75.744H98.584V77.52H96.216V77.632C96.68 78.096 98.2 79.888 98.536 80.336ZM107 80.704L105.08 81.056V85.376H103.288V81.376L98.824 82.176L98.536 80.4L103.288 79.552V70.432H105.08V79.232L106.712 78.928L107 80.704Z" fill="#3A3A3A"/>
<path d="M50.968 124.608H47.144C47.368 125.024 47.576 125.504 47.688 125.84L47.416 125.888H50.408C50.6 125.504 50.792 125.04 50.968 124.608ZM56.136 131.744H51.496C52.856 132.576 54.712 133.2 56.568 133.488C56.136 133.904 55.576 134.704 55.288 135.216C53.32 134.72 51.384 133.76 49.912 132.512V135.392H48.04V132.608C46.552 133.776 44.584 134.704 42.68 135.2C42.408 134.736 41.864 134 41.464 133.616C43.256 133.248 45.144 132.576 46.52 131.744H41.928V130.176H48.04V129.472H43.432V128.096H48.04V127.376H42.632V125.888H45.672C45.544 125.488 45.336 125.008 45.128 124.64L45.32 124.608H41.976V123.056H44.12C43.896 122.448 43.48 121.68 43.128 121.072L44.76 120.512C45.224 121.2 45.752 122.144 45.976 122.768L45.192 123.056H46.648V120.448H48.424V123.056H49.608V120.448H51.4V123.056H52.824L52.248 122.88C52.632 122.224 53.032 121.264 53.256 120.56L55.256 121.04C54.808 121.776 54.376 122.496 54.008 123.056H56.088V124.608H53.08C52.824 125.072 52.568 125.504 52.328 125.888H55.464V127.376H49.912V128.096H54.712V129.472H49.912V130.176H56.136V131.744ZM62.04 125.104V126.256H64.84V125.104H62.04ZM62.04 122.528V123.68H64.84V122.528H62.04ZM69.56 123.68V122.528H66.76V123.68H69.56ZM69.56 126.256V125.104H66.76V126.256H69.56ZM71.544 127.792H68.936C70.088 128.752 71.672 129.536 73.32 129.952C72.92 130.336 72.344 131.072 72.056 131.584C71.096 131.264 70.184 130.832 69.352 130.288V135.344H67.368V129.712H68.568C67.848 129.136 67.208 128.512 66.696 127.792H65.048C64.52 128.496 63.848 129.12 63.128 129.696H64.488V130.8C64.488 132.32 64.024 134.336 60.84 135.504C60.584 135.04 59.944 134.32 59.528 133.952C62.2 133.088 62.52 131.744 62.52 130.72V130.144C61.608 130.768 60.632 131.264 59.608 131.632C59.336 131.168 58.776 130.464 58.36 130.064C59.96 129.6 61.544 128.768 62.68 127.792H60.136V120.992H71.544V127.792ZM80.232 129.472V127.536C79.784 128.224 79.288 128.848 78.776 129.28C78.584 129.008 78.264 128.624 77.96 128.336C77.848 130.72 77.496 133.44 76.568 135.36C76.2 135.072 75.416 134.656 74.952 134.48C76.152 132.016 76.248 128.448 76.248 125.936V121.024H89.784V122.736H78.024V125.936C78.024 126.56 78.008 127.248 77.992 127.968C78.712 127.408 79.432 126.544 79.928 125.664H78.504V124.224H80.232V122.976H81.816V124.224H83.448V125.664H81.816V125.84C82.216 126.08 83.24 126.768 83.48 126.96L82.584 128.128C82.408 127.936 82.12 127.632 81.816 127.344V129.472H80.232ZM84.824 132.208V133.408H89.864V135.104H77.624V133.408H79.4V130.384H81.176V133.408H82.968V129.2H84.824V130.576H88.52V132.208H84.824ZM89.528 125.664H87.656C88.264 126.576 89.176 127.44 90.136 127.888C89.784 128.192 89.304 128.736 89.064 129.152C88.392 128.72 87.752 128.08 87.224 127.328V129.472H85.624V127.312C85.16 128.032 84.632 128.672 84.088 129.104C83.848 128.752 83.384 128.24 83.064 127.952C83.848 127.456 84.664 126.576 85.224 125.664H83.832V124.224H85.624V122.976H87.224V124.224H89.528V125.664ZM106.232 128.368C106.232 131.744 104.168 134.128 100.136 134.752L98.936 132.848C99.544 132.784 99.992 132.688 100.424 132.592C102.472 132.112 104.072 130.64 104.072 128.304C104.072 126.096 102.872 124.448 100.712 124.08C100.488 125.44 100.216 126.912 99.752 128.416C98.792 131.648 97.416 133.632 95.672 133.632C93.896 133.632 92.424 131.68 92.424 128.976C92.424 125.28 95.624 122.128 99.768 122.128C103.736 122.128 106.232 124.88 106.232 128.368ZM94.472 128.768C94.472 130.384 95.112 131.168 95.736 131.168C96.408 131.168 97.032 130.16 97.688 128C98.056 126.816 98.36 125.456 98.536 124.128C95.896 124.672 94.472 127.008 94.472 128.768ZM121.144 129.648H117.432C117.784 130.272 118.2 130.816 118.696 131.312C119.544 130.816 120.456 130.192 121.144 129.648ZM121.704 129.648L122.936 130.512C122.024 131.168 120.952 131.808 119.992 132.32C121.016 132.96 122.248 133.424 123.72 133.696C123.32 134.112 122.776 134.896 122.52 135.408C118.904 134.576 116.776 132.672 115.448 129.648H113.608V133.04C114.728 132.88 115.912 132.704 117.064 132.528L117.144 134.208C114.696 134.608 112.056 135.008 110.12 135.296L109.688 133.552C110.264 133.488 110.92 133.392 111.64 133.312V129.648H109V127.968H111.656V120.992H121.752V122.544H113.608V123.392H121.304V124.864H113.608V125.664H121.304V127.136H113.608V127.968H123.416V129.648H121.704ZM129.16 122.56C129.048 123.136 128.968 124.064 128.968 124.512C128.952 125.552 128.968 126.752 129.064 127.904C129.288 130.208 129.768 131.792 130.776 131.792C131.528 131.792 132.168 129.92 132.472 128.64L134.072 130.592C133.016 133.376 132.008 134.352 130.728 134.352C128.968 134.352 127.448 132.768 127 128.48C126.84 127.008 126.824 125.136 126.824 124.16C126.824 123.712 126.792 123.024 126.696 122.528L129.16 122.56ZM137.16 122.928C138.68 124.768 139.896 128.768 140.072 131.216L137.976 132.032C137.72 129.456 136.872 125.568 135.128 123.584L137.16 122.928ZM155.144 123.152C155.016 123.328 154.728 123.824 154.584 124.144C154.04 125.392 153.144 127.104 152.072 128.544C153.656 129.92 155.592 131.968 156.536 133.12L154.712 134.704C153.672 133.264 152.184 131.632 150.68 130.176C148.984 131.968 146.856 133.632 144.664 134.672L143.016 132.944C145.592 131.984 148.072 130.032 149.576 128.352C150.632 127.152 151.608 125.568 151.96 124.432H146.536C145.864 124.432 144.984 124.528 144.648 124.544V122.272C145.08 122.336 146.056 122.384 146.536 122.384H152.184C152.872 122.384 153.512 122.288 153.832 122.176L155.144 123.152ZM167.704 121.328C167.304 121.888 166.904 122.608 166.712 122.96H169.96C170.456 122.96 171 122.896 171.352 122.784L172.984 123.792C172.808 124.096 172.6 124.528 172.456 124.928C172.024 126.224 171.224 127.936 170.088 129.536C170.776 130.032 171.4 130.496 171.864 130.88L170.344 132.688C169.912 132.288 169.32 131.792 168.664 131.264C167.256 132.752 165.432 134.112 162.936 135.056L161.08 133.44C163.848 132.592 165.624 131.296 166.952 129.968C165.912 129.2 164.856 128.48 164.04 127.968L165.464 126.512C166.312 126.992 167.32 127.648 168.328 128.32C169.16 127.168 169.848 125.776 170.088 124.784H165.512C164.392 126.272 162.904 127.808 161.288 128.928L159.56 127.6C162.36 125.856 163.848 123.664 164.648 122.272C164.904 121.888 165.24 121.152 165.384 120.608L167.704 121.328ZM183.48 124.496C183.784 125.184 184.568 127.264 184.792 128L182.872 128.672C182.68 127.888 181.976 125.952 181.576 125.12L183.48 124.496ZM189.384 125.664C189.192 126.176 189.096 126.512 189 126.832C188.584 128.448 187.912 130.112 186.824 131.52C185.336 133.44 183.336 134.784 181.464 135.488L179.784 133.776C181.544 133.312 183.768 132.096 185.096 130.432C186.184 129.072 186.952 126.944 187.144 124.944L189.384 125.664ZM179.768 125.344C180.168 126.16 180.936 128.096 181.256 128.992L179.304 129.728C179.032 128.864 178.232 126.736 177.848 126.032L179.768 125.344ZM206.424 123.344C206.28 123.664 206.152 124.128 206.072 124.464C205.704 126.032 205 128.512 203.672 130.288C202.216 132.208 200.088 133.792 197.24 134.704L195.496 132.8C198.664 132.048 200.472 130.656 201.768 129.04C202.824 127.712 203.432 125.888 203.64 124.528H196.184C195.464 124.528 194.696 124.56 194.28 124.592V122.336C194.76 122.384 195.672 122.464 196.2 122.464H203.592C203.912 122.464 204.424 122.448 204.856 122.336L206.424 123.344ZM216.28 121.472C216.184 121.888 216.072 122.4 215.992 122.8C215.896 123.28 215.768 123.872 215.656 124.448C216.2 124.416 216.664 124.384 217 124.384C218.696 124.384 219.896 125.136 219.896 127.44C219.896 129.328 219.672 131.92 218.984 133.312C218.456 134.432 217.576 134.784 216.36 134.784C215.752 134.784 214.984 134.672 214.44 134.56L214.104 132.448C214.712 132.624 215.64 132.784 216.056 132.784C216.6 132.784 217 132.624 217.256 132.096C217.688 131.184 217.912 129.248 217.912 127.664C217.912 126.384 217.352 126.208 216.36 126.208C216.104 126.208 215.704 126.24 215.24 126.272C214.632 128.704 213.448 132.496 211.976 134.848L209.896 134.016C211.448 131.92 212.552 128.688 213.144 126.496C212.568 126.56 212.056 126.624 211.768 126.656C211.304 126.736 210.472 126.848 209.976 126.928L209.784 124.752C210.376 124.8 210.904 124.768 211.496 124.752C211.992 124.736 212.744 124.688 213.56 124.608C213.784 123.408 213.928 122.24 213.896 121.232L216.28 121.472ZM223.4 120.144C223.816 120.752 224.408 121.76 224.68 122.32L223.416 122.864C223.08 122.208 222.568 121.264 222.12 120.656L223.4 120.144ZM221.496 120.864C221.896 121.456 222.472 122.464 222.776 123.056L221.992 123.392C222.952 124.88 224.152 127.552 224.6 128.976L222.568 129.904C222.152 128.128 221.016 125.312 219.88 123.904L221.32 123.28C221 122.672 220.6 121.904 220.232 121.392L221.496 120.864ZM240.728 121.36V123.168H232.952V121.36H240.728ZM229.88 120.448L231.72 121.2C230.568 122.704 228.84 124.352 227.32 125.408C227.08 124.992 226.6 124.224 226.264 123.856C227.592 123.008 229.112 121.568 229.88 120.448ZM230.488 123.904L232.312 124.608C231.832 125.424 231.24 126.256 230.6 127.056V135.408H228.696V129.152C228.248 129.584 227.816 129.984 227.384 130.336C227.112 129.952 226.472 129.088 226.088 128.688C227.72 127.568 229.464 125.712 230.488 123.904ZM241.128 125.76V127.568H238.936V133.184C238.936 134.208 238.744 134.736 238.04 135.024C237.368 135.312 236.344 135.344 234.92 135.344C234.84 134.784 234.6 133.968 234.344 133.408C235.256 133.456 236.312 133.456 236.6 133.44C236.888 133.44 237 133.376 237 133.136V127.568H232.28V125.76H241.128ZM246.76 122.56C246.648 123.136 246.568 124.064 246.568 124.512C246.552 125.552 246.568 126.752 246.664 127.904C246.888 130.208 247.368 131.792 248.376 131.792C249.128 131.792 249.768 129.92 250.072 128.64L251.672 130.592C250.616 133.376 249.608 134.352 248.328 134.352C246.568 134.352 245.048 132.768 244.6 128.48C244.44 127.008 244.424 125.136 244.424 124.16C244.424 123.712 244.392 123.024 244.296 122.528L246.76 122.56ZM254.76 122.928C256.28 124.768 257.496 128.768 257.672 131.216L255.576 132.032C255.32 129.456 254.472 125.568 252.728 123.584L254.76 122.928ZM263.944 132.192C263.944 132.8 264.52 133.168 265.624 133.168C266.472 133.168 267.032 132.928 267.032 132C267.032 131.824 267.032 131.6 267.016 131.312C266.584 131.248 266.152 131.2 265.704 131.2C264.568 131.2 263.944 131.648 263.944 132.192ZM268.952 121.056C268.904 121.376 268.872 121.776 268.856 122.192C268.84 122.352 268.84 122.592 268.84 122.848C270.152 122.784 271.48 122.656 272.888 122.416L272.872 124.256C271.816 124.384 270.36 124.528 268.808 124.608C268.808 125.168 268.808 125.76 268.808 126.256C270.424 126.176 271.784 126.048 273.08 125.872L273.064 127.76C271.624 127.92 270.376 128.032 268.84 128.08C268.872 128.688 268.904 129.344 268.952 129.984C270.968 130.56 272.504 131.632 273.432 132.4L272.28 134.192C271.416 133.392 270.328 132.544 269.048 131.968C269.064 132.192 269.064 132.384 269.064 132.56C269.064 133.92 268.024 134.976 265.912 134.976C263.352 134.976 262.008 134 262.008 132.304C262.008 130.688 263.496 129.552 265.96 129.552C266.296 129.552 266.632 129.568 266.952 129.6C266.92 129.104 266.904 128.592 266.888 128.112C266.616 128.112 266.344 128.112 266.056 128.112C265.128 128.112 263.304 128.032 262.248 127.904L262.232 126.016C263.272 126.208 265.24 126.32 266.088 126.32C266.344 126.32 266.6 126.32 266.856 126.32C266.856 125.792 266.856 125.216 266.872 124.672C266.664 124.672 266.472 124.672 266.28 124.672C265.272 124.672 263.416 124.528 262.36 124.384L262.312 122.56C263.464 122.752 265.288 122.912 266.264 122.912C266.472 122.912 266.68 122.912 266.888 122.912C266.888 122.608 266.888 122.352 266.888 122.16C266.888 121.856 266.856 121.36 266.792 121.056H268.952ZM286.648 121.104C286.616 121.36 286.552 122.224 286.536 122.48C286.536 122.608 286.536 122.784 286.52 122.976C288.136 122.976 290.328 122.944 291.16 122.96L291.144 124.848C290.184 124.8 288.696 124.768 286.52 124.768C286.52 125.584 286.536 126.464 286.536 127.168C286.92 127.776 287.112 128.528 287.112 129.36C287.112 131.44 285.896 134.096 281.992 135.184L280.28 133.488C281.896 133.152 283.304 132.624 284.184 131.664C283.96 131.712 283.72 131.744 283.464 131.744C282.232 131.744 280.712 130.752 280.712 128.8C280.712 126.992 282.168 125.808 283.912 125.808C284.136 125.808 284.344 125.824 284.552 125.856C284.552 125.504 284.552 125.136 284.536 124.784C282.12 124.816 279.624 124.912 277.656 125.024L277.608 123.088C279.432 123.088 282.344 123.024 284.52 122.992C284.504 122.784 284.504 122.624 284.488 122.496C284.44 121.84 284.376 121.296 284.328 121.104H286.648ZM282.632 128.768C282.632 129.504 283.224 129.968 283.864 129.968C284.536 129.968 285.128 129.456 284.904 128.048C284.68 127.68 284.296 127.488 283.864 127.488C283.24 127.488 282.632 127.92 282.632 128.768Z" fill="#3A3A3A"/>
<path d="M42.136 179.808L43.704 180.08C43.544 181.584 43.208 183.184 42.744 184.208C42.408 184 41.704 183.664 41.288 183.52C41.752 182.576 42.008 181.152 42.136 179.808ZM45.608 180.096L46.952 179.68C47.352 180.592 47.768 181.76 47.944 182.56L46.536 183.072C46.392 182.272 45.976 181.04 45.608 180.096ZM45.272 176.144L46.536 175.616C47.144 176.704 47.768 178.096 47.944 179.008L46.6 179.616C46.552 179.376 46.488 179.104 46.392 178.8L45.576 178.864V185.408H43.928V178.976L41.608 179.12L41.448 177.472L42.6 177.424C42.84 177.12 43.096 176.768 43.352 176.4C42.888 175.712 42.12 174.864 41.464 174.224L42.376 172.928C42.488 173.024 42.616 173.136 42.744 173.248C43.192 172.368 43.64 171.312 43.912 170.464L45.56 171.072C44.984 172.16 44.344 173.392 43.768 174.288C43.976 174.512 44.152 174.736 44.312 174.928C44.856 174.032 45.368 173.12 45.736 172.336L47.288 173.056C46.408 174.448 45.304 176.064 44.296 177.36L45.832 177.296C45.656 176.896 45.464 176.496 45.272 176.144ZM52.296 173.472H50.488C50.248 173.936 49.992 174.384 49.72 174.8H51.656C51.88 174.4 52.104 173.936 52.296 173.472ZM54.248 178.624V176.464H52.92V178.624H54.248ZM50.04 176.464V178.624H51.32V176.464H50.04ZM51.096 183.648H53.896C54.68 183.648 54.824 183.296 54.936 181.52C55.336 181.776 56.072 182.096 56.552 182.192C56.328 184.576 55.832 185.296 54.04 185.296H50.92C48.904 185.296 48.28 184.768 48.28 182.752V176.768L48.248 176.8C47.928 176.464 47.16 175.856 46.712 175.584C47.992 174.352 49.128 172.368 49.8 170.432L51.624 170.896C51.512 171.216 51.384 171.52 51.256 171.84H53.144L53.48 171.728L54.648 172.496C54.344 173.232 53.944 174.048 53.528 174.8H56.008V180.784H54.248V180.272H50.04V182.752C50.04 183.52 50.2 183.648 51.096 183.648ZM63.112 174.992L64.968 175.232C64.664 176.96 64.232 178.512 63.656 179.888C64.36 180.816 64.936 181.712 65.304 182.48L63.784 183.776C63.528 183.2 63.16 182.528 62.696 181.808C61.848 183.216 60.76 184.368 59.416 185.264C59.192 184.88 58.536 184.128 58.136 183.776C59.624 182.912 60.728 181.68 61.544 180.144C60.696 179.008 59.752 177.872 58.872 176.896L60.232 175.824C60.92 176.56 61.64 177.376 62.344 178.224C62.68 177.232 62.936 176.16 63.112 174.992ZM65.464 177.824L66.984 177.088C67.736 178.144 68.504 179.52 68.76 180.464L67.112 181.312C66.872 180.368 66.184 178.912 65.464 177.824ZM73.224 174V175.824H71.512V183.024C71.512 184.096 71.32 184.656 70.712 184.96C70.104 185.296 69.16 185.376 67.832 185.376C67.768 184.816 67.496 183.904 67.224 183.328C68.12 183.376 68.984 183.36 69.256 183.36C69.544 183.36 69.64 183.28 69.64 183.024V175.824H65.624V174.672H58.584V172.912H61.368V170.464H63.192V172.912H66.152V174H69.64V170.448H71.512V174H73.224ZM81.768 172.816C83.736 173.088 86.92 173.008 88.648 172.8V174.864C86.68 175.04 83.784 175.056 81.768 174.864V172.816ZM83.048 179.648C82.92 180.176 82.856 180.56 82.856 180.992C82.856 181.696 83.464 182.128 85.096 182.128C86.52 182.128 87.704 182 89.112 181.712L89.144 183.872C88.104 184.064 86.824 184.176 85.016 184.176C82.264 184.176 80.936 183.2 80.936 181.552C80.936 180.928 81.032 180.288 81.208 179.472L83.048 179.648ZM79.304 171.744C79.176 172.08 78.968 172.88 78.904 173.168C78.696 174.24 78.136 177.44 78.136 179.04C78.136 179.344 78.152 179.76 78.2 180.08C78.44 179.536 78.696 178.976 78.92 178.448L79.912 179.232C79.464 180.56 78.936 182.304 78.76 183.152C78.712 183.392 78.68 183.744 78.68 183.904C78.68 184.08 78.696 184.336 78.712 184.56L76.856 184.688C76.536 183.584 76.232 181.632 76.232 179.456C76.232 177.056 76.728 174.352 76.904 173.12C76.952 172.672 77.048 172.064 77.064 171.552L79.304 171.744ZM102.776 175.84V173.792H101.56V175.84H102.776ZM102.776 179.568V177.536H101.56V179.568H102.776ZM96.056 177.536V179.568H97.208V177.536H96.056ZM99.976 177.536H98.792V179.568H99.976V177.536ZM98.792 175.84H99.976V173.792H98.792V175.84ZM96.056 173.792V175.84H97.208V173.792H96.056ZM94.376 175.84V174.688C94.056 174.992 93.752 175.28 93.432 175.52C93.08 175.184 92.312 174.576 91.88 174.272C93.224 173.392 94.488 171.936 95.192 170.448L97.048 170.992C96.872 171.376 96.664 171.744 96.424 172.112H106.024V173.792H104.52V175.84H106.6V177.536H104.52V179.568H106.376V181.264H92.472V179.568H94.376V177.536H92.232V175.84H94.376ZM93.88 185.408L92.072 184.672C92.776 184 93.496 182.768 93.864 181.6L95.704 182.048C95.352 183.264 94.664 184.576 93.88 185.408ZM96.728 182.16L98.488 181.952C98.68 182.928 98.872 184.192 98.888 184.944L97.032 185.216C97.032 184.448 96.904 183.136 96.728 182.16ZM99.896 182.192L101.688 181.888C102.072 182.832 102.472 184.08 102.616 184.864L100.712 185.232C100.616 184.464 100.248 183.168 99.896 182.192ZM103.064 182.112L104.888 181.536C105.608 182.512 106.504 183.856 106.904 184.736L104.952 185.392C104.616 184.544 103.768 183.136 103.064 182.112ZM113.944 180.4L114.264 182.192C112.504 182.816 110.584 183.424 109.048 183.92L108.616 181.984C109.176 181.84 109.832 181.664 110.568 181.456V177.696H108.952V175.952H110.568V173.136H108.808V171.36H114.088V173.136H112.376V175.952H113.816V177.696H112.376V180.896C112.904 180.736 113.432 180.576 113.944 180.4ZM116.408 175.568V176.944H118.056V175.568H116.408ZM116.408 172.736V174.08H118.056V172.736H116.408ZM121.24 174.08V172.736H119.656V174.08H121.24ZM121.24 176.944V175.568H119.656V176.944H121.24ZM119.832 183.168H123.768V184.896H113.48V183.168H117.896V181.648H114.584V179.936H117.896V178.56H114.696V171.12H123.048V178.56H119.832V179.936H123.224V181.648H119.832V183.168ZM132.552 171.12C132.424 171.632 132.216 172.448 131.976 173.312C132.76 173.168 133.512 172.992 134.136 172.8L134.2 174.656C133.464 174.848 132.472 175.056 131.4 175.216C130.632 177.456 129.272 180.256 127.976 182.064L126.04 181.072C127.304 179.504 128.6 177.152 129.304 175.424C129.016 175.44 128.744 175.44 128.472 175.44C127.816 175.44 127.16 175.424 126.472 175.376L126.328 173.52C127.016 173.6 127.864 173.632 128.456 173.632C128.936 173.632 129.416 173.616 129.912 173.568C130.136 172.688 130.312 171.728 130.344 170.896L132.552 171.12ZM131.72 182.192C131.72 182.784 132.216 183.184 133.096 183.184C134.2 183.184 134.536 182.576 134.536 181.696C134.536 181.6 134.536 181.504 134.536 181.376C134.12 181.28 133.688 181.216 133.24 181.216C132.312 181.216 131.72 181.632 131.72 182.192ZM136.296 176.096C136.248 176.768 136.28 177.44 136.296 178.144C136.312 178.608 136.36 179.376 136.392 180.176C137.768 180.688 138.888 181.488 139.704 182.224L138.632 183.936C138.072 183.424 137.352 182.752 136.472 182.224C136.472 182.272 136.472 182.336 136.472 182.384C136.472 183.872 135.656 185.024 133.384 185.024C131.4 185.024 129.832 184.144 129.832 182.384C129.832 180.816 131.144 179.616 133.368 179.616C133.752 179.616 134.104 179.648 134.472 179.68C134.408 178.496 134.328 177.072 134.296 176.096H136.296ZM139.048 176.944C138.12 176.208 136.296 175.168 135.208 174.672L136.232 173.088C137.384 173.584 139.368 174.672 140.184 175.264L139.048 176.944ZM153.64 183.248V181.856H146.136V183.248H153.64ZM147.432 176.736V177.856H152.184V176.736H147.432ZM154.024 179.248H150.648C150.52 179.6 150.376 179.92 150.232 180.224H155.528V185.424H153.64V184.896H146.136V185.424H144.328V180.224H148.344C148.424 179.904 148.52 179.568 148.584 179.248H145.672V175.328H154.024V179.248ZM154.44 172.928H156.68V176.336H154.84V174.544H144.84V176.336H143.096V172.928H145.048C144.76 172.416 144.36 171.84 143.992 171.376L145.64 170.656C146.168 171.264 146.792 172.112 147.064 172.704L146.552 172.928H149.016C148.792 172.352 148.36 171.568 147.976 170.96L149.64 170.4C150.104 171.024 150.632 171.936 150.856 172.512L149.736 172.928H152.36C152.872 172.24 153.48 171.28 153.784 170.512L155.832 171.152C155.368 171.76 154.888 172.4 154.44 172.928ZM168.568 174.608H164.744C164.968 175.024 165.176 175.504 165.288 175.84L165.016 175.888H168.008C168.2 175.504 168.392 175.04 168.568 174.608ZM173.736 181.744H169.096C170.456 182.576 172.312 183.2 174.168 183.488C173.736 183.904 173.176 184.704 172.888 185.216C170.92 184.72 168.984 183.76 167.512 182.512V185.392H165.64V182.608C164.152 183.776 162.184 184.704 160.28 185.2C160.008 184.736 159.464 184 159.064 183.616C160.856 183.248 162.744 182.576 164.12 181.744H159.528V180.176H165.64V179.472H161.032V178.096H165.64V177.376H160.232V175.888H163.272C163.144 175.488 162.936 175.008 162.728 174.64L162.92 174.608H159.576V173.056H161.72C161.496 172.448 161.08 171.68 160.728 171.072L162.36 170.512C162.824 171.2 163.352 172.144 163.576 172.768L162.792 173.056H164.248V170.448H166.024V173.056H167.208V170.448H169V173.056H170.424L169.848 172.88C170.232 172.224 170.632 171.264 170.856 170.56L172.856 171.04C172.408 171.776 171.976 172.496 171.608 173.056H173.688V174.608H170.68C170.424 175.072 170.168 175.504 169.928 175.888H173.064V177.376H167.512V178.096H172.312V179.472H167.512V180.176H173.736V181.744ZM182.984 181.92C182.984 182.576 183.624 182.848 184.472 182.848C185.448 182.848 185.784 182.336 185.784 181.392C185.784 181.312 185.784 181.216 185.784 181.104C185.368 180.992 184.936 180.928 184.504 180.928C183.592 180.928 182.984 181.312 182.984 181.92ZM187.736 171.472C187.688 171.776 187.656 172.16 187.64 172.512C187.624 172.864 187.608 173.456 187.592 174.16C188.472 174.08 189.304 173.952 190.072 173.792V175.792C189.304 175.904 188.472 176 187.592 176.064C187.624 177.616 187.704 178.896 187.768 179.984C189.096 180.528 190.104 181.344 190.872 182.048L189.768 183.728C189.096 183.104 188.456 182.544 187.816 182.112C187.72 183.648 186.856 184.736 184.696 184.736C182.488 184.736 181.112 183.808 181.112 182.128C181.112 180.512 182.488 179.392 184.664 179.392C185.032 179.392 185.384 179.408 185.704 179.456C185.672 178.464 185.608 177.296 185.592 176.16C185.208 176.176 184.824 176.176 184.456 176.176C183.512 176.176 182.6 176.144 181.656 176.08V174.176C182.568 174.272 183.496 174.32 184.456 174.32C184.824 174.32 185.208 174.32 185.576 174.304C185.576 173.52 185.56 172.864 185.56 172.528C185.56 172.288 185.512 171.792 185.448 171.472H187.736ZM179.928 171.648C179.8 171.968 179.608 172.784 179.56 173.072C179.32 174.144 178.792 177.664 178.792 179.264C178.792 179.584 178.808 179.984 178.856 180.304C179.064 179.744 179.336 179.2 179.576 178.656L180.552 179.456C180.104 180.768 179.592 182.4 179.4 183.264C179.352 183.488 179.32 183.84 179.32 184.016C179.32 184.176 179.336 184.448 179.352 184.672L177.544 184.816C177.208 183.696 176.904 181.872 176.904 179.696C176.904 177.28 177.384 174.256 177.56 173.024C177.624 172.576 177.704 171.968 177.72 171.456L179.928 171.648ZM207.128 171.36V173.168H199.352V171.36H207.128ZM196.28 170.448L198.12 171.2C196.968 172.704 195.24 174.352 193.72 175.408C193.48 174.992 193 174.224 192.664 173.856C193.992 173.008 195.512 171.568 196.28 170.448ZM196.888 173.904L198.712 174.608C198.232 175.424 197.64 176.256 197 177.056V185.408H195.096V179.152C194.648 179.584 194.216 179.984 193.784 180.336C193.512 179.952 192.872 179.088 192.488 178.688C194.12 177.568 195.864 175.712 196.888 173.904ZM207.528 175.76V177.568H205.336V183.184C205.336 184.208 205.144 184.736 204.44 185.024C203.768 185.312 202.744 185.344 201.32 185.344C201.24 184.784 201 183.968 200.744 183.408C201.656 183.456 202.712 183.456 203 183.44C203.288 183.44 203.4 183.376 203.4 183.136V177.568H198.68V175.76H207.528ZM213.16 172.56C213.048 173.136 212.968 174.064 212.968 174.512C212.952 175.552 212.968 176.752 213.064 177.904C213.288 180.208 213.768 181.792 214.776 181.792C215.528 181.792 216.168 179.92 216.472 178.64L218.072 180.592C217.016 183.376 216.008 184.352 214.728 184.352C212.968 184.352 211.448 182.768 211 178.48C210.84 177.008 210.824 175.136 210.824 174.16C210.824 173.712 210.792 173.024 210.696 172.528L213.16 172.56ZM221.16 172.928C222.68 174.768 223.896 178.768 224.072 181.216L221.976 182.032C221.72 179.456 220.872 175.568 219.128 173.584L221.16 172.928ZM230.344 182.192C230.344 182.8 230.92 183.168 232.024 183.168C232.872 183.168 233.432 182.928 233.432 182C233.432 181.824 233.432 181.6 233.416 181.312C232.984 181.248 232.552 181.2 232.104 181.2C230.968 181.2 230.344 181.648 230.344 182.192ZM235.352 171.056C235.304 171.376 235.272 171.776 235.256 172.192C235.24 172.352 235.24 172.592 235.24 172.848C236.552 172.784 237.88 172.656 239.288 172.416L239.272 174.256C238.216 174.384 236.76 174.528 235.208 174.608C235.208 175.168 235.208 175.76 235.208 176.256C236.824 176.176 238.184 176.048 239.48 175.872L239.464 177.76C238.024 177.92 236.776 178.032 235.24 178.08C235.272 178.688 235.304 179.344 235.352 179.984C237.368 180.56 238.904 181.632 239.832 182.4L238.68 184.192C237.816 183.392 236.728 182.544 235.448 181.968C235.464 182.192 235.464 182.384 235.464 182.56C235.464 183.92 234.424 184.976 232.312 184.976C229.752 184.976 228.408 184 228.408 182.304C228.408 180.688 229.896 179.552 232.36 179.552C232.696 179.552 233.032 179.568 233.352 179.6C233.32 179.104 233.304 178.592 233.288 178.112C233.016 178.112 232.744 178.112 232.456 178.112C231.528 178.112 229.704 178.032 228.648 177.904L228.632 176.016C229.672 176.208 231.64 176.32 232.488 176.32C232.744 176.32 233 176.32 233.256 176.32C233.256 175.792 233.256 175.216 233.272 174.672C233.064 174.672 232.872 174.672 232.68 174.672C231.672 174.672 229.816 174.528 228.76 174.384L228.712 172.56C229.864 172.752 231.688 172.912 232.664 172.912C232.872 172.912 233.08 172.912 233.288 172.912C233.288 172.608 233.288 172.352 233.288 172.16C233.288 171.856 233.256 171.36 233.192 171.056H235.352ZM254.356 171.44C254.324 171.696 254.276 172.4 254.26 172.832C254.244 173.456 254.244 174.032 254.228 174.56C254.66 174.528 255.06 174.496 255.428 174.48C255.876 174.448 256.5 174.416 256.964 174.368V176.336C256.692 176.32 255.844 176.336 255.428 176.352C255.076 176.368 254.66 176.384 254.196 176.416C254.148 177.632 254.084 178.944 253.956 179.616C253.78 180.464 253.38 180.672 252.564 180.672C251.988 180.672 250.708 180.512 250.148 180.432L250.196 178.656C250.692 178.768 251.348 178.864 251.668 178.864C251.988 178.864 252.132 178.8 252.164 178.496C252.228 178.064 252.276 177.328 252.292 176.56C250.868 176.672 249.3 176.816 247.94 176.96C247.924 178.432 247.908 179.904 247.94 180.592C247.972 182.16 248.116 182.512 250.516 182.512C252.084 182.512 254.1 182.32 255.3 182.112L255.22 184.288C254.148 184.416 252.18 184.544 250.66 184.544C246.516 184.544 246.02 183.68 245.94 180.912C245.924 180.224 245.924 178.672 245.924 177.184C245.492 177.232 245.124 177.264 244.852 177.296C244.34 177.36 243.348 177.52 242.932 177.584L242.708 175.536C243.172 175.536 243.908 175.504 244.724 175.424C245.012 175.392 245.428 175.36 245.94 175.312C245.94 174.56 245.94 173.968 245.94 173.696C245.94 173.04 245.892 172.496 245.812 171.92H248.068C247.988 172.464 247.972 172.912 247.972 173.584C247.972 173.952 247.956 174.496 247.956 175.12C249.316 174.992 250.868 174.848 252.324 174.72V172.912C252.324 172.512 252.26 171.76 252.212 171.44H254.356ZM268.148 172.112C267.988 172.336 267.812 172.608 267.636 172.864C266.852 174.016 265.732 176.064 264.932 177.472C265.524 177.136 266.164 176.992 266.772 176.992C267.972 176.992 268.692 177.744 268.756 179.072C268.788 179.792 268.74 181.072 268.82 181.744C268.884 182.368 269.332 182.608 269.86 182.608C271.252 182.608 272.1 180.816 272.564 178.832L274.292 180.24C273.46 182.976 271.972 184.8 269.524 184.8C267.748 184.8 266.916 183.744 266.852 182.576C266.788 181.728 266.804 180.416 266.756 179.76C266.708 179.2 266.388 178.864 265.812 178.864C264.724 178.864 263.828 179.984 263.252 181.28C262.836 182.208 262.276 184 262.036 184.848L259.78 184.08C260.964 180.88 264.244 174.352 265.092 172.832C265.3 172.4 265.604 171.872 265.876 171.2L268.148 172.112Z" fill="#3A3A3A"/>
<line x1="13.5" y1="45" x2="13.5" y2="177" stroke="#666666"/>
<line x1="13" y1="79.5" x2="29" y2="79.5" stroke="#666666"/>
<line x1="13" y1="126.5" x2="29" y2="126.5" stroke="#666666"/>
<line x1="13" y1="176.5" x2="29" y2="176.5" stroke="#666666"/>
</svg>
