<svg width="351" height="43" viewBox="0 0 351 43" fill="none" xmlns="http://www.w3.org/2000/svg">
<path d="M20.8089 1.62793H16.5314V12.6945L20.8089 10.1828V1.62793ZM14.5525 1.62793H10.2903V16.3935L14.5525 13.8818V1.62793ZM31.5405 3.85037L26.9739 6.54471V10.5634H22.7269V9.05638L20.8089 10.198V17.4286H16.5314V12.7097L14.5373 13.8818V27.323H10.2751V16.3935L2.54221 20.9449C5.32787 26.4402 11.021 30.2 17.5818 30.2C26.8978 30.2 34.4328 22.665 34.4328 13.349C34.4328 9.81749 33.3672 6.55993 31.5101 3.85037M26.9434 1.62793H22.6964V9.05638L26.9434 6.52949V1.62793Z" fill="#DD5A00"/>
<path d="M6.04322 4.24553C6.04322 5.91998 4.68845 7.25953 3.014 7.25953C1.33956 7.25953 0 5.91998 0 4.24553C0 2.57109 1.35478 1.21631 3.014 1.21631C4.67322 1.21631 6.04322 2.57109 6.04322 4.23031V4.24553Z" fill="#DD5A00"/>
<path d="M6.49966 33.9895V32.7261H0.121552V42.1791L1.43066 42.24V38.0843H5.66244V36.897L1.50677 36.8209V34.1265L6.49966 33.9895Z" fill="#3A3A3A"/>
<path d="M14.2022 32.818H15.4656V38.2523C15.4656 39.1961 15.3591 39.9572 15.146 40.5052C14.9329 41.0684 14.5371 41.5251 13.9891 41.86C13.4259 42.2101 12.68 42.3927 11.7666 42.3927C10.8533 42.3927 10.1531 42.2405 9.58986 41.9208C9.02663 41.6164 8.61563 41.1902 8.37208 40.6117C8.14374 40.0333 8.00674 39.2417 8.00674 38.2523V32.818H9.27019V38.2523C9.27019 39.0591 9.3463 39.668 9.49852 40.0637C9.65074 40.4443 9.90952 40.7487 10.2749 40.9466C10.6554 41.1445 11.1121 41.2663 11.6449 41.2663C12.5582 41.2663 13.228 41.0532 13.6085 40.627C13.9891 40.216 14.187 39.4244 14.187 38.2371V32.8027L14.2022 32.818Z" fill="#3A3A3A"/>
<path d="M16.6985 39.2108H18.0076C18.0381 39.9415 18.0533 40.6113 18.2968 40.8701C18.5404 41.1288 18.8905 41.2658 19.3472 41.2658C19.6668 41.2658 19.9561 41.1897 20.1996 41.0527C20.4432 40.9157 20.6106 40.7178 20.6867 40.4591C20.7781 40.2155 20.7476 39.8045 20.7476 39.2413V32.7109H22.0567V39.1195C22.0567 39.9111 21.9806 40.6722 21.7979 41.1136C21.5848 41.5398 21.2347 41.8138 20.7933 42.0422C20.3518 42.2705 19.7734 42.2857 19.1797 42.2857C18.2968 42.2857 17.6271 41.9508 17.2008 41.4485C16.5615 40.6874 16.6833 39.1804 16.6833 39.1804L16.6985 39.2108Z" fill="#3A3A3A"/>
<path d="M25.2991 32.8179H23.9291V42.1034H25.2991V32.8179Z" fill="#3A3A3A"/>
<path d="M26.3648 42.1639L29.4245 37.7494L29.4549 37.2775L26.3496 32.7261H27.8109L29.5006 35.1464C29.8507 35.6335 30.0942 36.0141 30.2312 36.2729C30.4444 35.938 30.7031 35.5726 30.9924 35.2073L32.8342 32.7261H34.189L31.0837 37.2775V37.719L34.1281 42.1639H32.6668C32.6668 42.1639 30.3987 38.678 30.2769 38.4953C30.079 38.7845 27.8566 42.1639 27.8566 42.1639H26.38H26.3648Z" fill="#3A3A3A"/>
<path d="M140.79 25.4503C137.624 25.4046 103.207 25.5873 103.207 25.5873C103.207 25.5873 101.715 25.2524 101.669 27.1095C101.608 29.8799 101.745 39.9875 101.745 39.9875C101.745 39.9875 101.456 41.6924 102.948 41.6924L142.145 41.6163C142.145 41.6163 143.515 41.8751 143.515 40.292C143.515 37.6585 143.546 27.7032 143.546 27.7032C143.546 27.7032 143.469 25.4807 140.79 25.4351M117.576 36.4103C117.592 37.6128 117.044 37.4758 117.044 37.4758C117.044 37.4758 109.159 37.4454 107.971 37.4454C107.043 37.4454 107.134 36.8213 107.149 36.4103C107.164 35.5731 107.941 35.7557 107.941 35.7557C107.941 35.7557 116.146 35.6796 116.952 35.6948C117.713 35.7101 117.561 36.4103 117.561 36.4103M117.561 30.5497C117.576 31.7371 117.028 31.6001 117.028 31.6001C117.028 31.6001 109.143 31.5544 107.956 31.5544C107.027 31.5544 107.119 30.9303 107.134 30.5345C107.149 29.6821 107.926 29.8647 107.926 29.8647C107.926 29.8647 116.13 29.7886 116.937 29.8038C117.698 29.8343 117.546 30.5345 117.546 30.5345M134.686 37.3236C133.545 37.3693 126.375 37.3541 126.375 37.3541C126.375 37.3541 125.751 37.415 125.751 36.9126V36.1515C125.751 36.1515 125.72 35.7557 126.512 35.7862H133.179C133.179 35.7862 134.351 35.7557 134.458 34.5075C134.534 33.5637 134.458 32.3764 134.458 32.3764C134.458 32.3764 134.336 31.4174 132.768 31.4478C131.368 31.4478 126.116 31.4478 126.116 31.4478C126.116 31.4478 125.751 31.4783 125.72 31.1738C125.644 30.6867 125.69 30.3214 125.69 30.3214C125.69 30.3214 125.933 29.7886 126.573 29.8191C127.303 29.8647 134.458 29.8191 134.458 29.8191C134.458 29.8191 135.904 29.8647 135.95 30.9455C135.98 32.0111 135.965 36.3342 135.965 36.3342C135.965 36.3342 136.071 37.3236 134.671 37.3388L134.686 37.3236Z" fill="#3A3A3A"/>
<path d="M137.548 15.7541C137.548 15.7541 137.609 14.3689 136.148 14.3689C134.047 14.3689 108.535 14.5059 108.535 14.5059C108.535 14.5059 107.256 14.2623 107.256 16.1956V23.0456C107.256 23.0456 107.378 23.8523 108.458 23.8523L136.772 23.7458C136.772 23.7458 137.579 23.9589 137.579 22.7107C137.579 20.7775 137.548 15.7389 137.548 15.7389M130.987 20.2447H113.664C113.664 20.2447 112.766 20.1533 112.766 19.2857C112.766 18.418 113.664 18.3115 113.664 18.3115C113.664 18.3115 130.028 18.2201 130.729 18.2201C131.429 18.2201 132.144 18.555 132.129 19.1943C132.129 20.199 130.987 20.2447 130.987 20.2447Z" fill="#3A3A3A"/>
<path d="M108.823 12.6931L135.904 12.7844C135.904 12.7844 137.67 12.7844 137.578 10.8512C137.487 8.91796 135.904 8.65918 135.904 8.65918L108.732 8.75051C108.732 8.75051 107.149 8.4004 107.149 10.5924C107.149 13.3172 108.823 12.7083 108.823 12.7083" fill="#3A3A3A"/>
<path d="M105.917 13.2249C105.917 13.2249 106.099 14.6253 104.516 14.6253H100.208C100.208 14.6253 98.8839 14.7167 98.8839 13.3162V4.44166C98.8839 4.44166 98.8078 3.07166 100.376 3.07166C101.944 3.07166 116.724 3.11732 116.724 3.11732C116.724 3.11732 118.307 3.11732 118.307 2.15832C118.384 1.62555 118.216 1.10799 119.708 1.10799H125.249C125.249 1.10799 126.482 1.01666 126.573 1.99088C126.68 2.8281 126.817 3.11732 127.456 3.11732C128.339 3.11732 144.505 3.02599 144.505 3.02599C144.505 3.02599 145.997 3.28477 145.997 4.44166C145.997 5.59855 146.088 12.4333 146.088 12.4333C146.088 12.4333 145.479 14.7167 142.83 14.7167C140.182 14.7167 138.873 13.1335 138.873 12.5247V8.3081C138.873 8.3081 139.055 7.16644 137.29 7.16644C135.524 7.16644 107.743 7.24255 107.743 7.24255C107.743 7.24255 105.901 7.33388 105.901 8.91699V13.2249H105.917Z" fill="#3A3A3A"/>
<path d="M169.165 32.1619L169.073 16.483C169.073 16.483 169.073 15.0826 167.597 15.0826H152.192C152.192 15.0826 150.198 15.3566 150.198 13.88V9.72434C150.198 9.72434 150.106 8.24778 151.583 8.24778H167.855C167.855 8.24778 168.997 7.98901 168.997 6.77123V2.372C168.997 2.372 168.997 0.910669 170.291 0.910669C171.585 0.910669 175.39 0.819336 175.39 0.819336C175.39 0.819336 177.034 0.910669 177.034 2.20456C177.034 3.49845 176.943 7.31923 176.943 7.31923C176.943 7.31923 177.217 8.00423 178.252 8.00423H195.575C195.575 8.00423 197.737 8.35434 197.737 10.3484C197.737 12.3426 197.645 12.8601 197.645 12.8601C197.645 12.8601 197.387 14.839 195.484 14.9303C193.581 15.0217 178.511 15.0217 178.511 15.0217C178.511 15.0217 176.867 15.3566 176.776 16.4069C176.684 17.442 176.684 33.6385 176.684 33.6385C176.684 33.6385 177.293 34.7649 178.161 34.7649H193.84C193.84 34.7649 196.26 34.5975 196.26 36.8351V39.088C196.26 39.088 196.093 41.417 194.281 41.417C192.47 41.417 153.136 41.5084 153.136 41.5084C153.136 41.5084 151.918 41.7671 151.826 40.732C151.75 39.6817 151.826 36.1349 151.826 36.1349C151.826 36.1349 151.75 34.6736 153.044 34.6736H167.505C167.505 34.6736 169.149 34.9323 169.149 32.1619H169.165Z" fill="#3A3A3A"/>
<path d="M219.565 10.2733C219.565 10.2733 219.718 9.35994 218.561 9.39038C217.145 9.42083 204.845 9.40561 204.845 9.40561C204.845 9.40561 203.11 9.48172 203.186 7.98994C203.278 6.48294 203.186 3.34716 203.186 3.34716C203.186 3.34716 203.186 2.25116 204.526 2.25116C205.865 2.25116 244.134 2.17505 244.134 2.17505C244.134 2.17505 246.356 2.49472 246.417 3.74294C246.493 5.00638 246.417 7.28972 246.417 7.28972C246.417 7.28972 246.174 9.17727 244.286 9.17727C242.399 9.17727 228.349 9.14683 228.349 9.14683C228.349 9.14683 227.466 9.22294 227.435 9.96883C227.466 10.7604 227.603 33.7612 227.603 33.7612C227.603 33.7612 227.633 34.1265 228.272 34.1265C229.231 34.0961 246.646 34.1265 246.646 34.1265C246.646 34.1265 248.472 34.3853 248.548 36.1206C248.625 37.8559 248.548 39.2259 248.548 39.2259C248.548 39.2259 248.061 41.2809 246.098 41.2809C244.134 41.2809 202.806 41.3875 202.806 41.3875C202.806 41.3875 201.314 41.5549 201.314 40.2763V35.4052C201.314 35.4052 201.162 34.2331 202.806 34.2331C204.45 34.2331 219.033 34.1569 219.033 34.1569C219.033 34.1569 219.733 34.2331 219.657 33.5176C219.581 32.8022 219.581 10.2885 219.581 10.2885L219.565 10.2733Z" fill="#3A3A3A"/>
<path d="M270.758 9.99894L252.902 10.0294C252.902 10.0294 251.243 10.3795 251.319 8.72027C251.38 7.07627 250.954 5.91938 253.039 5.84327C255.125 5.78238 258.504 5.84327 258.504 5.84327C258.504 5.84327 259.585 6.05638 258.869 5.41705C258.154 4.76249 257.347 3.75782 258.215 2.61616C259.082 1.45927 260.148 0.591602 260.148 0.591602C260.148 0.591602 261.305 -0.047732 262.233 0.743824C263.177 1.52016 265.613 3.89482 265.613 3.89482C265.613 3.89482 266.465 4.9756 266.465 3.7426C266.465 2.5096 266.115 0.65249 268.627 0.65249C271.138 0.65249 272.737 0.576379 272.737 0.576379C272.737 0.576379 273.955 0.439379 273.955 2.95105V5.96505H276.04V2.76838C276.04 2.76838 275.979 0.606824 277.334 0.606824H281.946C281.946 0.606824 283.453 0.469824 283.59 2.26605C283.742 4.07749 283.529 5.00605 284.519 4.07749C285.523 3.13371 288.187 0.759046 288.187 0.759046C288.187 0.759046 288.979 -0.397843 290.349 0.759046C291.719 1.91594 292.297 2.69227 292.297 2.69227C292.297 2.69227 292.952 3.91005 292.084 4.64071C291.217 5.35616 290.577 5.7976 291.932 5.7976C293.287 5.7976 296.179 5.72149 296.179 5.72149C296.179 5.72149 298.66 5.72149 298.615 7.80694C298.584 9.60316 297.245 9.96849 296.179 9.96849C295.113 9.96849 279.206 9.89238 279.206 9.89238C279.206 9.89238 278.552 9.83149 278.552 10.8362C278.552 11.8408 278.262 12.7846 279.206 12.7846C280.15 12.7846 294.139 12.7542 294.139 12.7542C294.139 12.7542 295.829 12.7846 295.829 14.5808C295.829 16.3771 295.387 16.7881 294.231 16.7881C293.074 16.7881 278.993 16.8185 278.993 16.8185L278.567 17.1686V18.5386L278.993 18.8126L294.307 18.8887C294.307 18.8887 295.829 18.5995 295.829 20.6088C295.829 22.6182 294.961 22.7704 294.17 22.8465C293.378 22.9226 278.78 22.8465 278.78 22.8465L278.491 23.1966V24.3535L278.78 24.6427L296.91 24.4905C296.91 24.4905 298.63 24.8406 298.63 26.4998C298.63 28.1591 298.127 28.7375 296.91 28.7984C295.692 28.8593 287.061 28.7375 287.061 28.7375C287.061 28.7375 286.132 28.8745 287.35 29.6052C288.568 30.3206 290.866 32.0559 290.866 32.0559C290.866 32.0559 293.591 33.4107 295.403 33.9131C296.483 34.2784 297.93 34.9177 297.99 36.577C298.051 38.2362 297.336 41.1741 293.454 40.3216C290.729 39.2408 284.534 37.3685 279.358 31.0513C279.221 30.7621 278.491 30.3358 278.491 31.3253V39.4539C278.491 39.4539 278.567 41.5394 276.055 41.5394H273.544C273.544 41.5394 271.017 41.6155 271.017 39.5301C271.017 37.4446 270.941 30.5337 270.941 30.5337C270.941 30.5337 271.154 29.3768 270.149 30.7468C269.144 32.1168 264.608 37.0793 259.006 39.3778C257.712 39.9563 253.1 42.8181 251.745 37.7186C251.882 36.4856 251.608 35.1917 254.394 34.0501C255.627 33.6238 260.803 31.3101 262.31 29.5291C262.736 29.2246 262.888 29.0115 261.731 29.0115C260.574 29.0115 253.252 29.0876 253.252 29.0876C253.252 29.0876 251.243 29.6661 251.243 26.7129C251.304 24.3687 253.07 24.6732 253.07 24.6732L270.59 24.6275L270.88 24.3383L270.941 23.1205L270.743 22.8313L255.581 22.7399C255.581 22.7399 254.059 23.1814 254.059 21.0959C254.059 19.0105 254.638 18.7213 255.505 18.7213H270.453L270.956 18.4321V17.1991L270.393 16.9098L255.277 16.9859C255.277 16.9859 254.059 17.0773 254.059 14.9005C254.059 12.7237 254.82 12.7085 255.262 12.7085C255.703 12.7085 270.667 12.7389 270.667 12.7389L270.956 12.4497L271.032 10.4404" fill="#3A3A3A"/>
<path d="M325.771 11.8245C325.771 11.8245 325.679 10.3022 323.898 10.3022C322.117 10.3022 306.652 10.3022 306.652 10.3022C306.652 10.3022 305.099 10.4697 305.099 11.9767V27.412C305.099 27.412 304.84 31.0501 302.618 36.728C302.344 37.4435 301.461 39.5594 303.333 40.0921C305.008 40.7315 306.515 41.249 306.515 41.249C306.515 41.249 307.763 41.5991 308.296 40.4423C308.828 39.2854 311.401 30.4108 311.401 30.4108L311.584 27.5034L312.192 27.412L324.264 27.3207C324.264 27.3207 325.725 27.3816 325.816 25.6006C325.908 23.8196 325.771 11.8092 325.771 11.8092M319.91 20.4859C319.834 21.4601 318.038 21.8255 318.038 21.8255H311.66V15.9649H318.586C319.469 15.9649 320.002 17.3958 320.002 17.3958C320.002 17.3958 320.002 19.5269 319.925 20.5011L319.91 20.4859Z" fill="#3A3A3A"/>
<path d="M304.931 7.99014H323.913C323.913 7.99014 326.303 7.91402 326.303 5.60025C326.303 3.28647 325.679 2.05347 323.913 2.05347H304.749C304.749 2.05347 303.409 2.23613 303.409 3.74313V6.6658C303.409 6.6658 303.333 7.91402 304.931 7.99014Z" fill="#3A3A3A"/>
<path d="M334.721 12.8763H348.589C348.589 12.8763 350.781 13.3177 350.781 15.7076C350.781 18.0975 349.822 18.8129 348.482 18.8129H345.909L345.544 19.1783V39.4847C345.544 39.4847 345.194 41.4331 342.256 41.4331C339.318 41.4331 338.801 39.7587 338.877 39.1346V18.9956H334.706V29.1945C334.706 29.1945 334.706 30.6101 333.823 31.767C332.94 32.9239 324.964 40.8243 324.964 40.8243C324.964 40.8243 323.639 42.2551 321.858 40.5655C320.077 38.8758 318.936 37.4601 320.351 35.8618C321.767 34.2635 327.003 28.753 327.003 28.753C327.003 28.753 327.551 28.4943 327.628 26.287C327.719 24.0646 327.795 7.74636 327.795 7.74636C327.795 7.74636 327.719 4.44314 331.357 3.57547C334.995 2.69258 345.103 0.652801 345.103 0.652801C345.103 0.652801 348.649 -0.230088 349.015 2.96658C349.274 5.00636 349.639 6.60469 347.949 7.32014C346.077 7.76158 335.254 9.80136 335.254 9.80136L334.721 10.2428V12.9067V12.8763Z" fill="#3A3A3A"/>
<path d="M67.3581 12.1897C67.4342 11.5656 67.4342 11.7635 67.4342 11.7635H70.844V8.81036H66.4904V6.80102L70.5243 6.83147V3.96969H66.4904V1.53413H63.6591V3.96969L62.2891 3.93924L62.8371 2.08213L59.9906 2.11258C59.9906 2.11258 59.9906 4.48724 59.1229 5.76591L58.7271 5.84202L58.6814 4.74602H56.8243L56.7939 1.41235H54.0539V4.71558H51.527V7.27291H53.8256V8.06447C53.8256 8.06447 52.5621 12.2506 51.3596 13.2248C51.527 14.4121 52.075 17.0151 52.075 17.0151C52.075 17.0151 53.0949 15.8278 53.7342 13.8489C53.8103 13.5445 54.13 13.1487 54.13 14.1686V20.5771H56.8243L56.7482 12.829H57.144L57.8594 14.9601L59.8383 12.829L59.1229 11.7939H61.9694L62.2891 12.1897C62.2891 12.1897 60.3863 15.4472 58.0117 16.8781C58.9707 18.2938 59.8383 19.7399 59.8383 19.7399C59.8383 19.7399 62.9132 16.5737 63.4003 14.747C63.72 14.747 63.6439 14.747 63.6439 14.747V20.6076H66.4904L66.5666 14.6861L66.7949 14.7318C66.7949 14.7318 68.5454 18.4612 70.1286 19.405C70.9201 17.9894 71.4681 16.1627 71.4681 16.1627C71.4681 16.1627 69.7176 15.2037 67.3429 12.2049M58.7271 8.82558L58.7728 11.322C57.829 10.9262 56.3981 7.83613 56.3981 7.83613L57.0222 7.28813H59.0011L60.1884 8.82558H58.7119M60.5081 8.82558C60.9039 8.65813 61.6193 6.74013 61.6193 6.74013L63.6439 6.69447L63.6743 8.82558C63.6743 8.82558 62.487 8.90169 60.5081 8.82558Z" fill="#3A3A3A"/>
<path d="M72.1535 3.98728V7.1535H82.5351C82.5351 7.1535 83.1896 20.7774 88.2434 20.7774C89.7352 20.7774 91.1356 19.377 91.9272 17.5198C91.501 15.678 90.6181 14.0035 90.6181 14.0035C90.6181 14.0035 87.3453 23.4413 85.7774 7.1535H91.5771V3.98728H90.0853V3.62195H90.7855L89.0198 1.07983L86.295 2.2215L87.6193 3.54584V3.98728H85.7622V1.2625H82.5199V3.98728H72.1383H72.1535Z" fill="#3A3A3A"/>
<path d="M72.5188 8.82717V11.9782H75.7763V17.0015H72.26V20.1677C72.26 20.1677 81.1346 19.5436 82.809 18.7673V16.0273C82.809 16.0273 80.4343 16.9102 79.0339 16.9102C79.0339 14.977 79.1252 11.9782 79.1252 11.9782H82.2001L82.1088 8.73584L72.534 8.82717H72.5188Z" fill="#3A3A3A"/>
<path d="M55.3176 28.9207C55.7895 28.4488 56.0483 28.9207 56.0483 28.9207V29.9101H66.9322V28.7837C66.9322 28.327 66.9322 28.7837 67.267 28.7837C68.1499 29.6818 69.9005 30.1994 69.9005 30.1994C69.9005 30.1994 70.4333 29.2404 71.5749 27.0179C66.3385 25.5718 63.4006 21.8728 63.4006 21.8728H59.6255C58.1033 24.5062 51.3141 27.3376 51.3141 27.3376L53.019 30.2907C53.019 30.2907 54.8761 29.3774 55.3328 28.9207M58.5599 26.8048C59.4124 26.8048 61.2543 24.1409 61.2543 24.1409H61.6196C62.3046 25.5718 64.2835 26.8048 64.2835 26.8048V27.2006H58.5447V26.8048H58.5599Z" fill="#3A3A3A"/>
<path d="M66.9167 34.323H70.6157V31.4155L52.0751 31.4764V34.3839H56.5047L56.8092 34.6731L55.3935 37.9459H52.1664L52.821 41.036L66.932 40.2444L67.6626 41.4926C67.6626 41.4926 70.0677 40.0161 70.3722 40.3053L70.6614 40.0009L66.932 35.0232V34.3077M65.4859 34.6426L63.5679 35.4951L65.0596 36.9716V37.9306H58.7576V37.2L60.1429 34.3686H65.4859V34.6274V34.6426Z" fill="#3A3A3A"/>
<path d="M74.8021 24.7789V21.8105H78.0597V24.7637H80.0995V27.6559C80.0995 27.6559 79.4297 29.5282 78.4098 30.5633C79.4297 31.568 80.617 32.801 81.302 32.801C80.7845 33.3338 79.7494 35.3127 79.7494 35.5714C79.384 35.2061 78.6838 34.5211 78.3032 34.1253H77.9075V41.3254H75.0305L74.9848 34.6581H74.4216L72.7319 35.9977C72.7319 35.9977 72.2752 33.1207 71.9099 32.7401C72.6862 31.9638 76.6592 28.9802 76.6592 28.006C76.6592 27.595 76.7049 27.6407 76.7049 27.6407H72.4275L72.3818 24.7484H74.8021V24.7789Z" fill="#3A3A3A"/>
<path d="M80.4341 27.1083V30.0918H84.1635V37.84H79.5664V40.8235H91.7442V37.8856H87.1927V30.0005H91.181V27.1844H87.2384V21.8718L84.1178 21.8262V27.1083H80.4341Z" fill="#3A3A3A"/>
</svg>
