<svg width="58" height="89" viewBox="0 0 58 89" fill="none" xmlns="http://www.w3.org/2000/svg">
<g clip-path="url(#clip0_254_629)">
<path d="M26.8848 69.9428C26.3829 69.9428 25.9153 69.6837 25.6464 69.2545C24.3842 67.2426 22.7959 65.2828 21.1137 63.2074C19.0338 60.642 16.8831 57.9898 15.2351 55.061C13.3167 51.6515 12.3846 48.3625 12.3846 45.006C12.3846 38.3572 14.7412 32.1 19.0203 27.3878C21.1121 25.0838 23.5514 23.2732 26.2708 22.0065C29.0959 20.6901 32.0976 20.0234 35.1924 20.0234C38.2871 20.0234 41.2888 20.6909 44.1139 22.0065C46.8325 23.2732 49.2719 25.083 51.3644 27.3878C55.6435 32.1008 58.0001 38.3572 58.0001 45.006C58.0001 49.1647 56.7411 53.2664 54.1506 57.5462C51.9427 61.1939 49.0396 64.5159 46.4785 67.4472C45.9146 68.0929 45.3817 68.7026 44.8576 69.3131C44.5864 69.6292 44.1951 69.8145 43.7815 69.8233C41.016 69.8835 38.5615 69.8811 35.9631 69.8795C33.2405 69.8779 30.4258 69.8755 26.9126 69.942C26.9031 69.942 26.8944 69.942 26.8856 69.942L26.8848 69.9428ZM35.1924 22.9796C29.908 22.9796 24.9322 25.2539 21.1821 29.3845C17.3993 33.5504 15.3155 39.0985 15.3155 45.0068C15.3155 51.3884 19.4164 56.4456 23.382 61.3367C24.8654 63.1665 26.3941 65.0509 27.6698 66.9722C30.8378 66.9201 33.4402 66.9217 35.9647 66.9233C38.3412 66.9249 40.596 66.9265 43.0704 66.8808C43.4641 66.4267 43.8634 65.9695 44.2794 65.493C49.3363 59.7058 55.0684 53.1461 55.0684 45.006C55.0684 39.0985 52.9854 33.5504 49.2019 29.3837C45.4517 25.2539 40.4759 22.9788 35.1916 22.9788L35.1924 22.9796Z" fill="#F8C148"/>
<path d="M45.2156 70.6922H25.1693C24.3596 70.6922 23.7042 70.0303 23.7042 69.2145C23.7042 68.3986 24.3604 67.7368 25.1693 67.7368H45.2156C46.0252 67.7368 46.6806 68.3986 46.6806 69.2145C46.6806 70.0303 46.0244 70.6922 45.2156 70.6922Z" fill="#F8C148"/>
<path d="M43.7498 74.6326H26.6344C25.8247 74.6326 25.1693 73.9708 25.1693 73.1549C25.1693 72.3391 25.8255 71.6772 26.6344 71.6772H43.7498C44.5594 71.6772 45.2148 72.3391 45.2148 73.1549C45.2148 73.9708 44.5586 74.6326 43.7498 74.6326Z" fill="#F8C148"/>
<path d="M42.2847 78.5738H28.101C27.2913 78.5738 26.6359 77.9119 26.6359 77.0961C26.6359 76.2802 27.2921 75.6184 28.101 75.6184H42.2847C43.0944 75.6184 43.7497 76.2802 43.7497 77.0961C43.7497 77.9119 43.0936 78.5738 42.2847 78.5738Z" fill="#F8C148"/>
<path d="M35.2004 88.7347C30.1299 88.7347 28.2306 81.9295 28.1519 81.6399C28.0318 81.1955 28.124 80.7198 28.4008 80.354C28.6784 79.9882 29.1087 79.7732 29.5652 79.7732H40.818C41.2745 79.7732 41.704 79.9874 41.9816 80.3524C42.2592 80.7174 42.3514 81.1923 42.2329 81.6367C42.155 81.9263 40.2732 88.7355 35.2004 88.7355V88.7347ZM31.7238 82.7294C32.411 84.1204 33.5714 85.7794 35.2004 85.7794C36.8293 85.7794 37.9833 84.1204 38.6665 82.7294H31.7238Z" fill="#F8C148"/>
<path d="M39.0052 63.7773C38.6274 63.7773 38.2544 63.6056 38.0079 63.2791C37.5895 62.724 37.6961 61.9322 38.2465 61.5102C41.2299 59.2207 43.2374 56.1121 43.6175 53.1937C43.8124 51.6951 43.5579 50.3995 42.9009 49.5452C41.3325 47.5044 37.673 47.3247 35.7785 48.609C35.7315 48.6411 35.6846 48.674 35.6369 48.7101C36.9007 50.0073 37.7772 51.8499 37.941 53.6357C38.0731 55.0765 37.7215 56.348 36.9516 57.2152C36.4569 57.7719 35.7419 58.2155 34.9895 58.4321C34.0716 58.696 33.1927 58.6022 32.5151 58.1674C31.4748 57.4999 30.8647 55.987 30.8401 54.0159C30.8226 52.5687 31.1351 50.8392 31.9432 49.2941C30.4265 48.7775 28.7745 48.9668 28.0269 49.6615C27.3238 50.3145 26.6127 51.9615 26.7129 54.0328C26.8442 56.7499 28.3148 59.3121 30.8544 61.2487C31.4056 61.6691 31.5153 62.4608 31.0978 63.0168C30.681 63.5727 29.896 63.6826 29.3448 63.2622C26.2031 60.8668 24.3801 57.6323 24.2123 54.1547C24.0898 51.6061 24.921 49.1136 26.3304 47.8036C27.3317 46.873 28.8182 46.4037 30.5187 46.4823C31.5487 46.5297 32.5811 46.7864 33.5053 47.2123C33.7734 46.9604 34.0645 46.7262 34.381 46.512C35.9765 45.4306 38.0102 45.0223 40.1068 45.3624C42.1008 45.6857 43.8402 46.646 44.8782 47.9961C45.948 49.3871 46.3814 51.3494 46.0983 53.5202C45.6266 57.1454 43.3169 60.789 39.7608 63.5173C39.5342 63.6914 39.2677 63.7749 39.0037 63.7749L39.0052 63.7773ZM34.0565 50.7004C33.6421 51.5491 33.355 52.6 33.3439 53.8314C33.3303 55.2273 33.7177 55.9372 33.8608 56.0383C34.035 56.1249 34.7167 55.9485 35.0873 55.5313C35.3832 55.1976 35.5152 54.5919 35.4484 53.8683C35.3466 52.7532 34.8137 51.5708 34.0565 50.7004Z" fill="#F8C148"/>
<path d="M25.6973 13.1358C25.5883 13.1358 25.4778 13.1238 25.3672 13.0981C24.5782 12.9152 24.0859 12.1218 24.268 11.326L26.4401 1.80775C26.6215 1.01195 27.4081 0.516181 28.1971 0.699086C28.9861 0.881991 29.4784 1.67538 29.2963 2.47118L27.1242 11.9895C26.9683 12.6737 26.3646 13.1366 25.6973 13.1366V13.1358Z" fill="#F8C148"/>
<path d="M16.5005 14.5572C15.9923 14.5572 15.4984 14.2901 15.2271 13.8136L10.4152 5.33736C10.0128 4.62901 10.2561 3.72571 10.9584 3.3206C11.6607 2.91468 12.5563 3.16015 12.958 3.86851L17.7699 12.3447C18.1724 13.0531 17.929 13.9564 17.2267 14.3615C16.9968 14.4938 16.7471 14.5572 16.4997 14.5572H16.5005Z" fill="#F8C148"/>
<path d="M10.7039 21.8991C10.5584 21.8991 10.4104 21.8774 10.2641 21.8309L1.02597 18.9012C0.253677 18.6565 -0.175023 17.827 0.0675622 17.0481C0.310148 16.2691 1.13255 15.8359 1.90485 16.0814L11.143 19.0103C11.9153 19.255 12.344 20.0845 12.1014 20.8634C11.9049 21.4947 11.3267 21.8983 10.7039 21.8983V21.8991Z" fill="#F8C148"/>
</g>
<defs>
<clipPath id="clip0_254_629">
<rect width="58.0002" height="88.0743" fill="white" transform="translate(0 0.6604)"/>
</clipPath>
</defs>
</svg>
