<svg width="372" height="60" viewBox="0 0 372 60" fill="none" xmlns="http://www.w3.org/2000/svg">
<g filter="url(#filter0_d_268_309)">
<rect width="372" height="56" fill="#F08B1B"/>
</g>
<path d="M38.3373 20.22H45.5373V19.28H48.9373V20.22H55.8973V23.9H53.9173V25.12H40.2173V23.88H38.3373V20.22ZM41.6373 23.24H52.4773V22.46H41.6373V23.24ZM39.1573 30.04H54.9973V34.72C55.0373 36.58 54.3573 37.28 52.5173 37.3H39.1573V30.04ZM42.5573 35.02H45.4173V34.26H42.5573V35.02ZM42.5573 32.7H45.4173V31.92H42.5573V32.7ZM48.7573 35.02H51.6573V34.26H48.7573V35.02ZM48.7573 32.7H51.6573V31.92H48.7573V32.7ZM40.2173 29.54V25.64H53.9173V29.54H40.2173ZM43.4173 27.98H50.4573V27.22H43.4173V27.98ZM67.6562 19.0078H70.7812V24.5156H78.2812V27.7383H70.7812V34.4766H77.4219V37.7773H61.0547V34.4766H67.6562V27.7383H60.2539V24.5156H67.6562V19.0078ZM82.8398 19.6328H99.6953V23.0117H92.8594V33.8125H100.203V37.1328H82.332V33.8125H89.6758V23.0117H82.8398V19.6328ZM104.197 21.36H105.657L104.697 19.4H107.937L108.797 21.36H109.397V19.1H112.597V21.36H113.917V19.1H117.077V21.36H117.737L118.617 19.4H121.977L120.937 21.36H122.317V23.74H118.837L118.377 24.64H121.917V26.82H114.897V27.5H121.597V29.62H114.897V30.36H122.317V32.8H117.297C118.737 33.72 120.517 34.24 122.317 34.22V37.22C118.757 36.84 117.357 36.3 114.897 34.32V37.42H111.557V34.4C109.577 36.16 107.237 37.06 104.197 37.26V34.28C106.197 34.14 107.817 33.66 109.037 32.8H104.197V30.36H111.557V29.62H104.997V27.5H111.557V26.82H104.497V24.64H108.117L107.817 23.74H104.197V21.36ZM111.777 24.64H114.677L115.237 23.74H111.357L111.777 24.64ZM127.037 23.62H134.577V28.74C134.577 30.56 134.057 31.1 132.237 31.14H130.277C130.237 35.06 128.937 36.9 125.897 37.36V33.78C126.817 33.24 127.037 32.72 127.037 31.12V23.62ZM130.277 28.34H131.657V26.38H130.277V28.34ZM126.217 22.46V19.54H135.237V22.46H126.217ZM135.717 28.34V20.28C139.857 19.94 141.037 19.78 143.917 19.28V22.36C142.257 22.64 141.237 22.78 138.857 23.04V24.8H144.397V27.9H143.137V37.34H139.897V27.9H138.817C138.657 32.66 138.477 33.62 137.377 35.06C136.557 36.06 135.477 36.7 133.617 37.28V33.8C135.297 33.22 135.697 32.2 135.717 28.34ZM148.177 22.72V19.58H162.637V22.72H157.217V36H153.597V22.72H148.177ZM182.267 24.78V31.14C182.167 34.56 180.927 35.92 177.807 36H170.927C169.687 36 168.347 35.44 167.727 34.66C167.167 33.98 166.847 32.72 166.847 31.18V24.84C166.967 20.98 168.427 19.56 172.187 19.58H176.927C180.867 19.66 182.247 20.98 182.267 24.78ZM172.447 32.84H176.247C178.247 32.8 178.547 32.48 178.567 30.32V25.48C178.607 23.38 177.967 22.68 176.007 22.72H172.967C170.987 22.78 170.587 23.24 170.547 25.56V30.42C170.467 32.48 170.747 32.82 172.447 32.84ZM187.074 19.58H197.194C200.154 19.5 201.474 20.76 201.514 23.66V27.6C201.494 29.96 200.034 31.14 197.154 31.16H190.654V36H187.074V19.58ZM190.654 27.98H196.034C197.514 27.96 197.854 27.68 197.874 26.42V24.58C197.854 23.22 197.254 22.74 195.554 22.72H190.654V27.98ZM221.303 19.64C222.623 19.64 223.723 20.76 223.723 22.1C223.723 23.48 222.623 24.58 221.263 24.58C219.903 24.58 218.803 23.48 218.803 22.1C218.803 20.74 219.923 19.64 221.303 19.64ZM221.243 21.14C220.723 21.14 220.283 21.58 220.283 22.12C220.283 22.66 220.723 23.1 221.263 23.1C221.803 23.1 222.243 22.66 222.243 22.12C222.243 21.58 221.803 21.14 221.243 21.14ZM205.543 31.92L211.023 20.94H215.403L223.603 36.94H219.463L213.063 24.16L209.463 31.92H205.543ZM228.543 26.7H244.923V30.1H228.543V26.7ZM250.623 36.78V33.4H257.543C262.323 33.38 263.523 32.26 263.603 27.72V22.78H267.183V27.82C267.203 31.28 266.563 33.2 264.843 34.82C263.263 36.28 261.383 36.76 257.083 36.78H250.623ZM259.223 21.74V25.02C255.103 24.2 253.283 23.88 250.723 23.58V20.26C253.603 20.68 255.823 21.06 259.223 21.74ZM259.223 27.3V30.62C255.723 29.9 254.843 29.74 250.723 29.12V25.7L252.203 25.96C256.303 26.66 256.563 26.72 259.223 27.3ZM263.383 19.12H265.263V22.12H263.383V19.12ZM265.883 22.12V19.12H267.763V22.12H265.883ZM271.283 32.06L275.323 23.84L275.743 23.12C276.383 21.86 276.423 21.8 276.863 21.38C277.543 20.76 278.463 20.44 279.643 20.44C280.983 20.44 281.643 20.76 282.483 21.86C283.023 22.58 283.203 22.92 284.163 24.96L289.983 36.92H285.783L280.843 26C280.083 24.36 279.963 24.2 279.423 24.2C278.903 24.2 278.903 24.22 277.903 26.24L275.363 32.06H271.283ZM293.403 37.66V33.72C294.083 33.26 294.423 32.36 294.383 31V22.78H311.223V26.36C311.263 27.54 310.423 28.14 308.803 28.12H305.663V29.12H311.323V31.68H306.463C307.523 33.36 309.323 34.34 311.783 34.58V37.9C308.003 37.48 305.523 36 304.263 33.44C302.923 35.88 300.463 37.36 296.983 37.84V34.8C299.683 34.16 301.003 33.3 301.743 31.68H297.583C297.403 34.94 295.823 37.2 293.403 37.66ZM297.743 29.12H302.303V28.12H297.743V29.12ZM297.743 25.9H307.583V24.94H297.743V25.9ZM293.743 19.72H311.723V22.34H293.743V19.72ZM325.663 23.06L318.563 23.18V20.12H330.883V23.06L326.203 25.88C327.143 25.76 327.503 25.74 327.943 25.74C330.883 25.74 333.163 27.94 333.163 30.82C333.163 32.7 332.423 34.44 331.163 35.58C329.763 36.82 327.743 37.42 324.963 37.42C320.723 37.42 318.483 36.14 318.483 33.68C318.483 31.64 320.283 30.06 322.623 30.06C324.883 30.06 326.663 31.48 326.663 33.28C326.663 33.48 326.643 33.82 326.603 34.14C327.883 34 328.503 33.74 328.963 33.12C329.383 32.56 329.623 31.84 329.623 31.06C329.623 29.32 328.403 28.38 326.143 28.38C324.103 28.38 322.343 28.76 320.203 29.7C318.563 30.4 317.823 30.82 316.583 31.76V28.28C316.743 28.16 317.203 27.88 317.243 27.86C317.903 27.5 318.563 27.1 319.223 26.72C319.683 26.46 320.403 26.04 321.183 25.58C323.303 24.32 323.543 24.18 325.663 23.06ZM323.523 34.5L323.683 34.48C323.523 33.42 323.163 32.98 322.403 32.98C321.963 32.98 321.723 33.16 321.723 33.52C321.723 34.08 322.383 34.5 323.263 34.5H323.443H323.523Z" fill="white"/>
<g style="mix-blend-mode:multiply">
<rect y="28" width="372" height="28" fill="#F3F5F8"/>
</g>
<defs>
<filter id="filter0_d_268_309" x="0" y="0" width="372" height="60" filterUnits="userSpaceOnUse" color-interpolation-filters="sRGB">
<feFlood flood-opacity="0" result="BackgroundImageFix"/>
<feColorMatrix in="SourceAlpha" type="matrix" values="0 0 0 0 0 0 0 0 0 0 0 0 0 0 0 0 0 0 127 0" result="hardAlpha"/>
<feOffset dy="4"/>
<feComposite in2="hardAlpha" operator="out"/>
<feColorMatrix type="matrix" values="0 0 0 0 0.866667 0 0 0 0 0.352941 0 0 0 0 0 0 0 0 1 0"/>
<feBlend mode="normal" in2="BackgroundImageFix" result="effect1_dropShadow_268_309"/>
<feBlend mode="normal" in="SourceGraphic" in2="effect1_dropShadow_268_309" result="shape"/>
</filter>
</defs>
</svg>
